%TF.GenerationSoftware,KiCad,Pcbnew,7.0.2-6a45011f42~172~ubuntu23.04.1*%
%TF.CreationDate,2023-05-23T16:12:18+02:00*%
%TF.ProjectId,pcb,7063622e-6b69-4636-9164-5f7063625858,rev?*%
%TF.SameCoordinates,Original*%
%TF.FileFunction,Copper,L2,Bot*%
%TF.FilePolarity,Positive*%
%FSLAX46Y46*%
G04 Gerber Fmt 4.6, Leading zero omitted, Abs format (unit mm)*
G04 Created by KiCad (PCBNEW 7.0.2-6a45011f42~172~ubuntu23.04.1) date 2023-05-23 16:12:18*
%MOMM*%
%LPD*%
G01*
G04 APERTURE LIST*
%TA.AperFunction,ComponentPad*%
%ADD10R,1.000000X1.000000*%
%TD*%
%TA.AperFunction,ComponentPad*%
%ADD11O,1.000000X1.000000*%
%TD*%
%TA.AperFunction,ComponentPad*%
%ADD12C,2.600000*%
%TD*%
%TA.AperFunction,ConnectorPad*%
%ADD13C,3.800000*%
%TD*%
%TA.AperFunction,ComponentPad*%
%ADD14R,1.700000X1.700000*%
%TD*%
%TA.AperFunction,ComponentPad*%
%ADD15O,1.700000X1.700000*%
%TD*%
%TA.AperFunction,ComponentPad*%
%ADD16O,1.000000X1.600000*%
%TD*%
%TA.AperFunction,ComponentPad*%
%ADD17O,1.000000X2.100000*%
%TD*%
%TA.AperFunction,ViaPad*%
%ADD18C,0.800000*%
%TD*%
%TA.AperFunction,Conductor*%
%ADD19C,0.200000*%
%TD*%
%TA.AperFunction,Conductor*%
%ADD20C,0.400000*%
%TD*%
G04 APERTURE END LIST*
D10*
%TO.P,IO,1,Pin_1*%
%TO.N,Net-(J2-Pin_1)*%
X63881000Y-55650000D03*
D11*
%TO.P,IO,2,Pin_2*%
%TO.N,Net-(J2-Pin_2)*%
X63881000Y-56920000D03*
%TO.P,IO,3,Pin_3*%
%TO.N,Net-(J2-Pin_3)*%
X63881000Y-58190000D03*
%TO.P,IO,4,Pin_4*%
%TO.N,+3V3*%
X63881000Y-59460000D03*
%TO.P,IO,5,Pin_5*%
%TO.N,GND*%
X63881000Y-60730000D03*
%TO.P,IO,6,Pin_6*%
%TO.N,+5V*%
X63881000Y-62000000D03*
%TD*%
D12*
%TO.P,H2,1,1*%
%TO.N,GND*%
X85250000Y-44750000D03*
D13*
X85250000Y-44750000D03*
%TD*%
D14*
%TO.P,D,1*%
%TO.N,Net-(U3-A)*%
X67818000Y-82296000D03*
D15*
%TO.P,D,2*%
%TO.N,Net-(U3-B)*%
X67818000Y-84836000D03*
%TO.P,D,3*%
%TO.N,GND*%
X67818000Y-87376000D03*
%TD*%
D12*
%TO.P,H1,1,1*%
%TO.N,+5V*%
X63250000Y-44750000D03*
D13*
X63250000Y-44750000D03*
%TD*%
D12*
%TO.P,H3,1,1*%
%TO.N,GND*%
X63246000Y-86868000D03*
D13*
X63246000Y-86868000D03*
%TD*%
D16*
%TO.P,J3,13,SHLD*%
%TO.N,GND*%
X80520000Y-87918000D03*
D17*
%TO.P,J3,14,SHLD*%
X80520000Y-83738000D03*
D16*
%TO.P,J3,15,SHLD*%
X71880000Y-87918000D03*
D17*
%TO.P,J3,16,SHLD*%
X71880000Y-83738000D03*
%TD*%
D12*
%TO.P,H4,1,1*%
%TO.N,GND*%
X85217000Y-86868000D03*
D13*
X85217000Y-86868000D03*
%TD*%
D10*
%TO.P,IO,1,Pin_1*%
%TO.N,Net-(J4-Pin_1)*%
X69500000Y-53420000D03*
D11*
%TO.P,IO,2,Pin_2*%
%TO.N,Net-(J4-Pin_2)*%
X69500000Y-54690000D03*
%TO.P,IO,3,Pin_3*%
%TO.N,Net-(J4-Pin_3)*%
X69500000Y-55960000D03*
%TO.P,IO,4,Pin_4*%
%TO.N,Net-(J4-Pin_4)*%
X69500000Y-57230000D03*
%TO.P,IO,5,Pin_5*%
%TO.N,XLR_SET*%
X69500000Y-58500000D03*
%TO.P,IO,6,Pin_6*%
%TO.N,XLR_RX*%
X69500000Y-59770000D03*
%TD*%
D10*
%TO.P,IO,1,Pin_1*%
%TO.N,Net-(J5-Pin_1)*%
X77724000Y-59944000D03*
D11*
%TO.P,IO,2,Pin_2*%
%TO.N,Net-(J5-Pin_2)*%
X77724000Y-58674000D03*
%TO.P,IO,3,Pin_3*%
%TO.N,Net-(J5-Pin_3)*%
X77724000Y-57404000D03*
%TO.P,IO,4,Pin_4*%
%TO.N,Net-(J5-Pin_4)*%
X77724000Y-56134000D03*
%TO.P,IO,5,Pin_5*%
%TO.N,Net-(J5-Pin_5)*%
X77724000Y-54864000D03*
%TO.P,IO,6,Pin_6*%
%TO.N,Net-(J5-Pin_6)*%
X77724000Y-53594000D03*
%TD*%
D18*
%TO.N,GND*%
X68021200Y-53390800D03*
X73228200Y-72720200D03*
%TO.N,+5V*%
X76200000Y-85090000D03*
%TO.N,GND*%
X66649600Y-47853600D03*
X61874400Y-69748400D03*
X73914000Y-78994000D03*
X72009000Y-56642000D03*
X69545200Y-79820100D03*
X73660000Y-56642000D03*
X75311000Y-53340000D03*
X75311000Y-54991000D03*
X80670400Y-62020500D03*
X80675000Y-47851083D03*
X72009000Y-53340000D03*
X72034400Y-67919600D03*
X73660000Y-54991000D03*
X75311000Y-56642000D03*
X84988400Y-62636400D03*
X67005200Y-62839600D03*
X72009000Y-54991000D03*
X68072000Y-69697600D03*
X83413600Y-79451200D03*
X62103000Y-62865000D03*
X73761600Y-50342800D03*
X73660000Y-53340000D03*
X77851000Y-78994000D03*
X82346800Y-62636400D03*
X85496400Y-74879200D03*
%TO.N,+3V3*%
X83566000Y-72898000D03*
X78422500Y-69151500D03*
%TO.N,BT*%
X84455000Y-49784000D03*
X65869500Y-60960000D03*
%TO.N,Net-(U3-A)*%
X64262000Y-72263000D03*
%TO.N,Net-(U3-B)*%
X64262000Y-73533000D03*
%TO.N,Net-(JP3-A)*%
X75574500Y-68161500D03*
X67818000Y-59969500D03*
%TO.N,Net-(JP5-A)*%
X71755000Y-60833000D03*
X75124500Y-63119000D03*
%TO.N,XLR_TX*%
X69088000Y-70993000D03*
X78359000Y-70231000D03*
%TO.N,BOOT*%
X67564000Y-51562000D03*
X82042000Y-51562000D03*
%TO.N,LED1*%
X67674502Y-60960000D03*
X80728432Y-69550878D03*
%TO.N,LED2*%
X68707000Y-60960000D03*
X80728432Y-67391878D03*
%TO.N,Net-(U1-ADC2_CH6{slash}DAC_1{slash}GPIO18)*%
X65469500Y-52324000D03*
X72898000Y-58801000D03*
%TO.N,LED3*%
X80645000Y-65278000D03*
X69850000Y-60960000D03*
%TD*%
D19*
%TO.N,BT*%
X84455000Y-49784000D02*
X83566000Y-48895000D01*
X83566000Y-48895000D02*
X67437000Y-48895000D01*
X67437000Y-48895000D02*
X64770000Y-51562000D01*
X64770000Y-51562000D02*
X64770000Y-57785000D01*
X64770000Y-57785000D02*
X65869500Y-58884500D01*
X65869500Y-58884500D02*
X65869500Y-60960000D01*
%TO.N,XLR_TX*%
X78359000Y-70231000D02*
X77597000Y-70993000D01*
X77597000Y-70993000D02*
X69088000Y-70993000D01*
D20*
%TO.N,+3V3*%
X63881000Y-59460000D02*
X63883793Y-59460000D01*
X63883793Y-59460000D02*
X64781000Y-60357207D01*
X64781000Y-60357207D02*
X64781000Y-62114000D01*
X64781000Y-62114000D02*
X71818500Y-69151500D01*
X71818500Y-69151500D02*
X78422500Y-69151500D01*
%TO.N,+5V*%
X75184000Y-86106000D02*
X76200000Y-85090000D01*
X63462000Y-82247767D02*
X67320233Y-86106000D01*
X63881000Y-62000000D02*
X63462000Y-62419000D01*
X63462000Y-62419000D02*
X63462000Y-82247767D01*
X67320233Y-86106000D02*
X75184000Y-86106000D01*
%TO.N,+3V3*%
X78422500Y-69151500D02*
X82169000Y-72898000D01*
X82169000Y-72898000D02*
X83566000Y-72898000D01*
%TO.N,Net-(U3-A)*%
X64262000Y-72263000D02*
X67818000Y-75819000D01*
X67818000Y-75819000D02*
X67818000Y-82296000D01*
%TO.N,Net-(U3-B)*%
X66421000Y-75692000D02*
X66421000Y-83439000D01*
X64262000Y-73533000D02*
X66421000Y-75692000D01*
X66421000Y-83439000D02*
X67818000Y-84836000D01*
D19*
%TO.N,Net-(JP3-A)*%
X67675052Y-59969500D02*
X67818000Y-59969500D01*
X75574500Y-68161500D02*
X73886052Y-68161500D01*
X66901553Y-61177001D02*
X66901553Y-60742999D01*
X66901553Y-60742999D02*
X67675052Y-59969500D01*
X73886052Y-68161500D02*
X66901553Y-61177001D01*
%TO.N,Net-(JP5-A)*%
X74041000Y-63119000D02*
X71755000Y-60833000D01*
X75124500Y-63119000D02*
X74041000Y-63119000D01*
%TO.N,BOOT*%
X82042000Y-51562000D02*
X67564000Y-51562000D01*
%TO.N,LED1*%
X73770502Y-67056000D02*
X67674502Y-60960000D01*
X78233554Y-67056000D02*
X73770502Y-67056000D01*
X80728432Y-69550878D02*
X78233554Y-67056000D01*
%TO.N,LED2*%
X73914000Y-66167000D02*
X68707000Y-60960000D01*
X80728432Y-67391878D02*
X79503554Y-66167000D01*
X79503554Y-66167000D02*
X73914000Y-66167000D01*
%TO.N,Net-(U1-ADC2_CH6{slash}DAC_1{slash}GPIO18)*%
X65531500Y-52262000D02*
X65469500Y-52324000D01*
X72074000Y-52262000D02*
X65531500Y-52262000D01*
X72898000Y-58801000D02*
X72898000Y-53086000D01*
X72898000Y-53086000D02*
X72074000Y-52262000D01*
%TO.N,LED3*%
X80645000Y-65278000D02*
X74168000Y-65278000D01*
X74168000Y-65278000D02*
X69850000Y-60960000D01*
%TD*%
%TA.AperFunction,Conductor*%
%TO.N,GND*%
G36*
X87445539Y-47390685D02*
G01*
X87491294Y-47443489D01*
X87502500Y-47495000D01*
X87502500Y-85563501D01*
X87482815Y-85630540D01*
X87430011Y-85676295D01*
X87360853Y-85686239D01*
X87297297Y-85657214D01*
X87273803Y-85629944D01*
X87164564Y-85457811D01*
X87159993Y-85451520D01*
X87081686Y-85356864D01*
X86152788Y-86285763D01*
X86052106Y-86144376D01*
X85900068Y-85999408D01*
X85797777Y-85933669D01*
X86730434Y-85001012D01*
X86508679Y-84839897D01*
X86502108Y-84835727D01*
X86244305Y-84693999D01*
X86237266Y-84690686D01*
X85963729Y-84582386D01*
X85956334Y-84579983D01*
X85671374Y-84506817D01*
X85663743Y-84505362D01*
X85371859Y-84468488D01*
X85364101Y-84468000D01*
X85069899Y-84468000D01*
X85062140Y-84468488D01*
X84770256Y-84505362D01*
X84762625Y-84506817D01*
X84477665Y-84579983D01*
X84470270Y-84582386D01*
X84196733Y-84690686D01*
X84189694Y-84693999D01*
X83931899Y-84835723D01*
X83925309Y-84839905D01*
X83703565Y-85001011D01*
X83703564Y-85001012D01*
X84633693Y-85931140D01*
X84619590Y-85938411D01*
X84454460Y-86068271D01*
X84316890Y-86227035D01*
X84282334Y-86286886D01*
X83352312Y-85356864D01*
X83273995Y-85451534D01*
X83269434Y-85457812D01*
X83111792Y-85706217D01*
X83108050Y-85713023D01*
X82982781Y-85979234D01*
X82979921Y-85986458D01*
X82889009Y-86266254D01*
X82887073Y-86273793D01*
X82831946Y-86562779D01*
X82830972Y-86570499D01*
X82812500Y-86864105D01*
X82812500Y-86871894D01*
X82830972Y-87165500D01*
X82831946Y-87173220D01*
X82887073Y-87462206D01*
X82889009Y-87469745D01*
X82979921Y-87749541D01*
X82982781Y-87756765D01*
X83108050Y-88022976D01*
X83111792Y-88029782D01*
X83269430Y-88278181D01*
X83274006Y-88284479D01*
X83352312Y-88379134D01*
X84281211Y-87450235D01*
X84381894Y-87591624D01*
X84533932Y-87736592D01*
X84636222Y-87802329D01*
X83703564Y-88734986D01*
X83925320Y-88896102D01*
X83931890Y-88900272D01*
X84032154Y-88955392D01*
X84081418Y-89004938D01*
X84096075Y-89073253D01*
X84071472Y-89138648D01*
X84015419Y-89180359D01*
X83972417Y-89188054D01*
X81261381Y-89188054D01*
X81194342Y-89168369D01*
X81148587Y-89115565D01*
X81138643Y-89046407D01*
X81167668Y-88982851D01*
X81175949Y-88974180D01*
X81282669Y-88872733D01*
X81398855Y-88705805D01*
X81479059Y-88518907D01*
X81520000Y-88319688D01*
X81520000Y-88168000D01*
X80820000Y-88168000D01*
X80820000Y-87668000D01*
X81520000Y-87668000D01*
X81520000Y-87570429D01*
X81519682Y-87564164D01*
X81504580Y-87415660D01*
X81443696Y-87221610D01*
X81344996Y-87043785D01*
X81212520Y-86889468D01*
X81051692Y-86764978D01*
X80869094Y-86675410D01*
X80770000Y-86649753D01*
X80770000Y-87451889D01*
X80745543Y-87412390D01*
X80656038Y-87344799D01*
X80548160Y-87314105D01*
X80436479Y-87324454D01*
X80336078Y-87374448D01*
X80270000Y-87446930D01*
X80270000Y-86644633D01*
X80268051Y-86644932D01*
X80077336Y-86715564D01*
X79904736Y-86823145D01*
X79757330Y-86963266D01*
X79641144Y-87130194D01*
X79560940Y-87317092D01*
X79520000Y-87516311D01*
X79520000Y-87668000D01*
X80220000Y-87668000D01*
X80220000Y-88168000D01*
X79520000Y-88168000D01*
X79520000Y-88265570D01*
X79520317Y-88271835D01*
X79535419Y-88420339D01*
X79596303Y-88614389D01*
X79695003Y-88792214D01*
X79827479Y-88946531D01*
X79852628Y-88965998D01*
X79893592Y-89022599D01*
X79897452Y-89092362D01*
X79862983Y-89153138D01*
X79801128Y-89185629D01*
X79776727Y-89188054D01*
X72621381Y-89188054D01*
X72554342Y-89168369D01*
X72508587Y-89115565D01*
X72498643Y-89046407D01*
X72527668Y-88982851D01*
X72535949Y-88974180D01*
X72642669Y-88872733D01*
X72758855Y-88705805D01*
X72839059Y-88518907D01*
X72880000Y-88319688D01*
X72880000Y-88168000D01*
X72180000Y-88168000D01*
X72180000Y-87668000D01*
X72880000Y-87668000D01*
X72880000Y-87570429D01*
X72879682Y-87564164D01*
X72864580Y-87415660D01*
X72803696Y-87221610D01*
X72704996Y-87043785D01*
X72683951Y-87019270D01*
X72655219Y-86955581D01*
X72665481Y-86886469D01*
X72711479Y-86833877D01*
X72778037Y-86814500D01*
X75158837Y-86814500D01*
X75166324Y-86814726D01*
X75227093Y-86818402D01*
X75286994Y-86807424D01*
X75294364Y-86806303D01*
X75354801Y-86798965D01*
X75364498Y-86795287D01*
X75386124Y-86789259D01*
X75396329Y-86787389D01*
X75451850Y-86762400D01*
X75458752Y-86759542D01*
X75499189Y-86744205D01*
X75515675Y-86737954D01*
X75524219Y-86732055D01*
X75543754Y-86721037D01*
X75553226Y-86716775D01*
X75601162Y-86679217D01*
X75607143Y-86674816D01*
X75657273Y-86640215D01*
X75697673Y-86594611D01*
X75702760Y-86589208D01*
X76266954Y-86025015D01*
X76328275Y-85991532D01*
X76328852Y-85991408D01*
X76482285Y-85958795D01*
X76482286Y-85958794D01*
X76482288Y-85958794D01*
X76656752Y-85881118D01*
X76811253Y-85768866D01*
X76939040Y-85626944D01*
X76975210Y-85564297D01*
X77034527Y-85461556D01*
X77035742Y-85457818D01*
X77093542Y-85279928D01*
X77113504Y-85090000D01*
X77093542Y-84900072D01*
X77053165Y-84775804D01*
X77034527Y-84718443D01*
X76939042Y-84553058D01*
X76896096Y-84505362D01*
X76811253Y-84411134D01*
X76714901Y-84341129D01*
X76656751Y-84298881D01*
X76587391Y-84268000D01*
X78509533Y-84268000D01*
X78529312Y-84418235D01*
X78585158Y-84553058D01*
X78587302Y-84558233D01*
X78679549Y-84678451D01*
X78799767Y-84770698D01*
X78939764Y-84828687D01*
X79052280Y-84843500D01*
X79056333Y-84843500D01*
X79123667Y-84843500D01*
X79127720Y-84843500D01*
X79240236Y-84828687D01*
X79380233Y-84770698D01*
X79451256Y-84716199D01*
X79516424Y-84691006D01*
X79584869Y-84705044D01*
X79634859Y-84753858D01*
X79635161Y-84754399D01*
X79695003Y-84862214D01*
X79827479Y-85016531D01*
X79988307Y-85141021D01*
X80170902Y-85230587D01*
X80270000Y-85256244D01*
X80270000Y-84454110D01*
X80294457Y-84493610D01*
X80383962Y-84561201D01*
X80491840Y-84591895D01*
X80603521Y-84581546D01*
X80703922Y-84531552D01*
X80770000Y-84459069D01*
X80770000Y-85261366D01*
X80771947Y-85261068D01*
X80962663Y-85190436D01*
X81135263Y-85082854D01*
X81282669Y-84942733D01*
X81398855Y-84775805D01*
X81479059Y-84588907D01*
X81520000Y-84389688D01*
X81520000Y-83988000D01*
X80820000Y-83988000D01*
X80820000Y-83488000D01*
X81520000Y-83488000D01*
X81520000Y-83140429D01*
X81519682Y-83134164D01*
X81504580Y-82985660D01*
X81443696Y-82791610D01*
X81344996Y-82613785D01*
X81212520Y-82459468D01*
X81051692Y-82334978D01*
X80869094Y-82245410D01*
X80770000Y-82219753D01*
X80770000Y-83021889D01*
X80745543Y-82982390D01*
X80656038Y-82914799D01*
X80548160Y-82884105D01*
X80436479Y-82894454D01*
X80336078Y-82944448D01*
X80270000Y-83016930D01*
X80270000Y-82214633D01*
X80268051Y-82214932D01*
X80077336Y-82285564D01*
X79904736Y-82393145D01*
X79757330Y-82533266D01*
X79641144Y-82700194D01*
X79560940Y-82887092D01*
X79520000Y-83086311D01*
X79520000Y-83637616D01*
X79500315Y-83704655D01*
X79447511Y-83750410D01*
X79378353Y-83760354D01*
X79348547Y-83752177D01*
X79244091Y-83708910D01*
X79240236Y-83707313D01*
X79145274Y-83694811D01*
X79131739Y-83693029D01*
X79131737Y-83693028D01*
X79127720Y-83692500D01*
X79052280Y-83692500D01*
X79048263Y-83693028D01*
X79048260Y-83693029D01*
X78939764Y-83707313D01*
X78799768Y-83765301D01*
X78679549Y-83857549D01*
X78587301Y-83977768D01*
X78529312Y-84117764D01*
X78509533Y-84268000D01*
X76587391Y-84268000D01*
X76482285Y-84221204D01*
X76295489Y-84181500D01*
X76295487Y-84181500D01*
X76104513Y-84181500D01*
X76104511Y-84181500D01*
X75917714Y-84221204D01*
X75743248Y-84298881D01*
X75588748Y-84411133D01*
X75460957Y-84553058D01*
X75365472Y-84718443D01*
X75306458Y-84900070D01*
X75301476Y-84947474D01*
X75274891Y-85012088D01*
X75265836Y-85022192D01*
X74926849Y-85361181D01*
X74865526Y-85394666D01*
X74839168Y-85397500D01*
X72423820Y-85397500D01*
X72356781Y-85377815D01*
X72311026Y-85325011D01*
X72301082Y-85255853D01*
X72330107Y-85192297D01*
X72358229Y-85168268D01*
X72495263Y-85082854D01*
X72642669Y-84942733D01*
X72758856Y-84775804D01*
X72762236Y-84767928D01*
X72806760Y-84714083D01*
X72873328Y-84692857D01*
X72940804Y-84710990D01*
X72951676Y-84718449D01*
X73019767Y-84770698D01*
X73159764Y-84828687D01*
X73272280Y-84843500D01*
X73276333Y-84843500D01*
X73343667Y-84843500D01*
X73347720Y-84843500D01*
X73460236Y-84828687D01*
X73600233Y-84770698D01*
X73720451Y-84678451D01*
X73812698Y-84558233D01*
X73870687Y-84418236D01*
X73890466Y-84268000D01*
X73870687Y-84117764D01*
X73812698Y-83977767D01*
X73720451Y-83857549D01*
X73600233Y-83765302D01*
X73586578Y-83759646D01*
X73464091Y-83708910D01*
X73460236Y-83707313D01*
X73365274Y-83694811D01*
X73351739Y-83693029D01*
X73351737Y-83693028D01*
X73347720Y-83692500D01*
X73272280Y-83692500D01*
X73268263Y-83693028D01*
X73268260Y-83693029D01*
X73159764Y-83707313D01*
X73051453Y-83752177D01*
X72981983Y-83759646D01*
X72919504Y-83728371D01*
X72883852Y-83668282D01*
X72880000Y-83637616D01*
X72880000Y-83140429D01*
X72879682Y-83134164D01*
X72864580Y-82985660D01*
X72803696Y-82791610D01*
X72704996Y-82613785D01*
X72572520Y-82459468D01*
X72411692Y-82334978D01*
X72229094Y-82245410D01*
X72130000Y-82219753D01*
X72130000Y-83021889D01*
X72105543Y-82982390D01*
X72016038Y-82914799D01*
X71908160Y-82884105D01*
X71796479Y-82894454D01*
X71696078Y-82944448D01*
X71630000Y-83016930D01*
X71630000Y-82214633D01*
X71628051Y-82214932D01*
X71437336Y-82285564D01*
X71264736Y-82393145D01*
X71117330Y-82533266D01*
X71001144Y-82700194D01*
X70920940Y-82887092D01*
X70880000Y-83086311D01*
X70880000Y-83488000D01*
X71580000Y-83488000D01*
X71580000Y-83988000D01*
X70880000Y-83988000D01*
X70880000Y-84335570D01*
X70880317Y-84341835D01*
X70895419Y-84490339D01*
X70956303Y-84684389D01*
X71055003Y-84862214D01*
X71187479Y-85016531D01*
X71348305Y-85141020D01*
X71391427Y-85162172D01*
X71442946Y-85209369D01*
X71460771Y-85276927D01*
X71439241Y-85343396D01*
X71385193Y-85387675D01*
X71336818Y-85397500D01*
X69236506Y-85397500D01*
X69169467Y-85377815D01*
X69123712Y-85325011D01*
X69113768Y-85255853D01*
X69116300Y-85243060D01*
X69129626Y-85190436D01*
X69162564Y-85060368D01*
X69181156Y-84836000D01*
X69162564Y-84611632D01*
X69107296Y-84393384D01*
X69016860Y-84187209D01*
X68893722Y-83998732D01*
X68893721Y-83998731D01*
X68893718Y-83998726D01*
X68748510Y-83840990D01*
X68717587Y-83778336D01*
X68725447Y-83708910D01*
X68769594Y-83654754D01*
X68796396Y-83640829D01*
X68914204Y-83596889D01*
X69031261Y-83509261D01*
X69118889Y-83392204D01*
X69156769Y-83290646D01*
X69169988Y-83255205D01*
X69169988Y-83255203D01*
X69169989Y-83255201D01*
X69176500Y-83194638D01*
X69176500Y-81397362D01*
X69169989Y-81336799D01*
X69169988Y-81336797D01*
X69169988Y-81336794D01*
X69118889Y-81199796D01*
X69031261Y-81082738D01*
X68914203Y-80995110D01*
X68777205Y-80944011D01*
X68719924Y-80937853D01*
X68719918Y-80937852D01*
X68716638Y-80937500D01*
X68713328Y-80937500D01*
X68650500Y-80937500D01*
X68583461Y-80917815D01*
X68537706Y-80865011D01*
X68526500Y-80813500D01*
X68526500Y-75844151D01*
X68526726Y-75836665D01*
X68526809Y-75835276D01*
X68530401Y-75775907D01*
X68519426Y-75716025D01*
X68518301Y-75708625D01*
X68510965Y-75648200D01*
X68510965Y-75648199D01*
X68507282Y-75638490D01*
X68501259Y-75616882D01*
X68499388Y-75606670D01*
X68474409Y-75551169D01*
X68471542Y-75544248D01*
X68449954Y-75487325D01*
X68444056Y-75478780D01*
X68433028Y-75459227D01*
X68428774Y-75449774D01*
X68391234Y-75401857D01*
X68386805Y-75395838D01*
X68373101Y-75375986D01*
X68352215Y-75345727D01*
X68306656Y-75305365D01*
X68301202Y-75300231D01*
X65196163Y-72195193D01*
X65162678Y-72133870D01*
X65160523Y-72120471D01*
X65155542Y-72073070D01*
X65096527Y-71891443D01*
X65001042Y-71726058D01*
X64925831Y-71642528D01*
X64873253Y-71584134D01*
X64718752Y-71471882D01*
X64718751Y-71471881D01*
X64544285Y-71394204D01*
X64357489Y-71354500D01*
X64357487Y-71354500D01*
X64294500Y-71354500D01*
X64227461Y-71334815D01*
X64181706Y-71282011D01*
X64170500Y-71230500D01*
X64170500Y-63058025D01*
X64190185Y-62990986D01*
X64242989Y-62945231D01*
X64258499Y-62939366D01*
X64268804Y-62936241D01*
X64404360Y-62863784D01*
X64472762Y-62849544D01*
X64538006Y-62874544D01*
X64550493Y-62885463D01*
X71299723Y-69634693D01*
X71304857Y-69640147D01*
X71345225Y-69685714D01*
X71395322Y-69720293D01*
X71401351Y-69724729D01*
X71449274Y-69762274D01*
X71449274Y-69762275D01*
X71458736Y-69766534D01*
X71478281Y-69777557D01*
X71483301Y-69781022D01*
X71486825Y-69783454D01*
X71543081Y-69804789D01*
X71543733Y-69805036D01*
X71550655Y-69807903D01*
X71606171Y-69832889D01*
X71616381Y-69834760D01*
X71638000Y-69840786D01*
X71647699Y-69844465D01*
X71708131Y-69851802D01*
X71715511Y-69852925D01*
X71775408Y-69863902D01*
X71836181Y-69860226D01*
X71843669Y-69860000D01*
X77353621Y-69860000D01*
X77420660Y-69879685D01*
X77466415Y-69932489D01*
X77476359Y-70001647D01*
X77471552Y-70022318D01*
X77465458Y-70041070D01*
X77460545Y-70087819D01*
X77448557Y-70201882D01*
X77444134Y-70243962D01*
X77440065Y-70243534D01*
X77431772Y-70288842D01*
X77408712Y-70320738D01*
X77381271Y-70348180D01*
X77319948Y-70381666D01*
X77293588Y-70384500D01*
X69817819Y-70384500D01*
X69750780Y-70364815D01*
X69725669Y-70343472D01*
X69699253Y-70314134D01*
X69544751Y-70201881D01*
X69370285Y-70124204D01*
X69183489Y-70084500D01*
X69183487Y-70084500D01*
X68992513Y-70084500D01*
X68992511Y-70084500D01*
X68805714Y-70124204D01*
X68631248Y-70201881D01*
X68476748Y-70314133D01*
X68348957Y-70456058D01*
X68253472Y-70621443D01*
X68194458Y-70803070D01*
X68174496Y-70992999D01*
X68194458Y-71182929D01*
X68253472Y-71364556D01*
X68348957Y-71529941D01*
X68348960Y-71529944D01*
X68476747Y-71671866D01*
X68551333Y-71726056D01*
X68631248Y-71784118D01*
X68805714Y-71861795D01*
X68992511Y-71901500D01*
X68992513Y-71901500D01*
X69183489Y-71901500D01*
X69370285Y-71861795D01*
X69370286Y-71861794D01*
X69370288Y-71861794D01*
X69544752Y-71784118D01*
X69699253Y-71671866D01*
X69725669Y-71642527D01*
X69785155Y-71605879D01*
X69817819Y-71601500D01*
X77548995Y-71601500D01*
X77565179Y-71602560D01*
X77597000Y-71606750D01*
X77636880Y-71601500D01*
X77636885Y-71601500D01*
X77736456Y-71588391D01*
X77755851Y-71585838D01*
X77903876Y-71524524D01*
X77999072Y-71451477D01*
X77999072Y-71451475D01*
X78015364Y-71438975D01*
X78015365Y-71438973D01*
X78030987Y-71426987D01*
X78050536Y-71401509D01*
X78061209Y-71389338D01*
X78274731Y-71175816D01*
X78336053Y-71142334D01*
X78362411Y-71139500D01*
X78454489Y-71139500D01*
X78641285Y-71099795D01*
X78641286Y-71099794D01*
X78641288Y-71099794D01*
X78815752Y-71022118D01*
X78970253Y-70909866D01*
X78981674Y-70897181D01*
X79041155Y-70860534D01*
X79111012Y-70861863D01*
X79161503Y-70892473D01*
X81650223Y-73381193D01*
X81655357Y-73386647D01*
X81695725Y-73432214D01*
X81745822Y-73466793D01*
X81751856Y-73471233D01*
X81799774Y-73508775D01*
X81809236Y-73513034D01*
X81828781Y-73524057D01*
X81833801Y-73527522D01*
X81837325Y-73529954D01*
X81893581Y-73551289D01*
X81894233Y-73551536D01*
X81901155Y-73554403D01*
X81956671Y-73579389D01*
X81966881Y-73581260D01*
X81988500Y-73587286D01*
X81998199Y-73590965D01*
X82058638Y-73598303D01*
X82066000Y-73599423D01*
X82125907Y-73610402D01*
X82186675Y-73606726D01*
X82194163Y-73606500D01*
X82955244Y-73606500D01*
X83022283Y-73626185D01*
X83028130Y-73630182D01*
X83109248Y-73689118D01*
X83283714Y-73766795D01*
X83470511Y-73806500D01*
X83470513Y-73806500D01*
X83661489Y-73806500D01*
X83848285Y-73766795D01*
X83848286Y-73766794D01*
X83848288Y-73766794D01*
X84022752Y-73689118D01*
X84177253Y-73576866D01*
X84305040Y-73434944D01*
X84332925Y-73386647D01*
X84400527Y-73269556D01*
X84400527Y-73269555D01*
X84459542Y-73087928D01*
X84479504Y-72898000D01*
X84459542Y-72708072D01*
X84400527Y-72526444D01*
X84400527Y-72526443D01*
X84305042Y-72361058D01*
X84285442Y-72339291D01*
X84177253Y-72219134D01*
X84022752Y-72106882D01*
X84022751Y-72106881D01*
X83848285Y-72029204D01*
X83661489Y-71989500D01*
X83661487Y-71989500D01*
X83470513Y-71989500D01*
X83470511Y-71989500D01*
X83283714Y-72029204D01*
X83109248Y-72106881D01*
X83028130Y-72165818D01*
X82962324Y-72189298D01*
X82955244Y-72189500D01*
X82513832Y-72189500D01*
X82446793Y-72169815D01*
X82426151Y-72153181D01*
X80909888Y-70636918D01*
X80876403Y-70575595D01*
X80881387Y-70505903D01*
X80923259Y-70449970D01*
X80971786Y-70427947D01*
X81010720Y-70419672D01*
X81185184Y-70341996D01*
X81339685Y-70229744D01*
X81467472Y-70087822D01*
X81494465Y-70041070D01*
X81562959Y-69922434D01*
X81581977Y-69863902D01*
X81621974Y-69740806D01*
X81641936Y-69550878D01*
X81621974Y-69360950D01*
X81562959Y-69179322D01*
X81562959Y-69179321D01*
X81467474Y-69013936D01*
X81447874Y-68992169D01*
X81339685Y-68872012D01*
X81185184Y-68759760D01*
X81185183Y-68759759D01*
X81010717Y-68682082D01*
X80823921Y-68642378D01*
X80823919Y-68642378D01*
X80731843Y-68642378D01*
X80664804Y-68622693D01*
X80644162Y-68606059D01*
X80550162Y-68512059D01*
X80516677Y-68450736D01*
X80521661Y-68381044D01*
X80563533Y-68325111D01*
X80628997Y-68300694D01*
X80637843Y-68300378D01*
X80823921Y-68300378D01*
X81010717Y-68260673D01*
X81010718Y-68260672D01*
X81010720Y-68260672D01*
X81185184Y-68182996D01*
X81339685Y-68070744D01*
X81467472Y-67928822D01*
X81562959Y-67763434D01*
X81621974Y-67581806D01*
X81641936Y-67391878D01*
X81621974Y-67201950D01*
X81562959Y-67020322D01*
X81562959Y-67020321D01*
X81467474Y-66854936D01*
X81418219Y-66800233D01*
X81339685Y-66713012D01*
X81185184Y-66600760D01*
X81185183Y-66600759D01*
X81010717Y-66523082D01*
X80823921Y-66483378D01*
X80823919Y-66483378D01*
X80731843Y-66483378D01*
X80664804Y-66463693D01*
X80644162Y-66447059D01*
X80595284Y-66398181D01*
X80561799Y-66336858D01*
X80566783Y-66267166D01*
X80608655Y-66211233D01*
X80674119Y-66186816D01*
X80682965Y-66186500D01*
X80740489Y-66186500D01*
X80927285Y-66146795D01*
X80927286Y-66146794D01*
X80927288Y-66146794D01*
X81101752Y-66069118D01*
X81256253Y-65956866D01*
X81384040Y-65814944D01*
X81479527Y-65649556D01*
X81538542Y-65467928D01*
X81558504Y-65278000D01*
X81538542Y-65088072D01*
X81479527Y-64906444D01*
X81479527Y-64906443D01*
X81384042Y-64741058D01*
X81364442Y-64719291D01*
X81256253Y-64599134D01*
X81101752Y-64486882D01*
X81101751Y-64486881D01*
X80927285Y-64409204D01*
X80740489Y-64369500D01*
X80740487Y-64369500D01*
X80549513Y-64369500D01*
X80549511Y-64369500D01*
X80362714Y-64409204D01*
X80188248Y-64486881D01*
X80033746Y-64599134D01*
X80007331Y-64628472D01*
X79947845Y-64665121D01*
X79915181Y-64669500D01*
X74471411Y-64669500D01*
X74404372Y-64649815D01*
X74383730Y-64633181D01*
X73606372Y-63855823D01*
X73572887Y-63794500D01*
X73577871Y-63724808D01*
X73619743Y-63668875D01*
X73685207Y-63644458D01*
X73741504Y-63653580D01*
X73747210Y-63655944D01*
X73795439Y-63675921D01*
X73827469Y-63689188D01*
X73882150Y-63711838D01*
X74001115Y-63727500D01*
X74001122Y-63727500D01*
X74041000Y-63732750D01*
X74072820Y-63728560D01*
X74089005Y-63727500D01*
X74394681Y-63727500D01*
X74461720Y-63747185D01*
X74486831Y-63768528D01*
X74513246Y-63797865D01*
X74667748Y-63910118D01*
X74842214Y-63987795D01*
X75029011Y-64027500D01*
X75029013Y-64027500D01*
X75219989Y-64027500D01*
X75406785Y-63987795D01*
X75406786Y-63987794D01*
X75406788Y-63987794D01*
X75581252Y-63910118D01*
X75735753Y-63797866D01*
X75863540Y-63655944D01*
X75864905Y-63653581D01*
X75959027Y-63490556D01*
X75959026Y-63490556D01*
X76018042Y-63308928D01*
X76038004Y-63119000D01*
X76018042Y-62929072D01*
X75959027Y-62747444D01*
X75959027Y-62747443D01*
X75863542Y-62582058D01*
X75843942Y-62560291D01*
X75735753Y-62440134D01*
X75581252Y-62327882D01*
X75581251Y-62327881D01*
X75406785Y-62250204D01*
X75219989Y-62210500D01*
X75219987Y-62210500D01*
X75029013Y-62210500D01*
X75029011Y-62210500D01*
X74842214Y-62250204D01*
X74667748Y-62327881D01*
X74513246Y-62440134D01*
X74486831Y-62469472D01*
X74427345Y-62506121D01*
X74394681Y-62510500D01*
X74344411Y-62510500D01*
X74277372Y-62490815D01*
X74256730Y-62474181D01*
X72705289Y-60922740D01*
X72671804Y-60861417D01*
X72670953Y-60845848D01*
X72669866Y-60845963D01*
X72668504Y-60833000D01*
X72648542Y-60643072D01*
X72607357Y-60516318D01*
X72589527Y-60461443D01*
X72494042Y-60296058D01*
X72474442Y-60274291D01*
X72366253Y-60154134D01*
X72211752Y-60041882D01*
X72211751Y-60041881D01*
X72037285Y-59964204D01*
X71850489Y-59924500D01*
X71850487Y-59924500D01*
X71659513Y-59924500D01*
X71659511Y-59924500D01*
X71472714Y-59964204D01*
X71298248Y-60041881D01*
X71143748Y-60154133D01*
X71015957Y-60296058D01*
X70920473Y-60461442D01*
X70895164Y-60539335D01*
X70855726Y-60597010D01*
X70791367Y-60624208D01*
X70722521Y-60612293D01*
X70671045Y-60565049D01*
X70669846Y-60563016D01*
X70589042Y-60423058D01*
X70550272Y-60380000D01*
X70461381Y-60281276D01*
X70431153Y-60218288D01*
X70434873Y-60162311D01*
X70436239Y-60157807D01*
X70436241Y-60157804D01*
X70493908Y-59967701D01*
X70513380Y-59770000D01*
X70493908Y-59572299D01*
X70436241Y-59382196D01*
X70342595Y-59206996D01*
X70336838Y-59196225D01*
X70339953Y-59194559D01*
X70320755Y-59149357D01*
X70332545Y-59080489D01*
X70336854Y-59073785D01*
X70336837Y-59073776D01*
X70343666Y-59061000D01*
X70436241Y-58887804D01*
X70493908Y-58697701D01*
X70513380Y-58500000D01*
X70493908Y-58302299D01*
X70436241Y-58112196D01*
X70342595Y-57936996D01*
X70336838Y-57926225D01*
X70339953Y-57924559D01*
X70320755Y-57879357D01*
X70332545Y-57810489D01*
X70336854Y-57803783D01*
X70336838Y-57803775D01*
X70349174Y-57780695D01*
X70436241Y-57617804D01*
X70493908Y-57427701D01*
X70513380Y-57230000D01*
X70493908Y-57032299D01*
X70436241Y-56842196D01*
X70342595Y-56666996D01*
X70336838Y-56656225D01*
X70339953Y-56654559D01*
X70320755Y-56609357D01*
X70332545Y-56540489D01*
X70336854Y-56533783D01*
X70336838Y-56533775D01*
X70349174Y-56510695D01*
X70436241Y-56347804D01*
X70493908Y-56157701D01*
X70513380Y-55960000D01*
X70493908Y-55762299D01*
X70436241Y-55572196D01*
X70342595Y-55396996D01*
X70336838Y-55386225D01*
X70339953Y-55384559D01*
X70320755Y-55339357D01*
X70332545Y-55270489D01*
X70336854Y-55263785D01*
X70336837Y-55263776D01*
X70342595Y-55253004D01*
X70436241Y-55077804D01*
X70493908Y-54887701D01*
X70513380Y-54690000D01*
X70493908Y-54492299D01*
X70436241Y-54302196D01*
X70436239Y-54302193D01*
X70432695Y-54290508D01*
X70434253Y-54290035D01*
X70422890Y-54235464D01*
X70447225Y-54171097D01*
X70450889Y-54166204D01*
X70501989Y-54029201D01*
X70508500Y-53968638D01*
X70508500Y-52994500D01*
X70528185Y-52927461D01*
X70580989Y-52881706D01*
X70632500Y-52870500D01*
X71770589Y-52870500D01*
X71837628Y-52890185D01*
X71858270Y-52906819D01*
X72253181Y-53301730D01*
X72286666Y-53363053D01*
X72289500Y-53389411D01*
X72289500Y-58071477D01*
X72269815Y-58138516D01*
X72257650Y-58154449D01*
X72158959Y-58264055D01*
X72063472Y-58429443D01*
X72004458Y-58611070D01*
X71984496Y-58801000D01*
X72004458Y-58990929D01*
X72063472Y-59172556D01*
X72158957Y-59337941D01*
X72158960Y-59337944D01*
X72286747Y-59479866D01*
X72441248Y-59592117D01*
X72441248Y-59592118D01*
X72615714Y-59669795D01*
X72802511Y-59709500D01*
X72802513Y-59709500D01*
X72993489Y-59709500D01*
X73180285Y-59669795D01*
X73180286Y-59669794D01*
X73180288Y-59669794D01*
X73354752Y-59592118D01*
X73509253Y-59479866D01*
X73637040Y-59337944D01*
X73664355Y-59290634D01*
X73732527Y-59172556D01*
X73749393Y-59120647D01*
X73791542Y-58990928D01*
X73811504Y-58801000D01*
X73798156Y-58673999D01*
X76710620Y-58673999D01*
X76730091Y-58871698D01*
X76730092Y-58871701D01*
X76787759Y-59061804D01*
X76787761Y-59061808D01*
X76791305Y-59073490D01*
X76789746Y-59073962D01*
X76801109Y-59128539D01*
X76776780Y-59192894D01*
X76773110Y-59197796D01*
X76722011Y-59334794D01*
X76716915Y-59382196D01*
X76715500Y-59395362D01*
X76715500Y-60492638D01*
X76715852Y-60495918D01*
X76715853Y-60495924D01*
X76722011Y-60553205D01*
X76773110Y-60690203D01*
X76860738Y-60807261D01*
X76977796Y-60894889D01*
X77114794Y-60945988D01*
X77114797Y-60945988D01*
X77114799Y-60945989D01*
X77175362Y-60952500D01*
X77178672Y-60952500D01*
X78269328Y-60952500D01*
X78272638Y-60952500D01*
X78333201Y-60945989D01*
X78333203Y-60945988D01*
X78333205Y-60945988D01*
X78411124Y-60916924D01*
X78470204Y-60894889D01*
X78587261Y-60807261D01*
X78674889Y-60690204D01*
X78696924Y-60631124D01*
X78725988Y-60553205D01*
X78725988Y-60553203D01*
X78725989Y-60553201D01*
X78732500Y-60492638D01*
X78732500Y-59395362D01*
X78725989Y-59334799D01*
X78725988Y-59334797D01*
X78725988Y-59334794D01*
X78674889Y-59197796D01*
X78671224Y-59192900D01*
X78646806Y-59127436D01*
X78658193Y-59073946D01*
X78656695Y-59073492D01*
X78660241Y-59061804D01*
X78717908Y-58871701D01*
X78737380Y-58674000D01*
X78717908Y-58476299D01*
X78660241Y-58286196D01*
X78571479Y-58120133D01*
X78560838Y-58100225D01*
X78563951Y-58098560D01*
X78544752Y-58053334D01*
X78556555Y-57984468D01*
X78560852Y-57977783D01*
X78560838Y-57977775D01*
X78573174Y-57954695D01*
X78660241Y-57791804D01*
X78717908Y-57601701D01*
X78737380Y-57404000D01*
X78717908Y-57206299D01*
X78660241Y-57016196D01*
X78579395Y-56864944D01*
X78560838Y-56830225D01*
X78563953Y-56828559D01*
X78544755Y-56783357D01*
X78556545Y-56714489D01*
X78560854Y-56707783D01*
X78560838Y-56707775D01*
X78573174Y-56684695D01*
X78660241Y-56521804D01*
X78717908Y-56331701D01*
X78737380Y-56134000D01*
X78717908Y-55936299D01*
X78660241Y-55746196D01*
X78579395Y-55594944D01*
X78560838Y-55560225D01*
X78563953Y-55558559D01*
X78544755Y-55513357D01*
X78556545Y-55444489D01*
X78560854Y-55437785D01*
X78560837Y-55437776D01*
X78566595Y-55427004D01*
X78660241Y-55251804D01*
X78717908Y-55061701D01*
X78737380Y-54864000D01*
X78717908Y-54666299D01*
X78660241Y-54476196D01*
X78579395Y-54324944D01*
X78560838Y-54290225D01*
X78563953Y-54288559D01*
X78544755Y-54243357D01*
X78556545Y-54174489D01*
X78560854Y-54167783D01*
X78560838Y-54167775D01*
X78573174Y-54144695D01*
X78660241Y-53981804D01*
X78717908Y-53791701D01*
X78737380Y-53594000D01*
X78717908Y-53396299D01*
X78660241Y-53206196D01*
X78566595Y-53030996D01*
X78440568Y-52877432D01*
X78287004Y-52751405D01*
X78287003Y-52751404D01*
X78192390Y-52700833D01*
X78111804Y-52657759D01*
X77921701Y-52600092D01*
X77921698Y-52600091D01*
X77748247Y-52583008D01*
X77724000Y-52580620D01*
X77723999Y-52580620D01*
X77526301Y-52600091D01*
X77462931Y-52619314D01*
X77336196Y-52657759D01*
X77336192Y-52657760D01*
X77336192Y-52657761D01*
X77160996Y-52751404D01*
X77007432Y-52877432D01*
X76881404Y-53030996D01*
X76830689Y-53125879D01*
X76787759Y-53206196D01*
X76762501Y-53289461D01*
X76730091Y-53396301D01*
X76710620Y-53593999D01*
X76730091Y-53791698D01*
X76730092Y-53791701D01*
X76787759Y-53981804D01*
X76854069Y-54105863D01*
X76887162Y-54167775D01*
X76884048Y-54169439D01*
X76903247Y-54214670D01*
X76891442Y-54283535D01*
X76887147Y-54290217D01*
X76887162Y-54290225D01*
X76787761Y-54476192D01*
X76787759Y-54476196D01*
X76775230Y-54517500D01*
X76730091Y-54666301D01*
X76710620Y-54864000D01*
X76730091Y-55061698D01*
X76730092Y-55061701D01*
X76787759Y-55251804D01*
X76834557Y-55339357D01*
X76887162Y-55437775D01*
X76884046Y-55439440D01*
X76903245Y-55484647D01*
X76891452Y-55553514D01*
X76887145Y-55560217D01*
X76887162Y-55560226D01*
X76787759Y-55746196D01*
X76730091Y-55936301D01*
X76710620Y-56134000D01*
X76730091Y-56331698D01*
X76730092Y-56331701D01*
X76787759Y-56521804D01*
X76826883Y-56595000D01*
X76887162Y-56707775D01*
X76884048Y-56709439D01*
X76903247Y-56754670D01*
X76891442Y-56823535D01*
X76887147Y-56830217D01*
X76887162Y-56830225D01*
X76787761Y-57016192D01*
X76787759Y-57016196D01*
X76782874Y-57032301D01*
X76730091Y-57206301D01*
X76710620Y-57404000D01*
X76730091Y-57601698D01*
X76730092Y-57601701D01*
X76787759Y-57791804D01*
X76826883Y-57865000D01*
X76887162Y-57977775D01*
X76884048Y-57979439D01*
X76903247Y-58024670D01*
X76891442Y-58093535D01*
X76887147Y-58100217D01*
X76887162Y-58100225D01*
X76799593Y-58264056D01*
X76787759Y-58286196D01*
X76782874Y-58302301D01*
X76730091Y-58476301D01*
X76710620Y-58673999D01*
X73798156Y-58673999D01*
X73791542Y-58611072D01*
X73732527Y-58429444D01*
X73732527Y-58429443D01*
X73637040Y-58264055D01*
X73538350Y-58154449D01*
X73508120Y-58091458D01*
X73506500Y-58071477D01*
X73506500Y-53134004D01*
X73507561Y-53117818D01*
X73507917Y-53115118D01*
X73511750Y-53086000D01*
X73506500Y-53046120D01*
X73506500Y-53046115D01*
X73490838Y-52927150D01*
X73484301Y-52911367D01*
X73429524Y-52779124D01*
X73356477Y-52683928D01*
X73356474Y-52683925D01*
X73331987Y-52652013D01*
X73306512Y-52632465D01*
X73294326Y-52621777D01*
X73054730Y-52382181D01*
X73021245Y-52320858D01*
X73026229Y-52251166D01*
X73068101Y-52195233D01*
X73133565Y-52170816D01*
X73142411Y-52170500D01*
X81312181Y-52170500D01*
X81379220Y-52190185D01*
X81404331Y-52211528D01*
X81430746Y-52240865D01*
X81585248Y-52353118D01*
X81759714Y-52430795D01*
X81946511Y-52470500D01*
X81946513Y-52470500D01*
X82137489Y-52470500D01*
X82324285Y-52430795D01*
X82324286Y-52430794D01*
X82324288Y-52430794D01*
X82498752Y-52353118D01*
X82653253Y-52240866D01*
X82781040Y-52098944D01*
X82876527Y-51933556D01*
X82935542Y-51751928D01*
X82955504Y-51562000D01*
X82935542Y-51372072D01*
X82876527Y-51190444D01*
X82876527Y-51190443D01*
X82781042Y-51025058D01*
X82761442Y-51003291D01*
X82653253Y-50883134D01*
X82498752Y-50770882D01*
X82498751Y-50770881D01*
X82324285Y-50693204D01*
X82137489Y-50653500D01*
X82137487Y-50653500D01*
X81946513Y-50653500D01*
X81946511Y-50653500D01*
X81759714Y-50693204D01*
X81585248Y-50770881D01*
X81430746Y-50883134D01*
X81404331Y-50912472D01*
X81344845Y-50949121D01*
X81312181Y-50953500D01*
X68293819Y-50953500D01*
X68226780Y-50933815D01*
X68201669Y-50912472D01*
X68175253Y-50883134D01*
X68020751Y-50770881D01*
X67846285Y-50693204D01*
X67659489Y-50653500D01*
X67659487Y-50653500D01*
X67468513Y-50653500D01*
X67468511Y-50653500D01*
X67281714Y-50693204D01*
X67107248Y-50770881D01*
X66952748Y-50883133D01*
X66824957Y-51025058D01*
X66729472Y-51190443D01*
X66670458Y-51372070D01*
X66670457Y-51372072D01*
X66670458Y-51372072D01*
X66653557Y-51532882D01*
X66652550Y-51542462D01*
X66625965Y-51607076D01*
X66568668Y-51647061D01*
X66529229Y-51653500D01*
X66132558Y-51653500D01*
X66065519Y-51633815D01*
X66059672Y-51629818D01*
X65926250Y-51532880D01*
X65906616Y-51524139D01*
X65853378Y-51478889D01*
X65833056Y-51412040D01*
X65852101Y-51344816D01*
X65869364Y-51323183D01*
X67652729Y-49539819D01*
X67714053Y-49506334D01*
X67740411Y-49503500D01*
X83262589Y-49503500D01*
X83329628Y-49523185D01*
X83350270Y-49539819D01*
X83504710Y-49694259D01*
X83538195Y-49755582D01*
X83539050Y-49771152D01*
X83540134Y-49771039D01*
X83561458Y-49973929D01*
X83620472Y-50155556D01*
X83715957Y-50320941D01*
X83715960Y-50320944D01*
X83843747Y-50462866D01*
X83998248Y-50575117D01*
X83998248Y-50575118D01*
X84172714Y-50652795D01*
X84359511Y-50692500D01*
X84359513Y-50692500D01*
X84550489Y-50692500D01*
X84737285Y-50652795D01*
X84737286Y-50652794D01*
X84737288Y-50652794D01*
X84911752Y-50575118D01*
X85066253Y-50462866D01*
X85194040Y-50320944D01*
X85289527Y-50155556D01*
X85348542Y-49973928D01*
X85368504Y-49784000D01*
X85348542Y-49594072D01*
X85289527Y-49412444D01*
X85289527Y-49412443D01*
X85194042Y-49247058D01*
X85174442Y-49225291D01*
X85066253Y-49105134D01*
X84911752Y-48992882D01*
X84911751Y-48992881D01*
X84737285Y-48915204D01*
X84550489Y-48875500D01*
X84550487Y-48875500D01*
X84458411Y-48875500D01*
X84391372Y-48855815D01*
X84370730Y-48839181D01*
X84030225Y-48498676D01*
X84019531Y-48486482D01*
X83999989Y-48461015D01*
X83999987Y-48461014D01*
X83999987Y-48461013D01*
X83968074Y-48436525D01*
X83968072Y-48436523D01*
X83968060Y-48436513D01*
X83968038Y-48436496D01*
X83872876Y-48363476D01*
X83724851Y-48302162D01*
X83705456Y-48299608D01*
X83605902Y-48286502D01*
X83605892Y-48286500D01*
X83605885Y-48286500D01*
X83605883Y-48286500D01*
X83605874Y-48286499D01*
X83566000Y-48281249D01*
X83534180Y-48285439D01*
X83517995Y-48286500D01*
X67485012Y-48286500D01*
X67468827Y-48285439D01*
X67465520Y-48285003D01*
X67436999Y-48281248D01*
X67278148Y-48302162D01*
X67130124Y-48363475D01*
X67036042Y-48435667D01*
X67036038Y-48435670D01*
X67034929Y-48436522D01*
X67034925Y-48436525D01*
X67003013Y-48461013D01*
X67003008Y-48461019D01*
X67003006Y-48461021D01*
X66983466Y-48486484D01*
X66972775Y-48498674D01*
X64373671Y-51097778D01*
X64361478Y-51108471D01*
X64336016Y-51128009D01*
X64336012Y-51128013D01*
X64336013Y-51128013D01*
X64311525Y-51159925D01*
X64311523Y-51159928D01*
X64309173Y-51162989D01*
X64309172Y-51162991D01*
X64238194Y-51255490D01*
X64236918Y-51258883D01*
X64177162Y-51403149D01*
X64161500Y-51522115D01*
X64161500Y-51522121D01*
X64156249Y-51561999D01*
X64160439Y-51593818D01*
X64161500Y-51610004D01*
X64161500Y-54517500D01*
X64141815Y-54584539D01*
X64089011Y-54630294D01*
X64037500Y-54641500D01*
X63332362Y-54641500D01*
X63329082Y-54641852D01*
X63329075Y-54641853D01*
X63271794Y-54648011D01*
X63134796Y-54699110D01*
X63017738Y-54786738D01*
X62930110Y-54903796D01*
X62879011Y-55040794D01*
X62875032Y-55077807D01*
X62872500Y-55101362D01*
X62872500Y-56198638D01*
X62872852Y-56201918D01*
X62872853Y-56201924D01*
X62879011Y-56259205D01*
X62930110Y-56396203D01*
X62933776Y-56401100D01*
X62958193Y-56466564D01*
X62946806Y-56520054D01*
X62948304Y-56520509D01*
X62887091Y-56722300D01*
X62867620Y-56919999D01*
X62887091Y-57117698D01*
X62887092Y-57117701D01*
X62944759Y-57307804D01*
X62944761Y-57307807D01*
X63044162Y-57493775D01*
X63041048Y-57495439D01*
X63060247Y-57540670D01*
X63048442Y-57609535D01*
X63044147Y-57616217D01*
X63044162Y-57616225D01*
X62950312Y-57791807D01*
X62944759Y-57802196D01*
X62930055Y-57850670D01*
X62887091Y-57992301D01*
X62867620Y-58190000D01*
X62887091Y-58387698D01*
X62887092Y-58387701D01*
X62944759Y-58577804D01*
X62996176Y-58673999D01*
X63044162Y-58763775D01*
X63041048Y-58765439D01*
X63060247Y-58810670D01*
X63048442Y-58879535D01*
X63044147Y-58886217D01*
X63044162Y-58886225D01*
X62949672Y-59063004D01*
X62944759Y-59072196D01*
X62927668Y-59128539D01*
X62887091Y-59262301D01*
X62867620Y-59460000D01*
X62887091Y-59657698D01*
X62887092Y-59657701D01*
X62944759Y-59847804D01*
X62944761Y-59847807D01*
X63034386Y-60015486D01*
X63038405Y-60023004D01*
X63038430Y-60023034D01*
X63038464Y-60023115D01*
X63044162Y-60033775D01*
X63043208Y-60034284D01*
X63065743Y-60087341D01*
X63053953Y-60156209D01*
X63050989Y-60160824D01*
X63051264Y-60160971D01*
X62952649Y-60345465D01*
X62911839Y-60479998D01*
X62911840Y-60480000D01*
X63635419Y-60480000D01*
X63583940Y-60535921D01*
X63537018Y-60642892D01*
X63527372Y-60759302D01*
X63556047Y-60872538D01*
X63619936Y-60970327D01*
X63632364Y-60980000D01*
X62911840Y-60980000D01*
X62911839Y-60980001D01*
X62952649Y-61114534D01*
X63051264Y-61299030D01*
X63047513Y-61301034D01*
X63065738Y-61343900D01*
X63053972Y-61412772D01*
X63038437Y-61436957D01*
X63038405Y-61436994D01*
X62944761Y-61612192D01*
X62944759Y-61612196D01*
X62906314Y-61738931D01*
X62887091Y-61802301D01*
X62867906Y-61997085D01*
X62853149Y-62034137D01*
X62857402Y-62036052D01*
X62846964Y-62059240D01*
X62835946Y-62078775D01*
X62830045Y-62087324D01*
X62808457Y-62144245D01*
X62805593Y-62151161D01*
X62780610Y-62206671D01*
X62778738Y-62216889D01*
X62772714Y-62238496D01*
X62769035Y-62248196D01*
X62761696Y-62308632D01*
X62760569Y-62316031D01*
X62749597Y-62375905D01*
X62753274Y-62436674D01*
X62753500Y-62444161D01*
X62753500Y-82222604D01*
X62753274Y-82230091D01*
X62749597Y-82290862D01*
X62760569Y-82350737D01*
X62761696Y-82358136D01*
X62769035Y-82418569D01*
X62772713Y-82428267D01*
X62778738Y-82449878D01*
X62780611Y-82460096D01*
X62805597Y-82515615D01*
X62808463Y-82522533D01*
X62830047Y-82579444D01*
X62835941Y-82587983D01*
X62846964Y-82607527D01*
X62851224Y-82616992D01*
X62888761Y-82664904D01*
X62893200Y-82670937D01*
X62927782Y-82721037D01*
X62927784Y-82721039D01*
X62927785Y-82721040D01*
X62973370Y-82761425D01*
X62978805Y-82766542D01*
X66680492Y-86468230D01*
X66713977Y-86529553D01*
X66708993Y-86599245D01*
X66694386Y-86627034D01*
X66644400Y-86698421D01*
X66544569Y-86912507D01*
X66487364Y-87125999D01*
X66487364Y-87126000D01*
X67384314Y-87126000D01*
X67358507Y-87166156D01*
X67318000Y-87304111D01*
X67318000Y-87447889D01*
X67358507Y-87585844D01*
X67384314Y-87626000D01*
X66487364Y-87626000D01*
X66544569Y-87839492D01*
X66644399Y-88053576D01*
X66779893Y-88247081D01*
X66946918Y-88414106D01*
X67140423Y-88549600D01*
X67354509Y-88649430D01*
X67568000Y-88706634D01*
X67568000Y-87811501D01*
X67675685Y-87860680D01*
X67782237Y-87876000D01*
X67853763Y-87876000D01*
X67960315Y-87860680D01*
X68068000Y-87811501D01*
X68068000Y-88706633D01*
X68281490Y-88649430D01*
X68495576Y-88549600D01*
X68689081Y-88414106D01*
X68856106Y-88247081D01*
X68991600Y-88053576D01*
X69091430Y-87839492D01*
X69148636Y-87626000D01*
X68251686Y-87626000D01*
X68277493Y-87585844D01*
X68318000Y-87447889D01*
X68318000Y-87304111D01*
X68277493Y-87166156D01*
X68251686Y-87126000D01*
X69148636Y-87126000D01*
X69148635Y-87125999D01*
X69106995Y-86970594D01*
X69108658Y-86900744D01*
X69147820Y-86842881D01*
X69212049Y-86815377D01*
X69226770Y-86814500D01*
X70983489Y-86814500D01*
X71050528Y-86834185D01*
X71096283Y-86886989D01*
X71106227Y-86956147D01*
X71085264Y-87009337D01*
X71001144Y-87130194D01*
X70920940Y-87317092D01*
X70880000Y-87516311D01*
X70880000Y-87668000D01*
X71580000Y-87668000D01*
X71580000Y-88168000D01*
X70880000Y-88168000D01*
X70880000Y-88265570D01*
X70880317Y-88271835D01*
X70895419Y-88420339D01*
X70956303Y-88614389D01*
X71055003Y-88792214D01*
X71187479Y-88946531D01*
X71212628Y-88965998D01*
X71253592Y-89022599D01*
X71257452Y-89092362D01*
X71222983Y-89153138D01*
X71161128Y-89185629D01*
X71136727Y-89188054D01*
X64490583Y-89188054D01*
X64423544Y-89168369D01*
X64377789Y-89115565D01*
X64367845Y-89046407D01*
X64396870Y-88982851D01*
X64430846Y-88955392D01*
X64531109Y-88900272D01*
X64537678Y-88896102D01*
X64759433Y-88734986D01*
X64759434Y-88734986D01*
X63829306Y-87804859D01*
X63843410Y-87797589D01*
X64008540Y-87667729D01*
X64146110Y-87508965D01*
X64180665Y-87449113D01*
X65110686Y-88379133D01*
X65188997Y-88284474D01*
X65193568Y-88278182D01*
X65351207Y-88029782D01*
X65354949Y-88022976D01*
X65480218Y-87756765D01*
X65483078Y-87749541D01*
X65573990Y-87469745D01*
X65575926Y-87462206D01*
X65631053Y-87173220D01*
X65632027Y-87165500D01*
X65650500Y-86871894D01*
X65650500Y-86864105D01*
X65632027Y-86570499D01*
X65631053Y-86562779D01*
X65575926Y-86273793D01*
X65573990Y-86266254D01*
X65483078Y-85986458D01*
X65480218Y-85979234D01*
X65354949Y-85713023D01*
X65351207Y-85706217D01*
X65193569Y-85457818D01*
X65188993Y-85451520D01*
X65110686Y-85356864D01*
X64181787Y-86285762D01*
X64081106Y-86144376D01*
X63929068Y-85999408D01*
X63826777Y-85933669D01*
X64759434Y-85001012D01*
X64537679Y-84839897D01*
X64531108Y-84835727D01*
X64273305Y-84693999D01*
X64266266Y-84690686D01*
X63992729Y-84582386D01*
X63985334Y-84579983D01*
X63700374Y-84506817D01*
X63692743Y-84505362D01*
X63400859Y-84468488D01*
X63393101Y-84468000D01*
X63098899Y-84468000D01*
X63091140Y-84468488D01*
X62799256Y-84505362D01*
X62791625Y-84506817D01*
X62506665Y-84579983D01*
X62499270Y-84582386D01*
X62225733Y-84690686D01*
X62218694Y-84693999D01*
X61960899Y-84835723D01*
X61954309Y-84839905D01*
X61732565Y-85001011D01*
X61732564Y-85001012D01*
X62662693Y-85931140D01*
X62648590Y-85938411D01*
X62483460Y-86068271D01*
X62345890Y-86227035D01*
X62311334Y-86286887D01*
X61381312Y-85356864D01*
X61302995Y-85451534D01*
X61298434Y-85457812D01*
X61188696Y-85630733D01*
X61136154Y-85676789D01*
X61067054Y-85687128D01*
X61003333Y-85658466D01*
X60965223Y-85599905D01*
X60960000Y-85564297D01*
X60960000Y-47494999D01*
X60979685Y-47427961D01*
X61032489Y-47382206D01*
X61084000Y-47371000D01*
X87378500Y-47371000D01*
X87445539Y-47390685D01*
G37*
%TD.AperFunction*%
%TA.AperFunction,Conductor*%
G36*
X66541742Y-61684154D02*
G01*
X66568449Y-61704446D01*
X73095322Y-68231319D01*
X73128807Y-68292642D01*
X73123823Y-68362334D01*
X73081951Y-68418267D01*
X73016487Y-68442684D01*
X73007641Y-68443000D01*
X72163332Y-68443000D01*
X72096293Y-68423315D01*
X72075651Y-68406681D01*
X65749151Y-62080181D01*
X65715666Y-62018858D01*
X65720650Y-61949166D01*
X65762522Y-61893233D01*
X65827986Y-61868816D01*
X65836832Y-61868500D01*
X65964989Y-61868500D01*
X66151785Y-61828795D01*
X66151786Y-61828794D01*
X66151788Y-61828794D01*
X66326252Y-61751118D01*
X66407883Y-61691809D01*
X66473688Y-61668329D01*
X66541742Y-61684154D01*
G37*
%TD.AperFunction*%
%TA.AperFunction,Conductor*%
G36*
X68434539Y-52890185D02*
G01*
X68480294Y-52942989D01*
X68491500Y-52994500D01*
X68491500Y-53968638D01*
X68491852Y-53971918D01*
X68491853Y-53971924D01*
X68498011Y-54029205D01*
X68549110Y-54166203D01*
X68552776Y-54171100D01*
X68577193Y-54236564D01*
X68565806Y-54290054D01*
X68567304Y-54290509D01*
X68506091Y-54492300D01*
X68486620Y-54689999D01*
X68506091Y-54887698D01*
X68506092Y-54887701D01*
X68563759Y-55077804D01*
X68563761Y-55077807D01*
X68663162Y-55263775D01*
X68660046Y-55265440D01*
X68679245Y-55310647D01*
X68667452Y-55379514D01*
X68663145Y-55386217D01*
X68663162Y-55386226D01*
X68657405Y-55396994D01*
X68657405Y-55396996D01*
X68595209Y-55513357D01*
X68563759Y-55572196D01*
X68506091Y-55762301D01*
X68486620Y-55959999D01*
X68506091Y-56157698D01*
X68506092Y-56157701D01*
X68563759Y-56347804D01*
X68563761Y-56347807D01*
X68663162Y-56533775D01*
X68660048Y-56535439D01*
X68679247Y-56580670D01*
X68667442Y-56649535D01*
X68663147Y-56656217D01*
X68663162Y-56656225D01*
X68564400Y-56840996D01*
X68563759Y-56842196D01*
X68525314Y-56968931D01*
X68506091Y-57032301D01*
X68486620Y-57229999D01*
X68506091Y-57427698D01*
X68506092Y-57427701D01*
X68563759Y-57617804D01*
X68630069Y-57741863D01*
X68663162Y-57803775D01*
X68660048Y-57805439D01*
X68679247Y-57850670D01*
X68667442Y-57919535D01*
X68663147Y-57926217D01*
X68663162Y-57926225D01*
X68564400Y-58110996D01*
X68563759Y-58112196D01*
X68525314Y-58238931D01*
X68506091Y-58302301D01*
X68486620Y-58500000D01*
X68506091Y-58697698D01*
X68506092Y-58697701D01*
X68563759Y-58887804D01*
X68578999Y-58916316D01*
X68663162Y-59073775D01*
X68660046Y-59075440D01*
X68679245Y-59120647D01*
X68667452Y-59189514D01*
X68663144Y-59196218D01*
X68663161Y-59196227D01*
X68627650Y-59262662D01*
X68578687Y-59312506D01*
X68510549Y-59327966D01*
X68444870Y-59304134D01*
X68432827Y-59293231D01*
X68429251Y-59290633D01*
X68301473Y-59197796D01*
X68274751Y-59178381D01*
X68100285Y-59100704D01*
X67913489Y-59061000D01*
X67913487Y-59061000D01*
X67722513Y-59061000D01*
X67722511Y-59061000D01*
X67535714Y-59100704D01*
X67361248Y-59178381D01*
X67206748Y-59290633D01*
X67078957Y-59432558D01*
X66983472Y-59597943D01*
X66924457Y-59779574D01*
X66919654Y-59825269D01*
X66893069Y-59889883D01*
X66884015Y-59899986D01*
X66689680Y-60094321D01*
X66628357Y-60127806D01*
X66558665Y-60122822D01*
X66502732Y-60080950D01*
X66478315Y-60015486D01*
X66477999Y-60006640D01*
X66477999Y-59602914D01*
X66477999Y-58932488D01*
X66479058Y-58916338D01*
X66483250Y-58884500D01*
X66478000Y-58844620D01*
X66478000Y-58844615D01*
X66462338Y-58725650D01*
X66459746Y-58719391D01*
X66450761Y-58697698D01*
X66401024Y-58577623D01*
X66327986Y-58482439D01*
X66327975Y-58482426D01*
X66322277Y-58475001D01*
X66303487Y-58450513D01*
X66278012Y-58430965D01*
X66265826Y-58420277D01*
X65414818Y-57569269D01*
X65381333Y-57507946D01*
X65378499Y-57481588D01*
X65378500Y-53356500D01*
X65398185Y-53289461D01*
X65450989Y-53243706D01*
X65502500Y-53232500D01*
X65564989Y-53232500D01*
X65751785Y-53192795D01*
X65751786Y-53192794D01*
X65751788Y-53192794D01*
X65926252Y-53115118D01*
X66080753Y-53002866D01*
X66162994Y-52911527D01*
X66222481Y-52874879D01*
X66255144Y-52870500D01*
X68367500Y-52870500D01*
X68434539Y-52890185D01*
G37*
%TD.AperFunction*%
%TD*%
%TA.AperFunction,NonConductor*%
G36*
X64375703Y-74649119D02*
G01*
X64382181Y-74655151D01*
X65676180Y-75949150D01*
X65709665Y-76010473D01*
X65712499Y-76036831D01*
X65712499Y-83196933D01*
X65692814Y-83263972D01*
X65640010Y-83309727D01*
X65570852Y-83319671D01*
X65507296Y-83290646D01*
X65500818Y-83284614D01*
X64206819Y-81990615D01*
X64173334Y-81929292D01*
X64170500Y-81902934D01*
X64170500Y-74742832D01*
X64190185Y-74675793D01*
X64242989Y-74630038D01*
X64312147Y-74620094D01*
X64375703Y-74649119D01*
G37*
%TD.AperFunction*%
M02*
