%TF.GenerationSoftware,KiCad,Pcbnew,7.0.2-6a45011f42~172~ubuntu23.04.1*%
%TF.CreationDate,2023-05-23T16:14:19+02:00*%
%TF.ProjectId,pcb,7063622e-6b69-4636-9164-5f7063625858,rev?*%
%TF.SameCoordinates,Original*%
%TF.FileFunction,Drillmap*%
%TF.FilePolarity,Positive*%
%FSLAX45Y45*%
G04 Gerber Fmt 4.5, Leading zero omitted, Abs format (unit mm)*
G04 Created by KiCad (PCBNEW 7.0.2-6a45011f42~172~ubuntu23.04.1) date 2023-05-23 16:14:19*
%MOMM*%
%LPD*%
G01*
G04 APERTURE LIST*
%ADD10C,0.100000*%
%ADD11C,0.200000*%
%ADD12C,0.065000*%
G04 APERTURE END LIST*
D10*
X6321145Y-4241800D02*
X8521700Y-4241800D01*
X8521700Y-8918860D02*
G75*
G03*
X8750300Y-8690255I0J228600D01*
G01*
X6321145Y-4241805D02*
G75*
G03*
X6092545Y-4470400I-5J-228595D01*
G01*
X8521700Y-8918855D02*
X6321145Y-8918855D01*
X8750300Y-4470400D02*
X8750300Y-8690255D01*
X8750300Y-4470400D02*
G75*
G03*
X8521700Y-4241800I-228600J0D01*
G01*
X6092545Y-8690255D02*
G75*
G03*
X6321145Y-8918855I228595J-5D01*
G01*
X6092545Y-8690255D02*
X6092545Y-4470400D01*
D11*
D12*
X7298500Y-8394300D02*
X7363500Y-8459300D01*
X7363500Y-8394300D02*
X7298500Y-8459300D01*
X7876500Y-8394300D02*
X7941500Y-8459300D01*
X7941500Y-8394300D02*
X7876500Y-8459300D01*
D11*
X6335164Y-9236379D02*
X6335164Y-9036379D01*
X6335164Y-9036379D02*
X6382783Y-9036379D01*
X6382783Y-9036379D02*
X6411354Y-9045903D01*
X6411354Y-9045903D02*
X6430402Y-9064951D01*
X6430402Y-9064951D02*
X6439925Y-9083998D01*
X6439925Y-9083998D02*
X6449449Y-9122093D01*
X6449449Y-9122093D02*
X6449449Y-9150665D01*
X6449449Y-9150665D02*
X6439925Y-9188760D01*
X6439925Y-9188760D02*
X6430402Y-9207808D01*
X6430402Y-9207808D02*
X6411354Y-9226855D01*
X6411354Y-9226855D02*
X6382783Y-9236379D01*
X6382783Y-9236379D02*
X6335164Y-9236379D01*
X6535164Y-9236379D02*
X6535164Y-9103046D01*
X6535164Y-9141141D02*
X6544687Y-9122093D01*
X6544687Y-9122093D02*
X6554211Y-9112570D01*
X6554211Y-9112570D02*
X6573259Y-9103046D01*
X6573259Y-9103046D02*
X6592306Y-9103046D01*
X6658973Y-9236379D02*
X6658973Y-9103046D01*
X6658973Y-9036379D02*
X6649449Y-9045903D01*
X6649449Y-9045903D02*
X6658973Y-9055427D01*
X6658973Y-9055427D02*
X6668497Y-9045903D01*
X6668497Y-9045903D02*
X6658973Y-9036379D01*
X6658973Y-9036379D02*
X6658973Y-9055427D01*
X6782783Y-9236379D02*
X6763735Y-9226855D01*
X6763735Y-9226855D02*
X6754211Y-9207808D01*
X6754211Y-9207808D02*
X6754211Y-9036379D01*
X6887544Y-9236379D02*
X6868497Y-9226855D01*
X6868497Y-9226855D02*
X6858973Y-9207808D01*
X6858973Y-9207808D02*
X6858973Y-9036379D01*
X7116116Y-9236379D02*
X7116116Y-9036379D01*
X7116116Y-9036379D02*
X7182783Y-9179236D01*
X7182783Y-9179236D02*
X7249449Y-9036379D01*
X7249449Y-9036379D02*
X7249449Y-9236379D01*
X7430402Y-9236379D02*
X7430402Y-9131617D01*
X7430402Y-9131617D02*
X7420878Y-9112570D01*
X7420878Y-9112570D02*
X7401830Y-9103046D01*
X7401830Y-9103046D02*
X7363735Y-9103046D01*
X7363735Y-9103046D02*
X7344687Y-9112570D01*
X7430402Y-9226855D02*
X7411354Y-9236379D01*
X7411354Y-9236379D02*
X7363735Y-9236379D01*
X7363735Y-9236379D02*
X7344687Y-9226855D01*
X7344687Y-9226855D02*
X7335164Y-9207808D01*
X7335164Y-9207808D02*
X7335164Y-9188760D01*
X7335164Y-9188760D02*
X7344687Y-9169713D01*
X7344687Y-9169713D02*
X7363735Y-9160189D01*
X7363735Y-9160189D02*
X7411354Y-9160189D01*
X7411354Y-9160189D02*
X7430402Y-9150665D01*
X7525640Y-9103046D02*
X7525640Y-9303046D01*
X7525640Y-9112570D02*
X7544687Y-9103046D01*
X7544687Y-9103046D02*
X7582783Y-9103046D01*
X7582783Y-9103046D02*
X7601830Y-9112570D01*
X7601830Y-9112570D02*
X7611354Y-9122093D01*
X7611354Y-9122093D02*
X7620878Y-9141141D01*
X7620878Y-9141141D02*
X7620878Y-9198284D01*
X7620878Y-9198284D02*
X7611354Y-9217332D01*
X7611354Y-9217332D02*
X7601830Y-9226855D01*
X7601830Y-9226855D02*
X7582783Y-9236379D01*
X7582783Y-9236379D02*
X7544687Y-9236379D01*
X7544687Y-9236379D02*
X7525640Y-9226855D01*
X7706592Y-9217332D02*
X7716116Y-9226855D01*
X7716116Y-9226855D02*
X7706592Y-9236379D01*
X7706592Y-9236379D02*
X7697068Y-9226855D01*
X7697068Y-9226855D02*
X7706592Y-9217332D01*
X7706592Y-9217332D02*
X7706592Y-9236379D01*
X7706592Y-9112570D02*
X7716116Y-9122093D01*
X7716116Y-9122093D02*
X7706592Y-9131617D01*
X7706592Y-9131617D02*
X7697068Y-9122093D01*
X7697068Y-9122093D02*
X7706592Y-9112570D01*
X7706592Y-9112570D02*
X7706592Y-9131617D01*
D12*
X6022545Y-9531355D02*
X6087545Y-9596355D01*
X6087545Y-9531355D02*
X6022545Y-9596355D01*
D11*
X6373259Y-9456379D02*
X6392306Y-9456379D01*
X6392306Y-9456379D02*
X6411354Y-9465903D01*
X6411354Y-9465903D02*
X6420878Y-9475427D01*
X6420878Y-9475427D02*
X6430402Y-9494474D01*
X6430402Y-9494474D02*
X6439925Y-9532570D01*
X6439925Y-9532570D02*
X6439925Y-9580189D01*
X6439925Y-9580189D02*
X6430402Y-9618284D01*
X6430402Y-9618284D02*
X6420878Y-9637332D01*
X6420878Y-9637332D02*
X6411354Y-9646855D01*
X6411354Y-9646855D02*
X6392306Y-9656379D01*
X6392306Y-9656379D02*
X6373259Y-9656379D01*
X6373259Y-9656379D02*
X6354211Y-9646855D01*
X6354211Y-9646855D02*
X6344687Y-9637332D01*
X6344687Y-9637332D02*
X6335164Y-9618284D01*
X6335164Y-9618284D02*
X6325640Y-9580189D01*
X6325640Y-9580189D02*
X6325640Y-9532570D01*
X6325640Y-9532570D02*
X6335164Y-9494474D01*
X6335164Y-9494474D02*
X6344687Y-9475427D01*
X6344687Y-9475427D02*
X6354211Y-9465903D01*
X6354211Y-9465903D02*
X6373259Y-9456379D01*
X6525640Y-9637332D02*
X6535164Y-9646855D01*
X6535164Y-9646855D02*
X6525640Y-9656379D01*
X6525640Y-9656379D02*
X6516116Y-9646855D01*
X6516116Y-9646855D02*
X6525640Y-9637332D01*
X6525640Y-9637332D02*
X6525640Y-9656379D01*
X6706592Y-9456379D02*
X6668497Y-9456379D01*
X6668497Y-9456379D02*
X6649449Y-9465903D01*
X6649449Y-9465903D02*
X6639925Y-9475427D01*
X6639925Y-9475427D02*
X6620878Y-9503998D01*
X6620878Y-9503998D02*
X6611354Y-9542093D01*
X6611354Y-9542093D02*
X6611354Y-9618284D01*
X6611354Y-9618284D02*
X6620878Y-9637332D01*
X6620878Y-9637332D02*
X6630402Y-9646855D01*
X6630402Y-9646855D02*
X6649449Y-9656379D01*
X6649449Y-9656379D02*
X6687545Y-9656379D01*
X6687545Y-9656379D02*
X6706592Y-9646855D01*
X6706592Y-9646855D02*
X6716116Y-9637332D01*
X6716116Y-9637332D02*
X6725640Y-9618284D01*
X6725640Y-9618284D02*
X6725640Y-9570665D01*
X6725640Y-9570665D02*
X6716116Y-9551617D01*
X6716116Y-9551617D02*
X6706592Y-9542093D01*
X6706592Y-9542093D02*
X6687545Y-9532570D01*
X6687545Y-9532570D02*
X6649449Y-9532570D01*
X6649449Y-9532570D02*
X6630402Y-9542093D01*
X6630402Y-9542093D02*
X6620878Y-9551617D01*
X6620878Y-9551617D02*
X6611354Y-9570665D01*
X6906592Y-9456379D02*
X6811354Y-9456379D01*
X6811354Y-9456379D02*
X6801830Y-9551617D01*
X6801830Y-9551617D02*
X6811354Y-9542093D01*
X6811354Y-9542093D02*
X6830402Y-9532570D01*
X6830402Y-9532570D02*
X6878021Y-9532570D01*
X6878021Y-9532570D02*
X6897068Y-9542093D01*
X6897068Y-9542093D02*
X6906592Y-9551617D01*
X6906592Y-9551617D02*
X6916116Y-9570665D01*
X6916116Y-9570665D02*
X6916116Y-9618284D01*
X6916116Y-9618284D02*
X6906592Y-9637332D01*
X6906592Y-9637332D02*
X6897068Y-9646855D01*
X6897068Y-9646855D02*
X6878021Y-9656379D01*
X6878021Y-9656379D02*
X6830402Y-9656379D01*
X6830402Y-9656379D02*
X6811354Y-9646855D01*
X6811354Y-9646855D02*
X6801830Y-9637332D01*
X7039925Y-9456379D02*
X7058973Y-9456379D01*
X7058973Y-9456379D02*
X7078021Y-9465903D01*
X7078021Y-9465903D02*
X7087545Y-9475427D01*
X7087545Y-9475427D02*
X7097068Y-9494474D01*
X7097068Y-9494474D02*
X7106592Y-9532570D01*
X7106592Y-9532570D02*
X7106592Y-9580189D01*
X7106592Y-9580189D02*
X7097068Y-9618284D01*
X7097068Y-9618284D02*
X7087545Y-9637332D01*
X7087545Y-9637332D02*
X7078021Y-9646855D01*
X7078021Y-9646855D02*
X7058973Y-9656379D01*
X7058973Y-9656379D02*
X7039925Y-9656379D01*
X7039925Y-9656379D02*
X7020878Y-9646855D01*
X7020878Y-9646855D02*
X7011354Y-9637332D01*
X7011354Y-9637332D02*
X7001830Y-9618284D01*
X7001830Y-9618284D02*
X6992306Y-9580189D01*
X6992306Y-9580189D02*
X6992306Y-9532570D01*
X6992306Y-9532570D02*
X7001830Y-9494474D01*
X7001830Y-9494474D02*
X7011354Y-9475427D01*
X7011354Y-9475427D02*
X7020878Y-9465903D01*
X7020878Y-9465903D02*
X7039925Y-9456379D01*
X7192306Y-9656379D02*
X7192306Y-9523046D01*
X7192306Y-9542093D02*
X7201830Y-9532570D01*
X7201830Y-9532570D02*
X7220878Y-9523046D01*
X7220878Y-9523046D02*
X7249449Y-9523046D01*
X7249449Y-9523046D02*
X7268497Y-9532570D01*
X7268497Y-9532570D02*
X7278021Y-9551617D01*
X7278021Y-9551617D02*
X7278021Y-9656379D01*
X7278021Y-9551617D02*
X7287545Y-9532570D01*
X7287545Y-9532570D02*
X7306592Y-9523046D01*
X7306592Y-9523046D02*
X7335164Y-9523046D01*
X7335164Y-9523046D02*
X7354211Y-9532570D01*
X7354211Y-9532570D02*
X7363735Y-9551617D01*
X7363735Y-9551617D02*
X7363735Y-9656379D01*
X7458973Y-9656379D02*
X7458973Y-9523046D01*
X7458973Y-9542093D02*
X7468497Y-9532570D01*
X7468497Y-9532570D02*
X7487545Y-9523046D01*
X7487545Y-9523046D02*
X7516116Y-9523046D01*
X7516116Y-9523046D02*
X7535164Y-9532570D01*
X7535164Y-9532570D02*
X7544687Y-9551617D01*
X7544687Y-9551617D02*
X7544687Y-9656379D01*
X7544687Y-9551617D02*
X7554211Y-9532570D01*
X7554211Y-9532570D02*
X7573259Y-9523046D01*
X7573259Y-9523046D02*
X7601830Y-9523046D01*
X7601830Y-9523046D02*
X7620878Y-9532570D01*
X7620878Y-9532570D02*
X7630402Y-9551617D01*
X7630402Y-9551617D02*
X7630402Y-9656379D01*
X8020878Y-9446855D02*
X7849449Y-9703998D01*
X8278021Y-9456379D02*
X8297069Y-9456379D01*
X8297069Y-9456379D02*
X8316116Y-9465903D01*
X8316116Y-9465903D02*
X8325640Y-9475427D01*
X8325640Y-9475427D02*
X8335164Y-9494474D01*
X8335164Y-9494474D02*
X8344688Y-9532570D01*
X8344688Y-9532570D02*
X8344688Y-9580189D01*
X8344688Y-9580189D02*
X8335164Y-9618284D01*
X8335164Y-9618284D02*
X8325640Y-9637332D01*
X8325640Y-9637332D02*
X8316116Y-9646855D01*
X8316116Y-9646855D02*
X8297069Y-9656379D01*
X8297069Y-9656379D02*
X8278021Y-9656379D01*
X8278021Y-9656379D02*
X8258973Y-9646855D01*
X8258973Y-9646855D02*
X8249449Y-9637332D01*
X8249449Y-9637332D02*
X8239926Y-9618284D01*
X8239926Y-9618284D02*
X8230402Y-9580189D01*
X8230402Y-9580189D02*
X8230402Y-9532570D01*
X8230402Y-9532570D02*
X8239926Y-9494474D01*
X8239926Y-9494474D02*
X8249449Y-9475427D01*
X8249449Y-9475427D02*
X8258973Y-9465903D01*
X8258973Y-9465903D02*
X8278021Y-9456379D01*
X8430402Y-9637332D02*
X8439926Y-9646855D01*
X8439926Y-9646855D02*
X8430402Y-9656379D01*
X8430402Y-9656379D02*
X8420878Y-9646855D01*
X8420878Y-9646855D02*
X8430402Y-9637332D01*
X8430402Y-9637332D02*
X8430402Y-9656379D01*
X8563735Y-9456379D02*
X8582783Y-9456379D01*
X8582783Y-9456379D02*
X8601831Y-9465903D01*
X8601831Y-9465903D02*
X8611354Y-9475427D01*
X8611354Y-9475427D02*
X8620878Y-9494474D01*
X8620878Y-9494474D02*
X8630402Y-9532570D01*
X8630402Y-9532570D02*
X8630402Y-9580189D01*
X8630402Y-9580189D02*
X8620878Y-9618284D01*
X8620878Y-9618284D02*
X8611354Y-9637332D01*
X8611354Y-9637332D02*
X8601831Y-9646855D01*
X8601831Y-9646855D02*
X8582783Y-9656379D01*
X8582783Y-9656379D02*
X8563735Y-9656379D01*
X8563735Y-9656379D02*
X8544688Y-9646855D01*
X8544688Y-9646855D02*
X8535164Y-9637332D01*
X8535164Y-9637332D02*
X8525640Y-9618284D01*
X8525640Y-9618284D02*
X8516116Y-9580189D01*
X8516116Y-9580189D02*
X8516116Y-9532570D01*
X8516116Y-9532570D02*
X8525640Y-9494474D01*
X8525640Y-9494474D02*
X8535164Y-9475427D01*
X8535164Y-9475427D02*
X8544688Y-9465903D01*
X8544688Y-9465903D02*
X8563735Y-9456379D01*
X8706592Y-9475427D02*
X8716116Y-9465903D01*
X8716116Y-9465903D02*
X8735164Y-9456379D01*
X8735164Y-9456379D02*
X8782783Y-9456379D01*
X8782783Y-9456379D02*
X8801831Y-9465903D01*
X8801831Y-9465903D02*
X8811354Y-9475427D01*
X8811354Y-9475427D02*
X8820878Y-9494474D01*
X8820878Y-9494474D02*
X8820878Y-9513522D01*
X8820878Y-9513522D02*
X8811354Y-9542093D01*
X8811354Y-9542093D02*
X8697069Y-9656379D01*
X8697069Y-9656379D02*
X8820878Y-9656379D01*
X9001831Y-9456379D02*
X8906592Y-9456379D01*
X8906592Y-9456379D02*
X8897069Y-9551617D01*
X8897069Y-9551617D02*
X8906592Y-9542093D01*
X8906592Y-9542093D02*
X8925640Y-9532570D01*
X8925640Y-9532570D02*
X8973259Y-9532570D01*
X8973259Y-9532570D02*
X8992307Y-9542093D01*
X8992307Y-9542093D02*
X9001831Y-9551617D01*
X9001831Y-9551617D02*
X9011354Y-9570665D01*
X9011354Y-9570665D02*
X9011354Y-9618284D01*
X9011354Y-9618284D02*
X9001831Y-9637332D01*
X9001831Y-9637332D02*
X8992307Y-9646855D01*
X8992307Y-9646855D02*
X8973259Y-9656379D01*
X8973259Y-9656379D02*
X8925640Y-9656379D01*
X8925640Y-9656379D02*
X8906592Y-9646855D01*
X8906592Y-9646855D02*
X8897069Y-9637332D01*
X9182783Y-9456379D02*
X9144688Y-9456379D01*
X9144688Y-9456379D02*
X9125640Y-9465903D01*
X9125640Y-9465903D02*
X9116116Y-9475427D01*
X9116116Y-9475427D02*
X9097069Y-9503998D01*
X9097069Y-9503998D02*
X9087545Y-9542093D01*
X9087545Y-9542093D02*
X9087545Y-9618284D01*
X9087545Y-9618284D02*
X9097069Y-9637332D01*
X9097069Y-9637332D02*
X9106592Y-9646855D01*
X9106592Y-9646855D02*
X9125640Y-9656379D01*
X9125640Y-9656379D02*
X9163735Y-9656379D01*
X9163735Y-9656379D02*
X9182783Y-9646855D01*
X9182783Y-9646855D02*
X9192307Y-9637332D01*
X9192307Y-9637332D02*
X9201831Y-9618284D01*
X9201831Y-9618284D02*
X9201831Y-9570665D01*
X9201831Y-9570665D02*
X9192307Y-9551617D01*
X9192307Y-9551617D02*
X9182783Y-9542093D01*
X9182783Y-9542093D02*
X9163735Y-9532570D01*
X9163735Y-9532570D02*
X9125640Y-9532570D01*
X9125640Y-9532570D02*
X9106592Y-9542093D01*
X9106592Y-9542093D02*
X9097069Y-9551617D01*
X9097069Y-9551617D02*
X9087545Y-9570665D01*
X9278021Y-9456379D02*
X9278021Y-9494474D01*
X9354212Y-9456379D02*
X9354212Y-9494474D01*
X9649450Y-9732570D02*
X9639926Y-9723046D01*
X9639926Y-9723046D02*
X9620878Y-9694474D01*
X9620878Y-9694474D02*
X9611354Y-9675427D01*
X9611354Y-9675427D02*
X9601831Y-9646855D01*
X9601831Y-9646855D02*
X9592307Y-9599236D01*
X9592307Y-9599236D02*
X9592307Y-9561141D01*
X9592307Y-9561141D02*
X9601831Y-9513522D01*
X9601831Y-9513522D02*
X9611354Y-9484951D01*
X9611354Y-9484951D02*
X9620878Y-9465903D01*
X9620878Y-9465903D02*
X9639926Y-9437332D01*
X9639926Y-9437332D02*
X9649450Y-9427808D01*
X9716116Y-9475427D02*
X9725640Y-9465903D01*
X9725640Y-9465903D02*
X9744688Y-9456379D01*
X9744688Y-9456379D02*
X9792307Y-9456379D01*
X9792307Y-9456379D02*
X9811354Y-9465903D01*
X9811354Y-9465903D02*
X9820878Y-9475427D01*
X9820878Y-9475427D02*
X9830402Y-9494474D01*
X9830402Y-9494474D02*
X9830402Y-9513522D01*
X9830402Y-9513522D02*
X9820878Y-9542093D01*
X9820878Y-9542093D02*
X9706593Y-9656379D01*
X9706593Y-9656379D02*
X9830402Y-9656379D01*
X10068497Y-9656379D02*
X10068497Y-9456379D01*
X10154212Y-9656379D02*
X10154212Y-9551617D01*
X10154212Y-9551617D02*
X10144688Y-9532570D01*
X10144688Y-9532570D02*
X10125640Y-9523046D01*
X10125640Y-9523046D02*
X10097069Y-9523046D01*
X10097069Y-9523046D02*
X10078021Y-9532570D01*
X10078021Y-9532570D02*
X10068497Y-9542093D01*
X10278021Y-9656379D02*
X10258974Y-9646855D01*
X10258974Y-9646855D02*
X10249450Y-9637332D01*
X10249450Y-9637332D02*
X10239926Y-9618284D01*
X10239926Y-9618284D02*
X10239926Y-9561141D01*
X10239926Y-9561141D02*
X10249450Y-9542093D01*
X10249450Y-9542093D02*
X10258974Y-9532570D01*
X10258974Y-9532570D02*
X10278021Y-9523046D01*
X10278021Y-9523046D02*
X10306593Y-9523046D01*
X10306593Y-9523046D02*
X10325640Y-9532570D01*
X10325640Y-9532570D02*
X10335164Y-9542093D01*
X10335164Y-9542093D02*
X10344688Y-9561141D01*
X10344688Y-9561141D02*
X10344688Y-9618284D01*
X10344688Y-9618284D02*
X10335164Y-9637332D01*
X10335164Y-9637332D02*
X10325640Y-9646855D01*
X10325640Y-9646855D02*
X10306593Y-9656379D01*
X10306593Y-9656379D02*
X10278021Y-9656379D01*
X10458974Y-9656379D02*
X10439926Y-9646855D01*
X10439926Y-9646855D02*
X10430402Y-9627808D01*
X10430402Y-9627808D02*
X10430402Y-9456379D01*
X10611355Y-9646855D02*
X10592307Y-9656379D01*
X10592307Y-9656379D02*
X10554212Y-9656379D01*
X10554212Y-9656379D02*
X10535164Y-9646855D01*
X10535164Y-9646855D02*
X10525640Y-9627808D01*
X10525640Y-9627808D02*
X10525640Y-9551617D01*
X10525640Y-9551617D02*
X10535164Y-9532570D01*
X10535164Y-9532570D02*
X10554212Y-9523046D01*
X10554212Y-9523046D02*
X10592307Y-9523046D01*
X10592307Y-9523046D02*
X10611355Y-9532570D01*
X10611355Y-9532570D02*
X10620878Y-9551617D01*
X10620878Y-9551617D02*
X10620878Y-9570665D01*
X10620878Y-9570665D02*
X10525640Y-9589713D01*
X10697069Y-9646855D02*
X10716116Y-9656379D01*
X10716116Y-9656379D02*
X10754212Y-9656379D01*
X10754212Y-9656379D02*
X10773259Y-9646855D01*
X10773259Y-9646855D02*
X10782783Y-9627808D01*
X10782783Y-9627808D02*
X10782783Y-9618284D01*
X10782783Y-9618284D02*
X10773259Y-9599236D01*
X10773259Y-9599236D02*
X10754212Y-9589713D01*
X10754212Y-9589713D02*
X10725640Y-9589713D01*
X10725640Y-9589713D02*
X10706593Y-9580189D01*
X10706593Y-9580189D02*
X10697069Y-9561141D01*
X10697069Y-9561141D02*
X10697069Y-9551617D01*
X10697069Y-9551617D02*
X10706593Y-9532570D01*
X10706593Y-9532570D02*
X10725640Y-9523046D01*
X10725640Y-9523046D02*
X10754212Y-9523046D01*
X10754212Y-9523046D02*
X10773259Y-9532570D01*
X10849450Y-9732570D02*
X10858974Y-9723046D01*
X10858974Y-9723046D02*
X10878021Y-9694474D01*
X10878021Y-9694474D02*
X10887545Y-9675427D01*
X10887545Y-9675427D02*
X10897069Y-9646855D01*
X10897069Y-9646855D02*
X10906593Y-9599236D01*
X10906593Y-9599236D02*
X10906593Y-9561141D01*
X10906593Y-9561141D02*
X10897069Y-9513522D01*
X10897069Y-9513522D02*
X10887545Y-9484951D01*
X10887545Y-9484951D02*
X10878021Y-9465903D01*
X10878021Y-9465903D02*
X10858974Y-9437332D01*
X10858974Y-9437332D02*
X10849450Y-9427808D01*
X11211355Y-9732570D02*
X11201831Y-9723046D01*
X11201831Y-9723046D02*
X11182783Y-9694474D01*
X11182783Y-9694474D02*
X11173259Y-9675427D01*
X11173259Y-9675427D02*
X11163736Y-9646855D01*
X11163736Y-9646855D02*
X11154212Y-9599236D01*
X11154212Y-9599236D02*
X11154212Y-9561141D01*
X11154212Y-9561141D02*
X11163736Y-9513522D01*
X11163736Y-9513522D02*
X11173259Y-9484951D01*
X11173259Y-9484951D02*
X11182783Y-9465903D01*
X11182783Y-9465903D02*
X11201831Y-9437332D01*
X11201831Y-9437332D02*
X11211355Y-9427808D01*
X11287545Y-9523046D02*
X11287545Y-9656379D01*
X11287545Y-9542093D02*
X11297069Y-9532570D01*
X11297069Y-9532570D02*
X11316116Y-9523046D01*
X11316116Y-9523046D02*
X11344688Y-9523046D01*
X11344688Y-9523046D02*
X11363735Y-9532570D01*
X11363735Y-9532570D02*
X11373259Y-9551617D01*
X11373259Y-9551617D02*
X11373259Y-9656379D01*
X11497069Y-9656379D02*
X11478021Y-9646855D01*
X11478021Y-9646855D02*
X11468497Y-9637332D01*
X11468497Y-9637332D02*
X11458974Y-9618284D01*
X11458974Y-9618284D02*
X11458974Y-9561141D01*
X11458974Y-9561141D02*
X11468497Y-9542093D01*
X11468497Y-9542093D02*
X11478021Y-9532570D01*
X11478021Y-9532570D02*
X11497069Y-9523046D01*
X11497069Y-9523046D02*
X11525640Y-9523046D01*
X11525640Y-9523046D02*
X11544688Y-9532570D01*
X11544688Y-9532570D02*
X11554212Y-9542093D01*
X11554212Y-9542093D02*
X11563735Y-9561141D01*
X11563735Y-9561141D02*
X11563735Y-9618284D01*
X11563735Y-9618284D02*
X11554212Y-9637332D01*
X11554212Y-9637332D02*
X11544688Y-9646855D01*
X11544688Y-9646855D02*
X11525640Y-9656379D01*
X11525640Y-9656379D02*
X11497069Y-9656379D01*
X11620878Y-9523046D02*
X11697069Y-9523046D01*
X11649450Y-9456379D02*
X11649450Y-9627808D01*
X11649450Y-9627808D02*
X11658974Y-9646855D01*
X11658974Y-9646855D02*
X11678021Y-9656379D01*
X11678021Y-9656379D02*
X11697069Y-9656379D01*
X11916116Y-9523046D02*
X11916116Y-9723046D01*
X11916116Y-9532570D02*
X11935164Y-9523046D01*
X11935164Y-9523046D02*
X11973259Y-9523046D01*
X11973259Y-9523046D02*
X11992307Y-9532570D01*
X11992307Y-9532570D02*
X12001831Y-9542093D01*
X12001831Y-9542093D02*
X12011355Y-9561141D01*
X12011355Y-9561141D02*
X12011355Y-9618284D01*
X12011355Y-9618284D02*
X12001831Y-9637332D01*
X12001831Y-9637332D02*
X11992307Y-9646855D01*
X11992307Y-9646855D02*
X11973259Y-9656379D01*
X11973259Y-9656379D02*
X11935164Y-9656379D01*
X11935164Y-9656379D02*
X11916116Y-9646855D01*
X12125640Y-9656379D02*
X12106593Y-9646855D01*
X12106593Y-9646855D02*
X12097069Y-9627808D01*
X12097069Y-9627808D02*
X12097069Y-9456379D01*
X12287545Y-9656379D02*
X12287545Y-9551617D01*
X12287545Y-9551617D02*
X12278021Y-9532570D01*
X12278021Y-9532570D02*
X12258974Y-9523046D01*
X12258974Y-9523046D02*
X12220878Y-9523046D01*
X12220878Y-9523046D02*
X12201831Y-9532570D01*
X12287545Y-9646855D02*
X12268497Y-9656379D01*
X12268497Y-9656379D02*
X12220878Y-9656379D01*
X12220878Y-9656379D02*
X12201831Y-9646855D01*
X12201831Y-9646855D02*
X12192307Y-9627808D01*
X12192307Y-9627808D02*
X12192307Y-9608760D01*
X12192307Y-9608760D02*
X12201831Y-9589713D01*
X12201831Y-9589713D02*
X12220878Y-9580189D01*
X12220878Y-9580189D02*
X12268497Y-9580189D01*
X12268497Y-9580189D02*
X12287545Y-9570665D01*
X12354212Y-9523046D02*
X12430402Y-9523046D01*
X12382783Y-9456379D02*
X12382783Y-9627808D01*
X12382783Y-9627808D02*
X12392307Y-9646855D01*
X12392307Y-9646855D02*
X12411355Y-9656379D01*
X12411355Y-9656379D02*
X12430402Y-9656379D01*
X12573259Y-9646855D02*
X12554212Y-9656379D01*
X12554212Y-9656379D02*
X12516116Y-9656379D01*
X12516116Y-9656379D02*
X12497069Y-9646855D01*
X12497069Y-9646855D02*
X12487545Y-9627808D01*
X12487545Y-9627808D02*
X12487545Y-9551617D01*
X12487545Y-9551617D02*
X12497069Y-9532570D01*
X12497069Y-9532570D02*
X12516116Y-9523046D01*
X12516116Y-9523046D02*
X12554212Y-9523046D01*
X12554212Y-9523046D02*
X12573259Y-9532570D01*
X12573259Y-9532570D02*
X12582783Y-9551617D01*
X12582783Y-9551617D02*
X12582783Y-9570665D01*
X12582783Y-9570665D02*
X12487545Y-9589713D01*
X12754212Y-9656379D02*
X12754212Y-9456379D01*
X12754212Y-9646855D02*
X12735164Y-9656379D01*
X12735164Y-9656379D02*
X12697069Y-9656379D01*
X12697069Y-9656379D02*
X12678021Y-9646855D01*
X12678021Y-9646855D02*
X12668497Y-9637332D01*
X12668497Y-9637332D02*
X12658974Y-9618284D01*
X12658974Y-9618284D02*
X12658974Y-9561141D01*
X12658974Y-9561141D02*
X12668497Y-9542093D01*
X12668497Y-9542093D02*
X12678021Y-9532570D01*
X12678021Y-9532570D02*
X12697069Y-9523046D01*
X12697069Y-9523046D02*
X12735164Y-9523046D01*
X12735164Y-9523046D02*
X12754212Y-9532570D01*
X12830402Y-9732570D02*
X12839926Y-9723046D01*
X12839926Y-9723046D02*
X12858974Y-9694474D01*
X12858974Y-9694474D02*
X12868497Y-9675427D01*
X12868497Y-9675427D02*
X12878021Y-9646855D01*
X12878021Y-9646855D02*
X12887545Y-9599236D01*
X12887545Y-9599236D02*
X12887545Y-9561141D01*
X12887545Y-9561141D02*
X12878021Y-9513522D01*
X12878021Y-9513522D02*
X12868497Y-9484951D01*
X12868497Y-9484951D02*
X12858974Y-9465903D01*
X12858974Y-9465903D02*
X12839926Y-9437332D01*
X12839926Y-9437332D02*
X12830402Y-9427808D01*
M02*
