%TF.GenerationSoftware,KiCad,Pcbnew,7.0.2-6a45011f42~172~ubuntu23.04.1*%
%TF.CreationDate,2023-05-23T16:14:19+02:00*%
%TF.ProjectId,pcb,7063622e-6b69-4636-9164-5f7063625858,rev?*%
%TF.SameCoordinates,Original*%
%TF.FileFunction,Drillmap*%
%TF.FilePolarity,Positive*%
%FSLAX45Y45*%
G04 Gerber Fmt 4.5, Leading zero omitted, Abs format (unit mm)*
G04 Created by KiCad (PCBNEW 7.0.2-6a45011f42~172~ubuntu23.04.1) date 2023-05-23 16:14:19*
%MOMM*%
%LPD*%
G01*
G04 APERTURE LIST*
%ADD10C,0.100000*%
%ADD11C,0.200000*%
%ADD12C,0.040000*%
%ADD13C,0.060000*%
%ADD14C,0.065000*%
%ADD15C,0.070000*%
%ADD16C,0.220000*%
G04 APERTURE END LIST*
D10*
X6321145Y-4241800D02*
X8521700Y-4241800D01*
X8521700Y-8918860D02*
G75*
G03*
X8750300Y-8690255I0J228600D01*
G01*
X6321145Y-4241805D02*
G75*
G03*
X6092545Y-4470400I-5J-228595D01*
G01*
X8521700Y-8918855D02*
X6321145Y-8918855D01*
X8750300Y-4470400D02*
X8750300Y-8690255D01*
X8750300Y-4470400D02*
G75*
G03*
X8521700Y-4241800I-228600J0D01*
G01*
X6092545Y-8690255D02*
G75*
G03*
X6321145Y-8918855I228595J-5D01*
G01*
X6092545Y-8690255D02*
X6092545Y-4470400D01*
D11*
D12*
X6167440Y-6954840D02*
X6207440Y-6994840D01*
X6207440Y-6954840D02*
X6167440Y-6994840D01*
X6190300Y-6266500D02*
X6230300Y-6306500D01*
X6230300Y-6266500D02*
X6190300Y-6306500D01*
X6406200Y-7206300D02*
X6446200Y-7246300D01*
X6446200Y-7206300D02*
X6406200Y-7246300D01*
X6406200Y-7333300D02*
X6446200Y-7373300D01*
X6446200Y-7333300D02*
X6406200Y-7373300D01*
X6526950Y-5212400D02*
X6566950Y-5252400D01*
X6566950Y-5212400D02*
X6526950Y-5252400D01*
X6566950Y-6076000D02*
X6606950Y-6116000D01*
X6606950Y-6076000D02*
X6566950Y-6116000D01*
X6644960Y-4765360D02*
X6684960Y-4805360D01*
X6684960Y-4765360D02*
X6644960Y-4805360D01*
X6680520Y-6263960D02*
X6720520Y-6303960D01*
X6720520Y-6263960D02*
X6680520Y-6303960D01*
X6736400Y-5136200D02*
X6776400Y-5176200D01*
X6776400Y-5136200D02*
X6736400Y-5176200D01*
X6747450Y-6076000D02*
X6787450Y-6116000D01*
X6787450Y-6076000D02*
X6747450Y-6116000D01*
X6761800Y-5976950D02*
X6801800Y-6016950D01*
X6801800Y-5976950D02*
X6761800Y-6016950D01*
X6782120Y-5319080D02*
X6822120Y-5359080D01*
X6822120Y-5319080D02*
X6782120Y-5359080D01*
X6787200Y-6949760D02*
X6827200Y-6989760D01*
X6827200Y-6949760D02*
X6787200Y-6989760D01*
X6850700Y-6076000D02*
X6890700Y-6116000D01*
X6890700Y-6076000D02*
X6850700Y-6116000D01*
X6888800Y-7079300D02*
X6928800Y-7119300D01*
X6928800Y-7079300D02*
X6888800Y-7119300D01*
X6934520Y-7962010D02*
X6974520Y-8002010D01*
X6974520Y-7962010D02*
X6934520Y-8002010D01*
X6965000Y-6076000D02*
X7005000Y-6116000D01*
X7005000Y-6076000D02*
X6965000Y-6116000D01*
X7155500Y-6063300D02*
X7195500Y-6103300D01*
X7195500Y-6063300D02*
X7155500Y-6103300D01*
X7180900Y-5314000D02*
X7220900Y-5354000D01*
X7220900Y-5314000D02*
X7180900Y-5354000D01*
X7180900Y-5479100D02*
X7220900Y-5519100D01*
X7220900Y-5479100D02*
X7180900Y-5519100D01*
X7180900Y-5644200D02*
X7220900Y-5684200D01*
X7220900Y-5644200D02*
X7180900Y-5684200D01*
X7183440Y-6771960D02*
X7223440Y-6811960D01*
X7223440Y-6771960D02*
X7183440Y-6811960D01*
X7269800Y-5860100D02*
X7309800Y-5900100D01*
X7309800Y-5860100D02*
X7269800Y-5900100D01*
X7302820Y-7252020D02*
X7342820Y-7292020D01*
X7342820Y-7252020D02*
X7302820Y-7292020D01*
X7346000Y-5314000D02*
X7386000Y-5354000D01*
X7386000Y-5314000D02*
X7346000Y-5354000D01*
X7346000Y-5479100D02*
X7386000Y-5519100D01*
X7386000Y-5479100D02*
X7346000Y-5519100D01*
X7346000Y-5644200D02*
X7386000Y-5684200D01*
X7386000Y-5644200D02*
X7346000Y-5684200D01*
X7356160Y-5014280D02*
X7396160Y-5054280D01*
X7396160Y-5014280D02*
X7356160Y-5054280D01*
X7371400Y-7879400D02*
X7411400Y-7919400D01*
X7411400Y-7879400D02*
X7371400Y-7919400D01*
X7492450Y-6291900D02*
X7532450Y-6331900D01*
X7532450Y-6291900D02*
X7492450Y-6331900D01*
X7511100Y-5314000D02*
X7551100Y-5354000D01*
X7551100Y-5314000D02*
X7511100Y-5354000D01*
X7511100Y-5479100D02*
X7551100Y-5519100D01*
X7551100Y-5479100D02*
X7511100Y-5519100D01*
X7511100Y-5644200D02*
X7551100Y-5684200D01*
X7551100Y-5644200D02*
X7511100Y-5684200D01*
X7537450Y-6796150D02*
X7577450Y-6836150D01*
X7577450Y-6796150D02*
X7537450Y-6836150D01*
X7600000Y-8489000D02*
X7640000Y-8529000D01*
X7640000Y-8489000D02*
X7600000Y-8529000D01*
X7765100Y-7879400D02*
X7805100Y-7919400D01*
X7805100Y-7879400D02*
X7765100Y-7919400D01*
X7815900Y-7003100D02*
X7855900Y-7043100D01*
X7855900Y-7003100D02*
X7815900Y-7043100D01*
X7822250Y-6895150D02*
X7862250Y-6935150D01*
X7862250Y-6895150D02*
X7822250Y-6935150D01*
X8044500Y-6507800D02*
X8084500Y-6547800D01*
X8084500Y-6507800D02*
X8044500Y-6547800D01*
X8047040Y-6182050D02*
X8087040Y-6222050D01*
X8087040Y-6182050D02*
X8047040Y-6222050D01*
X8047500Y-4765108D02*
X8087500Y-4805108D01*
X8087500Y-4765108D02*
X8047500Y-4805108D01*
X8052843Y-6719188D02*
X8092843Y-6759188D01*
X8092843Y-6719188D02*
X8052843Y-6759188D01*
X8052843Y-6935088D02*
X8092843Y-6975088D01*
X8092843Y-6935088D02*
X8052843Y-6975088D01*
X8184200Y-5136200D02*
X8224200Y-5176200D01*
X8224200Y-5136200D02*
X8184200Y-5176200D01*
X8214680Y-6243640D02*
X8254680Y-6283640D01*
X8254680Y-6243640D02*
X8214680Y-6283640D01*
X8321360Y-7925120D02*
X8361360Y-7965120D01*
X8361360Y-7925120D02*
X8321360Y-7965120D01*
X8336600Y-7269800D02*
X8376600Y-7309800D01*
X8376600Y-7269800D02*
X8336600Y-7309800D01*
X8425500Y-4958400D02*
X8465500Y-4998400D01*
X8465500Y-4958400D02*
X8425500Y-4998400D01*
X8478840Y-6243640D02*
X8518840Y-6283640D01*
X8518840Y-6243640D02*
X8478840Y-6283640D01*
X8529640Y-7467920D02*
X8569640Y-7507920D01*
X8569640Y-7467920D02*
X8529640Y-7507920D01*
D13*
X7218000Y-8373800D02*
G75*
G03*
X7218000Y-8373800I-30000J0D01*
G01*
D11*
X7158000Y-8318800D02*
X7158000Y-8428800D01*
X7158000Y-8428800D02*
G75*
G03*
X7218000Y-8428800I30000J0D01*
G01*
X7218000Y-8428800D02*
X7218000Y-8318800D01*
X7218000Y-8318800D02*
G75*
G03*
X7158000Y-8318800I-30000J0D01*
G01*
D13*
X7218000Y-8791800D02*
G75*
G03*
X7218000Y-8791800I-30000J0D01*
G01*
D11*
X7158000Y-8761800D02*
X7158000Y-8821800D01*
X7158000Y-8821800D02*
G75*
G03*
X7218000Y-8821800I30000J0D01*
G01*
X7218000Y-8821800D02*
X7218000Y-8761800D01*
X7218000Y-8761800D02*
G75*
G03*
X7158000Y-8761800I-30000J0D01*
G01*
D13*
X8082000Y-8373800D02*
G75*
G03*
X8082000Y-8373800I-30000J0D01*
G01*
D11*
X8022000Y-8318800D02*
X8022000Y-8428800D01*
X8022000Y-8428800D02*
G75*
G03*
X8082000Y-8428800I30000J0D01*
G01*
X8082000Y-8428800D02*
X8082000Y-8318800D01*
X8082000Y-8318800D02*
G75*
G03*
X8022000Y-8318800I-30000J0D01*
G01*
D13*
X8082000Y-8791800D02*
G75*
G03*
X8082000Y-8791800I-30000J0D01*
G01*
D11*
X8022000Y-8761800D02*
X8022000Y-8821800D01*
X8022000Y-8821800D02*
G75*
G03*
X8082000Y-8821800I30000J0D01*
G01*
X8082000Y-8821800D02*
X8082000Y-8761800D01*
X8082000Y-8761800D02*
G75*
G03*
X8022000Y-8761800I-30000J0D01*
G01*
D14*
X6950000Y-5309500D02*
X6950000Y-5374500D01*
X6917500Y-5342000D02*
X6982500Y-5342000D01*
X6950000Y-5436500D02*
X6950000Y-5501500D01*
X6917500Y-5469000D02*
X6982500Y-5469000D01*
X6950000Y-5563500D02*
X6950000Y-5628500D01*
X6917500Y-5596000D02*
X6982500Y-5596000D01*
X6950000Y-5690500D02*
X6950000Y-5755500D01*
X6917500Y-5723000D02*
X6982500Y-5723000D01*
X6950000Y-5817500D02*
X6950000Y-5882500D01*
X6917500Y-5850000D02*
X6982500Y-5850000D01*
X6950000Y-5944500D02*
X6950000Y-6009500D01*
X6917500Y-5977000D02*
X6982500Y-5977000D01*
X7772400Y-5326900D02*
X7772400Y-5391900D01*
X7739900Y-5359400D02*
X7804900Y-5359400D01*
X7772400Y-5453900D02*
X7772400Y-5518900D01*
X7739900Y-5486400D02*
X7804900Y-5486400D01*
X7772400Y-5580900D02*
X7772400Y-5645900D01*
X7739900Y-5613400D02*
X7804900Y-5613400D01*
X7772400Y-5707900D02*
X7772400Y-5772900D01*
X7739900Y-5740400D02*
X7804900Y-5740400D01*
X7772400Y-5834900D02*
X7772400Y-5899900D01*
X7739900Y-5867400D02*
X7804900Y-5867400D01*
X7772400Y-5961900D02*
X7772400Y-6026900D01*
X7739900Y-5994400D02*
X7804900Y-5994400D01*
D15*
X6412849Y-5589749D02*
X6412849Y-5540251D01*
X6363351Y-5540251D01*
X6363351Y-5589749D01*
X6412849Y-5589749D01*
X6412849Y-5716749D02*
X6412849Y-5667251D01*
X6363351Y-5667251D01*
X6363351Y-5716749D01*
X6412849Y-5716749D01*
X6412849Y-5843749D02*
X6412849Y-5794251D01*
X6363351Y-5794251D01*
X6363351Y-5843749D01*
X6412849Y-5843749D01*
X6412849Y-5970749D02*
X6412849Y-5921251D01*
X6363351Y-5921251D01*
X6363351Y-5970749D01*
X6412849Y-5970749D01*
X6412849Y-6097749D02*
X6412849Y-6048251D01*
X6363351Y-6048251D01*
X6363351Y-6097749D01*
X6412849Y-6097749D01*
X6412849Y-6224749D02*
X6412849Y-6175251D01*
X6363351Y-6175251D01*
X6363351Y-6224749D01*
X6412849Y-6224749D01*
D10*
X6781800Y-8279600D02*
X6831800Y-8229600D01*
X6781800Y-8179600D01*
X6731800Y-8229600D01*
X6781800Y-8279600D01*
X6781800Y-8533600D02*
X6831800Y-8483600D01*
X6781800Y-8433600D01*
X6731800Y-8483600D01*
X6781800Y-8533600D01*
X6781800Y-8787600D02*
X6831800Y-8737600D01*
X6781800Y-8687600D01*
X6731800Y-8737600D01*
X6781800Y-8787600D01*
D16*
X6214600Y-8576800D02*
X6434600Y-8796800D01*
X6434600Y-8576800D02*
X6214600Y-8796800D01*
X6434600Y-8686800D02*
G75*
G03*
X6434600Y-8686800I-110000J0D01*
G01*
X6215000Y-4365000D02*
X6435000Y-4585000D01*
X6435000Y-4365000D02*
X6215000Y-4585000D01*
X6435000Y-4475000D02*
G75*
G03*
X6435000Y-4475000I-110000J0D01*
G01*
X8411700Y-8576800D02*
X8631700Y-8796800D01*
X8631700Y-8576800D02*
X8411700Y-8796800D01*
X8631700Y-8686800D02*
G75*
G03*
X8631700Y-8686800I-110000J0D01*
G01*
X8415000Y-4365000D02*
X8635000Y-4585000D01*
X8635000Y-4365000D02*
X8415000Y-4585000D01*
X8635000Y-4475000D02*
G75*
G03*
X8635000Y-4475000I-110000J0D01*
G01*
D11*
X6335164Y-9236379D02*
X6335164Y-9036379D01*
X6335164Y-9036379D02*
X6382783Y-9036379D01*
X6382783Y-9036379D02*
X6411354Y-9045903D01*
X6411354Y-9045903D02*
X6430402Y-9064951D01*
X6430402Y-9064951D02*
X6439925Y-9083998D01*
X6439925Y-9083998D02*
X6449449Y-9122093D01*
X6449449Y-9122093D02*
X6449449Y-9150665D01*
X6449449Y-9150665D02*
X6439925Y-9188760D01*
X6439925Y-9188760D02*
X6430402Y-9207808D01*
X6430402Y-9207808D02*
X6411354Y-9226855D01*
X6411354Y-9226855D02*
X6382783Y-9236379D01*
X6382783Y-9236379D02*
X6335164Y-9236379D01*
X6535164Y-9236379D02*
X6535164Y-9103046D01*
X6535164Y-9141141D02*
X6544687Y-9122093D01*
X6544687Y-9122093D02*
X6554211Y-9112570D01*
X6554211Y-9112570D02*
X6573259Y-9103046D01*
X6573259Y-9103046D02*
X6592306Y-9103046D01*
X6658973Y-9236379D02*
X6658973Y-9103046D01*
X6658973Y-9036379D02*
X6649449Y-9045903D01*
X6649449Y-9045903D02*
X6658973Y-9055427D01*
X6658973Y-9055427D02*
X6668497Y-9045903D01*
X6668497Y-9045903D02*
X6658973Y-9036379D01*
X6658973Y-9036379D02*
X6658973Y-9055427D01*
X6782783Y-9236379D02*
X6763735Y-9226855D01*
X6763735Y-9226855D02*
X6754211Y-9207808D01*
X6754211Y-9207808D02*
X6754211Y-9036379D01*
X6887544Y-9236379D02*
X6868497Y-9226855D01*
X6868497Y-9226855D02*
X6858973Y-9207808D01*
X6858973Y-9207808D02*
X6858973Y-9036379D01*
X7116116Y-9236379D02*
X7116116Y-9036379D01*
X7116116Y-9036379D02*
X7182783Y-9179236D01*
X7182783Y-9179236D02*
X7249449Y-9036379D01*
X7249449Y-9036379D02*
X7249449Y-9236379D01*
X7430402Y-9236379D02*
X7430402Y-9131617D01*
X7430402Y-9131617D02*
X7420878Y-9112570D01*
X7420878Y-9112570D02*
X7401830Y-9103046D01*
X7401830Y-9103046D02*
X7363735Y-9103046D01*
X7363735Y-9103046D02*
X7344687Y-9112570D01*
X7430402Y-9226855D02*
X7411354Y-9236379D01*
X7411354Y-9236379D02*
X7363735Y-9236379D01*
X7363735Y-9236379D02*
X7344687Y-9226855D01*
X7344687Y-9226855D02*
X7335164Y-9207808D01*
X7335164Y-9207808D02*
X7335164Y-9188760D01*
X7335164Y-9188760D02*
X7344687Y-9169713D01*
X7344687Y-9169713D02*
X7363735Y-9160189D01*
X7363735Y-9160189D02*
X7411354Y-9160189D01*
X7411354Y-9160189D02*
X7430402Y-9150665D01*
X7525640Y-9103046D02*
X7525640Y-9303046D01*
X7525640Y-9112570D02*
X7544687Y-9103046D01*
X7544687Y-9103046D02*
X7582783Y-9103046D01*
X7582783Y-9103046D02*
X7601830Y-9112570D01*
X7601830Y-9112570D02*
X7611354Y-9122093D01*
X7611354Y-9122093D02*
X7620878Y-9141141D01*
X7620878Y-9141141D02*
X7620878Y-9198284D01*
X7620878Y-9198284D02*
X7611354Y-9217332D01*
X7611354Y-9217332D02*
X7601830Y-9226855D01*
X7601830Y-9226855D02*
X7582783Y-9236379D01*
X7582783Y-9236379D02*
X7544687Y-9236379D01*
X7544687Y-9236379D02*
X7525640Y-9226855D01*
X7706592Y-9217332D02*
X7716116Y-9226855D01*
X7716116Y-9226855D02*
X7706592Y-9236379D01*
X7706592Y-9236379D02*
X7697068Y-9226855D01*
X7697068Y-9226855D02*
X7706592Y-9217332D01*
X7706592Y-9217332D02*
X7706592Y-9236379D01*
X7706592Y-9112570D02*
X7716116Y-9122093D01*
X7716116Y-9122093D02*
X7706592Y-9131617D01*
X7706592Y-9131617D02*
X7697068Y-9122093D01*
X7697068Y-9122093D02*
X7706592Y-9112570D01*
X7706592Y-9112570D02*
X7706592Y-9131617D01*
D12*
X6047545Y-9543855D02*
X6087545Y-9583855D01*
X6087545Y-9543855D02*
X6047545Y-9583855D01*
D11*
X6373259Y-9456379D02*
X6392306Y-9456379D01*
X6392306Y-9456379D02*
X6411354Y-9465903D01*
X6411354Y-9465903D02*
X6420878Y-9475427D01*
X6420878Y-9475427D02*
X6430402Y-9494474D01*
X6430402Y-9494474D02*
X6439925Y-9532570D01*
X6439925Y-9532570D02*
X6439925Y-9580189D01*
X6439925Y-9580189D02*
X6430402Y-9618284D01*
X6430402Y-9618284D02*
X6420878Y-9637332D01*
X6420878Y-9637332D02*
X6411354Y-9646855D01*
X6411354Y-9646855D02*
X6392306Y-9656379D01*
X6392306Y-9656379D02*
X6373259Y-9656379D01*
X6373259Y-9656379D02*
X6354211Y-9646855D01*
X6354211Y-9646855D02*
X6344687Y-9637332D01*
X6344687Y-9637332D02*
X6335164Y-9618284D01*
X6335164Y-9618284D02*
X6325640Y-9580189D01*
X6325640Y-9580189D02*
X6325640Y-9532570D01*
X6325640Y-9532570D02*
X6335164Y-9494474D01*
X6335164Y-9494474D02*
X6344687Y-9475427D01*
X6344687Y-9475427D02*
X6354211Y-9465903D01*
X6354211Y-9465903D02*
X6373259Y-9456379D01*
X6525640Y-9637332D02*
X6535164Y-9646855D01*
X6535164Y-9646855D02*
X6525640Y-9656379D01*
X6525640Y-9656379D02*
X6516116Y-9646855D01*
X6516116Y-9646855D02*
X6525640Y-9637332D01*
X6525640Y-9637332D02*
X6525640Y-9656379D01*
X6706592Y-9523046D02*
X6706592Y-9656379D01*
X6658973Y-9446855D02*
X6611354Y-9589713D01*
X6611354Y-9589713D02*
X6735164Y-9589713D01*
X6849449Y-9456379D02*
X6868497Y-9456379D01*
X6868497Y-9456379D02*
X6887545Y-9465903D01*
X6887545Y-9465903D02*
X6897068Y-9475427D01*
X6897068Y-9475427D02*
X6906592Y-9494474D01*
X6906592Y-9494474D02*
X6916116Y-9532570D01*
X6916116Y-9532570D02*
X6916116Y-9580189D01*
X6916116Y-9580189D02*
X6906592Y-9618284D01*
X6906592Y-9618284D02*
X6897068Y-9637332D01*
X6897068Y-9637332D02*
X6887545Y-9646855D01*
X6887545Y-9646855D02*
X6868497Y-9656379D01*
X6868497Y-9656379D02*
X6849449Y-9656379D01*
X6849449Y-9656379D02*
X6830402Y-9646855D01*
X6830402Y-9646855D02*
X6820878Y-9637332D01*
X6820878Y-9637332D02*
X6811354Y-9618284D01*
X6811354Y-9618284D02*
X6801830Y-9580189D01*
X6801830Y-9580189D02*
X6801830Y-9532570D01*
X6801830Y-9532570D02*
X6811354Y-9494474D01*
X6811354Y-9494474D02*
X6820878Y-9475427D01*
X6820878Y-9475427D02*
X6830402Y-9465903D01*
X6830402Y-9465903D02*
X6849449Y-9456379D01*
X7039925Y-9456379D02*
X7058973Y-9456379D01*
X7058973Y-9456379D02*
X7078021Y-9465903D01*
X7078021Y-9465903D02*
X7087545Y-9475427D01*
X7087545Y-9475427D02*
X7097068Y-9494474D01*
X7097068Y-9494474D02*
X7106592Y-9532570D01*
X7106592Y-9532570D02*
X7106592Y-9580189D01*
X7106592Y-9580189D02*
X7097068Y-9618284D01*
X7097068Y-9618284D02*
X7087545Y-9637332D01*
X7087545Y-9637332D02*
X7078021Y-9646855D01*
X7078021Y-9646855D02*
X7058973Y-9656379D01*
X7058973Y-9656379D02*
X7039925Y-9656379D01*
X7039925Y-9656379D02*
X7020878Y-9646855D01*
X7020878Y-9646855D02*
X7011354Y-9637332D01*
X7011354Y-9637332D02*
X7001830Y-9618284D01*
X7001830Y-9618284D02*
X6992306Y-9580189D01*
X6992306Y-9580189D02*
X6992306Y-9532570D01*
X6992306Y-9532570D02*
X7001830Y-9494474D01*
X7001830Y-9494474D02*
X7011354Y-9475427D01*
X7011354Y-9475427D02*
X7020878Y-9465903D01*
X7020878Y-9465903D02*
X7039925Y-9456379D01*
X7192306Y-9656379D02*
X7192306Y-9523046D01*
X7192306Y-9542093D02*
X7201830Y-9532570D01*
X7201830Y-9532570D02*
X7220878Y-9523046D01*
X7220878Y-9523046D02*
X7249449Y-9523046D01*
X7249449Y-9523046D02*
X7268497Y-9532570D01*
X7268497Y-9532570D02*
X7278021Y-9551617D01*
X7278021Y-9551617D02*
X7278021Y-9656379D01*
X7278021Y-9551617D02*
X7287545Y-9532570D01*
X7287545Y-9532570D02*
X7306592Y-9523046D01*
X7306592Y-9523046D02*
X7335164Y-9523046D01*
X7335164Y-9523046D02*
X7354211Y-9532570D01*
X7354211Y-9532570D02*
X7363735Y-9551617D01*
X7363735Y-9551617D02*
X7363735Y-9656379D01*
X7458973Y-9656379D02*
X7458973Y-9523046D01*
X7458973Y-9542093D02*
X7468497Y-9532570D01*
X7468497Y-9532570D02*
X7487545Y-9523046D01*
X7487545Y-9523046D02*
X7516116Y-9523046D01*
X7516116Y-9523046D02*
X7535164Y-9532570D01*
X7535164Y-9532570D02*
X7544687Y-9551617D01*
X7544687Y-9551617D02*
X7544687Y-9656379D01*
X7544687Y-9551617D02*
X7554211Y-9532570D01*
X7554211Y-9532570D02*
X7573259Y-9523046D01*
X7573259Y-9523046D02*
X7601830Y-9523046D01*
X7601830Y-9523046D02*
X7620878Y-9532570D01*
X7620878Y-9532570D02*
X7630402Y-9551617D01*
X7630402Y-9551617D02*
X7630402Y-9656379D01*
X8020878Y-9446855D02*
X7849449Y-9703998D01*
X8278021Y-9456379D02*
X8297069Y-9456379D01*
X8297069Y-9456379D02*
X8316116Y-9465903D01*
X8316116Y-9465903D02*
X8325640Y-9475427D01*
X8325640Y-9475427D02*
X8335164Y-9494474D01*
X8335164Y-9494474D02*
X8344688Y-9532570D01*
X8344688Y-9532570D02*
X8344688Y-9580189D01*
X8344688Y-9580189D02*
X8335164Y-9618284D01*
X8335164Y-9618284D02*
X8325640Y-9637332D01*
X8325640Y-9637332D02*
X8316116Y-9646855D01*
X8316116Y-9646855D02*
X8297069Y-9656379D01*
X8297069Y-9656379D02*
X8278021Y-9656379D01*
X8278021Y-9656379D02*
X8258973Y-9646855D01*
X8258973Y-9646855D02*
X8249449Y-9637332D01*
X8249449Y-9637332D02*
X8239926Y-9618284D01*
X8239926Y-9618284D02*
X8230402Y-9580189D01*
X8230402Y-9580189D02*
X8230402Y-9532570D01*
X8230402Y-9532570D02*
X8239926Y-9494474D01*
X8239926Y-9494474D02*
X8249449Y-9475427D01*
X8249449Y-9475427D02*
X8258973Y-9465903D01*
X8258973Y-9465903D02*
X8278021Y-9456379D01*
X8430402Y-9637332D02*
X8439926Y-9646855D01*
X8439926Y-9646855D02*
X8430402Y-9656379D01*
X8430402Y-9656379D02*
X8420878Y-9646855D01*
X8420878Y-9646855D02*
X8430402Y-9637332D01*
X8430402Y-9637332D02*
X8430402Y-9656379D01*
X8563735Y-9456379D02*
X8582783Y-9456379D01*
X8582783Y-9456379D02*
X8601831Y-9465903D01*
X8601831Y-9465903D02*
X8611354Y-9475427D01*
X8611354Y-9475427D02*
X8620878Y-9494474D01*
X8620878Y-9494474D02*
X8630402Y-9532570D01*
X8630402Y-9532570D02*
X8630402Y-9580189D01*
X8630402Y-9580189D02*
X8620878Y-9618284D01*
X8620878Y-9618284D02*
X8611354Y-9637332D01*
X8611354Y-9637332D02*
X8601831Y-9646855D01*
X8601831Y-9646855D02*
X8582783Y-9656379D01*
X8582783Y-9656379D02*
X8563735Y-9656379D01*
X8563735Y-9656379D02*
X8544688Y-9646855D01*
X8544688Y-9646855D02*
X8535164Y-9637332D01*
X8535164Y-9637332D02*
X8525640Y-9618284D01*
X8525640Y-9618284D02*
X8516116Y-9580189D01*
X8516116Y-9580189D02*
X8516116Y-9532570D01*
X8516116Y-9532570D02*
X8525640Y-9494474D01*
X8525640Y-9494474D02*
X8535164Y-9475427D01*
X8535164Y-9475427D02*
X8544688Y-9465903D01*
X8544688Y-9465903D02*
X8563735Y-9456379D01*
X8820878Y-9656379D02*
X8706592Y-9656379D01*
X8763735Y-9656379D02*
X8763735Y-9456379D01*
X8763735Y-9456379D02*
X8744688Y-9484951D01*
X8744688Y-9484951D02*
X8725640Y-9503998D01*
X8725640Y-9503998D02*
X8706592Y-9513522D01*
X9001831Y-9456379D02*
X8906592Y-9456379D01*
X8906592Y-9456379D02*
X8897069Y-9551617D01*
X8897069Y-9551617D02*
X8906592Y-9542093D01*
X8906592Y-9542093D02*
X8925640Y-9532570D01*
X8925640Y-9532570D02*
X8973259Y-9532570D01*
X8973259Y-9532570D02*
X8992307Y-9542093D01*
X8992307Y-9542093D02*
X9001831Y-9551617D01*
X9001831Y-9551617D02*
X9011354Y-9570665D01*
X9011354Y-9570665D02*
X9011354Y-9618284D01*
X9011354Y-9618284D02*
X9001831Y-9637332D01*
X9001831Y-9637332D02*
X8992307Y-9646855D01*
X8992307Y-9646855D02*
X8973259Y-9656379D01*
X8973259Y-9656379D02*
X8925640Y-9656379D01*
X8925640Y-9656379D02*
X8906592Y-9646855D01*
X8906592Y-9646855D02*
X8897069Y-9637332D01*
X9078021Y-9456379D02*
X9211354Y-9456379D01*
X9211354Y-9456379D02*
X9125640Y-9656379D01*
X9278021Y-9456379D02*
X9278021Y-9494474D01*
X9354212Y-9456379D02*
X9354212Y-9494474D01*
X9649450Y-9732570D02*
X9639926Y-9723046D01*
X9639926Y-9723046D02*
X9620878Y-9694474D01*
X9620878Y-9694474D02*
X9611354Y-9675427D01*
X9611354Y-9675427D02*
X9601831Y-9646855D01*
X9601831Y-9646855D02*
X9592307Y-9599236D01*
X9592307Y-9599236D02*
X9592307Y-9561141D01*
X9592307Y-9561141D02*
X9601831Y-9513522D01*
X9601831Y-9513522D02*
X9611354Y-9484951D01*
X9611354Y-9484951D02*
X9620878Y-9465903D01*
X9620878Y-9465903D02*
X9639926Y-9437332D01*
X9639926Y-9437332D02*
X9649450Y-9427808D01*
X9820878Y-9456379D02*
X9725640Y-9456379D01*
X9725640Y-9456379D02*
X9716116Y-9551617D01*
X9716116Y-9551617D02*
X9725640Y-9542093D01*
X9725640Y-9542093D02*
X9744688Y-9532570D01*
X9744688Y-9532570D02*
X9792307Y-9532570D01*
X9792307Y-9532570D02*
X9811354Y-9542093D01*
X9811354Y-9542093D02*
X9820878Y-9551617D01*
X9820878Y-9551617D02*
X9830402Y-9570665D01*
X9830402Y-9570665D02*
X9830402Y-9618284D01*
X9830402Y-9618284D02*
X9820878Y-9637332D01*
X9820878Y-9637332D02*
X9811354Y-9646855D01*
X9811354Y-9646855D02*
X9792307Y-9656379D01*
X9792307Y-9656379D02*
X9744688Y-9656379D01*
X9744688Y-9656379D02*
X9725640Y-9646855D01*
X9725640Y-9646855D02*
X9716116Y-9637332D01*
X9954212Y-9456379D02*
X9973259Y-9456379D01*
X9973259Y-9456379D02*
X9992307Y-9465903D01*
X9992307Y-9465903D02*
X10001831Y-9475427D01*
X10001831Y-9475427D02*
X10011354Y-9494474D01*
X10011354Y-9494474D02*
X10020878Y-9532570D01*
X10020878Y-9532570D02*
X10020878Y-9580189D01*
X10020878Y-9580189D02*
X10011354Y-9618284D01*
X10011354Y-9618284D02*
X10001831Y-9637332D01*
X10001831Y-9637332D02*
X9992307Y-9646855D01*
X9992307Y-9646855D02*
X9973259Y-9656379D01*
X9973259Y-9656379D02*
X9954212Y-9656379D01*
X9954212Y-9656379D02*
X9935164Y-9646855D01*
X9935164Y-9646855D02*
X9925640Y-9637332D01*
X9925640Y-9637332D02*
X9916116Y-9618284D01*
X9916116Y-9618284D02*
X9906593Y-9580189D01*
X9906593Y-9580189D02*
X9906593Y-9532570D01*
X9906593Y-9532570D02*
X9916116Y-9494474D01*
X9916116Y-9494474D02*
X9925640Y-9475427D01*
X9925640Y-9475427D02*
X9935164Y-9465903D01*
X9935164Y-9465903D02*
X9954212Y-9456379D01*
X10258974Y-9656379D02*
X10258974Y-9456379D01*
X10344688Y-9656379D02*
X10344688Y-9551617D01*
X10344688Y-9551617D02*
X10335164Y-9532570D01*
X10335164Y-9532570D02*
X10316116Y-9523046D01*
X10316116Y-9523046D02*
X10287545Y-9523046D01*
X10287545Y-9523046D02*
X10268497Y-9532570D01*
X10268497Y-9532570D02*
X10258974Y-9542093D01*
X10468497Y-9656379D02*
X10449450Y-9646855D01*
X10449450Y-9646855D02*
X10439926Y-9637332D01*
X10439926Y-9637332D02*
X10430402Y-9618284D01*
X10430402Y-9618284D02*
X10430402Y-9561141D01*
X10430402Y-9561141D02*
X10439926Y-9542093D01*
X10439926Y-9542093D02*
X10449450Y-9532570D01*
X10449450Y-9532570D02*
X10468497Y-9523046D01*
X10468497Y-9523046D02*
X10497069Y-9523046D01*
X10497069Y-9523046D02*
X10516116Y-9532570D01*
X10516116Y-9532570D02*
X10525640Y-9542093D01*
X10525640Y-9542093D02*
X10535164Y-9561141D01*
X10535164Y-9561141D02*
X10535164Y-9618284D01*
X10535164Y-9618284D02*
X10525640Y-9637332D01*
X10525640Y-9637332D02*
X10516116Y-9646855D01*
X10516116Y-9646855D02*
X10497069Y-9656379D01*
X10497069Y-9656379D02*
X10468497Y-9656379D01*
X10649450Y-9656379D02*
X10630402Y-9646855D01*
X10630402Y-9646855D02*
X10620878Y-9627808D01*
X10620878Y-9627808D02*
X10620878Y-9456379D01*
X10801831Y-9646855D02*
X10782783Y-9656379D01*
X10782783Y-9656379D02*
X10744688Y-9656379D01*
X10744688Y-9656379D02*
X10725640Y-9646855D01*
X10725640Y-9646855D02*
X10716116Y-9627808D01*
X10716116Y-9627808D02*
X10716116Y-9551617D01*
X10716116Y-9551617D02*
X10725640Y-9532570D01*
X10725640Y-9532570D02*
X10744688Y-9523046D01*
X10744688Y-9523046D02*
X10782783Y-9523046D01*
X10782783Y-9523046D02*
X10801831Y-9532570D01*
X10801831Y-9532570D02*
X10811355Y-9551617D01*
X10811355Y-9551617D02*
X10811355Y-9570665D01*
X10811355Y-9570665D02*
X10716116Y-9589713D01*
X10887545Y-9646855D02*
X10906593Y-9656379D01*
X10906593Y-9656379D02*
X10944688Y-9656379D01*
X10944688Y-9656379D02*
X10963736Y-9646855D01*
X10963736Y-9646855D02*
X10973259Y-9627808D01*
X10973259Y-9627808D02*
X10973259Y-9618284D01*
X10973259Y-9618284D02*
X10963736Y-9599236D01*
X10963736Y-9599236D02*
X10944688Y-9589713D01*
X10944688Y-9589713D02*
X10916116Y-9589713D01*
X10916116Y-9589713D02*
X10897069Y-9580189D01*
X10897069Y-9580189D02*
X10887545Y-9561141D01*
X10887545Y-9561141D02*
X10887545Y-9551617D01*
X10887545Y-9551617D02*
X10897069Y-9532570D01*
X10897069Y-9532570D02*
X10916116Y-9523046D01*
X10916116Y-9523046D02*
X10944688Y-9523046D01*
X10944688Y-9523046D02*
X10963736Y-9532570D01*
X11039926Y-9732570D02*
X11049450Y-9723046D01*
X11049450Y-9723046D02*
X11068497Y-9694474D01*
X11068497Y-9694474D02*
X11078021Y-9675427D01*
X11078021Y-9675427D02*
X11087545Y-9646855D01*
X11087545Y-9646855D02*
X11097069Y-9599236D01*
X11097069Y-9599236D02*
X11097069Y-9561141D01*
X11097069Y-9561141D02*
X11087545Y-9513522D01*
X11087545Y-9513522D02*
X11078021Y-9484951D01*
X11078021Y-9484951D02*
X11068497Y-9465903D01*
X11068497Y-9465903D02*
X11049450Y-9437332D01*
X11049450Y-9437332D02*
X11039926Y-9427808D01*
D13*
X6087545Y-9827855D02*
G75*
G03*
X6087545Y-9827855I-30000J0D01*
G01*
D11*
X6373259Y-9720379D02*
X6392306Y-9720379D01*
X6392306Y-9720379D02*
X6411354Y-9729903D01*
X6411354Y-9729903D02*
X6420878Y-9739427D01*
X6420878Y-9739427D02*
X6430402Y-9758474D01*
X6430402Y-9758474D02*
X6439925Y-9796570D01*
X6439925Y-9796570D02*
X6439925Y-9844189D01*
X6439925Y-9844189D02*
X6430402Y-9882284D01*
X6430402Y-9882284D02*
X6420878Y-9901332D01*
X6420878Y-9901332D02*
X6411354Y-9910855D01*
X6411354Y-9910855D02*
X6392306Y-9920379D01*
X6392306Y-9920379D02*
X6373259Y-9920379D01*
X6373259Y-9920379D02*
X6354211Y-9910855D01*
X6354211Y-9910855D02*
X6344687Y-9901332D01*
X6344687Y-9901332D02*
X6335164Y-9882284D01*
X6335164Y-9882284D02*
X6325640Y-9844189D01*
X6325640Y-9844189D02*
X6325640Y-9796570D01*
X6325640Y-9796570D02*
X6335164Y-9758474D01*
X6335164Y-9758474D02*
X6344687Y-9739427D01*
X6344687Y-9739427D02*
X6354211Y-9729903D01*
X6354211Y-9729903D02*
X6373259Y-9720379D01*
X6525640Y-9901332D02*
X6535164Y-9910855D01*
X6535164Y-9910855D02*
X6525640Y-9920379D01*
X6525640Y-9920379D02*
X6516116Y-9910855D01*
X6516116Y-9910855D02*
X6525640Y-9901332D01*
X6525640Y-9901332D02*
X6525640Y-9920379D01*
X6706592Y-9720379D02*
X6668497Y-9720379D01*
X6668497Y-9720379D02*
X6649449Y-9729903D01*
X6649449Y-9729903D02*
X6639925Y-9739427D01*
X6639925Y-9739427D02*
X6620878Y-9767998D01*
X6620878Y-9767998D02*
X6611354Y-9806093D01*
X6611354Y-9806093D02*
X6611354Y-9882284D01*
X6611354Y-9882284D02*
X6620878Y-9901332D01*
X6620878Y-9901332D02*
X6630402Y-9910855D01*
X6630402Y-9910855D02*
X6649449Y-9920379D01*
X6649449Y-9920379D02*
X6687545Y-9920379D01*
X6687545Y-9920379D02*
X6706592Y-9910855D01*
X6706592Y-9910855D02*
X6716116Y-9901332D01*
X6716116Y-9901332D02*
X6725640Y-9882284D01*
X6725640Y-9882284D02*
X6725640Y-9834665D01*
X6725640Y-9834665D02*
X6716116Y-9815617D01*
X6716116Y-9815617D02*
X6706592Y-9806093D01*
X6706592Y-9806093D02*
X6687545Y-9796570D01*
X6687545Y-9796570D02*
X6649449Y-9796570D01*
X6649449Y-9796570D02*
X6630402Y-9806093D01*
X6630402Y-9806093D02*
X6620878Y-9815617D01*
X6620878Y-9815617D02*
X6611354Y-9834665D01*
X6849449Y-9720379D02*
X6868497Y-9720379D01*
X6868497Y-9720379D02*
X6887545Y-9729903D01*
X6887545Y-9729903D02*
X6897068Y-9739427D01*
X6897068Y-9739427D02*
X6906592Y-9758474D01*
X6906592Y-9758474D02*
X6916116Y-9796570D01*
X6916116Y-9796570D02*
X6916116Y-9844189D01*
X6916116Y-9844189D02*
X6906592Y-9882284D01*
X6906592Y-9882284D02*
X6897068Y-9901332D01*
X6897068Y-9901332D02*
X6887545Y-9910855D01*
X6887545Y-9910855D02*
X6868497Y-9920379D01*
X6868497Y-9920379D02*
X6849449Y-9920379D01*
X6849449Y-9920379D02*
X6830402Y-9910855D01*
X6830402Y-9910855D02*
X6820878Y-9901332D01*
X6820878Y-9901332D02*
X6811354Y-9882284D01*
X6811354Y-9882284D02*
X6801830Y-9844189D01*
X6801830Y-9844189D02*
X6801830Y-9796570D01*
X6801830Y-9796570D02*
X6811354Y-9758474D01*
X6811354Y-9758474D02*
X6820878Y-9739427D01*
X6820878Y-9739427D02*
X6830402Y-9729903D01*
X6830402Y-9729903D02*
X6849449Y-9720379D01*
X7039925Y-9720379D02*
X7058973Y-9720379D01*
X7058973Y-9720379D02*
X7078021Y-9729903D01*
X7078021Y-9729903D02*
X7087545Y-9739427D01*
X7087545Y-9739427D02*
X7097068Y-9758474D01*
X7097068Y-9758474D02*
X7106592Y-9796570D01*
X7106592Y-9796570D02*
X7106592Y-9844189D01*
X7106592Y-9844189D02*
X7097068Y-9882284D01*
X7097068Y-9882284D02*
X7087545Y-9901332D01*
X7087545Y-9901332D02*
X7078021Y-9910855D01*
X7078021Y-9910855D02*
X7058973Y-9920379D01*
X7058973Y-9920379D02*
X7039925Y-9920379D01*
X7039925Y-9920379D02*
X7020878Y-9910855D01*
X7020878Y-9910855D02*
X7011354Y-9901332D01*
X7011354Y-9901332D02*
X7001830Y-9882284D01*
X7001830Y-9882284D02*
X6992306Y-9844189D01*
X6992306Y-9844189D02*
X6992306Y-9796570D01*
X6992306Y-9796570D02*
X7001830Y-9758474D01*
X7001830Y-9758474D02*
X7011354Y-9739427D01*
X7011354Y-9739427D02*
X7020878Y-9729903D01*
X7020878Y-9729903D02*
X7039925Y-9720379D01*
X7192306Y-9920379D02*
X7192306Y-9787046D01*
X7192306Y-9806093D02*
X7201830Y-9796570D01*
X7201830Y-9796570D02*
X7220878Y-9787046D01*
X7220878Y-9787046D02*
X7249449Y-9787046D01*
X7249449Y-9787046D02*
X7268497Y-9796570D01*
X7268497Y-9796570D02*
X7278021Y-9815617D01*
X7278021Y-9815617D02*
X7278021Y-9920379D01*
X7278021Y-9815617D02*
X7287545Y-9796570D01*
X7287545Y-9796570D02*
X7306592Y-9787046D01*
X7306592Y-9787046D02*
X7335164Y-9787046D01*
X7335164Y-9787046D02*
X7354211Y-9796570D01*
X7354211Y-9796570D02*
X7363735Y-9815617D01*
X7363735Y-9815617D02*
X7363735Y-9920379D01*
X7458973Y-9920379D02*
X7458973Y-9787046D01*
X7458973Y-9806093D02*
X7468497Y-9796570D01*
X7468497Y-9796570D02*
X7487545Y-9787046D01*
X7487545Y-9787046D02*
X7516116Y-9787046D01*
X7516116Y-9787046D02*
X7535164Y-9796570D01*
X7535164Y-9796570D02*
X7544687Y-9815617D01*
X7544687Y-9815617D02*
X7544687Y-9920379D01*
X7544687Y-9815617D02*
X7554211Y-9796570D01*
X7554211Y-9796570D02*
X7573259Y-9787046D01*
X7573259Y-9787046D02*
X7601830Y-9787046D01*
X7601830Y-9787046D02*
X7620878Y-9796570D01*
X7620878Y-9796570D02*
X7630402Y-9815617D01*
X7630402Y-9815617D02*
X7630402Y-9920379D01*
X8020878Y-9710855D02*
X7849449Y-9967998D01*
X8278021Y-9720379D02*
X8297069Y-9720379D01*
X8297069Y-9720379D02*
X8316116Y-9729903D01*
X8316116Y-9729903D02*
X8325640Y-9739427D01*
X8325640Y-9739427D02*
X8335164Y-9758474D01*
X8335164Y-9758474D02*
X8344688Y-9796570D01*
X8344688Y-9796570D02*
X8344688Y-9844189D01*
X8344688Y-9844189D02*
X8335164Y-9882284D01*
X8335164Y-9882284D02*
X8325640Y-9901332D01*
X8325640Y-9901332D02*
X8316116Y-9910855D01*
X8316116Y-9910855D02*
X8297069Y-9920379D01*
X8297069Y-9920379D02*
X8278021Y-9920379D01*
X8278021Y-9920379D02*
X8258973Y-9910855D01*
X8258973Y-9910855D02*
X8249449Y-9901332D01*
X8249449Y-9901332D02*
X8239926Y-9882284D01*
X8239926Y-9882284D02*
X8230402Y-9844189D01*
X8230402Y-9844189D02*
X8230402Y-9796570D01*
X8230402Y-9796570D02*
X8239926Y-9758474D01*
X8239926Y-9758474D02*
X8249449Y-9739427D01*
X8249449Y-9739427D02*
X8258973Y-9729903D01*
X8258973Y-9729903D02*
X8278021Y-9720379D01*
X8430402Y-9901332D02*
X8439926Y-9910855D01*
X8439926Y-9910855D02*
X8430402Y-9920379D01*
X8430402Y-9920379D02*
X8420878Y-9910855D01*
X8420878Y-9910855D02*
X8430402Y-9901332D01*
X8430402Y-9901332D02*
X8430402Y-9920379D01*
X8563735Y-9720379D02*
X8582783Y-9720379D01*
X8582783Y-9720379D02*
X8601831Y-9729903D01*
X8601831Y-9729903D02*
X8611354Y-9739427D01*
X8611354Y-9739427D02*
X8620878Y-9758474D01*
X8620878Y-9758474D02*
X8630402Y-9796570D01*
X8630402Y-9796570D02*
X8630402Y-9844189D01*
X8630402Y-9844189D02*
X8620878Y-9882284D01*
X8620878Y-9882284D02*
X8611354Y-9901332D01*
X8611354Y-9901332D02*
X8601831Y-9910855D01*
X8601831Y-9910855D02*
X8582783Y-9920379D01*
X8582783Y-9920379D02*
X8563735Y-9920379D01*
X8563735Y-9920379D02*
X8544688Y-9910855D01*
X8544688Y-9910855D02*
X8535164Y-9901332D01*
X8535164Y-9901332D02*
X8525640Y-9882284D01*
X8525640Y-9882284D02*
X8516116Y-9844189D01*
X8516116Y-9844189D02*
X8516116Y-9796570D01*
X8516116Y-9796570D02*
X8525640Y-9758474D01*
X8525640Y-9758474D02*
X8535164Y-9739427D01*
X8535164Y-9739427D02*
X8544688Y-9729903D01*
X8544688Y-9729903D02*
X8563735Y-9720379D01*
X8706592Y-9739427D02*
X8716116Y-9729903D01*
X8716116Y-9729903D02*
X8735164Y-9720379D01*
X8735164Y-9720379D02*
X8782783Y-9720379D01*
X8782783Y-9720379D02*
X8801831Y-9729903D01*
X8801831Y-9729903D02*
X8811354Y-9739427D01*
X8811354Y-9739427D02*
X8820878Y-9758474D01*
X8820878Y-9758474D02*
X8820878Y-9777522D01*
X8820878Y-9777522D02*
X8811354Y-9806093D01*
X8811354Y-9806093D02*
X8697069Y-9920379D01*
X8697069Y-9920379D02*
X8820878Y-9920379D01*
X8887545Y-9720379D02*
X9011354Y-9720379D01*
X9011354Y-9720379D02*
X8944688Y-9796570D01*
X8944688Y-9796570D02*
X8973259Y-9796570D01*
X8973259Y-9796570D02*
X8992307Y-9806093D01*
X8992307Y-9806093D02*
X9001831Y-9815617D01*
X9001831Y-9815617D02*
X9011354Y-9834665D01*
X9011354Y-9834665D02*
X9011354Y-9882284D01*
X9011354Y-9882284D02*
X9001831Y-9901332D01*
X9001831Y-9901332D02*
X8992307Y-9910855D01*
X8992307Y-9910855D02*
X8973259Y-9920379D01*
X8973259Y-9920379D02*
X8916116Y-9920379D01*
X8916116Y-9920379D02*
X8897069Y-9910855D01*
X8897069Y-9910855D02*
X8887545Y-9901332D01*
X9182783Y-9720379D02*
X9144688Y-9720379D01*
X9144688Y-9720379D02*
X9125640Y-9729903D01*
X9125640Y-9729903D02*
X9116116Y-9739427D01*
X9116116Y-9739427D02*
X9097069Y-9767998D01*
X9097069Y-9767998D02*
X9087545Y-9806093D01*
X9087545Y-9806093D02*
X9087545Y-9882284D01*
X9087545Y-9882284D02*
X9097069Y-9901332D01*
X9097069Y-9901332D02*
X9106592Y-9910855D01*
X9106592Y-9910855D02*
X9125640Y-9920379D01*
X9125640Y-9920379D02*
X9163735Y-9920379D01*
X9163735Y-9920379D02*
X9182783Y-9910855D01*
X9182783Y-9910855D02*
X9192307Y-9901332D01*
X9192307Y-9901332D02*
X9201831Y-9882284D01*
X9201831Y-9882284D02*
X9201831Y-9834665D01*
X9201831Y-9834665D02*
X9192307Y-9815617D01*
X9192307Y-9815617D02*
X9182783Y-9806093D01*
X9182783Y-9806093D02*
X9163735Y-9796570D01*
X9163735Y-9796570D02*
X9125640Y-9796570D01*
X9125640Y-9796570D02*
X9106592Y-9806093D01*
X9106592Y-9806093D02*
X9097069Y-9815617D01*
X9097069Y-9815617D02*
X9087545Y-9834665D01*
X9278021Y-9720379D02*
X9278021Y-9758474D01*
X9354212Y-9720379D02*
X9354212Y-9758474D01*
X9649450Y-9996570D02*
X9639926Y-9987046D01*
X9639926Y-9987046D02*
X9620878Y-9958474D01*
X9620878Y-9958474D02*
X9611354Y-9939427D01*
X9611354Y-9939427D02*
X9601831Y-9910855D01*
X9601831Y-9910855D02*
X9592307Y-9863236D01*
X9592307Y-9863236D02*
X9592307Y-9825141D01*
X9592307Y-9825141D02*
X9601831Y-9777522D01*
X9601831Y-9777522D02*
X9611354Y-9748951D01*
X9611354Y-9748951D02*
X9620878Y-9729903D01*
X9620878Y-9729903D02*
X9639926Y-9701332D01*
X9639926Y-9701332D02*
X9649450Y-9691808D01*
X9763735Y-9720379D02*
X9782783Y-9720379D01*
X9782783Y-9720379D02*
X9801831Y-9729903D01*
X9801831Y-9729903D02*
X9811354Y-9739427D01*
X9811354Y-9739427D02*
X9820878Y-9758474D01*
X9820878Y-9758474D02*
X9830402Y-9796570D01*
X9830402Y-9796570D02*
X9830402Y-9844189D01*
X9830402Y-9844189D02*
X9820878Y-9882284D01*
X9820878Y-9882284D02*
X9811354Y-9901332D01*
X9811354Y-9901332D02*
X9801831Y-9910855D01*
X9801831Y-9910855D02*
X9782783Y-9920379D01*
X9782783Y-9920379D02*
X9763735Y-9920379D01*
X9763735Y-9920379D02*
X9744688Y-9910855D01*
X9744688Y-9910855D02*
X9735164Y-9901332D01*
X9735164Y-9901332D02*
X9725640Y-9882284D01*
X9725640Y-9882284D02*
X9716116Y-9844189D01*
X9716116Y-9844189D02*
X9716116Y-9796570D01*
X9716116Y-9796570D02*
X9725640Y-9758474D01*
X9725640Y-9758474D02*
X9735164Y-9739427D01*
X9735164Y-9739427D02*
X9744688Y-9729903D01*
X9744688Y-9729903D02*
X9763735Y-9720379D01*
X10068497Y-9920379D02*
X10068497Y-9720379D01*
X10154212Y-9920379D02*
X10154212Y-9815617D01*
X10154212Y-9815617D02*
X10144688Y-9796570D01*
X10144688Y-9796570D02*
X10125640Y-9787046D01*
X10125640Y-9787046D02*
X10097069Y-9787046D01*
X10097069Y-9787046D02*
X10078021Y-9796570D01*
X10078021Y-9796570D02*
X10068497Y-9806093D01*
X10278021Y-9920379D02*
X10258974Y-9910855D01*
X10258974Y-9910855D02*
X10249450Y-9901332D01*
X10249450Y-9901332D02*
X10239926Y-9882284D01*
X10239926Y-9882284D02*
X10239926Y-9825141D01*
X10239926Y-9825141D02*
X10249450Y-9806093D01*
X10249450Y-9806093D02*
X10258974Y-9796570D01*
X10258974Y-9796570D02*
X10278021Y-9787046D01*
X10278021Y-9787046D02*
X10306593Y-9787046D01*
X10306593Y-9787046D02*
X10325640Y-9796570D01*
X10325640Y-9796570D02*
X10335164Y-9806093D01*
X10335164Y-9806093D02*
X10344688Y-9825141D01*
X10344688Y-9825141D02*
X10344688Y-9882284D01*
X10344688Y-9882284D02*
X10335164Y-9901332D01*
X10335164Y-9901332D02*
X10325640Y-9910855D01*
X10325640Y-9910855D02*
X10306593Y-9920379D01*
X10306593Y-9920379D02*
X10278021Y-9920379D01*
X10458974Y-9920379D02*
X10439926Y-9910855D01*
X10439926Y-9910855D02*
X10430402Y-9891808D01*
X10430402Y-9891808D02*
X10430402Y-9720379D01*
X10611355Y-9910855D02*
X10592307Y-9920379D01*
X10592307Y-9920379D02*
X10554212Y-9920379D01*
X10554212Y-9920379D02*
X10535164Y-9910855D01*
X10535164Y-9910855D02*
X10525640Y-9891808D01*
X10525640Y-9891808D02*
X10525640Y-9815617D01*
X10525640Y-9815617D02*
X10535164Y-9796570D01*
X10535164Y-9796570D02*
X10554212Y-9787046D01*
X10554212Y-9787046D02*
X10592307Y-9787046D01*
X10592307Y-9787046D02*
X10611355Y-9796570D01*
X10611355Y-9796570D02*
X10620878Y-9815617D01*
X10620878Y-9815617D02*
X10620878Y-9834665D01*
X10620878Y-9834665D02*
X10525640Y-9853713D01*
X10697069Y-9910855D02*
X10716116Y-9920379D01*
X10716116Y-9920379D02*
X10754212Y-9920379D01*
X10754212Y-9920379D02*
X10773259Y-9910855D01*
X10773259Y-9910855D02*
X10782783Y-9891808D01*
X10782783Y-9891808D02*
X10782783Y-9882284D01*
X10782783Y-9882284D02*
X10773259Y-9863236D01*
X10773259Y-9863236D02*
X10754212Y-9853713D01*
X10754212Y-9853713D02*
X10725640Y-9853713D01*
X10725640Y-9853713D02*
X10706593Y-9844189D01*
X10706593Y-9844189D02*
X10697069Y-9825141D01*
X10697069Y-9825141D02*
X10697069Y-9815617D01*
X10697069Y-9815617D02*
X10706593Y-9796570D01*
X10706593Y-9796570D02*
X10725640Y-9787046D01*
X10725640Y-9787046D02*
X10754212Y-9787046D01*
X10754212Y-9787046D02*
X10773259Y-9796570D01*
X11020878Y-9844189D02*
X11173259Y-9844189D01*
X11097069Y-9920379D02*
X11097069Y-9767998D01*
X11506593Y-9787046D02*
X11506593Y-9920379D01*
X11458974Y-9710855D02*
X11411355Y-9853713D01*
X11411355Y-9853713D02*
X11535164Y-9853713D01*
X11754212Y-9910855D02*
X11773259Y-9920379D01*
X11773259Y-9920379D02*
X11811355Y-9920379D01*
X11811355Y-9920379D02*
X11830402Y-9910855D01*
X11830402Y-9910855D02*
X11839926Y-9891808D01*
X11839926Y-9891808D02*
X11839926Y-9882284D01*
X11839926Y-9882284D02*
X11830402Y-9863236D01*
X11830402Y-9863236D02*
X11811355Y-9853713D01*
X11811355Y-9853713D02*
X11782783Y-9853713D01*
X11782783Y-9853713D02*
X11763736Y-9844189D01*
X11763736Y-9844189D02*
X11754212Y-9825141D01*
X11754212Y-9825141D02*
X11754212Y-9815617D01*
X11754212Y-9815617D02*
X11763736Y-9796570D01*
X11763736Y-9796570D02*
X11782783Y-9787046D01*
X11782783Y-9787046D02*
X11811355Y-9787046D01*
X11811355Y-9787046D02*
X11830402Y-9796570D01*
X11954212Y-9920379D02*
X11935164Y-9910855D01*
X11935164Y-9910855D02*
X11925640Y-9891808D01*
X11925640Y-9891808D02*
X11925640Y-9720379D01*
X12058974Y-9920379D02*
X12039926Y-9910855D01*
X12039926Y-9910855D02*
X12030402Y-9901332D01*
X12030402Y-9901332D02*
X12020878Y-9882284D01*
X12020878Y-9882284D02*
X12020878Y-9825141D01*
X12020878Y-9825141D02*
X12030402Y-9806093D01*
X12030402Y-9806093D02*
X12039926Y-9796570D01*
X12039926Y-9796570D02*
X12058974Y-9787046D01*
X12058974Y-9787046D02*
X12087545Y-9787046D01*
X12087545Y-9787046D02*
X12106593Y-9796570D01*
X12106593Y-9796570D02*
X12116117Y-9806093D01*
X12116117Y-9806093D02*
X12125640Y-9825141D01*
X12125640Y-9825141D02*
X12125640Y-9882284D01*
X12125640Y-9882284D02*
X12116117Y-9901332D01*
X12116117Y-9901332D02*
X12106593Y-9910855D01*
X12106593Y-9910855D02*
X12087545Y-9920379D01*
X12087545Y-9920379D02*
X12058974Y-9920379D01*
X12182783Y-9787046D02*
X12258974Y-9787046D01*
X12211355Y-9720379D02*
X12211355Y-9891808D01*
X12211355Y-9891808D02*
X12220878Y-9910855D01*
X12220878Y-9910855D02*
X12239926Y-9920379D01*
X12239926Y-9920379D02*
X12258974Y-9920379D01*
X12316117Y-9910855D02*
X12335164Y-9920379D01*
X12335164Y-9920379D02*
X12373259Y-9920379D01*
X12373259Y-9920379D02*
X12392307Y-9910855D01*
X12392307Y-9910855D02*
X12401831Y-9891808D01*
X12401831Y-9891808D02*
X12401831Y-9882284D01*
X12401831Y-9882284D02*
X12392307Y-9863236D01*
X12392307Y-9863236D02*
X12373259Y-9853713D01*
X12373259Y-9853713D02*
X12344688Y-9853713D01*
X12344688Y-9853713D02*
X12325640Y-9844189D01*
X12325640Y-9844189D02*
X12316117Y-9825141D01*
X12316117Y-9825141D02*
X12316117Y-9815617D01*
X12316117Y-9815617D02*
X12325640Y-9796570D01*
X12325640Y-9796570D02*
X12344688Y-9787046D01*
X12344688Y-9787046D02*
X12373259Y-9787046D01*
X12373259Y-9787046D02*
X12392307Y-9796570D01*
X12468498Y-9996570D02*
X12478021Y-9987046D01*
X12478021Y-9987046D02*
X12497069Y-9958474D01*
X12497069Y-9958474D02*
X12506593Y-9939427D01*
X12506593Y-9939427D02*
X12516117Y-9910855D01*
X12516117Y-9910855D02*
X12525640Y-9863236D01*
X12525640Y-9863236D02*
X12525640Y-9825141D01*
X12525640Y-9825141D02*
X12516117Y-9777522D01*
X12516117Y-9777522D02*
X12506593Y-9748951D01*
X12506593Y-9748951D02*
X12497069Y-9729903D01*
X12497069Y-9729903D02*
X12478021Y-9701332D01*
X12478021Y-9701332D02*
X12468498Y-9691808D01*
D14*
X6055045Y-10059355D02*
X6055045Y-10124355D01*
X6022545Y-10091855D02*
X6087545Y-10091855D01*
D11*
X6373259Y-9984379D02*
X6392306Y-9984379D01*
X6392306Y-9984379D02*
X6411354Y-9993903D01*
X6411354Y-9993903D02*
X6420878Y-10003427D01*
X6420878Y-10003427D02*
X6430402Y-10022474D01*
X6430402Y-10022474D02*
X6439925Y-10060570D01*
X6439925Y-10060570D02*
X6439925Y-10108189D01*
X6439925Y-10108189D02*
X6430402Y-10146284D01*
X6430402Y-10146284D02*
X6420878Y-10165332D01*
X6420878Y-10165332D02*
X6411354Y-10174855D01*
X6411354Y-10174855D02*
X6392306Y-10184379D01*
X6392306Y-10184379D02*
X6373259Y-10184379D01*
X6373259Y-10184379D02*
X6354211Y-10174855D01*
X6354211Y-10174855D02*
X6344687Y-10165332D01*
X6344687Y-10165332D02*
X6335164Y-10146284D01*
X6335164Y-10146284D02*
X6325640Y-10108189D01*
X6325640Y-10108189D02*
X6325640Y-10060570D01*
X6325640Y-10060570D02*
X6335164Y-10022474D01*
X6335164Y-10022474D02*
X6344687Y-10003427D01*
X6344687Y-10003427D02*
X6354211Y-9993903D01*
X6354211Y-9993903D02*
X6373259Y-9984379D01*
X6525640Y-10165332D02*
X6535164Y-10174855D01*
X6535164Y-10174855D02*
X6525640Y-10184379D01*
X6525640Y-10184379D02*
X6516116Y-10174855D01*
X6516116Y-10174855D02*
X6525640Y-10165332D01*
X6525640Y-10165332D02*
X6525640Y-10184379D01*
X6706592Y-9984379D02*
X6668497Y-9984379D01*
X6668497Y-9984379D02*
X6649449Y-9993903D01*
X6649449Y-9993903D02*
X6639925Y-10003427D01*
X6639925Y-10003427D02*
X6620878Y-10031998D01*
X6620878Y-10031998D02*
X6611354Y-10070093D01*
X6611354Y-10070093D02*
X6611354Y-10146284D01*
X6611354Y-10146284D02*
X6620878Y-10165332D01*
X6620878Y-10165332D02*
X6630402Y-10174855D01*
X6630402Y-10174855D02*
X6649449Y-10184379D01*
X6649449Y-10184379D02*
X6687545Y-10184379D01*
X6687545Y-10184379D02*
X6706592Y-10174855D01*
X6706592Y-10174855D02*
X6716116Y-10165332D01*
X6716116Y-10165332D02*
X6725640Y-10146284D01*
X6725640Y-10146284D02*
X6725640Y-10098665D01*
X6725640Y-10098665D02*
X6716116Y-10079617D01*
X6716116Y-10079617D02*
X6706592Y-10070093D01*
X6706592Y-10070093D02*
X6687545Y-10060570D01*
X6687545Y-10060570D02*
X6649449Y-10060570D01*
X6649449Y-10060570D02*
X6630402Y-10070093D01*
X6630402Y-10070093D02*
X6620878Y-10079617D01*
X6620878Y-10079617D02*
X6611354Y-10098665D01*
X6906592Y-9984379D02*
X6811354Y-9984379D01*
X6811354Y-9984379D02*
X6801830Y-10079617D01*
X6801830Y-10079617D02*
X6811354Y-10070093D01*
X6811354Y-10070093D02*
X6830402Y-10060570D01*
X6830402Y-10060570D02*
X6878021Y-10060570D01*
X6878021Y-10060570D02*
X6897068Y-10070093D01*
X6897068Y-10070093D02*
X6906592Y-10079617D01*
X6906592Y-10079617D02*
X6916116Y-10098665D01*
X6916116Y-10098665D02*
X6916116Y-10146284D01*
X6916116Y-10146284D02*
X6906592Y-10165332D01*
X6906592Y-10165332D02*
X6897068Y-10174855D01*
X6897068Y-10174855D02*
X6878021Y-10184379D01*
X6878021Y-10184379D02*
X6830402Y-10184379D01*
X6830402Y-10184379D02*
X6811354Y-10174855D01*
X6811354Y-10174855D02*
X6801830Y-10165332D01*
X7039925Y-9984379D02*
X7058973Y-9984379D01*
X7058973Y-9984379D02*
X7078021Y-9993903D01*
X7078021Y-9993903D02*
X7087545Y-10003427D01*
X7087545Y-10003427D02*
X7097068Y-10022474D01*
X7097068Y-10022474D02*
X7106592Y-10060570D01*
X7106592Y-10060570D02*
X7106592Y-10108189D01*
X7106592Y-10108189D02*
X7097068Y-10146284D01*
X7097068Y-10146284D02*
X7087545Y-10165332D01*
X7087545Y-10165332D02*
X7078021Y-10174855D01*
X7078021Y-10174855D02*
X7058973Y-10184379D01*
X7058973Y-10184379D02*
X7039925Y-10184379D01*
X7039925Y-10184379D02*
X7020878Y-10174855D01*
X7020878Y-10174855D02*
X7011354Y-10165332D01*
X7011354Y-10165332D02*
X7001830Y-10146284D01*
X7001830Y-10146284D02*
X6992306Y-10108189D01*
X6992306Y-10108189D02*
X6992306Y-10060570D01*
X6992306Y-10060570D02*
X7001830Y-10022474D01*
X7001830Y-10022474D02*
X7011354Y-10003427D01*
X7011354Y-10003427D02*
X7020878Y-9993903D01*
X7020878Y-9993903D02*
X7039925Y-9984379D01*
X7192306Y-10184379D02*
X7192306Y-10051046D01*
X7192306Y-10070093D02*
X7201830Y-10060570D01*
X7201830Y-10060570D02*
X7220878Y-10051046D01*
X7220878Y-10051046D02*
X7249449Y-10051046D01*
X7249449Y-10051046D02*
X7268497Y-10060570D01*
X7268497Y-10060570D02*
X7278021Y-10079617D01*
X7278021Y-10079617D02*
X7278021Y-10184379D01*
X7278021Y-10079617D02*
X7287545Y-10060570D01*
X7287545Y-10060570D02*
X7306592Y-10051046D01*
X7306592Y-10051046D02*
X7335164Y-10051046D01*
X7335164Y-10051046D02*
X7354211Y-10060570D01*
X7354211Y-10060570D02*
X7363735Y-10079617D01*
X7363735Y-10079617D02*
X7363735Y-10184379D01*
X7458973Y-10184379D02*
X7458973Y-10051046D01*
X7458973Y-10070093D02*
X7468497Y-10060570D01*
X7468497Y-10060570D02*
X7487545Y-10051046D01*
X7487545Y-10051046D02*
X7516116Y-10051046D01*
X7516116Y-10051046D02*
X7535164Y-10060570D01*
X7535164Y-10060570D02*
X7544687Y-10079617D01*
X7544687Y-10079617D02*
X7544687Y-10184379D01*
X7544687Y-10079617D02*
X7554211Y-10060570D01*
X7554211Y-10060570D02*
X7573259Y-10051046D01*
X7573259Y-10051046D02*
X7601830Y-10051046D01*
X7601830Y-10051046D02*
X7620878Y-10060570D01*
X7620878Y-10060570D02*
X7630402Y-10079617D01*
X7630402Y-10079617D02*
X7630402Y-10184379D01*
X8020878Y-9974855D02*
X7849449Y-10231998D01*
X8278021Y-9984379D02*
X8297069Y-9984379D01*
X8297069Y-9984379D02*
X8316116Y-9993903D01*
X8316116Y-9993903D02*
X8325640Y-10003427D01*
X8325640Y-10003427D02*
X8335164Y-10022474D01*
X8335164Y-10022474D02*
X8344688Y-10060570D01*
X8344688Y-10060570D02*
X8344688Y-10108189D01*
X8344688Y-10108189D02*
X8335164Y-10146284D01*
X8335164Y-10146284D02*
X8325640Y-10165332D01*
X8325640Y-10165332D02*
X8316116Y-10174855D01*
X8316116Y-10174855D02*
X8297069Y-10184379D01*
X8297069Y-10184379D02*
X8278021Y-10184379D01*
X8278021Y-10184379D02*
X8258973Y-10174855D01*
X8258973Y-10174855D02*
X8249449Y-10165332D01*
X8249449Y-10165332D02*
X8239926Y-10146284D01*
X8239926Y-10146284D02*
X8230402Y-10108189D01*
X8230402Y-10108189D02*
X8230402Y-10060570D01*
X8230402Y-10060570D02*
X8239926Y-10022474D01*
X8239926Y-10022474D02*
X8249449Y-10003427D01*
X8249449Y-10003427D02*
X8258973Y-9993903D01*
X8258973Y-9993903D02*
X8278021Y-9984379D01*
X8430402Y-10165332D02*
X8439926Y-10174855D01*
X8439926Y-10174855D02*
X8430402Y-10184379D01*
X8430402Y-10184379D02*
X8420878Y-10174855D01*
X8420878Y-10174855D02*
X8430402Y-10165332D01*
X8430402Y-10165332D02*
X8430402Y-10184379D01*
X8563735Y-9984379D02*
X8582783Y-9984379D01*
X8582783Y-9984379D02*
X8601831Y-9993903D01*
X8601831Y-9993903D02*
X8611354Y-10003427D01*
X8611354Y-10003427D02*
X8620878Y-10022474D01*
X8620878Y-10022474D02*
X8630402Y-10060570D01*
X8630402Y-10060570D02*
X8630402Y-10108189D01*
X8630402Y-10108189D02*
X8620878Y-10146284D01*
X8620878Y-10146284D02*
X8611354Y-10165332D01*
X8611354Y-10165332D02*
X8601831Y-10174855D01*
X8601831Y-10174855D02*
X8582783Y-10184379D01*
X8582783Y-10184379D02*
X8563735Y-10184379D01*
X8563735Y-10184379D02*
X8544688Y-10174855D01*
X8544688Y-10174855D02*
X8535164Y-10165332D01*
X8535164Y-10165332D02*
X8525640Y-10146284D01*
X8525640Y-10146284D02*
X8516116Y-10108189D01*
X8516116Y-10108189D02*
X8516116Y-10060570D01*
X8516116Y-10060570D02*
X8525640Y-10022474D01*
X8525640Y-10022474D02*
X8535164Y-10003427D01*
X8535164Y-10003427D02*
X8544688Y-9993903D01*
X8544688Y-9993903D02*
X8563735Y-9984379D01*
X8706592Y-10003427D02*
X8716116Y-9993903D01*
X8716116Y-9993903D02*
X8735164Y-9984379D01*
X8735164Y-9984379D02*
X8782783Y-9984379D01*
X8782783Y-9984379D02*
X8801831Y-9993903D01*
X8801831Y-9993903D02*
X8811354Y-10003427D01*
X8811354Y-10003427D02*
X8820878Y-10022474D01*
X8820878Y-10022474D02*
X8820878Y-10041522D01*
X8820878Y-10041522D02*
X8811354Y-10070093D01*
X8811354Y-10070093D02*
X8697069Y-10184379D01*
X8697069Y-10184379D02*
X8820878Y-10184379D01*
X9001831Y-9984379D02*
X8906592Y-9984379D01*
X8906592Y-9984379D02*
X8897069Y-10079617D01*
X8897069Y-10079617D02*
X8906592Y-10070093D01*
X8906592Y-10070093D02*
X8925640Y-10060570D01*
X8925640Y-10060570D02*
X8973259Y-10060570D01*
X8973259Y-10060570D02*
X8992307Y-10070093D01*
X8992307Y-10070093D02*
X9001831Y-10079617D01*
X9001831Y-10079617D02*
X9011354Y-10098665D01*
X9011354Y-10098665D02*
X9011354Y-10146284D01*
X9011354Y-10146284D02*
X9001831Y-10165332D01*
X9001831Y-10165332D02*
X8992307Y-10174855D01*
X8992307Y-10174855D02*
X8973259Y-10184379D01*
X8973259Y-10184379D02*
X8925640Y-10184379D01*
X8925640Y-10184379D02*
X8906592Y-10174855D01*
X8906592Y-10174855D02*
X8897069Y-10165332D01*
X9182783Y-9984379D02*
X9144688Y-9984379D01*
X9144688Y-9984379D02*
X9125640Y-9993903D01*
X9125640Y-9993903D02*
X9116116Y-10003427D01*
X9116116Y-10003427D02*
X9097069Y-10031998D01*
X9097069Y-10031998D02*
X9087545Y-10070093D01*
X9087545Y-10070093D02*
X9087545Y-10146284D01*
X9087545Y-10146284D02*
X9097069Y-10165332D01*
X9097069Y-10165332D02*
X9106592Y-10174855D01*
X9106592Y-10174855D02*
X9125640Y-10184379D01*
X9125640Y-10184379D02*
X9163735Y-10184379D01*
X9163735Y-10184379D02*
X9182783Y-10174855D01*
X9182783Y-10174855D02*
X9192307Y-10165332D01*
X9192307Y-10165332D02*
X9201831Y-10146284D01*
X9201831Y-10146284D02*
X9201831Y-10098665D01*
X9201831Y-10098665D02*
X9192307Y-10079617D01*
X9192307Y-10079617D02*
X9182783Y-10070093D01*
X9182783Y-10070093D02*
X9163735Y-10060570D01*
X9163735Y-10060570D02*
X9125640Y-10060570D01*
X9125640Y-10060570D02*
X9106592Y-10070093D01*
X9106592Y-10070093D02*
X9097069Y-10079617D01*
X9097069Y-10079617D02*
X9087545Y-10098665D01*
X9278021Y-9984379D02*
X9278021Y-10022474D01*
X9354212Y-9984379D02*
X9354212Y-10022474D01*
X9649450Y-10260570D02*
X9639926Y-10251046D01*
X9639926Y-10251046D02*
X9620878Y-10222474D01*
X9620878Y-10222474D02*
X9611354Y-10203427D01*
X9611354Y-10203427D02*
X9601831Y-10174855D01*
X9601831Y-10174855D02*
X9592307Y-10127236D01*
X9592307Y-10127236D02*
X9592307Y-10089141D01*
X9592307Y-10089141D02*
X9601831Y-10041522D01*
X9601831Y-10041522D02*
X9611354Y-10012951D01*
X9611354Y-10012951D02*
X9620878Y-9993903D01*
X9620878Y-9993903D02*
X9639926Y-9965332D01*
X9639926Y-9965332D02*
X9649450Y-9955808D01*
X9830402Y-10184379D02*
X9716116Y-10184379D01*
X9773259Y-10184379D02*
X9773259Y-9984379D01*
X9773259Y-9984379D02*
X9754212Y-10012951D01*
X9754212Y-10012951D02*
X9735164Y-10031998D01*
X9735164Y-10031998D02*
X9716116Y-10041522D01*
X9906593Y-10003427D02*
X9916116Y-9993903D01*
X9916116Y-9993903D02*
X9935164Y-9984379D01*
X9935164Y-9984379D02*
X9982783Y-9984379D01*
X9982783Y-9984379D02*
X10001831Y-9993903D01*
X10001831Y-9993903D02*
X10011354Y-10003427D01*
X10011354Y-10003427D02*
X10020878Y-10022474D01*
X10020878Y-10022474D02*
X10020878Y-10041522D01*
X10020878Y-10041522D02*
X10011354Y-10070093D01*
X10011354Y-10070093D02*
X9897069Y-10184379D01*
X9897069Y-10184379D02*
X10020878Y-10184379D01*
X10258974Y-10184379D02*
X10258974Y-9984379D01*
X10344688Y-10184379D02*
X10344688Y-10079617D01*
X10344688Y-10079617D02*
X10335164Y-10060570D01*
X10335164Y-10060570D02*
X10316116Y-10051046D01*
X10316116Y-10051046D02*
X10287545Y-10051046D01*
X10287545Y-10051046D02*
X10268497Y-10060570D01*
X10268497Y-10060570D02*
X10258974Y-10070093D01*
X10468497Y-10184379D02*
X10449450Y-10174855D01*
X10449450Y-10174855D02*
X10439926Y-10165332D01*
X10439926Y-10165332D02*
X10430402Y-10146284D01*
X10430402Y-10146284D02*
X10430402Y-10089141D01*
X10430402Y-10089141D02*
X10439926Y-10070093D01*
X10439926Y-10070093D02*
X10449450Y-10060570D01*
X10449450Y-10060570D02*
X10468497Y-10051046D01*
X10468497Y-10051046D02*
X10497069Y-10051046D01*
X10497069Y-10051046D02*
X10516116Y-10060570D01*
X10516116Y-10060570D02*
X10525640Y-10070093D01*
X10525640Y-10070093D02*
X10535164Y-10089141D01*
X10535164Y-10089141D02*
X10535164Y-10146284D01*
X10535164Y-10146284D02*
X10525640Y-10165332D01*
X10525640Y-10165332D02*
X10516116Y-10174855D01*
X10516116Y-10174855D02*
X10497069Y-10184379D01*
X10497069Y-10184379D02*
X10468497Y-10184379D01*
X10649450Y-10184379D02*
X10630402Y-10174855D01*
X10630402Y-10174855D02*
X10620878Y-10155808D01*
X10620878Y-10155808D02*
X10620878Y-9984379D01*
X10801831Y-10174855D02*
X10782783Y-10184379D01*
X10782783Y-10184379D02*
X10744688Y-10184379D01*
X10744688Y-10184379D02*
X10725640Y-10174855D01*
X10725640Y-10174855D02*
X10716116Y-10155808D01*
X10716116Y-10155808D02*
X10716116Y-10079617D01*
X10716116Y-10079617D02*
X10725640Y-10060570D01*
X10725640Y-10060570D02*
X10744688Y-10051046D01*
X10744688Y-10051046D02*
X10782783Y-10051046D01*
X10782783Y-10051046D02*
X10801831Y-10060570D01*
X10801831Y-10060570D02*
X10811355Y-10079617D01*
X10811355Y-10079617D02*
X10811355Y-10098665D01*
X10811355Y-10098665D02*
X10716116Y-10117713D01*
X10887545Y-10174855D02*
X10906593Y-10184379D01*
X10906593Y-10184379D02*
X10944688Y-10184379D01*
X10944688Y-10184379D02*
X10963736Y-10174855D01*
X10963736Y-10174855D02*
X10973259Y-10155808D01*
X10973259Y-10155808D02*
X10973259Y-10146284D01*
X10973259Y-10146284D02*
X10963736Y-10127236D01*
X10963736Y-10127236D02*
X10944688Y-10117713D01*
X10944688Y-10117713D02*
X10916116Y-10117713D01*
X10916116Y-10117713D02*
X10897069Y-10108189D01*
X10897069Y-10108189D02*
X10887545Y-10089141D01*
X10887545Y-10089141D02*
X10887545Y-10079617D01*
X10887545Y-10079617D02*
X10897069Y-10060570D01*
X10897069Y-10060570D02*
X10916116Y-10051046D01*
X10916116Y-10051046D02*
X10944688Y-10051046D01*
X10944688Y-10051046D02*
X10963736Y-10060570D01*
X11039926Y-10260570D02*
X11049450Y-10251046D01*
X11049450Y-10251046D02*
X11068497Y-10222474D01*
X11068497Y-10222474D02*
X11078021Y-10203427D01*
X11078021Y-10203427D02*
X11087545Y-10174855D01*
X11087545Y-10174855D02*
X11097069Y-10127236D01*
X11097069Y-10127236D02*
X11097069Y-10089141D01*
X11097069Y-10089141D02*
X11087545Y-10041522D01*
X11087545Y-10041522D02*
X11078021Y-10012951D01*
X11078021Y-10012951D02*
X11068497Y-9993903D01*
X11068497Y-9993903D02*
X11049450Y-9965332D01*
X11049450Y-9965332D02*
X11039926Y-9955808D01*
D15*
X6077294Y-10380604D02*
X6077294Y-10331106D01*
X6027796Y-10331106D01*
X6027796Y-10380604D01*
X6077294Y-10380604D01*
D11*
X6373259Y-10248379D02*
X6392306Y-10248379D01*
X6392306Y-10248379D02*
X6411354Y-10257903D01*
X6411354Y-10257903D02*
X6420878Y-10267427D01*
X6420878Y-10267427D02*
X6430402Y-10286474D01*
X6430402Y-10286474D02*
X6439925Y-10324570D01*
X6439925Y-10324570D02*
X6439925Y-10372189D01*
X6439925Y-10372189D02*
X6430402Y-10410284D01*
X6430402Y-10410284D02*
X6420878Y-10429332D01*
X6420878Y-10429332D02*
X6411354Y-10438855D01*
X6411354Y-10438855D02*
X6392306Y-10448379D01*
X6392306Y-10448379D02*
X6373259Y-10448379D01*
X6373259Y-10448379D02*
X6354211Y-10438855D01*
X6354211Y-10438855D02*
X6344687Y-10429332D01*
X6344687Y-10429332D02*
X6335164Y-10410284D01*
X6335164Y-10410284D02*
X6325640Y-10372189D01*
X6325640Y-10372189D02*
X6325640Y-10324570D01*
X6325640Y-10324570D02*
X6335164Y-10286474D01*
X6335164Y-10286474D02*
X6344687Y-10267427D01*
X6344687Y-10267427D02*
X6354211Y-10257903D01*
X6354211Y-10257903D02*
X6373259Y-10248379D01*
X6525640Y-10429332D02*
X6535164Y-10438855D01*
X6535164Y-10438855D02*
X6525640Y-10448379D01*
X6525640Y-10448379D02*
X6516116Y-10438855D01*
X6516116Y-10438855D02*
X6525640Y-10429332D01*
X6525640Y-10429332D02*
X6525640Y-10448379D01*
X6601830Y-10248379D02*
X6735164Y-10248379D01*
X6735164Y-10248379D02*
X6649449Y-10448379D01*
X6849449Y-10248379D02*
X6868497Y-10248379D01*
X6868497Y-10248379D02*
X6887545Y-10257903D01*
X6887545Y-10257903D02*
X6897068Y-10267427D01*
X6897068Y-10267427D02*
X6906592Y-10286474D01*
X6906592Y-10286474D02*
X6916116Y-10324570D01*
X6916116Y-10324570D02*
X6916116Y-10372189D01*
X6916116Y-10372189D02*
X6906592Y-10410284D01*
X6906592Y-10410284D02*
X6897068Y-10429332D01*
X6897068Y-10429332D02*
X6887545Y-10438855D01*
X6887545Y-10438855D02*
X6868497Y-10448379D01*
X6868497Y-10448379D02*
X6849449Y-10448379D01*
X6849449Y-10448379D02*
X6830402Y-10438855D01*
X6830402Y-10438855D02*
X6820878Y-10429332D01*
X6820878Y-10429332D02*
X6811354Y-10410284D01*
X6811354Y-10410284D02*
X6801830Y-10372189D01*
X6801830Y-10372189D02*
X6801830Y-10324570D01*
X6801830Y-10324570D02*
X6811354Y-10286474D01*
X6811354Y-10286474D02*
X6820878Y-10267427D01*
X6820878Y-10267427D02*
X6830402Y-10257903D01*
X6830402Y-10257903D02*
X6849449Y-10248379D01*
X7039925Y-10248379D02*
X7058973Y-10248379D01*
X7058973Y-10248379D02*
X7078021Y-10257903D01*
X7078021Y-10257903D02*
X7087545Y-10267427D01*
X7087545Y-10267427D02*
X7097068Y-10286474D01*
X7097068Y-10286474D02*
X7106592Y-10324570D01*
X7106592Y-10324570D02*
X7106592Y-10372189D01*
X7106592Y-10372189D02*
X7097068Y-10410284D01*
X7097068Y-10410284D02*
X7087545Y-10429332D01*
X7087545Y-10429332D02*
X7078021Y-10438855D01*
X7078021Y-10438855D02*
X7058973Y-10448379D01*
X7058973Y-10448379D02*
X7039925Y-10448379D01*
X7039925Y-10448379D02*
X7020878Y-10438855D01*
X7020878Y-10438855D02*
X7011354Y-10429332D01*
X7011354Y-10429332D02*
X7001830Y-10410284D01*
X7001830Y-10410284D02*
X6992306Y-10372189D01*
X6992306Y-10372189D02*
X6992306Y-10324570D01*
X6992306Y-10324570D02*
X7001830Y-10286474D01*
X7001830Y-10286474D02*
X7011354Y-10267427D01*
X7011354Y-10267427D02*
X7020878Y-10257903D01*
X7020878Y-10257903D02*
X7039925Y-10248379D01*
X7192306Y-10448379D02*
X7192306Y-10315046D01*
X7192306Y-10334093D02*
X7201830Y-10324570D01*
X7201830Y-10324570D02*
X7220878Y-10315046D01*
X7220878Y-10315046D02*
X7249449Y-10315046D01*
X7249449Y-10315046D02*
X7268497Y-10324570D01*
X7268497Y-10324570D02*
X7278021Y-10343617D01*
X7278021Y-10343617D02*
X7278021Y-10448379D01*
X7278021Y-10343617D02*
X7287545Y-10324570D01*
X7287545Y-10324570D02*
X7306592Y-10315046D01*
X7306592Y-10315046D02*
X7335164Y-10315046D01*
X7335164Y-10315046D02*
X7354211Y-10324570D01*
X7354211Y-10324570D02*
X7363735Y-10343617D01*
X7363735Y-10343617D02*
X7363735Y-10448379D01*
X7458973Y-10448379D02*
X7458973Y-10315046D01*
X7458973Y-10334093D02*
X7468497Y-10324570D01*
X7468497Y-10324570D02*
X7487545Y-10315046D01*
X7487545Y-10315046D02*
X7516116Y-10315046D01*
X7516116Y-10315046D02*
X7535164Y-10324570D01*
X7535164Y-10324570D02*
X7544687Y-10343617D01*
X7544687Y-10343617D02*
X7544687Y-10448379D01*
X7544687Y-10343617D02*
X7554211Y-10324570D01*
X7554211Y-10324570D02*
X7573259Y-10315046D01*
X7573259Y-10315046D02*
X7601830Y-10315046D01*
X7601830Y-10315046D02*
X7620878Y-10324570D01*
X7620878Y-10324570D02*
X7630402Y-10343617D01*
X7630402Y-10343617D02*
X7630402Y-10448379D01*
X8020878Y-10238855D02*
X7849449Y-10495998D01*
X8278021Y-10248379D02*
X8297069Y-10248379D01*
X8297069Y-10248379D02*
X8316116Y-10257903D01*
X8316116Y-10257903D02*
X8325640Y-10267427D01*
X8325640Y-10267427D02*
X8335164Y-10286474D01*
X8335164Y-10286474D02*
X8344688Y-10324570D01*
X8344688Y-10324570D02*
X8344688Y-10372189D01*
X8344688Y-10372189D02*
X8335164Y-10410284D01*
X8335164Y-10410284D02*
X8325640Y-10429332D01*
X8325640Y-10429332D02*
X8316116Y-10438855D01*
X8316116Y-10438855D02*
X8297069Y-10448379D01*
X8297069Y-10448379D02*
X8278021Y-10448379D01*
X8278021Y-10448379D02*
X8258973Y-10438855D01*
X8258973Y-10438855D02*
X8249449Y-10429332D01*
X8249449Y-10429332D02*
X8239926Y-10410284D01*
X8239926Y-10410284D02*
X8230402Y-10372189D01*
X8230402Y-10372189D02*
X8230402Y-10324570D01*
X8230402Y-10324570D02*
X8239926Y-10286474D01*
X8239926Y-10286474D02*
X8249449Y-10267427D01*
X8249449Y-10267427D02*
X8258973Y-10257903D01*
X8258973Y-10257903D02*
X8278021Y-10248379D01*
X8430402Y-10429332D02*
X8439926Y-10438855D01*
X8439926Y-10438855D02*
X8430402Y-10448379D01*
X8430402Y-10448379D02*
X8420878Y-10438855D01*
X8420878Y-10438855D02*
X8430402Y-10429332D01*
X8430402Y-10429332D02*
X8430402Y-10448379D01*
X8563735Y-10248379D02*
X8582783Y-10248379D01*
X8582783Y-10248379D02*
X8601831Y-10257903D01*
X8601831Y-10257903D02*
X8611354Y-10267427D01*
X8611354Y-10267427D02*
X8620878Y-10286474D01*
X8620878Y-10286474D02*
X8630402Y-10324570D01*
X8630402Y-10324570D02*
X8630402Y-10372189D01*
X8630402Y-10372189D02*
X8620878Y-10410284D01*
X8620878Y-10410284D02*
X8611354Y-10429332D01*
X8611354Y-10429332D02*
X8601831Y-10438855D01*
X8601831Y-10438855D02*
X8582783Y-10448379D01*
X8582783Y-10448379D02*
X8563735Y-10448379D01*
X8563735Y-10448379D02*
X8544688Y-10438855D01*
X8544688Y-10438855D02*
X8535164Y-10429332D01*
X8535164Y-10429332D02*
X8525640Y-10410284D01*
X8525640Y-10410284D02*
X8516116Y-10372189D01*
X8516116Y-10372189D02*
X8516116Y-10324570D01*
X8516116Y-10324570D02*
X8525640Y-10286474D01*
X8525640Y-10286474D02*
X8535164Y-10267427D01*
X8535164Y-10267427D02*
X8544688Y-10257903D01*
X8544688Y-10257903D02*
X8563735Y-10248379D01*
X8706592Y-10267427D02*
X8716116Y-10257903D01*
X8716116Y-10257903D02*
X8735164Y-10248379D01*
X8735164Y-10248379D02*
X8782783Y-10248379D01*
X8782783Y-10248379D02*
X8801831Y-10257903D01*
X8801831Y-10257903D02*
X8811354Y-10267427D01*
X8811354Y-10267427D02*
X8820878Y-10286474D01*
X8820878Y-10286474D02*
X8820878Y-10305522D01*
X8820878Y-10305522D02*
X8811354Y-10334093D01*
X8811354Y-10334093D02*
X8697069Y-10448379D01*
X8697069Y-10448379D02*
X8820878Y-10448379D01*
X8887545Y-10248379D02*
X9020878Y-10248379D01*
X9020878Y-10248379D02*
X8935164Y-10448379D01*
X9182783Y-10248379D02*
X9144688Y-10248379D01*
X9144688Y-10248379D02*
X9125640Y-10257903D01*
X9125640Y-10257903D02*
X9116116Y-10267427D01*
X9116116Y-10267427D02*
X9097069Y-10295998D01*
X9097069Y-10295998D02*
X9087545Y-10334093D01*
X9087545Y-10334093D02*
X9087545Y-10410284D01*
X9087545Y-10410284D02*
X9097069Y-10429332D01*
X9097069Y-10429332D02*
X9106592Y-10438855D01*
X9106592Y-10438855D02*
X9125640Y-10448379D01*
X9125640Y-10448379D02*
X9163735Y-10448379D01*
X9163735Y-10448379D02*
X9182783Y-10438855D01*
X9182783Y-10438855D02*
X9192307Y-10429332D01*
X9192307Y-10429332D02*
X9201831Y-10410284D01*
X9201831Y-10410284D02*
X9201831Y-10362665D01*
X9201831Y-10362665D02*
X9192307Y-10343617D01*
X9192307Y-10343617D02*
X9182783Y-10334093D01*
X9182783Y-10334093D02*
X9163735Y-10324570D01*
X9163735Y-10324570D02*
X9125640Y-10324570D01*
X9125640Y-10324570D02*
X9106592Y-10334093D01*
X9106592Y-10334093D02*
X9097069Y-10343617D01*
X9097069Y-10343617D02*
X9087545Y-10362665D01*
X9278021Y-10248379D02*
X9278021Y-10286474D01*
X9354212Y-10248379D02*
X9354212Y-10286474D01*
X9649450Y-10524570D02*
X9639926Y-10515046D01*
X9639926Y-10515046D02*
X9620878Y-10486474D01*
X9620878Y-10486474D02*
X9611354Y-10467427D01*
X9611354Y-10467427D02*
X9601831Y-10438855D01*
X9601831Y-10438855D02*
X9592307Y-10391236D01*
X9592307Y-10391236D02*
X9592307Y-10353141D01*
X9592307Y-10353141D02*
X9601831Y-10305522D01*
X9601831Y-10305522D02*
X9611354Y-10276951D01*
X9611354Y-10276951D02*
X9620878Y-10257903D01*
X9620878Y-10257903D02*
X9639926Y-10229332D01*
X9639926Y-10229332D02*
X9649450Y-10219808D01*
X9811354Y-10248379D02*
X9773259Y-10248379D01*
X9773259Y-10248379D02*
X9754212Y-10257903D01*
X9754212Y-10257903D02*
X9744688Y-10267427D01*
X9744688Y-10267427D02*
X9725640Y-10295998D01*
X9725640Y-10295998D02*
X9716116Y-10334093D01*
X9716116Y-10334093D02*
X9716116Y-10410284D01*
X9716116Y-10410284D02*
X9725640Y-10429332D01*
X9725640Y-10429332D02*
X9735164Y-10438855D01*
X9735164Y-10438855D02*
X9754212Y-10448379D01*
X9754212Y-10448379D02*
X9792307Y-10448379D01*
X9792307Y-10448379D02*
X9811354Y-10438855D01*
X9811354Y-10438855D02*
X9820878Y-10429332D01*
X9820878Y-10429332D02*
X9830402Y-10410284D01*
X9830402Y-10410284D02*
X9830402Y-10362665D01*
X9830402Y-10362665D02*
X9820878Y-10343617D01*
X9820878Y-10343617D02*
X9811354Y-10334093D01*
X9811354Y-10334093D02*
X9792307Y-10324570D01*
X9792307Y-10324570D02*
X9754212Y-10324570D01*
X9754212Y-10324570D02*
X9735164Y-10334093D01*
X9735164Y-10334093D02*
X9725640Y-10343617D01*
X9725640Y-10343617D02*
X9716116Y-10362665D01*
X10068497Y-10448379D02*
X10068497Y-10248379D01*
X10154212Y-10448379D02*
X10154212Y-10343617D01*
X10154212Y-10343617D02*
X10144688Y-10324570D01*
X10144688Y-10324570D02*
X10125640Y-10315046D01*
X10125640Y-10315046D02*
X10097069Y-10315046D01*
X10097069Y-10315046D02*
X10078021Y-10324570D01*
X10078021Y-10324570D02*
X10068497Y-10334093D01*
X10278021Y-10448379D02*
X10258974Y-10438855D01*
X10258974Y-10438855D02*
X10249450Y-10429332D01*
X10249450Y-10429332D02*
X10239926Y-10410284D01*
X10239926Y-10410284D02*
X10239926Y-10353141D01*
X10239926Y-10353141D02*
X10249450Y-10334093D01*
X10249450Y-10334093D02*
X10258974Y-10324570D01*
X10258974Y-10324570D02*
X10278021Y-10315046D01*
X10278021Y-10315046D02*
X10306593Y-10315046D01*
X10306593Y-10315046D02*
X10325640Y-10324570D01*
X10325640Y-10324570D02*
X10335164Y-10334093D01*
X10335164Y-10334093D02*
X10344688Y-10353141D01*
X10344688Y-10353141D02*
X10344688Y-10410284D01*
X10344688Y-10410284D02*
X10335164Y-10429332D01*
X10335164Y-10429332D02*
X10325640Y-10438855D01*
X10325640Y-10438855D02*
X10306593Y-10448379D01*
X10306593Y-10448379D02*
X10278021Y-10448379D01*
X10458974Y-10448379D02*
X10439926Y-10438855D01*
X10439926Y-10438855D02*
X10430402Y-10419808D01*
X10430402Y-10419808D02*
X10430402Y-10248379D01*
X10611355Y-10438855D02*
X10592307Y-10448379D01*
X10592307Y-10448379D02*
X10554212Y-10448379D01*
X10554212Y-10448379D02*
X10535164Y-10438855D01*
X10535164Y-10438855D02*
X10525640Y-10419808D01*
X10525640Y-10419808D02*
X10525640Y-10343617D01*
X10525640Y-10343617D02*
X10535164Y-10324570D01*
X10535164Y-10324570D02*
X10554212Y-10315046D01*
X10554212Y-10315046D02*
X10592307Y-10315046D01*
X10592307Y-10315046D02*
X10611355Y-10324570D01*
X10611355Y-10324570D02*
X10620878Y-10343617D01*
X10620878Y-10343617D02*
X10620878Y-10362665D01*
X10620878Y-10362665D02*
X10525640Y-10381713D01*
X10697069Y-10438855D02*
X10716116Y-10448379D01*
X10716116Y-10448379D02*
X10754212Y-10448379D01*
X10754212Y-10448379D02*
X10773259Y-10438855D01*
X10773259Y-10438855D02*
X10782783Y-10419808D01*
X10782783Y-10419808D02*
X10782783Y-10410284D01*
X10782783Y-10410284D02*
X10773259Y-10391236D01*
X10773259Y-10391236D02*
X10754212Y-10381713D01*
X10754212Y-10381713D02*
X10725640Y-10381713D01*
X10725640Y-10381713D02*
X10706593Y-10372189D01*
X10706593Y-10372189D02*
X10697069Y-10353141D01*
X10697069Y-10353141D02*
X10697069Y-10343617D01*
X10697069Y-10343617D02*
X10706593Y-10324570D01*
X10706593Y-10324570D02*
X10725640Y-10315046D01*
X10725640Y-10315046D02*
X10754212Y-10315046D01*
X10754212Y-10315046D02*
X10773259Y-10324570D01*
X10849450Y-10524570D02*
X10858974Y-10515046D01*
X10858974Y-10515046D02*
X10878021Y-10486474D01*
X10878021Y-10486474D02*
X10887545Y-10467427D01*
X10887545Y-10467427D02*
X10897069Y-10438855D01*
X10897069Y-10438855D02*
X10906593Y-10391236D01*
X10906593Y-10391236D02*
X10906593Y-10353141D01*
X10906593Y-10353141D02*
X10897069Y-10305522D01*
X10897069Y-10305522D02*
X10887545Y-10276951D01*
X10887545Y-10276951D02*
X10878021Y-10257903D01*
X10878021Y-10257903D02*
X10858974Y-10229332D01*
X10858974Y-10229332D02*
X10849450Y-10219808D01*
D10*
X6037545Y-10669855D02*
X6087545Y-10619855D01*
X6037545Y-10569855D01*
X5987545Y-10619855D01*
X6037545Y-10669855D01*
D11*
X6439925Y-10712379D02*
X6325640Y-10712379D01*
X6382783Y-10712379D02*
X6382783Y-10512379D01*
X6382783Y-10512379D02*
X6363735Y-10540951D01*
X6363735Y-10540951D02*
X6344687Y-10559998D01*
X6344687Y-10559998D02*
X6325640Y-10569522D01*
X6525640Y-10693332D02*
X6535164Y-10702855D01*
X6535164Y-10702855D02*
X6525640Y-10712379D01*
X6525640Y-10712379D02*
X6516116Y-10702855D01*
X6516116Y-10702855D02*
X6525640Y-10693332D01*
X6525640Y-10693332D02*
X6525640Y-10712379D01*
X6658973Y-10512379D02*
X6678021Y-10512379D01*
X6678021Y-10512379D02*
X6697068Y-10521903D01*
X6697068Y-10521903D02*
X6706592Y-10531427D01*
X6706592Y-10531427D02*
X6716116Y-10550474D01*
X6716116Y-10550474D02*
X6725640Y-10588570D01*
X6725640Y-10588570D02*
X6725640Y-10636189D01*
X6725640Y-10636189D02*
X6716116Y-10674284D01*
X6716116Y-10674284D02*
X6706592Y-10693332D01*
X6706592Y-10693332D02*
X6697068Y-10702855D01*
X6697068Y-10702855D02*
X6678021Y-10712379D01*
X6678021Y-10712379D02*
X6658973Y-10712379D01*
X6658973Y-10712379D02*
X6639925Y-10702855D01*
X6639925Y-10702855D02*
X6630402Y-10693332D01*
X6630402Y-10693332D02*
X6620878Y-10674284D01*
X6620878Y-10674284D02*
X6611354Y-10636189D01*
X6611354Y-10636189D02*
X6611354Y-10588570D01*
X6611354Y-10588570D02*
X6620878Y-10550474D01*
X6620878Y-10550474D02*
X6630402Y-10531427D01*
X6630402Y-10531427D02*
X6639925Y-10521903D01*
X6639925Y-10521903D02*
X6658973Y-10512379D01*
X6849449Y-10512379D02*
X6868497Y-10512379D01*
X6868497Y-10512379D02*
X6887545Y-10521903D01*
X6887545Y-10521903D02*
X6897068Y-10531427D01*
X6897068Y-10531427D02*
X6906592Y-10550474D01*
X6906592Y-10550474D02*
X6916116Y-10588570D01*
X6916116Y-10588570D02*
X6916116Y-10636189D01*
X6916116Y-10636189D02*
X6906592Y-10674284D01*
X6906592Y-10674284D02*
X6897068Y-10693332D01*
X6897068Y-10693332D02*
X6887545Y-10702855D01*
X6887545Y-10702855D02*
X6868497Y-10712379D01*
X6868497Y-10712379D02*
X6849449Y-10712379D01*
X6849449Y-10712379D02*
X6830402Y-10702855D01*
X6830402Y-10702855D02*
X6820878Y-10693332D01*
X6820878Y-10693332D02*
X6811354Y-10674284D01*
X6811354Y-10674284D02*
X6801830Y-10636189D01*
X6801830Y-10636189D02*
X6801830Y-10588570D01*
X6801830Y-10588570D02*
X6811354Y-10550474D01*
X6811354Y-10550474D02*
X6820878Y-10531427D01*
X6820878Y-10531427D02*
X6830402Y-10521903D01*
X6830402Y-10521903D02*
X6849449Y-10512379D01*
X7039925Y-10512379D02*
X7058973Y-10512379D01*
X7058973Y-10512379D02*
X7078021Y-10521903D01*
X7078021Y-10521903D02*
X7087545Y-10531427D01*
X7087545Y-10531427D02*
X7097068Y-10550474D01*
X7097068Y-10550474D02*
X7106592Y-10588570D01*
X7106592Y-10588570D02*
X7106592Y-10636189D01*
X7106592Y-10636189D02*
X7097068Y-10674284D01*
X7097068Y-10674284D02*
X7087545Y-10693332D01*
X7087545Y-10693332D02*
X7078021Y-10702855D01*
X7078021Y-10702855D02*
X7058973Y-10712379D01*
X7058973Y-10712379D02*
X7039925Y-10712379D01*
X7039925Y-10712379D02*
X7020878Y-10702855D01*
X7020878Y-10702855D02*
X7011354Y-10693332D01*
X7011354Y-10693332D02*
X7001830Y-10674284D01*
X7001830Y-10674284D02*
X6992306Y-10636189D01*
X6992306Y-10636189D02*
X6992306Y-10588570D01*
X6992306Y-10588570D02*
X7001830Y-10550474D01*
X7001830Y-10550474D02*
X7011354Y-10531427D01*
X7011354Y-10531427D02*
X7020878Y-10521903D01*
X7020878Y-10521903D02*
X7039925Y-10512379D01*
X7192306Y-10712379D02*
X7192306Y-10579046D01*
X7192306Y-10598093D02*
X7201830Y-10588570D01*
X7201830Y-10588570D02*
X7220878Y-10579046D01*
X7220878Y-10579046D02*
X7249449Y-10579046D01*
X7249449Y-10579046D02*
X7268497Y-10588570D01*
X7268497Y-10588570D02*
X7278021Y-10607617D01*
X7278021Y-10607617D02*
X7278021Y-10712379D01*
X7278021Y-10607617D02*
X7287545Y-10588570D01*
X7287545Y-10588570D02*
X7306592Y-10579046D01*
X7306592Y-10579046D02*
X7335164Y-10579046D01*
X7335164Y-10579046D02*
X7354211Y-10588570D01*
X7354211Y-10588570D02*
X7363735Y-10607617D01*
X7363735Y-10607617D02*
X7363735Y-10712379D01*
X7458973Y-10712379D02*
X7458973Y-10579046D01*
X7458973Y-10598093D02*
X7468497Y-10588570D01*
X7468497Y-10588570D02*
X7487545Y-10579046D01*
X7487545Y-10579046D02*
X7516116Y-10579046D01*
X7516116Y-10579046D02*
X7535164Y-10588570D01*
X7535164Y-10588570D02*
X7544687Y-10607617D01*
X7544687Y-10607617D02*
X7544687Y-10712379D01*
X7544687Y-10607617D02*
X7554211Y-10588570D01*
X7554211Y-10588570D02*
X7573259Y-10579046D01*
X7573259Y-10579046D02*
X7601830Y-10579046D01*
X7601830Y-10579046D02*
X7620878Y-10588570D01*
X7620878Y-10588570D02*
X7630402Y-10607617D01*
X7630402Y-10607617D02*
X7630402Y-10712379D01*
X8020878Y-10502855D02*
X7849449Y-10759998D01*
X8278021Y-10512379D02*
X8297069Y-10512379D01*
X8297069Y-10512379D02*
X8316116Y-10521903D01*
X8316116Y-10521903D02*
X8325640Y-10531427D01*
X8325640Y-10531427D02*
X8335164Y-10550474D01*
X8335164Y-10550474D02*
X8344688Y-10588570D01*
X8344688Y-10588570D02*
X8344688Y-10636189D01*
X8344688Y-10636189D02*
X8335164Y-10674284D01*
X8335164Y-10674284D02*
X8325640Y-10693332D01*
X8325640Y-10693332D02*
X8316116Y-10702855D01*
X8316116Y-10702855D02*
X8297069Y-10712379D01*
X8297069Y-10712379D02*
X8278021Y-10712379D01*
X8278021Y-10712379D02*
X8258973Y-10702855D01*
X8258973Y-10702855D02*
X8249449Y-10693332D01*
X8249449Y-10693332D02*
X8239926Y-10674284D01*
X8239926Y-10674284D02*
X8230402Y-10636189D01*
X8230402Y-10636189D02*
X8230402Y-10588570D01*
X8230402Y-10588570D02*
X8239926Y-10550474D01*
X8239926Y-10550474D02*
X8249449Y-10531427D01*
X8249449Y-10531427D02*
X8258973Y-10521903D01*
X8258973Y-10521903D02*
X8278021Y-10512379D01*
X8430402Y-10693332D02*
X8439926Y-10702855D01*
X8439926Y-10702855D02*
X8430402Y-10712379D01*
X8430402Y-10712379D02*
X8420878Y-10702855D01*
X8420878Y-10702855D02*
X8430402Y-10693332D01*
X8430402Y-10693332D02*
X8430402Y-10712379D01*
X8563735Y-10512379D02*
X8582783Y-10512379D01*
X8582783Y-10512379D02*
X8601831Y-10521903D01*
X8601831Y-10521903D02*
X8611354Y-10531427D01*
X8611354Y-10531427D02*
X8620878Y-10550474D01*
X8620878Y-10550474D02*
X8630402Y-10588570D01*
X8630402Y-10588570D02*
X8630402Y-10636189D01*
X8630402Y-10636189D02*
X8620878Y-10674284D01*
X8620878Y-10674284D02*
X8611354Y-10693332D01*
X8611354Y-10693332D02*
X8601831Y-10702855D01*
X8601831Y-10702855D02*
X8582783Y-10712379D01*
X8582783Y-10712379D02*
X8563735Y-10712379D01*
X8563735Y-10712379D02*
X8544688Y-10702855D01*
X8544688Y-10702855D02*
X8535164Y-10693332D01*
X8535164Y-10693332D02*
X8525640Y-10674284D01*
X8525640Y-10674284D02*
X8516116Y-10636189D01*
X8516116Y-10636189D02*
X8516116Y-10588570D01*
X8516116Y-10588570D02*
X8525640Y-10550474D01*
X8525640Y-10550474D02*
X8535164Y-10531427D01*
X8535164Y-10531427D02*
X8544688Y-10521903D01*
X8544688Y-10521903D02*
X8563735Y-10512379D01*
X8697069Y-10512379D02*
X8820878Y-10512379D01*
X8820878Y-10512379D02*
X8754211Y-10588570D01*
X8754211Y-10588570D02*
X8782783Y-10588570D01*
X8782783Y-10588570D02*
X8801831Y-10598093D01*
X8801831Y-10598093D02*
X8811354Y-10607617D01*
X8811354Y-10607617D02*
X8820878Y-10626665D01*
X8820878Y-10626665D02*
X8820878Y-10674284D01*
X8820878Y-10674284D02*
X8811354Y-10693332D01*
X8811354Y-10693332D02*
X8801831Y-10702855D01*
X8801831Y-10702855D02*
X8782783Y-10712379D01*
X8782783Y-10712379D02*
X8725640Y-10712379D01*
X8725640Y-10712379D02*
X8706592Y-10702855D01*
X8706592Y-10702855D02*
X8697069Y-10693332D01*
X8916116Y-10712379D02*
X8954211Y-10712379D01*
X8954211Y-10712379D02*
X8973259Y-10702855D01*
X8973259Y-10702855D02*
X8982783Y-10693332D01*
X8982783Y-10693332D02*
X9001831Y-10664760D01*
X9001831Y-10664760D02*
X9011354Y-10626665D01*
X9011354Y-10626665D02*
X9011354Y-10550474D01*
X9011354Y-10550474D02*
X9001831Y-10531427D01*
X9001831Y-10531427D02*
X8992307Y-10521903D01*
X8992307Y-10521903D02*
X8973259Y-10512379D01*
X8973259Y-10512379D02*
X8935164Y-10512379D01*
X8935164Y-10512379D02*
X8916116Y-10521903D01*
X8916116Y-10521903D02*
X8906592Y-10531427D01*
X8906592Y-10531427D02*
X8897069Y-10550474D01*
X8897069Y-10550474D02*
X8897069Y-10598093D01*
X8897069Y-10598093D02*
X8906592Y-10617141D01*
X8906592Y-10617141D02*
X8916116Y-10626665D01*
X8916116Y-10626665D02*
X8935164Y-10636189D01*
X8935164Y-10636189D02*
X8973259Y-10636189D01*
X8973259Y-10636189D02*
X8992307Y-10626665D01*
X8992307Y-10626665D02*
X9001831Y-10617141D01*
X9001831Y-10617141D02*
X9011354Y-10598093D01*
X9182783Y-10579046D02*
X9182783Y-10712379D01*
X9135164Y-10502855D02*
X9087545Y-10645713D01*
X9087545Y-10645713D02*
X9211354Y-10645713D01*
X9278021Y-10512379D02*
X9278021Y-10550474D01*
X9354212Y-10512379D02*
X9354212Y-10550474D01*
X9649450Y-10788570D02*
X9639926Y-10779046D01*
X9639926Y-10779046D02*
X9620878Y-10750474D01*
X9620878Y-10750474D02*
X9611354Y-10731427D01*
X9611354Y-10731427D02*
X9601831Y-10702855D01*
X9601831Y-10702855D02*
X9592307Y-10655236D01*
X9592307Y-10655236D02*
X9592307Y-10617141D01*
X9592307Y-10617141D02*
X9601831Y-10569522D01*
X9601831Y-10569522D02*
X9611354Y-10540951D01*
X9611354Y-10540951D02*
X9620878Y-10521903D01*
X9620878Y-10521903D02*
X9639926Y-10493332D01*
X9639926Y-10493332D02*
X9649450Y-10483808D01*
X9706593Y-10512379D02*
X9830402Y-10512379D01*
X9830402Y-10512379D02*
X9763735Y-10588570D01*
X9763735Y-10588570D02*
X9792307Y-10588570D01*
X9792307Y-10588570D02*
X9811354Y-10598093D01*
X9811354Y-10598093D02*
X9820878Y-10607617D01*
X9820878Y-10607617D02*
X9830402Y-10626665D01*
X9830402Y-10626665D02*
X9830402Y-10674284D01*
X9830402Y-10674284D02*
X9820878Y-10693332D01*
X9820878Y-10693332D02*
X9811354Y-10702855D01*
X9811354Y-10702855D02*
X9792307Y-10712379D01*
X9792307Y-10712379D02*
X9735164Y-10712379D01*
X9735164Y-10712379D02*
X9716116Y-10702855D01*
X9716116Y-10702855D02*
X9706593Y-10693332D01*
X10068497Y-10712379D02*
X10068497Y-10512379D01*
X10154212Y-10712379D02*
X10154212Y-10607617D01*
X10154212Y-10607617D02*
X10144688Y-10588570D01*
X10144688Y-10588570D02*
X10125640Y-10579046D01*
X10125640Y-10579046D02*
X10097069Y-10579046D01*
X10097069Y-10579046D02*
X10078021Y-10588570D01*
X10078021Y-10588570D02*
X10068497Y-10598093D01*
X10278021Y-10712379D02*
X10258974Y-10702855D01*
X10258974Y-10702855D02*
X10249450Y-10693332D01*
X10249450Y-10693332D02*
X10239926Y-10674284D01*
X10239926Y-10674284D02*
X10239926Y-10617141D01*
X10239926Y-10617141D02*
X10249450Y-10598093D01*
X10249450Y-10598093D02*
X10258974Y-10588570D01*
X10258974Y-10588570D02*
X10278021Y-10579046D01*
X10278021Y-10579046D02*
X10306593Y-10579046D01*
X10306593Y-10579046D02*
X10325640Y-10588570D01*
X10325640Y-10588570D02*
X10335164Y-10598093D01*
X10335164Y-10598093D02*
X10344688Y-10617141D01*
X10344688Y-10617141D02*
X10344688Y-10674284D01*
X10344688Y-10674284D02*
X10335164Y-10693332D01*
X10335164Y-10693332D02*
X10325640Y-10702855D01*
X10325640Y-10702855D02*
X10306593Y-10712379D01*
X10306593Y-10712379D02*
X10278021Y-10712379D01*
X10458974Y-10712379D02*
X10439926Y-10702855D01*
X10439926Y-10702855D02*
X10430402Y-10683808D01*
X10430402Y-10683808D02*
X10430402Y-10512379D01*
X10611355Y-10702855D02*
X10592307Y-10712379D01*
X10592307Y-10712379D02*
X10554212Y-10712379D01*
X10554212Y-10712379D02*
X10535164Y-10702855D01*
X10535164Y-10702855D02*
X10525640Y-10683808D01*
X10525640Y-10683808D02*
X10525640Y-10607617D01*
X10525640Y-10607617D02*
X10535164Y-10588570D01*
X10535164Y-10588570D02*
X10554212Y-10579046D01*
X10554212Y-10579046D02*
X10592307Y-10579046D01*
X10592307Y-10579046D02*
X10611355Y-10588570D01*
X10611355Y-10588570D02*
X10620878Y-10607617D01*
X10620878Y-10607617D02*
X10620878Y-10626665D01*
X10620878Y-10626665D02*
X10525640Y-10645713D01*
X10697069Y-10702855D02*
X10716116Y-10712379D01*
X10716116Y-10712379D02*
X10754212Y-10712379D01*
X10754212Y-10712379D02*
X10773259Y-10702855D01*
X10773259Y-10702855D02*
X10782783Y-10683808D01*
X10782783Y-10683808D02*
X10782783Y-10674284D01*
X10782783Y-10674284D02*
X10773259Y-10655236D01*
X10773259Y-10655236D02*
X10754212Y-10645713D01*
X10754212Y-10645713D02*
X10725640Y-10645713D01*
X10725640Y-10645713D02*
X10706593Y-10636189D01*
X10706593Y-10636189D02*
X10697069Y-10617141D01*
X10697069Y-10617141D02*
X10697069Y-10607617D01*
X10697069Y-10607617D02*
X10706593Y-10588570D01*
X10706593Y-10588570D02*
X10725640Y-10579046D01*
X10725640Y-10579046D02*
X10754212Y-10579046D01*
X10754212Y-10579046D02*
X10773259Y-10588570D01*
X10849450Y-10788570D02*
X10858974Y-10779046D01*
X10858974Y-10779046D02*
X10878021Y-10750474D01*
X10878021Y-10750474D02*
X10887545Y-10731427D01*
X10887545Y-10731427D02*
X10897069Y-10702855D01*
X10897069Y-10702855D02*
X10906593Y-10655236D01*
X10906593Y-10655236D02*
X10906593Y-10617141D01*
X10906593Y-10617141D02*
X10897069Y-10569522D01*
X10897069Y-10569522D02*
X10887545Y-10540951D01*
X10887545Y-10540951D02*
X10878021Y-10521903D01*
X10878021Y-10521903D02*
X10858974Y-10493332D01*
X10858974Y-10493332D02*
X10849450Y-10483808D01*
X5887545Y-10783855D02*
X6087545Y-10983855D01*
X6087545Y-10783855D02*
X5887545Y-10983855D01*
X6087545Y-10883855D02*
G75*
G03*
X6087545Y-10883855I-100000J0D01*
G01*
X6325640Y-10795427D02*
X6335164Y-10785903D01*
X6335164Y-10785903D02*
X6354211Y-10776379D01*
X6354211Y-10776379D02*
X6401830Y-10776379D01*
X6401830Y-10776379D02*
X6420878Y-10785903D01*
X6420878Y-10785903D02*
X6430402Y-10795427D01*
X6430402Y-10795427D02*
X6439925Y-10814474D01*
X6439925Y-10814474D02*
X6439925Y-10833522D01*
X6439925Y-10833522D02*
X6430402Y-10862093D01*
X6430402Y-10862093D02*
X6316116Y-10976379D01*
X6316116Y-10976379D02*
X6439925Y-10976379D01*
X6525640Y-10957332D02*
X6535164Y-10966855D01*
X6535164Y-10966855D02*
X6525640Y-10976379D01*
X6525640Y-10976379D02*
X6516116Y-10966855D01*
X6516116Y-10966855D02*
X6525640Y-10957332D01*
X6525640Y-10957332D02*
X6525640Y-10976379D01*
X6611354Y-10795427D02*
X6620878Y-10785903D01*
X6620878Y-10785903D02*
X6639925Y-10776379D01*
X6639925Y-10776379D02*
X6687545Y-10776379D01*
X6687545Y-10776379D02*
X6706592Y-10785903D01*
X6706592Y-10785903D02*
X6716116Y-10795427D01*
X6716116Y-10795427D02*
X6725640Y-10814474D01*
X6725640Y-10814474D02*
X6725640Y-10833522D01*
X6725640Y-10833522D02*
X6716116Y-10862093D01*
X6716116Y-10862093D02*
X6601830Y-10976379D01*
X6601830Y-10976379D02*
X6725640Y-10976379D01*
X6849449Y-10776379D02*
X6868497Y-10776379D01*
X6868497Y-10776379D02*
X6887545Y-10785903D01*
X6887545Y-10785903D02*
X6897068Y-10795427D01*
X6897068Y-10795427D02*
X6906592Y-10814474D01*
X6906592Y-10814474D02*
X6916116Y-10852570D01*
X6916116Y-10852570D02*
X6916116Y-10900189D01*
X6916116Y-10900189D02*
X6906592Y-10938284D01*
X6906592Y-10938284D02*
X6897068Y-10957332D01*
X6897068Y-10957332D02*
X6887545Y-10966855D01*
X6887545Y-10966855D02*
X6868497Y-10976379D01*
X6868497Y-10976379D02*
X6849449Y-10976379D01*
X6849449Y-10976379D02*
X6830402Y-10966855D01*
X6830402Y-10966855D02*
X6820878Y-10957332D01*
X6820878Y-10957332D02*
X6811354Y-10938284D01*
X6811354Y-10938284D02*
X6801830Y-10900189D01*
X6801830Y-10900189D02*
X6801830Y-10852570D01*
X6801830Y-10852570D02*
X6811354Y-10814474D01*
X6811354Y-10814474D02*
X6820878Y-10795427D01*
X6820878Y-10795427D02*
X6830402Y-10785903D01*
X6830402Y-10785903D02*
X6849449Y-10776379D01*
X7039925Y-10776379D02*
X7058973Y-10776379D01*
X7058973Y-10776379D02*
X7078021Y-10785903D01*
X7078021Y-10785903D02*
X7087545Y-10795427D01*
X7087545Y-10795427D02*
X7097068Y-10814474D01*
X7097068Y-10814474D02*
X7106592Y-10852570D01*
X7106592Y-10852570D02*
X7106592Y-10900189D01*
X7106592Y-10900189D02*
X7097068Y-10938284D01*
X7097068Y-10938284D02*
X7087545Y-10957332D01*
X7087545Y-10957332D02*
X7078021Y-10966855D01*
X7078021Y-10966855D02*
X7058973Y-10976379D01*
X7058973Y-10976379D02*
X7039925Y-10976379D01*
X7039925Y-10976379D02*
X7020878Y-10966855D01*
X7020878Y-10966855D02*
X7011354Y-10957332D01*
X7011354Y-10957332D02*
X7001830Y-10938284D01*
X7001830Y-10938284D02*
X6992306Y-10900189D01*
X6992306Y-10900189D02*
X6992306Y-10852570D01*
X6992306Y-10852570D02*
X7001830Y-10814474D01*
X7001830Y-10814474D02*
X7011354Y-10795427D01*
X7011354Y-10795427D02*
X7020878Y-10785903D01*
X7020878Y-10785903D02*
X7039925Y-10776379D01*
X7192306Y-10976379D02*
X7192306Y-10843046D01*
X7192306Y-10862093D02*
X7201830Y-10852570D01*
X7201830Y-10852570D02*
X7220878Y-10843046D01*
X7220878Y-10843046D02*
X7249449Y-10843046D01*
X7249449Y-10843046D02*
X7268497Y-10852570D01*
X7268497Y-10852570D02*
X7278021Y-10871617D01*
X7278021Y-10871617D02*
X7278021Y-10976379D01*
X7278021Y-10871617D02*
X7287545Y-10852570D01*
X7287545Y-10852570D02*
X7306592Y-10843046D01*
X7306592Y-10843046D02*
X7335164Y-10843046D01*
X7335164Y-10843046D02*
X7354211Y-10852570D01*
X7354211Y-10852570D02*
X7363735Y-10871617D01*
X7363735Y-10871617D02*
X7363735Y-10976379D01*
X7458973Y-10976379D02*
X7458973Y-10843046D01*
X7458973Y-10862093D02*
X7468497Y-10852570D01*
X7468497Y-10852570D02*
X7487545Y-10843046D01*
X7487545Y-10843046D02*
X7516116Y-10843046D01*
X7516116Y-10843046D02*
X7535164Y-10852570D01*
X7535164Y-10852570D02*
X7544687Y-10871617D01*
X7544687Y-10871617D02*
X7544687Y-10976379D01*
X7544687Y-10871617D02*
X7554211Y-10852570D01*
X7554211Y-10852570D02*
X7573259Y-10843046D01*
X7573259Y-10843046D02*
X7601830Y-10843046D01*
X7601830Y-10843046D02*
X7620878Y-10852570D01*
X7620878Y-10852570D02*
X7630402Y-10871617D01*
X7630402Y-10871617D02*
X7630402Y-10976379D01*
X8020878Y-10766855D02*
X7849449Y-11023998D01*
X8278021Y-10776379D02*
X8297069Y-10776379D01*
X8297069Y-10776379D02*
X8316116Y-10785903D01*
X8316116Y-10785903D02*
X8325640Y-10795427D01*
X8325640Y-10795427D02*
X8335164Y-10814474D01*
X8335164Y-10814474D02*
X8344688Y-10852570D01*
X8344688Y-10852570D02*
X8344688Y-10900189D01*
X8344688Y-10900189D02*
X8335164Y-10938284D01*
X8335164Y-10938284D02*
X8325640Y-10957332D01*
X8325640Y-10957332D02*
X8316116Y-10966855D01*
X8316116Y-10966855D02*
X8297069Y-10976379D01*
X8297069Y-10976379D02*
X8278021Y-10976379D01*
X8278021Y-10976379D02*
X8258973Y-10966855D01*
X8258973Y-10966855D02*
X8249449Y-10957332D01*
X8249449Y-10957332D02*
X8239926Y-10938284D01*
X8239926Y-10938284D02*
X8230402Y-10900189D01*
X8230402Y-10900189D02*
X8230402Y-10852570D01*
X8230402Y-10852570D02*
X8239926Y-10814474D01*
X8239926Y-10814474D02*
X8249449Y-10795427D01*
X8249449Y-10795427D02*
X8258973Y-10785903D01*
X8258973Y-10785903D02*
X8278021Y-10776379D01*
X8430402Y-10957332D02*
X8439926Y-10966855D01*
X8439926Y-10966855D02*
X8430402Y-10976379D01*
X8430402Y-10976379D02*
X8420878Y-10966855D01*
X8420878Y-10966855D02*
X8430402Y-10957332D01*
X8430402Y-10957332D02*
X8430402Y-10976379D01*
X8563735Y-10776379D02*
X8582783Y-10776379D01*
X8582783Y-10776379D02*
X8601831Y-10785903D01*
X8601831Y-10785903D02*
X8611354Y-10795427D01*
X8611354Y-10795427D02*
X8620878Y-10814474D01*
X8620878Y-10814474D02*
X8630402Y-10852570D01*
X8630402Y-10852570D02*
X8630402Y-10900189D01*
X8630402Y-10900189D02*
X8620878Y-10938284D01*
X8620878Y-10938284D02*
X8611354Y-10957332D01*
X8611354Y-10957332D02*
X8601831Y-10966855D01*
X8601831Y-10966855D02*
X8582783Y-10976379D01*
X8582783Y-10976379D02*
X8563735Y-10976379D01*
X8563735Y-10976379D02*
X8544688Y-10966855D01*
X8544688Y-10966855D02*
X8535164Y-10957332D01*
X8535164Y-10957332D02*
X8525640Y-10938284D01*
X8525640Y-10938284D02*
X8516116Y-10900189D01*
X8516116Y-10900189D02*
X8516116Y-10852570D01*
X8516116Y-10852570D02*
X8525640Y-10814474D01*
X8525640Y-10814474D02*
X8535164Y-10795427D01*
X8535164Y-10795427D02*
X8544688Y-10785903D01*
X8544688Y-10785903D02*
X8563735Y-10776379D01*
X8744688Y-10862093D02*
X8725640Y-10852570D01*
X8725640Y-10852570D02*
X8716116Y-10843046D01*
X8716116Y-10843046D02*
X8706592Y-10823998D01*
X8706592Y-10823998D02*
X8706592Y-10814474D01*
X8706592Y-10814474D02*
X8716116Y-10795427D01*
X8716116Y-10795427D02*
X8725640Y-10785903D01*
X8725640Y-10785903D02*
X8744688Y-10776379D01*
X8744688Y-10776379D02*
X8782783Y-10776379D01*
X8782783Y-10776379D02*
X8801831Y-10785903D01*
X8801831Y-10785903D02*
X8811354Y-10795427D01*
X8811354Y-10795427D02*
X8820878Y-10814474D01*
X8820878Y-10814474D02*
X8820878Y-10823998D01*
X8820878Y-10823998D02*
X8811354Y-10843046D01*
X8811354Y-10843046D02*
X8801831Y-10852570D01*
X8801831Y-10852570D02*
X8782783Y-10862093D01*
X8782783Y-10862093D02*
X8744688Y-10862093D01*
X8744688Y-10862093D02*
X8725640Y-10871617D01*
X8725640Y-10871617D02*
X8716116Y-10881141D01*
X8716116Y-10881141D02*
X8706592Y-10900189D01*
X8706592Y-10900189D02*
X8706592Y-10938284D01*
X8706592Y-10938284D02*
X8716116Y-10957332D01*
X8716116Y-10957332D02*
X8725640Y-10966855D01*
X8725640Y-10966855D02*
X8744688Y-10976379D01*
X8744688Y-10976379D02*
X8782783Y-10976379D01*
X8782783Y-10976379D02*
X8801831Y-10966855D01*
X8801831Y-10966855D02*
X8811354Y-10957332D01*
X8811354Y-10957332D02*
X8820878Y-10938284D01*
X8820878Y-10938284D02*
X8820878Y-10900189D01*
X8820878Y-10900189D02*
X8811354Y-10881141D01*
X8811354Y-10881141D02*
X8801831Y-10871617D01*
X8801831Y-10871617D02*
X8782783Y-10862093D01*
X8992307Y-10776379D02*
X8954211Y-10776379D01*
X8954211Y-10776379D02*
X8935164Y-10785903D01*
X8935164Y-10785903D02*
X8925640Y-10795427D01*
X8925640Y-10795427D02*
X8906592Y-10823998D01*
X8906592Y-10823998D02*
X8897069Y-10862093D01*
X8897069Y-10862093D02*
X8897069Y-10938284D01*
X8897069Y-10938284D02*
X8906592Y-10957332D01*
X8906592Y-10957332D02*
X8916116Y-10966855D01*
X8916116Y-10966855D02*
X8935164Y-10976379D01*
X8935164Y-10976379D02*
X8973259Y-10976379D01*
X8973259Y-10976379D02*
X8992307Y-10966855D01*
X8992307Y-10966855D02*
X9001831Y-10957332D01*
X9001831Y-10957332D02*
X9011354Y-10938284D01*
X9011354Y-10938284D02*
X9011354Y-10890665D01*
X9011354Y-10890665D02*
X9001831Y-10871617D01*
X9001831Y-10871617D02*
X8992307Y-10862093D01*
X8992307Y-10862093D02*
X8973259Y-10852570D01*
X8973259Y-10852570D02*
X8935164Y-10852570D01*
X8935164Y-10852570D02*
X8916116Y-10862093D01*
X8916116Y-10862093D02*
X8906592Y-10871617D01*
X8906592Y-10871617D02*
X8897069Y-10890665D01*
X9182783Y-10776379D02*
X9144688Y-10776379D01*
X9144688Y-10776379D02*
X9125640Y-10785903D01*
X9125640Y-10785903D02*
X9116116Y-10795427D01*
X9116116Y-10795427D02*
X9097069Y-10823998D01*
X9097069Y-10823998D02*
X9087545Y-10862093D01*
X9087545Y-10862093D02*
X9087545Y-10938284D01*
X9087545Y-10938284D02*
X9097069Y-10957332D01*
X9097069Y-10957332D02*
X9106592Y-10966855D01*
X9106592Y-10966855D02*
X9125640Y-10976379D01*
X9125640Y-10976379D02*
X9163735Y-10976379D01*
X9163735Y-10976379D02*
X9182783Y-10966855D01*
X9182783Y-10966855D02*
X9192307Y-10957332D01*
X9192307Y-10957332D02*
X9201831Y-10938284D01*
X9201831Y-10938284D02*
X9201831Y-10890665D01*
X9201831Y-10890665D02*
X9192307Y-10871617D01*
X9192307Y-10871617D02*
X9182783Y-10862093D01*
X9182783Y-10862093D02*
X9163735Y-10852570D01*
X9163735Y-10852570D02*
X9125640Y-10852570D01*
X9125640Y-10852570D02*
X9106592Y-10862093D01*
X9106592Y-10862093D02*
X9097069Y-10871617D01*
X9097069Y-10871617D02*
X9087545Y-10890665D01*
X9278021Y-10776379D02*
X9278021Y-10814474D01*
X9354212Y-10776379D02*
X9354212Y-10814474D01*
X9649450Y-11052570D02*
X9639926Y-11043046D01*
X9639926Y-11043046D02*
X9620878Y-11014474D01*
X9620878Y-11014474D02*
X9611354Y-10995427D01*
X9611354Y-10995427D02*
X9601831Y-10966855D01*
X9601831Y-10966855D02*
X9592307Y-10919236D01*
X9592307Y-10919236D02*
X9592307Y-10881141D01*
X9592307Y-10881141D02*
X9601831Y-10833522D01*
X9601831Y-10833522D02*
X9611354Y-10804951D01*
X9611354Y-10804951D02*
X9620878Y-10785903D01*
X9620878Y-10785903D02*
X9639926Y-10757332D01*
X9639926Y-10757332D02*
X9649450Y-10747808D01*
X9811354Y-10843046D02*
X9811354Y-10976379D01*
X9763735Y-10766855D02*
X9716116Y-10909713D01*
X9716116Y-10909713D02*
X9839926Y-10909713D01*
X10068497Y-10976379D02*
X10068497Y-10776379D01*
X10154212Y-10976379D02*
X10154212Y-10871617D01*
X10154212Y-10871617D02*
X10144688Y-10852570D01*
X10144688Y-10852570D02*
X10125640Y-10843046D01*
X10125640Y-10843046D02*
X10097069Y-10843046D01*
X10097069Y-10843046D02*
X10078021Y-10852570D01*
X10078021Y-10852570D02*
X10068497Y-10862093D01*
X10278021Y-10976379D02*
X10258974Y-10966855D01*
X10258974Y-10966855D02*
X10249450Y-10957332D01*
X10249450Y-10957332D02*
X10239926Y-10938284D01*
X10239926Y-10938284D02*
X10239926Y-10881141D01*
X10239926Y-10881141D02*
X10249450Y-10862093D01*
X10249450Y-10862093D02*
X10258974Y-10852570D01*
X10258974Y-10852570D02*
X10278021Y-10843046D01*
X10278021Y-10843046D02*
X10306593Y-10843046D01*
X10306593Y-10843046D02*
X10325640Y-10852570D01*
X10325640Y-10852570D02*
X10335164Y-10862093D01*
X10335164Y-10862093D02*
X10344688Y-10881141D01*
X10344688Y-10881141D02*
X10344688Y-10938284D01*
X10344688Y-10938284D02*
X10335164Y-10957332D01*
X10335164Y-10957332D02*
X10325640Y-10966855D01*
X10325640Y-10966855D02*
X10306593Y-10976379D01*
X10306593Y-10976379D02*
X10278021Y-10976379D01*
X10458974Y-10976379D02*
X10439926Y-10966855D01*
X10439926Y-10966855D02*
X10430402Y-10947808D01*
X10430402Y-10947808D02*
X10430402Y-10776379D01*
X10611355Y-10966855D02*
X10592307Y-10976379D01*
X10592307Y-10976379D02*
X10554212Y-10976379D01*
X10554212Y-10976379D02*
X10535164Y-10966855D01*
X10535164Y-10966855D02*
X10525640Y-10947808D01*
X10525640Y-10947808D02*
X10525640Y-10871617D01*
X10525640Y-10871617D02*
X10535164Y-10852570D01*
X10535164Y-10852570D02*
X10554212Y-10843046D01*
X10554212Y-10843046D02*
X10592307Y-10843046D01*
X10592307Y-10843046D02*
X10611355Y-10852570D01*
X10611355Y-10852570D02*
X10620878Y-10871617D01*
X10620878Y-10871617D02*
X10620878Y-10890665D01*
X10620878Y-10890665D02*
X10525640Y-10909713D01*
X10697069Y-10966855D02*
X10716116Y-10976379D01*
X10716116Y-10976379D02*
X10754212Y-10976379D01*
X10754212Y-10976379D02*
X10773259Y-10966855D01*
X10773259Y-10966855D02*
X10782783Y-10947808D01*
X10782783Y-10947808D02*
X10782783Y-10938284D01*
X10782783Y-10938284D02*
X10773259Y-10919236D01*
X10773259Y-10919236D02*
X10754212Y-10909713D01*
X10754212Y-10909713D02*
X10725640Y-10909713D01*
X10725640Y-10909713D02*
X10706593Y-10900189D01*
X10706593Y-10900189D02*
X10697069Y-10881141D01*
X10697069Y-10881141D02*
X10697069Y-10871617D01*
X10697069Y-10871617D02*
X10706593Y-10852570D01*
X10706593Y-10852570D02*
X10725640Y-10843046D01*
X10725640Y-10843046D02*
X10754212Y-10843046D01*
X10754212Y-10843046D02*
X10773259Y-10852570D01*
X10849450Y-11052570D02*
X10858974Y-11043046D01*
X10858974Y-11043046D02*
X10878021Y-11014474D01*
X10878021Y-11014474D02*
X10887545Y-10995427D01*
X10887545Y-10995427D02*
X10897069Y-10966855D01*
X10897069Y-10966855D02*
X10906593Y-10919236D01*
X10906593Y-10919236D02*
X10906593Y-10881141D01*
X10906593Y-10881141D02*
X10897069Y-10833522D01*
X10897069Y-10833522D02*
X10887545Y-10804951D01*
X10887545Y-10804951D02*
X10878021Y-10785903D01*
X10878021Y-10785903D02*
X10858974Y-10757332D01*
X10858974Y-10757332D02*
X10849450Y-10747808D01*
M02*
