%TF.GenerationSoftware,KiCad,Pcbnew,7.0.2-6a45011f42~172~ubuntu23.04.1*%
%TF.CreationDate,2023-05-23T16:12:18+02:00*%
%TF.ProjectId,pcb,7063622e-6b69-4636-9164-5f7063625858,rev?*%
%TF.SameCoordinates,Original*%
%TF.FileFunction,Copper,L1,Top*%
%TF.FilePolarity,Positive*%
%FSLAX46Y46*%
G04 Gerber Fmt 4.6, Leading zero omitted, Abs format (unit mm)*
G04 Created by KiCad (PCBNEW 7.0.2-6a45011f42~172~ubuntu23.04.1) date 2023-05-23 16:12:18*
%MOMM*%
%LPD*%
G01*
G04 APERTURE LIST*
G04 Aperture macros list*
%AMRoundRect*
0 Rectangle with rounded corners*
0 $1 Rounding radius*
0 $2 $3 $4 $5 $6 $7 $8 $9 X,Y pos of 4 corners*
0 Add a 4 corners polygon primitive as box body*
4,1,4,$2,$3,$4,$5,$6,$7,$8,$9,$2,$3,0*
0 Add four circle primitives for the rounded corners*
1,1,$1+$1,$2,$3*
1,1,$1+$1,$4,$5*
1,1,$1+$1,$6,$7*
1,1,$1+$1,$8,$9*
0 Add four rect primitives between the rounded corners*
20,1,$1+$1,$2,$3,$4,$5,0*
20,1,$1+$1,$4,$5,$6,$7,0*
20,1,$1+$1,$6,$7,$8,$9,0*
20,1,$1+$1,$8,$9,$2,$3,0*%
%AMFreePoly0*
4,1,19,0.500000,-0.750000,0.000000,-0.750000,0.000000,-0.744911,-0.071157,-0.744911,-0.207708,-0.704816,-0.327430,-0.627875,-0.420627,-0.520320,-0.479746,-0.390866,-0.500000,-0.250000,-0.500000,0.250000,-0.479746,0.390866,-0.420627,0.520320,-0.327430,0.627875,-0.207708,0.704816,-0.071157,0.744911,0.000000,0.744911,0.000000,0.750000,0.500000,0.750000,0.500000,-0.750000,0.500000,-0.750000,
$1*%
%AMFreePoly1*
4,1,19,0.000000,0.744911,0.071157,0.744911,0.207708,0.704816,0.327430,0.627875,0.420627,0.520320,0.479746,0.390866,0.500000,0.250000,0.500000,-0.250000,0.479746,-0.390866,0.420627,-0.520320,0.327430,-0.627875,0.207708,-0.704816,0.071157,-0.744911,0.000000,-0.744911,0.000000,-0.750000,-0.500000,-0.750000,-0.500000,0.750000,0.000000,0.750000,0.000000,0.744911,0.000000,0.744911,
$1*%
%AMFreePoly2*
4,1,19,0.550000,-0.750000,0.000000,-0.750000,0.000000,-0.744911,-0.071157,-0.744911,-0.207708,-0.704816,-0.327430,-0.627875,-0.420627,-0.520320,-0.479746,-0.390866,-0.500000,-0.250000,-0.500000,0.250000,-0.479746,0.390866,-0.420627,0.520320,-0.327430,0.627875,-0.207708,0.704816,-0.071157,0.744911,0.000000,0.744911,0.000000,0.750000,0.550000,0.750000,0.550000,-0.750000,0.550000,-0.750000,
$1*%
%AMFreePoly3*
4,1,19,0.000000,0.744911,0.071157,0.744911,0.207708,0.704816,0.327430,0.627875,0.420627,0.520320,0.479746,0.390866,0.500000,0.250000,0.500000,-0.250000,0.479746,-0.390866,0.420627,-0.520320,0.327430,-0.627875,0.207708,-0.704816,0.071157,-0.744911,0.000000,-0.744911,0.000000,-0.750000,-0.550000,-0.750000,-0.550000,0.750000,0.000000,0.750000,0.000000,0.744911,0.000000,0.744911,
$1*%
%AMFreePoly4*
4,1,6,0.600000,-0.600000,-0.600000,-0.600000,-0.600000,0.000000,0.000000,0.600000,0.600000,0.600000,0.600000,-0.600000,0.600000,-0.600000,$1*%
G04 Aperture macros list end*
%TA.AperFunction,ComponentPad*%
%ADD10R,1.000000X1.000000*%
%TD*%
%TA.AperFunction,ComponentPad*%
%ADD11O,1.000000X1.000000*%
%TD*%
%TA.AperFunction,SMDPad,CuDef*%
%ADD12RoundRect,0.243750X0.243750X0.456250X-0.243750X0.456250X-0.243750X-0.456250X0.243750X-0.456250X0*%
%TD*%
%TA.AperFunction,SMDPad,CuDef*%
%ADD13RoundRect,0.250000X0.250000X0.475000X-0.250000X0.475000X-0.250000X-0.475000X0.250000X-0.475000X0*%
%TD*%
%TA.AperFunction,ComponentPad*%
%ADD14C,2.600000*%
%TD*%
%TA.AperFunction,ConnectorPad*%
%ADD15C,3.800000*%
%TD*%
%TA.AperFunction,SMDPad,CuDef*%
%ADD16R,0.900000X1.700000*%
%TD*%
%TA.AperFunction,SMDPad,CuDef*%
%ADD17FreePoly0,0.000000*%
%TD*%
%TA.AperFunction,SMDPad,CuDef*%
%ADD18FreePoly1,0.000000*%
%TD*%
%TA.AperFunction,ComponentPad*%
%ADD19R,1.700000X1.700000*%
%TD*%
%TA.AperFunction,ComponentPad*%
%ADD20O,1.700000X1.700000*%
%TD*%
%TA.AperFunction,SMDPad,CuDef*%
%ADD21RoundRect,0.250000X0.475000X-0.250000X0.475000X0.250000X-0.475000X0.250000X-0.475000X-0.250000X0*%
%TD*%
%TA.AperFunction,SMDPad,CuDef*%
%ADD22RoundRect,0.250000X0.450000X-0.262500X0.450000X0.262500X-0.450000X0.262500X-0.450000X-0.262500X0*%
%TD*%
%TA.AperFunction,SMDPad,CuDef*%
%ADD23RoundRect,0.250000X-0.262500X-0.450000X0.262500X-0.450000X0.262500X0.450000X-0.262500X0.450000X0*%
%TD*%
%TA.AperFunction,SMDPad,CuDef*%
%ADD24RoundRect,0.250000X-0.250000X-0.475000X0.250000X-0.475000X0.250000X0.475000X-0.250000X0.475000X0*%
%TD*%
%TA.AperFunction,SMDPad,CuDef*%
%ADD25R,1.700000X0.900000*%
%TD*%
%TA.AperFunction,SMDPad,CuDef*%
%ADD26FreePoly0,180.000000*%
%TD*%
%TA.AperFunction,SMDPad,CuDef*%
%ADD27FreePoly1,180.000000*%
%TD*%
%TA.AperFunction,SMDPad,CuDef*%
%ADD28RoundRect,0.250000X0.262500X0.450000X-0.262500X0.450000X-0.262500X-0.450000X0.262500X-0.450000X0*%
%TD*%
%TA.AperFunction,SMDPad,CuDef*%
%ADD29R,1.000000X1.800000*%
%TD*%
%TA.AperFunction,SMDPad,CuDef*%
%ADD30RoundRect,0.250000X-0.450000X0.262500X-0.450000X-0.262500X0.450000X-0.262500X0.450000X0.262500X0*%
%TD*%
%TA.AperFunction,ComponentPad*%
%ADD31O,1.000000X1.600000*%
%TD*%
%TA.AperFunction,ComponentPad*%
%ADD32O,1.000000X2.100000*%
%TD*%
%TA.AperFunction,SMDPad,CuDef*%
%ADD33R,0.600000X1.450000*%
%TD*%
%TA.AperFunction,SMDPad,CuDef*%
%ADD34R,0.300000X1.450000*%
%TD*%
%TA.AperFunction,SMDPad,CuDef*%
%ADD35RoundRect,0.250000X-0.475000X0.250000X-0.475000X-0.250000X0.475000X-0.250000X0.475000X0.250000X0*%
%TD*%
%TA.AperFunction,SMDPad,CuDef*%
%ADD36RoundRect,0.150000X0.825000X0.150000X-0.825000X0.150000X-0.825000X-0.150000X0.825000X-0.150000X0*%
%TD*%
%TA.AperFunction,SMDPad,CuDef*%
%ADD37FreePoly2,90.000000*%
%TD*%
%TA.AperFunction,SMDPad,CuDef*%
%ADD38R,1.500000X1.000000*%
%TD*%
%TA.AperFunction,SMDPad,CuDef*%
%ADD39FreePoly3,90.000000*%
%TD*%
%TA.AperFunction,SMDPad,CuDef*%
%ADD40R,0.800000X0.400000*%
%TD*%
%TA.AperFunction,SMDPad,CuDef*%
%ADD41R,0.400000X0.800000*%
%TD*%
%TA.AperFunction,SMDPad,CuDef*%
%ADD42FreePoly4,0.000000*%
%TD*%
%TA.AperFunction,SMDPad,CuDef*%
%ADD43R,1.200000X1.200000*%
%TD*%
%TA.AperFunction,SMDPad,CuDef*%
%ADD44R,0.800000X0.800000*%
%TD*%
%TA.AperFunction,SMDPad,CuDef*%
%ADD45RoundRect,0.150000X0.150000X-0.512500X0.150000X0.512500X-0.150000X0.512500X-0.150000X-0.512500X0*%
%TD*%
%TA.AperFunction,ViaPad*%
%ADD46C,0.800000*%
%TD*%
%TA.AperFunction,Conductor*%
%ADD47C,0.200000*%
%TD*%
%TA.AperFunction,Conductor*%
%ADD48C,0.250000*%
%TD*%
%TA.AperFunction,Conductor*%
%ADD49C,0.400000*%
%TD*%
G04 APERTURE END LIST*
%TA.AperFunction,EtchedComponent*%
%TO.C,JP5*%
G36*
X76973000Y-73325000D02*
G01*
X76473000Y-73325000D01*
X76473000Y-72725000D01*
X76973000Y-72725000D01*
X76973000Y-73325000D01*
G37*
%TD.AperFunction*%
%TA.AperFunction,EtchedComponent*%
%TO.C,JP6*%
G36*
X76973000Y-64943000D02*
G01*
X76473000Y-64943000D01*
X76473000Y-64343000D01*
X76973000Y-64343000D01*
X76973000Y-64943000D01*
G37*
%TD.AperFunction*%
%TA.AperFunction,EtchedComponent*%
%TO.C,JP1*%
G36*
X63038000Y-67956000D02*
G01*
X62438000Y-67956000D01*
X62438000Y-67456000D01*
X63038000Y-67456000D01*
X63038000Y-67956000D01*
G37*
%TD.AperFunction*%
%TD*%
D10*
%TO.P,IO,1,Pin_1*%
%TO.N,Net-(J2-Pin_1)*%
X63881000Y-55650000D03*
D11*
%TO.P,IO,2,Pin_2*%
%TO.N,Net-(J2-Pin_2)*%
X63881000Y-56920000D03*
%TO.P,IO,3,Pin_3*%
%TO.N,Net-(J2-Pin_3)*%
X63881000Y-58190000D03*
%TO.P,IO,4,Pin_4*%
%TO.N,+3V3*%
X63881000Y-59460000D03*
%TO.P,IO,5,Pin_5*%
%TO.N,GND*%
X63881000Y-60730000D03*
%TO.P,IO,6,Pin_6*%
%TO.N,+5V*%
X63881000Y-62000000D03*
%TD*%
D12*
%TO.P,D2,1,K*%
%TO.N,GND*%
X85113500Y-64135000D03*
%TO.P,D2,2,A*%
%TO.N,Net-(D4-A)*%
X83238500Y-64135000D03*
%TD*%
D13*
%TO.P,C8,1*%
%TO.N,+5V*%
X86446000Y-81788000D03*
%TO.P,C8,2*%
%TO.N,GND*%
X84546000Y-81788000D03*
%TD*%
D14*
%TO.P,H2,1,1*%
%TO.N,GND*%
X85250000Y-44750000D03*
D15*
X85250000Y-44750000D03*
%TD*%
D16*
%TO.P,BOOT,1,1*%
%TO.N,GND*%
X86155000Y-53556000D03*
%TO.P,BOOT,2,2*%
%TO.N,BOOT*%
X82755000Y-53556000D03*
%TD*%
D17*
%TO.P,JP3,1,A*%
%TO.N,Net-(JP3-A)*%
X76090000Y-67437000D03*
D18*
%TO.P,JP3,2,B*%
%TO.N,XLR_TX*%
X77390000Y-67437000D03*
%TD*%
D17*
%TO.P,JP4,1,A*%
%TO.N,XLR_RX*%
X70328000Y-73279000D03*
D18*
%TO.P,JP4,2,B*%
%TO.N,Net-(JP6-B)*%
X71628000Y-73279000D03*
%TD*%
D12*
%TO.P,D3,1,K*%
%TO.N,GND*%
X85113500Y-68453000D03*
%TO.P,D3,2,A*%
%TO.N,Net-(D2-A)*%
X83238500Y-68453000D03*
%TD*%
D19*
%TO.P,D,1*%
%TO.N,Net-(U3-A)*%
X67818000Y-82296000D03*
D20*
%TO.P,D,2*%
%TO.N,Net-(U3-B)*%
X67818000Y-84836000D03*
%TO.P,D,3*%
%TO.N,GND*%
X67818000Y-87376000D03*
%TD*%
D21*
%TO.P,C9,1*%
%TO.N,Net-(C12-Pad1)*%
X72644000Y-65974000D03*
%TO.P,C9,2*%
%TO.N,GND*%
X72644000Y-64074000D03*
%TD*%
D22*
%TO.P,R12,1*%
%TO.N,Net-(U3-A)*%
X65659000Y-69365500D03*
%TO.P,R12,2*%
%TO.N,GND*%
X65659000Y-67540500D03*
%TD*%
D16*
%TO.P,RST,1,1*%
%TO.N,GND*%
X86155000Y-50000000D03*
%TO.P,RST,2,2*%
%TO.N,RESET*%
X82755000Y-50000000D03*
%TD*%
D23*
%TO.P,R13,1*%
%TO.N,Net-(JP4-A)*%
X79756000Y-64135000D03*
%TO.P,R13,2*%
%TO.N,Net-(D4-A)*%
X81581000Y-64135000D03*
%TD*%
D17*
%TO.P,JP5,1,A*%
%TO.N,Net-(JP5-A)*%
X76073000Y-73025000D03*
D18*
%TO.P,JP5,2,B*%
%TO.N,XLR_TX*%
X77373000Y-73025000D03*
%TD*%
D24*
%TO.P,C10,1*%
%TO.N,GND*%
X76901000Y-77978000D03*
%TO.P,C10,2*%
%TO.N,DP*%
X78801000Y-77978000D03*
%TD*%
D14*
%TO.P,H1,1,1*%
%TO.N,+5V*%
X63250000Y-44750000D03*
D15*
X63250000Y-44750000D03*
%TD*%
D25*
%TO.P,BT1,1,1*%
%TO.N,GND*%
X81534000Y-79297000D03*
%TO.P,BT1,2,2*%
%TO.N,BT*%
X81534000Y-75897000D03*
%TD*%
D14*
%TO.P,H3,1,1*%
%TO.N,GND*%
X63246000Y-86868000D03*
D15*
X63246000Y-86868000D03*
%TD*%
D23*
%TO.P,R15,1*%
%TO.N,LED3*%
X79756000Y-66294000D03*
%TO.P,R15,2*%
%TO.N,Net-(D3-A)*%
X81581000Y-66294000D03*
%TD*%
%TO.P,R16,1*%
%TO.N,LED1*%
X79756000Y-70612000D03*
%TO.P,R16,2*%
%TO.N,Net-(D1-A)*%
X81581000Y-70612000D03*
%TD*%
D26*
%TO.P,JP6,1,A*%
%TO.N,Net-(JP4-A)*%
X77373000Y-64643000D03*
D27*
%TO.P,JP6,2,B*%
%TO.N,+3V3*%
X76073000Y-64643000D03*
%TD*%
D24*
%TO.P,C11,1*%
%TO.N,+5V*%
X66425000Y-79248000D03*
%TO.P,C11,2*%
%TO.N,GND*%
X68325000Y-79248000D03*
%TD*%
%TO.P,C12,1*%
%TO.N,+3V3*%
X84546000Y-72898000D03*
%TO.P,C12,2*%
%TO.N,GND*%
X86446000Y-72898000D03*
%TD*%
D28*
%TO.P,R1,1*%
%TO.N,Net-(U1-ADC2_CH6{slash}DAC_1{slash}GPIO18)*%
X64412500Y-52832000D03*
%TO.P,R1,2*%
%TO.N,+3V3*%
X62587500Y-52832000D03*
%TD*%
D12*
%TO.P,D4,1,K*%
%TO.N,GND*%
X85113500Y-66294000D03*
%TO.P,D4,2,A*%
%TO.N,Net-(D3-A)*%
X83238500Y-66294000D03*
%TD*%
D29*
%TO.P,Y1,2,2*%
%TO.N,Net-(C13-Pad2)*%
X67932000Y-67945000D03*
%TO.P,Y1,1,1*%
%TO.N,Net-(C12-Pad1)*%
X70432000Y-67945000D03*
%TD*%
D30*
%TO.P,R17,1*%
%TO.N,Net-(U1-GPIO16{slash}ADC2_CH5{slash}XTAL_32K_N)*%
X70452000Y-64135000D03*
%TO.P,R17,2*%
%TO.N,Net-(C12-Pad1)*%
X70452000Y-65960000D03*
%TD*%
D22*
%TO.P,R5,1*%
%TO.N,Net-(C13-Pad2)*%
X67912000Y-65960000D03*
%TO.P,R5,2*%
%TO.N,Net-(U1-GPIO15{slash}ADC2_CH4{slash}XTAL_32K_P)*%
X67912000Y-64135000D03*
%TD*%
D31*
%TO.P,J3,13,SHLD*%
%TO.N,GND*%
X80520000Y-87918000D03*
D32*
%TO.P,J3,14,SHLD*%
X80520000Y-83738000D03*
D31*
%TO.P,J3,15,SHLD*%
X71880000Y-87918000D03*
D32*
%TO.P,J3,16,SHLD*%
X71880000Y-83738000D03*
D33*
%TO.P,J3,A1,GND*%
X72950000Y-82823000D03*
%TO.P,J3,A4,VBUS*%
%TO.N,+5V*%
X73750000Y-82823000D03*
D34*
%TO.P,J3,A5,CC1*%
%TO.N,Net-(U2-CC1)*%
X74950000Y-82823000D03*
%TO.P,J3,A6,DP1*%
%TO.N,Net-(U2-DP1)*%
X75950000Y-82823000D03*
%TO.P,J3,A7,DN1*%
%TO.N,Net-(U2-DN1)*%
X76450000Y-82823000D03*
%TO.P,J3,A8,SBU1*%
%TO.N,unconnected-(U2-SBU1-PadA8)*%
X77450000Y-82823000D03*
D33*
%TO.P,J3,B1,GND*%
%TO.N,GND*%
X79450000Y-82823000D03*
%TO.P,J3,B4,VBUS*%
%TO.N,+5V*%
X78650000Y-82823000D03*
D34*
%TO.P,J3,B5,CC2*%
%TO.N,Net-(U2-CC2)*%
X77950000Y-82823000D03*
%TO.P,J3,B6,DP2*%
%TO.N,Net-(U2-DP1)*%
X76950000Y-82823000D03*
%TO.P,J3,B7,DN2*%
%TO.N,Net-(U2-DN1)*%
X75450000Y-82823000D03*
%TO.P,J3,B8,SBU2*%
%TO.N,unconnected-(U2-SBU2-PadB8)*%
X74450000Y-82823000D03*
%TD*%
D24*
%TO.P,C13,1*%
%TO.N,DN*%
X72964000Y-77978000D03*
%TO.P,C13,2*%
%TO.N,GND*%
X74864000Y-77978000D03*
%TD*%
D22*
%TO.P,R18,1*%
%TO.N,Net-(U3-B)*%
X63754000Y-82319500D03*
%TO.P,R18,2*%
%TO.N,Net-(U3-A)*%
X63754000Y-80494500D03*
%TD*%
D23*
%TO.P,R14,1*%
%TO.N,LED2*%
X79756000Y-68453000D03*
%TO.P,R14,2*%
%TO.N,Net-(D2-A)*%
X81581000Y-68453000D03*
%TD*%
D35*
%TO.P,C2,1*%
%TO.N,GND*%
X64500000Y-49050000D03*
%TO.P,C2,2*%
%TO.N,+3V3*%
X64500000Y-50950000D03*
%TD*%
D36*
%TO.P,U2,1,RO*%
%TO.N,Net-(JP6-B)*%
X67626000Y-74803000D03*
%TO.P,U2,2,~{RE}*%
%TO.N,Net-(JP2-C)*%
X67626000Y-73533000D03*
%TO.P,U2,3,DE*%
X67626000Y-72263000D03*
%TO.P,U2,4,DI*%
%TO.N,XLR_TX*%
X67626000Y-70993000D03*
%TO.P,U2,5,GND*%
%TO.N,GND*%
X62676000Y-70993000D03*
%TO.P,U2,6,A*%
%TO.N,Net-(U3-A)*%
X62676000Y-72263000D03*
%TO.P,U2,7,B*%
%TO.N,Net-(U3-B)*%
X62676000Y-73533000D03*
%TO.P,U2,8,VCC*%
%TO.N,+5V*%
X62676000Y-74803000D03*
%TD*%
D35*
%TO.P,C1,1*%
%TO.N,GND*%
X62357000Y-49050000D03*
%TO.P,C1,2*%
%TO.N,+3V3*%
X62357000Y-50950000D03*
%TD*%
D22*
%TO.P,R6,1*%
%TO.N,+5V*%
X70485000Y-78740000D03*
%TO.P,R6,2*%
%TO.N,Net-(JP6-B)*%
X70485000Y-76915000D03*
%TD*%
D37*
%TO.P,JP1,1,A*%
%TO.N,GND*%
X62738000Y-68356000D03*
D38*
%TO.P,JP1,2,C*%
%TO.N,Net-(JP2-C)*%
X62738000Y-67056000D03*
D39*
%TO.P,JP1,3,B*%
%TO.N,XLR_SET*%
X62738000Y-65756000D03*
%TD*%
D24*
%TO.P,C4,1*%
%TO.N,+5V*%
X66425000Y-76962000D03*
%TO.P,C4,2*%
%TO.N,GND*%
X68325000Y-76962000D03*
%TD*%
D17*
%TO.P,JP2,1,A*%
%TO.N,Net-(JP1-A)*%
X76090000Y-70231000D03*
D18*
%TO.P,JP2,2,B*%
%TO.N,XLR_TX*%
X77390000Y-70231000D03*
%TD*%
D40*
%TO.P,U1,1,GND*%
%TO.N,GND*%
X66675000Y-49070000D03*
%TO.P,U1,2,GND*%
X66675000Y-49920000D03*
%TO.P,U1,3,3V3*%
%TO.N,+3V3*%
X66675000Y-50770000D03*
%TO.P,U1,4,GPIO0/BOOT*%
%TO.N,BOOT*%
X66675000Y-51620000D03*
%TO.P,U1,5,GPIO1/ADC1_CH0*%
%TO.N,Net-(J2-Pin_1)*%
X66675000Y-52470000D03*
%TO.P,U1,6,GPIO2/ADC1_CH1*%
%TO.N,Net-(J2-Pin_2)*%
X66675000Y-53320000D03*
%TO.P,U1,7,GPIO3/ADC1_CH2*%
%TO.N,Net-(J2-Pin_3)*%
X66675000Y-54170000D03*
%TO.P,U1,8,GPIO4/ADC1_CH3*%
%TO.N,Net-(J4-Pin_1)*%
X66675000Y-55020000D03*
%TO.P,U1,9,GPIO5/ADC1_CH4*%
%TO.N,Net-(J4-Pin_2)*%
X66675000Y-55870000D03*
%TO.P,U1,10,GPIO6/ADC1_CH5*%
%TO.N,Net-(J4-Pin_3)*%
X66675000Y-56720000D03*
%TO.P,U1,11,GPIO7/ADC1_CH6*%
%TO.N,Net-(J4-Pin_4)*%
X66675000Y-57570000D03*
%TO.P,U1,12,GPIO8/ADC1_CH7*%
%TO.N,XLR_SET*%
X66675000Y-58420000D03*
%TO.P,U1,13,GPIO9/ADC1_CH8*%
%TO.N,XLR_RX*%
X66675000Y-59270000D03*
%TO.P,U1,14,GPIO10/ADC1_CH9*%
%TO.N,Net-(JP3-A)*%
X66675000Y-60120000D03*
%TO.P,U1,15,GPIO11/ADC2_CH0*%
%TO.N,BT*%
X66675000Y-60970000D03*
D41*
%TO.P,U1,16,GPIO12/ADC2_CH1*%
%TO.N,LED1*%
X67725000Y-62020000D03*
%TO.P,U1,17,GPIO13/ADC2_CH2*%
%TO.N,LED2*%
X68575000Y-62020000D03*
%TO.P,U1,18,GPIO14/ADC2_CH3*%
%TO.N,LED3*%
X69425000Y-62020000D03*
%TO.P,U1,19,GPIO15/ADC2_CH4/XTAL_32K_P*%
%TO.N,Net-(U1-GPIO15{slash}ADC2_CH4{slash}XTAL_32K_P)*%
X70275000Y-62020000D03*
%TO.P,U1,20,GPIO16/ADC2_CH5/XTAL_32K_N*%
%TO.N,Net-(U1-GPIO16{slash}ADC2_CH5{slash}XTAL_32K_N)*%
X71125000Y-62020000D03*
%TO.P,U1,21,ADC2_CH7/DAC_2/GPIO17*%
%TO.N,Net-(JP5-A)*%
X71975000Y-62020000D03*
%TO.P,U1,22,ADC2_CH6/DAC_1/GPIO18*%
%TO.N,Net-(U1-ADC2_CH6{slash}DAC_1{slash}GPIO18)*%
X72825000Y-62020000D03*
%TO.P,U1,23,USB_D-/ADC2_CH8/GPIO19*%
%TO.N,DN*%
X73675000Y-62020000D03*
%TO.P,U1,24,USB_D+/ADC2_CH9/GPIO20*%
%TO.N,DP*%
X74525000Y-62020000D03*
%TO.P,U1,25,GPIO21*%
%TO.N,unconnected-(U1-GPIO21-Pad25)*%
X75375000Y-62020000D03*
%TO.P,U1,26,SPI_CS1/GPIO26*%
%TO.N,unconnected-(U1-SPI_CS1{slash}GPIO26-Pad26)*%
X76225000Y-62020000D03*
%TO.P,U1,27,NC*%
%TO.N,unconnected-(U1-NC-Pad27)*%
X77075000Y-62020000D03*
%TO.P,U1,28,GPIO33*%
%TO.N,Net-(J5-Pin_1)*%
X77925000Y-62020000D03*
%TO.P,U1,29,GPIO34*%
%TO.N,Net-(J5-Pin_2)*%
X78775000Y-62020000D03*
%TO.P,U1,30,GND*%
%TO.N,GND*%
X79625000Y-62020000D03*
D40*
%TO.P,U1,31,GPIO35*%
%TO.N,Net-(J5-Pin_3)*%
X80675000Y-60970000D03*
%TO.P,U1,32,GPIO36*%
%TO.N,Net-(J5-Pin_4)*%
X80675000Y-60120000D03*
%TO.P,U1,33,GPIO37*%
%TO.N,Net-(J5-Pin_5)*%
X80675000Y-59270000D03*
%TO.P,U1,34,GPIO38*%
%TO.N,Net-(J5-Pin_6)*%
X80675000Y-58420000D03*
%TO.P,U1,35,MTCK/JTAG/GPIO39*%
%TO.N,unconnected-(U1-MTCK{slash}JTAG{slash}GPIO39-Pad35)*%
X80675000Y-57570000D03*
%TO.P,U1,36,MTDO/JTAG/GPIO40*%
%TO.N,unconnected-(U1-MTDO{slash}JTAG{slash}GPIO40-Pad36)*%
X80675000Y-56720000D03*
%TO.P,U1,37,MTDI/JTAG/GPIO41*%
%TO.N,unconnected-(U1-MTDI{slash}JTAG{slash}GPIO41-Pad37)*%
X80675000Y-55870000D03*
%TO.P,U1,38,MTMS/JTAG/GPIO42*%
%TO.N,unconnected-(U1-MTMS{slash}JTAG{slash}GPIO42-Pad38)*%
X80675000Y-55020000D03*
%TO.P,U1,39,GPIO43/U0TXD/PROG*%
%TO.N,Net-(JP1-A)*%
X80675000Y-54170000D03*
%TO.P,U1,40,GPIO44/U0RXD/PROG*%
%TO.N,unconnected-(U1-GPIO44{slash}U0RXD{slash}PROG-Pad40)*%
X80675000Y-53320000D03*
%TO.P,U1,41,GPIO45*%
%TO.N,unconnected-(U1-GPIO45-Pad41)*%
X80675000Y-52470000D03*
%TO.P,U1,42,GND*%
%TO.N,GND*%
X80675000Y-51620000D03*
%TO.P,U1,43,GND*%
X80675000Y-50770000D03*
%TO.P,U1,44,GPIO46*%
%TO.N,unconnected-(U1-GPIO46-Pad44)*%
X80675000Y-49920000D03*
%TO.P,U1,45,CHIP/PU/RESET*%
%TO.N,RESET*%
X80675000Y-49070000D03*
D41*
%TO.P,U1,46,GND*%
%TO.N,GND*%
X79625000Y-48020000D03*
%TO.P,U1,47,GND*%
X78775000Y-48020000D03*
%TO.P,U1,48,GND*%
X77925000Y-48020000D03*
%TO.P,U1,49,GND*%
X77075000Y-48020000D03*
%TO.P,U1,50,GND*%
X76225000Y-48020000D03*
%TO.P,U1,51,GND*%
X75375000Y-48020000D03*
%TO.P,U1,52,GND*%
X74525000Y-48020000D03*
%TO.P,U1,53,GND*%
X73675000Y-48020000D03*
%TO.P,U1,54,GND*%
X72825000Y-48020000D03*
%TO.P,U1,55,GND*%
X71975000Y-48020000D03*
%TO.P,U1,56,GND*%
X71125000Y-48020000D03*
%TO.P,U1,57,GND*%
X70275000Y-48020000D03*
%TO.P,U1,58,GND*%
X69425000Y-48020000D03*
%TO.P,U1,59,GND*%
X68575000Y-48020000D03*
%TO.P,U1,60,GND*%
X67725000Y-48020000D03*
D42*
%TO.P,U1,61,GND*%
X72025000Y-53370000D03*
D43*
X72025000Y-55020000D03*
X72025000Y-56670000D03*
X73675000Y-53370000D03*
X73675000Y-55020000D03*
X73675000Y-56670000D03*
X75325000Y-53370000D03*
X75325000Y-55020000D03*
X75325000Y-56670000D03*
D44*
%TO.P,U1,62,GND*%
X66675000Y-48020000D03*
%TO.P,U1,63,GND*%
X66675000Y-62020000D03*
%TO.P,U1,64,GND*%
X80675000Y-62020000D03*
%TO.P,U1,65,GND*%
X80675000Y-48020000D03*
%TD*%
D28*
%TO.P,R7,1*%
%TO.N,DP*%
X78763500Y-75819000D03*
%TO.P,R7,2*%
%TO.N,Net-(U2-DP1)*%
X76938500Y-75819000D03*
%TD*%
D23*
%TO.P,R4,1*%
%TO.N,DN*%
X72978000Y-75819000D03*
%TO.P,R4,2*%
%TO.N,Net-(U2-DN1)*%
X74803000Y-75819000D03*
%TD*%
D35*
%TO.P,C5,1*%
%TO.N,GND*%
X65659000Y-64074000D03*
%TO.P,C5,2*%
%TO.N,Net-(C13-Pad2)*%
X65659000Y-65974000D03*
%TD*%
D22*
%TO.P,R8,1*%
%TO.N,+5V*%
X63754000Y-78509500D03*
%TO.P,R8,2*%
%TO.N,Net-(U3-B)*%
X63754000Y-76684500D03*
%TD*%
D23*
%TO.P,R9,1*%
%TO.N,GND*%
X73001500Y-80137000D03*
%TO.P,R9,2*%
%TO.N,Net-(U2-CC1)*%
X74826500Y-80137000D03*
%TD*%
D12*
%TO.P,D1,1,K*%
%TO.N,GND*%
X85113500Y-70612000D03*
%TO.P,D1,2,A*%
%TO.N,Net-(D1-A)*%
X83238500Y-70612000D03*
%TD*%
D14*
%TO.P,H4,1,1*%
%TO.N,GND*%
X85217000Y-86868000D03*
D15*
X85217000Y-86868000D03*
%TD*%
D45*
%TO.P,U3,1,VIN*%
%TO.N,+5V*%
X84546000Y-77332000D03*
%TO.P,U3,2,GND*%
%TO.N,GND*%
X85496000Y-77332000D03*
%TO.P,U3,3,CE*%
%TO.N,+5V*%
X86446000Y-77332000D03*
%TO.P,U3,4,NC*%
%TO.N,unconnected-(U4-NC-Pad4)*%
X86446000Y-75057000D03*
%TO.P,U3,5,VOUT*%
%TO.N,+3V3*%
X84546000Y-75057000D03*
%TD*%
D13*
%TO.P,C7,1*%
%TO.N,+5V*%
X86446000Y-79502000D03*
%TO.P,C7,2*%
%TO.N,GND*%
X84546000Y-79502000D03*
%TD*%
D23*
%TO.P,R11,1*%
%TO.N,XLR_TX*%
X70080500Y-70993000D03*
%TO.P,R11,2*%
%TO.N,+5V*%
X71905500Y-70993000D03*
%TD*%
%TO.P,R3,1*%
%TO.N,BOOT*%
X82907500Y-61087000D03*
%TO.P,R3,2*%
%TO.N,+3V3*%
X84732500Y-61087000D03*
%TD*%
D28*
%TO.P,R10,1*%
%TO.N,GND*%
X78763500Y-80137000D03*
%TO.P,R10,2*%
%TO.N,Net-(U2-CC2)*%
X76938500Y-80137000D03*
%TD*%
D24*
%TO.P,C6,1*%
%TO.N,BT*%
X80457000Y-73025000D03*
%TO.P,C6,2*%
%TO.N,GND*%
X82357000Y-73025000D03*
%TD*%
%TO.P,C3,1*%
%TO.N,RESET*%
X82870000Y-56388000D03*
%TO.P,C3,2*%
%TO.N,GND*%
X84770000Y-56388000D03*
%TD*%
D23*
%TO.P,R2,1*%
%TO.N,RESET*%
X82907500Y-58801000D03*
%TO.P,R2,2*%
%TO.N,+3V3*%
X84732500Y-58801000D03*
%TD*%
D10*
%TO.P,IO,1,Pin_1*%
%TO.N,Net-(J4-Pin_1)*%
X69500000Y-53420000D03*
D11*
%TO.P,IO,2,Pin_2*%
%TO.N,Net-(J4-Pin_2)*%
X69500000Y-54690000D03*
%TO.P,IO,3,Pin_3*%
%TO.N,Net-(J4-Pin_3)*%
X69500000Y-55960000D03*
%TO.P,IO,4,Pin_4*%
%TO.N,Net-(J4-Pin_4)*%
X69500000Y-57230000D03*
%TO.P,IO,5,Pin_5*%
%TO.N,XLR_SET*%
X69500000Y-58500000D03*
%TO.P,IO,6,Pin_6*%
%TO.N,XLR_RX*%
X69500000Y-59770000D03*
%TD*%
D10*
%TO.P,IO,1,Pin_1*%
%TO.N,Net-(J5-Pin_1)*%
X77724000Y-59944000D03*
D11*
%TO.P,IO,2,Pin_2*%
%TO.N,Net-(J5-Pin_2)*%
X77724000Y-58674000D03*
%TO.P,IO,3,Pin_3*%
%TO.N,Net-(J5-Pin_3)*%
X77724000Y-57404000D03*
%TO.P,IO,4,Pin_4*%
%TO.N,Net-(J5-Pin_4)*%
X77724000Y-56134000D03*
%TO.P,IO,5,Pin_5*%
%TO.N,Net-(J5-Pin_5)*%
X77724000Y-54864000D03*
%TO.P,IO,6,Pin_6*%
%TO.N,Net-(J5-Pin_6)*%
X77724000Y-53594000D03*
%TD*%
D46*
%TO.N,GND*%
X68021200Y-53390800D03*
X73228200Y-72720200D03*
%TO.N,+5V*%
X76200000Y-85090000D03*
%TO.N,GND*%
X66649600Y-47853600D03*
X61874400Y-69748400D03*
X73914000Y-78994000D03*
X72009000Y-56642000D03*
X69545200Y-79820100D03*
X73660000Y-56642000D03*
X75311000Y-53340000D03*
X75311000Y-54991000D03*
X80670400Y-62020500D03*
X80675000Y-47851083D03*
X72009000Y-53340000D03*
X72034400Y-67919600D03*
X73660000Y-54991000D03*
X75311000Y-56642000D03*
X84988400Y-62636400D03*
X67005200Y-62839600D03*
X72009000Y-54991000D03*
X68072000Y-69697600D03*
X83413600Y-79451200D03*
X62103000Y-62865000D03*
X73761600Y-50342800D03*
X73660000Y-53340000D03*
X77851000Y-78994000D03*
X82346800Y-62636400D03*
X85496400Y-74879200D03*
%TO.N,+3V3*%
X83566000Y-72898000D03*
X78422500Y-69151500D03*
%TO.N,BT*%
X84455000Y-49784000D03*
X65869500Y-60960000D03*
%TO.N,Net-(U3-A)*%
X64262000Y-72263000D03*
%TO.N,Net-(U3-B)*%
X64262000Y-73533000D03*
%TO.N,Net-(JP3-A)*%
X75574500Y-68161500D03*
X67818000Y-59969500D03*
%TO.N,Net-(JP5-A)*%
X71755000Y-60833000D03*
X75124500Y-63119000D03*
%TO.N,XLR_TX*%
X69088000Y-70993000D03*
X78359000Y-70231000D03*
%TO.N,BOOT*%
X67564000Y-51562000D03*
X82042000Y-51562000D03*
%TO.N,LED1*%
X67674502Y-60960000D03*
X80728432Y-69550878D03*
%TO.N,LED2*%
X68707000Y-60960000D03*
X80728432Y-67391878D03*
%TO.N,Net-(U1-ADC2_CH6{slash}DAC_1{slash}GPIO18)*%
X65469500Y-52324000D03*
X72898000Y-58801000D03*
%TO.N,LED3*%
X80645000Y-65278000D03*
X69850000Y-60960000D03*
%TD*%
D47*
%TO.N,GND*%
X72644000Y-64074000D02*
X71770500Y-64947500D01*
X71770500Y-64947500D02*
X69974183Y-64947500D01*
X69974183Y-64947500D02*
X69443600Y-65478083D01*
X69443600Y-65478083D02*
X69443600Y-68956600D01*
X69991900Y-69504900D02*
X73141500Y-69504900D01*
X69443600Y-68956600D02*
X69991900Y-69504900D01*
X73141500Y-69504900D02*
X73177400Y-69469000D01*
D48*
X73177400Y-69469000D02*
X73177400Y-69062600D01*
X73177400Y-69062600D02*
X72034400Y-67919600D01*
X73228200Y-72720200D02*
X73177400Y-72669400D01*
X73177400Y-72669400D02*
X73177400Y-69570600D01*
D49*
%TO.N,+5V*%
X61232000Y-46768000D02*
X63250000Y-44750000D01*
X61232000Y-60058106D02*
X61232000Y-46768000D01*
X63173894Y-62000000D02*
X61232000Y-60058106D01*
X63881000Y-62000000D02*
X63173894Y-62000000D01*
X78650000Y-83611984D02*
X78650000Y-82823000D01*
X62676000Y-74803000D02*
X64266000Y-74803000D01*
D47*
X71905500Y-70993000D02*
X72487683Y-71575183D01*
D49*
X67796600Y-80619600D02*
X71653400Y-80619600D01*
X71752880Y-80520120D02*
X72512761Y-81280000D01*
D47*
X71485000Y-75821683D02*
X71485000Y-77740000D01*
X72487683Y-71575183D02*
X72487683Y-74819000D01*
D49*
X66425000Y-79248000D02*
X67796600Y-80619600D01*
X78650000Y-81798000D02*
X79211000Y-81237000D01*
X66425000Y-76962000D02*
X66425000Y-79248000D01*
X83802000Y-82913000D02*
X85321000Y-82913000D01*
X73750000Y-82823000D02*
X73750000Y-83611984D01*
X76200000Y-85090000D02*
X76200000Y-84398000D01*
X79211000Y-81237000D02*
X82126000Y-81237000D01*
X70485000Y-79252239D02*
X71752880Y-80520120D01*
X71653400Y-80619600D02*
X71752880Y-80520120D01*
X78650000Y-82823000D02*
X78650000Y-81798000D01*
X85321000Y-82913000D02*
X86446000Y-81788000D01*
X86446000Y-81788000D02*
X86446000Y-77332000D01*
X70485000Y-78740000D02*
X70485000Y-79252239D01*
X82126000Y-81237000D02*
X83802000Y-82913000D01*
X64266000Y-74803000D02*
X66425000Y-76962000D01*
D47*
X63754000Y-78509500D02*
X65686500Y-78509500D01*
D49*
X77863984Y-84398000D02*
X78650000Y-83611984D01*
X73750000Y-81798000D02*
X73750000Y-82823000D01*
X84546000Y-77332000D02*
X84546000Y-77857761D01*
X84546000Y-77857761D02*
X86190239Y-79502000D01*
X76200000Y-84398000D02*
X77863984Y-84398000D01*
X72512761Y-81280000D02*
X73232000Y-81280000D01*
D47*
X72487683Y-74819000D02*
X71485000Y-75821683D01*
X65686500Y-78509500D02*
X66425000Y-79248000D01*
X71485000Y-77740000D02*
X70485000Y-78740000D01*
D49*
X74536016Y-84398000D02*
X76200000Y-84398000D01*
X73750000Y-83611984D02*
X74536016Y-84398000D01*
X86190239Y-79502000D02*
X86446000Y-79502000D01*
X73232000Y-81280000D02*
X73750000Y-81798000D01*
D48*
%TO.N,GND*%
X85496400Y-75838800D02*
X85496400Y-74879200D01*
X85290700Y-76044500D02*
X85496400Y-75838800D01*
D47*
X65659000Y-67540500D02*
X66168900Y-67540500D01*
D48*
X79450000Y-82348000D02*
X79756000Y-82042000D01*
X85496400Y-73847600D02*
X86446000Y-72898000D01*
D47*
X76901000Y-78274500D02*
X78763500Y-80137000D01*
D48*
X72950000Y-82823000D02*
X72390000Y-82263000D01*
D47*
X80675000Y-62020000D02*
X80670900Y-62020000D01*
D48*
X79450000Y-82823000D02*
X79450000Y-82348000D01*
D47*
X80670900Y-62020000D02*
X80670400Y-62020500D01*
X64634000Y-65099000D02*
X64634000Y-66515500D01*
D49*
X87122000Y-46622000D02*
X87122000Y-48006000D01*
D48*
X85496400Y-74879200D02*
X85496400Y-73847600D01*
D49*
X85250000Y-44750000D02*
X87122000Y-46622000D01*
D48*
X72390000Y-82263000D02*
X72042000Y-82263000D01*
X82357000Y-74202251D02*
X84199249Y-76044500D01*
D47*
X66168900Y-67540500D02*
X67132000Y-68503600D01*
X65659000Y-64074000D02*
X64634000Y-65099000D01*
X76901000Y-77978000D02*
X76901000Y-78274500D01*
D48*
X68325000Y-79248000D02*
X68973100Y-79248000D01*
X68973100Y-79248000D02*
X69545200Y-79820100D01*
X84199249Y-76044500D02*
X85290700Y-76044500D01*
D47*
X67684600Y-69697600D02*
X68072000Y-69697600D01*
X64634000Y-66515500D02*
X65659000Y-67540500D01*
X67132000Y-69145000D02*
X67684600Y-69697600D01*
X67132000Y-68503600D02*
X67132000Y-69145000D01*
X73001500Y-80137000D02*
X73001500Y-79840500D01*
D48*
X79756000Y-82042000D02*
X80518000Y-82042000D01*
D47*
X73001500Y-79840500D02*
X74864000Y-77978000D01*
D48*
X82357000Y-73025000D02*
X82357000Y-74202251D01*
D47*
X66675000Y-62509400D02*
X67005200Y-62839600D01*
X66675000Y-62020000D02*
X66675000Y-62509400D01*
D49*
%TO.N,+3V3*%
X62587500Y-52832000D02*
X62587500Y-58873606D01*
D47*
X76581000Y-65786000D02*
X77120371Y-65786000D01*
D49*
X83566000Y-72898000D02*
X84546000Y-72898000D01*
X62357000Y-50950000D02*
X64500000Y-50950000D01*
X84546000Y-75057000D02*
X84546000Y-72898000D01*
D47*
X77120371Y-65786000D02*
X78422500Y-67088129D01*
D49*
X62587500Y-58873606D02*
X63173894Y-59460000D01*
D47*
X85968183Y-62322683D02*
X85968183Y-71475817D01*
D49*
X63173894Y-59460000D02*
X63881000Y-59460000D01*
D47*
X76073000Y-65278000D02*
X76581000Y-65786000D01*
X76073000Y-64643000D02*
X76073000Y-65278000D01*
D49*
X62357000Y-50950000D02*
X62357000Y-52601500D01*
D47*
X78422500Y-67088129D02*
X78422500Y-69151500D01*
D49*
X64680000Y-50770000D02*
X64500000Y-50950000D01*
X66675000Y-50770000D02*
X64680000Y-50770000D01*
D47*
X85968183Y-71475817D02*
X84546000Y-72898000D01*
D49*
X62357000Y-52601500D02*
X62587500Y-52832000D01*
D47*
X84732500Y-61087000D02*
X85968183Y-62322683D01*
X84732500Y-61087000D02*
X84732500Y-58801000D01*
%TO.N,RESET*%
X82755000Y-50000000D02*
X83505000Y-50750000D01*
X82755000Y-50000000D02*
X81825000Y-49070000D01*
X83505000Y-50750000D02*
X83505000Y-55753000D01*
X82907500Y-58801000D02*
X82907500Y-56425500D01*
X82907500Y-56425500D02*
X82870000Y-56388000D01*
X83505000Y-55753000D02*
X82870000Y-56388000D01*
X81825000Y-49070000D02*
X80675000Y-49070000D01*
%TO.N,BT*%
X83920000Y-55735183D02*
X83920000Y-63347521D01*
X66665000Y-60960000D02*
X66675000Y-60970000D01*
X85205000Y-54450183D02*
X83920000Y-55735183D01*
X84455000Y-49784000D02*
X85205000Y-50534000D01*
X83709000Y-71612000D02*
X81870000Y-71612000D01*
X84074000Y-71247000D02*
X83709000Y-71612000D01*
X81534000Y-74102000D02*
X81534000Y-75897000D01*
X65869500Y-60960000D02*
X66665000Y-60960000D01*
X80457000Y-73025000D02*
X81534000Y-74102000D01*
X81870000Y-71612000D02*
X80457000Y-73025000D01*
X85205000Y-50534000D02*
X85205000Y-54450183D01*
X83920000Y-63347521D02*
X84074000Y-63501521D01*
X84074000Y-63501521D02*
X84074000Y-71247000D01*
%TO.N,DN*%
X74025500Y-74771500D02*
X72978000Y-75819000D01*
X74025500Y-72303250D02*
X74025500Y-74771500D01*
X72964000Y-77978000D02*
X72964000Y-75833000D01*
X73725500Y-70756998D02*
X73725500Y-72003250D01*
X72964000Y-75833000D02*
X72978000Y-75819000D01*
X73675000Y-62020000D02*
X73675000Y-70706498D01*
X73675000Y-70706498D02*
X73725500Y-70756998D01*
X73725500Y-72003250D02*
X74025500Y-72303250D01*
%TO.N,DP*%
X78289501Y-74295000D02*
X78763500Y-74768999D01*
X74075000Y-70540813D02*
X74125500Y-70591313D01*
X78763500Y-74768999D02*
X78763500Y-75819000D01*
X74175000Y-62370000D02*
X74175000Y-62620000D01*
X74425500Y-72137565D02*
X74425500Y-73536500D01*
X74525000Y-62020000D02*
X74175000Y-62370000D01*
X75184000Y-74295000D02*
X78289501Y-74295000D01*
X74125500Y-70591313D02*
X74125500Y-71837565D01*
X74175000Y-62620000D02*
X74075000Y-62720000D01*
X74075000Y-62720000D02*
X74075000Y-70540813D01*
X78801000Y-75856500D02*
X78763500Y-75819000D01*
X74125500Y-71837565D02*
X74425500Y-72137565D01*
X74425500Y-73536500D02*
X75184000Y-74295000D01*
X78801000Y-77978000D02*
X78801000Y-75856500D01*
D48*
%TO.N,Net-(C12-Pad1)*%
X70452000Y-65960000D02*
X70452000Y-67925000D01*
X72644000Y-65974000D02*
X70466000Y-65974000D01*
X70466000Y-65974000D02*
X70452000Y-65960000D01*
X70452000Y-67925000D02*
X70432000Y-67945000D01*
%TO.N,Net-(C13-Pad2)*%
X67932000Y-67945000D02*
X67932000Y-65980000D01*
X67932000Y-65980000D02*
X67912000Y-65960000D01*
X65659000Y-65974000D02*
X67898000Y-65974000D01*
X67898000Y-65974000D02*
X67912000Y-65960000D01*
D47*
%TO.N,Net-(D1-A)*%
X83238500Y-70612000D02*
X81581000Y-70612000D01*
%TO.N,Net-(D2-A)*%
X83238500Y-68453000D02*
X81581000Y-68453000D01*
%TO.N,Net-(D3-A)*%
X83238500Y-66294000D02*
X81581000Y-66294000D01*
%TO.N,Net-(D4-A)*%
X83238500Y-64135000D02*
X81581000Y-64135000D01*
D49*
%TO.N,Net-(U3-A)*%
X62676000Y-72263000D02*
X64262000Y-72263000D01*
X66016500Y-80494500D02*
X63754000Y-80494500D01*
X67818000Y-82296000D02*
X66016500Y-80494500D01*
D47*
X65659000Y-69365500D02*
X65659000Y-70866000D01*
X65659000Y-70866000D02*
X64262000Y-72263000D01*
%TO.N,Net-(U3-B)*%
X61401000Y-75139396D02*
X61401000Y-73981000D01*
X63754000Y-76684500D02*
X62946104Y-76684500D01*
D49*
X65301500Y-82319500D02*
X67818000Y-84836000D01*
X62676000Y-73533000D02*
X64262000Y-73533000D01*
X63754000Y-82319500D02*
X65301500Y-82319500D01*
D47*
X62946104Y-76684500D02*
X61401000Y-75139396D01*
X61849000Y-73533000D02*
X62676000Y-73533000D01*
X61401000Y-73981000D02*
X61849000Y-73533000D01*
%TO.N,Net-(J2-Pin_1)*%
X64370000Y-55264000D02*
X63984000Y-55650000D01*
X66675000Y-52470000D02*
X66325000Y-52470000D01*
X63984000Y-55650000D02*
X63881000Y-55650000D01*
X66325000Y-52470000D02*
X64370000Y-54425000D01*
X64370000Y-54425000D02*
X64370000Y-55264000D01*
%TO.N,Net-(J2-Pin_2)*%
X66325000Y-53320000D02*
X64770000Y-54875000D01*
X64238000Y-56920000D02*
X63881000Y-56920000D01*
X64770000Y-54875000D02*
X64770000Y-56388000D01*
X64770000Y-56388000D02*
X64238000Y-56920000D01*
X66675000Y-53320000D02*
X66325000Y-53320000D01*
%TO.N,Net-(J2-Pin_3)*%
X66325000Y-54170000D02*
X65170000Y-55325000D01*
X65170000Y-55325000D02*
X65170000Y-56901000D01*
X66675000Y-54170000D02*
X66325000Y-54170000D01*
X65170000Y-56901000D02*
X63881000Y-58190000D01*
%TO.N,Net-(J4-Pin_1)*%
X67900000Y-55020000D02*
X69500000Y-53420000D01*
X66675000Y-55020000D02*
X67900000Y-55020000D01*
%TO.N,Net-(J4-Pin_2)*%
X66675000Y-55870000D02*
X68320000Y-55870000D01*
X68320000Y-55870000D02*
X69500000Y-54690000D01*
%TO.N,Net-(J4-Pin_3)*%
X68740000Y-56720000D02*
X69500000Y-55960000D01*
X66675000Y-56720000D02*
X68740000Y-56720000D01*
%TO.N,Net-(J4-Pin_4)*%
X69160000Y-57570000D02*
X69500000Y-57230000D01*
X66675000Y-57570000D02*
X69160000Y-57570000D01*
%TO.N,Net-(J5-Pin_1)*%
X77925000Y-60145000D02*
X77724000Y-59944000D01*
X77925000Y-62020000D02*
X77925000Y-60145000D01*
%TO.N,Net-(J5-Pin_2)*%
X77724000Y-58674000D02*
X77897629Y-58674000D01*
X77897629Y-58674000D02*
X78587600Y-59363971D01*
X78587600Y-59363971D02*
X78587600Y-61832600D01*
X78587600Y-61832600D02*
X78775000Y-62020000D01*
%TO.N,Net-(J5-Pin_3)*%
X79975000Y-60620000D02*
X80325000Y-60970000D01*
X80325000Y-60970000D02*
X80675000Y-60970000D01*
X77724000Y-57415629D02*
X78775000Y-58466629D01*
X78775000Y-58985686D02*
X79975000Y-60185686D01*
X78775000Y-58466629D02*
X78775000Y-58985686D01*
X79975000Y-60185686D02*
X79975000Y-60620000D01*
%TO.N,Net-(J5-Pin_4)*%
X79175000Y-57175000D02*
X79175000Y-58820000D01*
X79175000Y-58820000D02*
X80475000Y-60120000D01*
X78000000Y-56000000D02*
X79175000Y-57175000D01*
X80475000Y-60120000D02*
X80675000Y-60120000D01*
%TO.N,Net-(J5-Pin_5)*%
X80325000Y-59270000D02*
X80675000Y-59270000D01*
X79575000Y-56305000D02*
X79575000Y-58520000D01*
X78000000Y-54730000D02*
X79575000Y-56305000D01*
X79575000Y-58520000D02*
X80325000Y-59270000D01*
%TO.N,Net-(J5-Pin_6)*%
X79975000Y-55435000D02*
X79975000Y-57973000D01*
X79975000Y-57973000D02*
X80422000Y-58420000D01*
X80422000Y-58420000D02*
X80675000Y-58420000D01*
X78000000Y-53460000D02*
X79975000Y-55435000D01*
%TO.N,Net-(JP1-A)*%
X81375000Y-62720000D02*
X81375000Y-54670000D01*
X76090000Y-70231000D02*
X74875000Y-69016000D01*
X81375000Y-54670000D02*
X80875000Y-54170000D01*
X76599000Y-62720000D02*
X81375000Y-62720000D01*
X74875000Y-69016000D02*
X74875000Y-64444000D01*
X80875000Y-54170000D02*
X80675000Y-54170000D01*
X74875000Y-64444000D02*
X76599000Y-62720000D01*
%TO.N,Net-(JP2-C)*%
X66351000Y-71812000D02*
X66802000Y-72263000D01*
X63684183Y-67056000D02*
X65181183Y-68553000D01*
X62738000Y-67056000D02*
X63684183Y-67056000D01*
X66336817Y-68553000D02*
X66659000Y-68875183D01*
X66802000Y-72263000D02*
X67626000Y-72263000D01*
X65181183Y-68553000D02*
X66336817Y-68553000D01*
X66659000Y-68875183D02*
X66659000Y-70348604D01*
X66351000Y-70656604D02*
X66351000Y-71812000D01*
X67626000Y-73533000D02*
X67626000Y-72263000D01*
X66659000Y-70348604D02*
X66351000Y-70656604D01*
%TO.N,XLR_SET*%
X64770000Y-59436000D02*
X65786000Y-58420000D01*
X69420000Y-58420000D02*
X69500000Y-58500000D01*
X66675000Y-58420000D02*
X69420000Y-58420000D01*
X62738000Y-65756000D02*
X62738000Y-65492183D01*
X65786000Y-58420000D02*
X66675000Y-58420000D01*
X62738000Y-65492183D02*
X64770000Y-63460183D01*
X64770000Y-63460183D02*
X64770000Y-59436000D01*
%TO.N,Net-(JP3-A)*%
X66675000Y-60120000D02*
X67667500Y-60120000D01*
X67667500Y-60120000D02*
X67818000Y-59969500D01*
%TO.N,Net-(JP4-A)*%
X79248000Y-64643000D02*
X77373000Y-64643000D01*
X79756000Y-64135000D02*
X79248000Y-64643000D01*
%TO.N,Net-(JP5-A)*%
X71755000Y-60833000D02*
X71755000Y-61800000D01*
X75124500Y-63119000D02*
X74475000Y-63768500D01*
X74475000Y-70375127D02*
X74525500Y-70425628D01*
X74475000Y-63768500D02*
X74475000Y-70375127D01*
X74525500Y-70425628D02*
X74525500Y-71477500D01*
X74525500Y-71477500D02*
X76073000Y-73025000D01*
X71755000Y-61800000D02*
X71975000Y-62020000D01*
%TO.N,XLR_RX*%
X67306500Y-65147500D02*
X66684000Y-64525000D01*
X68986400Y-65544083D02*
X68589817Y-65147500D01*
X65170000Y-60179000D02*
X66079000Y-59270000D01*
X68589817Y-65147500D02*
X67306500Y-65147500D01*
X69739000Y-69993000D02*
X68986400Y-69240400D01*
X70570817Y-69993000D02*
X69739000Y-69993000D01*
X70893000Y-71670817D02*
X70893000Y-70315183D01*
X66675000Y-59270000D02*
X69000001Y-59270001D01*
X70328000Y-73279000D02*
X70328000Y-72235817D01*
X66079000Y-59270000D02*
X66675000Y-59270000D01*
X66684000Y-64525000D02*
X66684000Y-63509000D01*
X65170000Y-61995000D02*
X65170000Y-60179000D01*
X70893000Y-70315183D02*
X70570817Y-69993000D01*
X66684000Y-63509000D02*
X65170000Y-61995000D01*
X69000001Y-59270001D02*
X69500000Y-59770000D01*
X70328000Y-72235817D02*
X70893000Y-71670817D01*
X68986400Y-69240400D02*
X68986400Y-65544083D01*
%TO.N,Net-(JP6-B)*%
X71628000Y-73653264D02*
X70478264Y-74803000D01*
X68373000Y-74803000D02*
X67626000Y-74803000D01*
X70478264Y-74803000D02*
X67626000Y-74803000D01*
X71628000Y-73279000D02*
X71628000Y-73653264D01*
X70485000Y-76915000D02*
X68373000Y-74803000D01*
%TO.N,Net-(U2-CC1)*%
X74950000Y-81848000D02*
X74826500Y-81724500D01*
X74950000Y-82823000D02*
X74950000Y-81848000D01*
X74826500Y-81724500D02*
X74826500Y-80137000D01*
%TO.N,Net-(U2-CC2)*%
X77950000Y-81148500D02*
X76938500Y-80137000D01*
X77950000Y-82823000D02*
X77950000Y-81148500D01*
%TO.N,XLR_TX*%
X77390000Y-67437000D02*
X77390000Y-73008000D01*
X77390000Y-70231000D02*
X78359000Y-70231000D01*
X77390000Y-73008000D02*
X77373000Y-73025000D01*
X69088000Y-70993000D02*
X67626000Y-70993000D01*
X70080500Y-70993000D02*
X69088000Y-70993000D01*
%TO.N,Net-(U2-DP1)*%
X76010000Y-81788000D02*
X76890000Y-81788000D01*
X76950000Y-81848000D02*
X76950000Y-82823000D01*
X75950000Y-81848000D02*
X76010000Y-81788000D01*
X76064000Y-76693500D02*
X76064000Y-81801000D01*
X75950000Y-82823000D02*
X75950000Y-81848000D01*
X76890000Y-81788000D02*
X76950000Y-81848000D01*
X76938500Y-75819000D02*
X76064000Y-76693500D01*
%TO.N,Net-(U2-DN1)*%
X75500000Y-83848000D02*
X76426000Y-83848000D01*
X76426000Y-83848000D02*
X76450000Y-83824000D01*
X76450000Y-83824000D02*
X76450000Y-82823000D01*
X74803000Y-75819000D02*
X75664000Y-76680000D01*
X75664000Y-76680000D02*
X75664000Y-81435000D01*
X75450000Y-81649000D02*
X75450000Y-82823000D01*
X75450000Y-83798000D02*
X75500000Y-83848000D01*
X75664000Y-81435000D02*
X75450000Y-81649000D01*
X75450000Y-82823000D02*
X75450000Y-83798000D01*
%TO.N,BOOT*%
X67506000Y-51620000D02*
X66675000Y-51620000D01*
X82755000Y-53556000D02*
X82070000Y-54241000D01*
X82042000Y-52843000D02*
X82755000Y-53556000D01*
X82070000Y-54241000D02*
X82070000Y-60249500D01*
X82042000Y-51562000D02*
X82042000Y-52843000D01*
X82070000Y-60249500D02*
X82907500Y-61087000D01*
X67564000Y-51562000D02*
X67506000Y-51620000D01*
%TO.N,LED1*%
X79756000Y-70523310D02*
X80728432Y-69550878D01*
X67674502Y-60960000D02*
X67674502Y-61969502D01*
X79756000Y-70612000D02*
X79756000Y-70523310D01*
X67674502Y-61969502D02*
X67725000Y-62020000D01*
%TO.N,LED2*%
X68707000Y-60960000D02*
X68707000Y-61888000D01*
X79756000Y-68364310D02*
X80728432Y-67391878D01*
X68707000Y-61888000D02*
X68575000Y-62020000D01*
X79756000Y-68453000D02*
X79756000Y-68364310D01*
%TO.N,Net-(U1-ADC2_CH6{slash}DAC_1{slash}GPIO18)*%
X65469500Y-52324000D02*
X64961500Y-52832000D01*
X72898000Y-58801000D02*
X72898000Y-61947000D01*
X64961500Y-52832000D02*
X64412500Y-52832000D01*
X72898000Y-61947000D02*
X72825000Y-62020000D01*
D48*
%TO.N,Net-(U1-GPIO15{slash}ADC2_CH4{slash}XTAL_32K_P)*%
X68810000Y-64135000D02*
X67912000Y-64135000D01*
X70275000Y-62670000D02*
X68810000Y-64135000D01*
X70275000Y-62020000D02*
X70275000Y-62670000D01*
%TO.N,Net-(U1-GPIO16{slash}ADC2_CH5{slash}XTAL_32K_N)*%
X71125000Y-63462000D02*
X71125000Y-62020000D01*
X70452000Y-64135000D02*
X71125000Y-63462000D01*
D47*
%TO.N,LED3*%
X79756000Y-66294000D02*
X79756000Y-66167000D01*
X79756000Y-66167000D02*
X80645000Y-65278000D01*
X69850000Y-60960000D02*
X69425000Y-61385000D01*
X69425000Y-61385000D02*
X69425000Y-62020000D01*
%TD*%
%TA.AperFunction,Conductor*%
%TO.N,GND*%
G36*
X61165202Y-75764593D02*
G01*
X61171680Y-75770625D01*
X62481881Y-77080826D01*
X62492576Y-77093021D01*
X62512117Y-77118488D01*
X62529479Y-77131810D01*
X62529484Y-77131813D01*
X62544029Y-77142974D01*
X62544032Y-77142977D01*
X62547254Y-77145449D01*
X62548464Y-77146378D01*
X62548733Y-77146746D01*
X62550306Y-77148126D01*
X62548894Y-77146967D01*
X62589665Y-77202808D01*
X62590680Y-77205746D01*
X62611885Y-77269738D01*
X62650243Y-77331926D01*
X62704971Y-77420654D01*
X62793636Y-77509319D01*
X62827121Y-77570642D01*
X62822137Y-77640334D01*
X62793636Y-77684681D01*
X62704971Y-77773345D01*
X62611884Y-77924263D01*
X62556112Y-78092573D01*
X62545819Y-78193324D01*
X62545818Y-78193341D01*
X62545500Y-78196455D01*
X62545500Y-78199601D01*
X62545500Y-78199602D01*
X62545500Y-78819395D01*
X62545500Y-78819414D01*
X62545501Y-78822544D01*
X62545820Y-78825675D01*
X62545821Y-78825678D01*
X62556112Y-78926425D01*
X62601087Y-79062152D01*
X62611885Y-79094738D01*
X62626233Y-79118000D01*
X62704971Y-79245654D01*
X62830347Y-79371030D01*
X62871578Y-79396462D01*
X62918303Y-79448410D01*
X62929524Y-79517372D01*
X62901681Y-79581454D01*
X62871578Y-79607538D01*
X62830347Y-79632969D01*
X62704971Y-79758345D01*
X62611884Y-79909263D01*
X62556112Y-80077573D01*
X62545819Y-80178324D01*
X62545818Y-80178341D01*
X62545500Y-80181455D01*
X62545500Y-80184601D01*
X62545500Y-80184602D01*
X62545500Y-80804395D01*
X62545500Y-80804414D01*
X62545501Y-80807544D01*
X62545820Y-80810675D01*
X62545821Y-80810678D01*
X62556112Y-80911425D01*
X62611884Y-81079736D01*
X62704971Y-81230654D01*
X62793636Y-81319319D01*
X62827121Y-81380642D01*
X62822137Y-81450334D01*
X62793636Y-81494681D01*
X62704971Y-81583345D01*
X62611884Y-81734263D01*
X62556112Y-81902573D01*
X62545819Y-82003324D01*
X62545818Y-82003341D01*
X62545500Y-82006455D01*
X62545500Y-82009601D01*
X62545500Y-82009602D01*
X62545500Y-82629395D01*
X62545500Y-82629414D01*
X62545501Y-82632544D01*
X62545820Y-82635675D01*
X62545821Y-82635678D01*
X62556112Y-82736425D01*
X62608477Y-82894454D01*
X62611885Y-82904738D01*
X62642958Y-82955115D01*
X62704971Y-83055654D01*
X62830345Y-83181028D01*
X62830347Y-83181029D01*
X62830348Y-83181030D01*
X62981262Y-83274115D01*
X63065417Y-83302000D01*
X63149573Y-83329887D01*
X63195602Y-83334589D01*
X63253455Y-83340500D01*
X64254544Y-83340499D01*
X64358426Y-83329887D01*
X64526738Y-83274115D01*
X64677652Y-83181030D01*
X64726762Y-83131920D01*
X64794364Y-83064319D01*
X64855687Y-83030834D01*
X64882045Y-83028000D01*
X64956668Y-83028000D01*
X65023707Y-83047685D01*
X65044349Y-83064319D01*
X66447504Y-84467474D01*
X66480989Y-84528797D01*
X66480029Y-84585593D01*
X66473435Y-84611632D01*
X66454843Y-84836000D01*
X66473435Y-85060363D01*
X66473435Y-85060366D01*
X66473436Y-85060368D01*
X66528704Y-85278616D01*
X66529280Y-85279929D01*
X66619138Y-85484788D01*
X66619140Y-85484791D01*
X66742278Y-85673268D01*
X66894760Y-85838906D01*
X67072424Y-85977189D01*
X67115697Y-86000607D01*
X67165287Y-86049825D01*
X67180395Y-86118042D01*
X67156225Y-86183598D01*
X67127803Y-86211236D01*
X66946918Y-86337893D01*
X66779890Y-86504921D01*
X66644400Y-86698421D01*
X66544569Y-86912507D01*
X66487364Y-87125999D01*
X66487364Y-87126000D01*
X67384314Y-87126000D01*
X67358507Y-87166156D01*
X67318000Y-87304111D01*
X67318000Y-87447889D01*
X67358507Y-87585844D01*
X67384314Y-87626000D01*
X66487364Y-87626000D01*
X66544569Y-87839492D01*
X66644399Y-88053576D01*
X66779893Y-88247081D01*
X66946918Y-88414106D01*
X67140423Y-88549600D01*
X67354509Y-88649430D01*
X67568000Y-88706634D01*
X67568000Y-87811501D01*
X67675685Y-87860680D01*
X67782237Y-87876000D01*
X67853763Y-87876000D01*
X67960315Y-87860680D01*
X68068000Y-87811501D01*
X68068000Y-88706633D01*
X68281490Y-88649430D01*
X68495576Y-88549600D01*
X68689081Y-88414106D01*
X68856106Y-88247081D01*
X68991600Y-88053576D01*
X69091430Y-87839492D01*
X69148636Y-87626000D01*
X68251686Y-87626000D01*
X68277493Y-87585844D01*
X68318000Y-87447889D01*
X68318000Y-87304111D01*
X68277493Y-87166156D01*
X68251686Y-87126000D01*
X69148636Y-87126000D01*
X69148635Y-87125999D01*
X69091430Y-86912507D01*
X68991599Y-86698421D01*
X68856109Y-86504921D01*
X68689081Y-86337893D01*
X68508197Y-86211236D01*
X68464572Y-86156659D01*
X68457380Y-86087160D01*
X68488902Y-86024806D01*
X68520301Y-86000607D01*
X68563576Y-85977189D01*
X68741240Y-85838906D01*
X68893722Y-85673268D01*
X69016860Y-85484791D01*
X69107296Y-85278616D01*
X69162564Y-85060368D01*
X69181156Y-84836000D01*
X69162564Y-84611632D01*
X69107296Y-84393384D01*
X69016860Y-84187209D01*
X68893722Y-83998732D01*
X68893721Y-83998731D01*
X68893718Y-83998726D01*
X68748510Y-83840990D01*
X68717587Y-83778336D01*
X68725447Y-83708910D01*
X68769594Y-83654754D01*
X68796396Y-83640829D01*
X68914204Y-83596889D01*
X69031261Y-83509261D01*
X69118889Y-83392204D01*
X69142132Y-83329887D01*
X69169988Y-83255205D01*
X69169988Y-83255203D01*
X69169989Y-83255201D01*
X69176500Y-83194638D01*
X69176500Y-81452100D01*
X69196185Y-81385061D01*
X69248989Y-81339306D01*
X69300500Y-81328100D01*
X71507528Y-81328100D01*
X71574567Y-81347785D01*
X71595209Y-81364419D01*
X71993985Y-81763194D01*
X71999119Y-81768648D01*
X72039486Y-81814214D01*
X72089583Y-81848793D01*
X72095618Y-81853234D01*
X72111132Y-81865389D01*
X72151764Y-81922230D01*
X72157947Y-81976253D01*
X72150353Y-82046885D01*
X72149999Y-82053482D01*
X72149999Y-82143447D01*
X72130314Y-82210487D01*
X72130000Y-82210829D01*
X72130000Y-83021889D01*
X72105543Y-82982390D01*
X72016038Y-82914799D01*
X71908160Y-82884105D01*
X71796479Y-82894454D01*
X71696078Y-82944448D01*
X71630000Y-83016930D01*
X71630000Y-82214633D01*
X71628051Y-82214932D01*
X71437336Y-82285564D01*
X71264736Y-82393145D01*
X71117330Y-82533266D01*
X71001144Y-82700194D01*
X70920940Y-82887092D01*
X70880000Y-83086311D01*
X70880000Y-83488000D01*
X71580000Y-83488000D01*
X71580000Y-83988000D01*
X70880000Y-83988000D01*
X70880000Y-84335570D01*
X70880317Y-84341835D01*
X70895419Y-84490339D01*
X70956303Y-84684389D01*
X71055003Y-84862214D01*
X71187479Y-85016531D01*
X71348307Y-85141021D01*
X71530902Y-85230587D01*
X71630000Y-85256244D01*
X71630000Y-84454110D01*
X71654457Y-84493610D01*
X71743962Y-84561201D01*
X71851840Y-84591895D01*
X71963521Y-84581546D01*
X72063922Y-84531552D01*
X72130000Y-84459069D01*
X72130000Y-85261366D01*
X72131947Y-85261068D01*
X72322663Y-85190436D01*
X72495263Y-85082854D01*
X72642669Y-84942733D01*
X72758856Y-84775804D01*
X72762236Y-84767928D01*
X72806760Y-84714083D01*
X72873328Y-84692857D01*
X72940804Y-84710990D01*
X72951676Y-84718449D01*
X73019767Y-84770698D01*
X73159764Y-84828687D01*
X73272280Y-84843500D01*
X73276333Y-84843500D01*
X73343667Y-84843500D01*
X73347720Y-84843500D01*
X73460236Y-84828687D01*
X73600233Y-84770698D01*
X73687391Y-84703818D01*
X73752558Y-84678624D01*
X73821003Y-84692662D01*
X73850558Y-84714513D01*
X74017246Y-84881201D01*
X74022380Y-84886655D01*
X74062743Y-84932215D01*
X74077981Y-84942733D01*
X74112854Y-84966805D01*
X74118873Y-84971234D01*
X74166790Y-85008774D01*
X74176246Y-85013029D01*
X74195796Y-85024056D01*
X74204341Y-85029954D01*
X74261264Y-85051542D01*
X74268185Y-85054409D01*
X74323681Y-85079386D01*
X74323686Y-85079388D01*
X74333898Y-85081259D01*
X74355506Y-85087282D01*
X74365215Y-85090965D01*
X74425649Y-85098302D01*
X74433041Y-85099426D01*
X74492923Y-85110401D01*
X74548980Y-85107010D01*
X74553682Y-85106726D01*
X74561168Y-85106500D01*
X75176580Y-85106500D01*
X75243619Y-85126185D01*
X75289374Y-85178989D01*
X75299901Y-85217538D01*
X75306458Y-85279929D01*
X75365472Y-85461556D01*
X75460957Y-85626941D01*
X75490355Y-85659591D01*
X75588747Y-85768866D01*
X75743248Y-85881118D01*
X75917714Y-85958795D01*
X76104511Y-85998500D01*
X76104513Y-85998500D01*
X76295489Y-85998500D01*
X76482285Y-85958795D01*
X76482286Y-85958794D01*
X76482288Y-85958794D01*
X76656752Y-85881118D01*
X76811253Y-85768866D01*
X76939040Y-85626944D01*
X77034527Y-85461556D01*
X77093542Y-85279928D01*
X77100099Y-85217536D01*
X77126684Y-85152923D01*
X77183981Y-85112939D01*
X77223420Y-85106500D01*
X77838821Y-85106500D01*
X77846308Y-85106726D01*
X77907077Y-85110402D01*
X77966978Y-85099424D01*
X77974348Y-85098303D01*
X78034785Y-85090965D01*
X78044482Y-85087287D01*
X78066108Y-85081259D01*
X78066124Y-85081256D01*
X78076313Y-85079389D01*
X78131834Y-85054400D01*
X78138736Y-85051542D01*
X78179173Y-85036205D01*
X78195659Y-85029954D01*
X78204203Y-85024055D01*
X78223738Y-85013037D01*
X78233210Y-85008775D01*
X78281146Y-84971217D01*
X78287127Y-84966816D01*
X78337257Y-84932215D01*
X78377641Y-84886629D01*
X78382752Y-84881201D01*
X78549442Y-84714510D01*
X78610763Y-84681027D01*
X78680455Y-84686011D01*
X78712607Y-84703817D01*
X78799767Y-84770698D01*
X78939764Y-84828687D01*
X79052280Y-84843500D01*
X79056333Y-84843500D01*
X79123667Y-84843500D01*
X79127720Y-84843500D01*
X79240236Y-84828687D01*
X79380233Y-84770698D01*
X79451256Y-84716199D01*
X79516424Y-84691006D01*
X79584869Y-84705044D01*
X79634859Y-84753858D01*
X79635161Y-84754399D01*
X79695003Y-84862214D01*
X79827479Y-85016531D01*
X79988307Y-85141021D01*
X80170902Y-85230587D01*
X80270000Y-85256244D01*
X80270000Y-84454110D01*
X80294457Y-84493610D01*
X80383962Y-84561201D01*
X80491840Y-84591895D01*
X80603521Y-84581546D01*
X80703922Y-84531552D01*
X80770000Y-84459069D01*
X80770000Y-85261366D01*
X80771947Y-85261068D01*
X80962663Y-85190436D01*
X81135263Y-85082854D01*
X81282669Y-84942733D01*
X81398855Y-84775805D01*
X81479059Y-84588907D01*
X81520000Y-84389688D01*
X81520000Y-83988000D01*
X80820000Y-83988000D01*
X80820000Y-83488000D01*
X81520000Y-83488000D01*
X81520000Y-83140429D01*
X81519682Y-83134164D01*
X81504580Y-82985660D01*
X81443696Y-82791610D01*
X81344996Y-82613785D01*
X81212520Y-82459468D01*
X81051692Y-82334978D01*
X80869094Y-82245410D01*
X80770000Y-82219753D01*
X80770000Y-83021889D01*
X80745543Y-82982390D01*
X80656038Y-82914799D01*
X80548160Y-82884105D01*
X80436479Y-82894454D01*
X80336078Y-82944448D01*
X80269999Y-83016930D01*
X80270000Y-82198791D01*
X80255184Y-82175969D01*
X80250000Y-82140488D01*
X80250000Y-82069500D01*
X80269685Y-82002461D01*
X80322489Y-81956706D01*
X80374000Y-81945500D01*
X81781168Y-81945500D01*
X81848207Y-81965185D01*
X81868849Y-81981819D01*
X83283223Y-83396193D01*
X83288357Y-83401647D01*
X83328725Y-83447214D01*
X83378822Y-83481793D01*
X83384851Y-83486229D01*
X83432770Y-83523772D01*
X83432774Y-83523775D01*
X83442236Y-83528034D01*
X83461781Y-83539057D01*
X83466801Y-83542522D01*
X83470325Y-83544954D01*
X83526581Y-83566289D01*
X83527233Y-83566536D01*
X83534155Y-83569403D01*
X83589671Y-83594389D01*
X83599881Y-83596260D01*
X83621500Y-83602286D01*
X83631199Y-83605965D01*
X83691631Y-83613302D01*
X83699011Y-83614425D01*
X83758908Y-83625402D01*
X83819681Y-83621726D01*
X83827169Y-83621500D01*
X85295837Y-83621500D01*
X85303324Y-83621726D01*
X85364093Y-83625402D01*
X85423994Y-83614424D01*
X85431364Y-83613303D01*
X85491801Y-83605965D01*
X85501498Y-83602287D01*
X85523124Y-83596259D01*
X85533329Y-83594389D01*
X85588850Y-83569400D01*
X85595752Y-83566542D01*
X85636189Y-83551205D01*
X85652675Y-83544954D01*
X85661219Y-83539055D01*
X85680754Y-83528037D01*
X85690226Y-83523775D01*
X85738162Y-83486217D01*
X85744143Y-83481816D01*
X85794273Y-83447215D01*
X85834673Y-83401611D01*
X85839760Y-83396208D01*
X86178151Y-83057817D01*
X86239474Y-83024333D01*
X86265832Y-83021499D01*
X86743395Y-83021499D01*
X86746544Y-83021499D01*
X86850426Y-83010887D01*
X87018738Y-82955115D01*
X87169652Y-82862030D01*
X87211983Y-82819699D01*
X87290819Y-82740864D01*
X87352142Y-82707379D01*
X87421834Y-82712363D01*
X87477767Y-82754235D01*
X87502184Y-82819699D01*
X87502500Y-82828545D01*
X87502500Y-85563501D01*
X87482815Y-85630540D01*
X87430011Y-85676295D01*
X87360853Y-85686239D01*
X87297297Y-85657214D01*
X87273803Y-85629944D01*
X87164564Y-85457811D01*
X87159993Y-85451520D01*
X87081686Y-85356864D01*
X86152788Y-86285763D01*
X86052106Y-86144376D01*
X85900068Y-85999408D01*
X85797777Y-85933669D01*
X86730434Y-85001012D01*
X86508679Y-84839897D01*
X86502108Y-84835727D01*
X86244305Y-84693999D01*
X86237266Y-84690686D01*
X85963729Y-84582386D01*
X85956334Y-84579983D01*
X85671374Y-84506817D01*
X85663743Y-84505362D01*
X85371859Y-84468488D01*
X85364101Y-84468000D01*
X85069899Y-84468000D01*
X85062140Y-84468488D01*
X84770256Y-84505362D01*
X84762625Y-84506817D01*
X84477665Y-84579983D01*
X84470270Y-84582386D01*
X84196733Y-84690686D01*
X84189694Y-84693999D01*
X83931899Y-84835723D01*
X83925309Y-84839905D01*
X83703565Y-85001011D01*
X83703564Y-85001012D01*
X84633693Y-85931140D01*
X84619590Y-85938411D01*
X84454460Y-86068271D01*
X84316890Y-86227035D01*
X84282334Y-86286886D01*
X83352312Y-85356864D01*
X83273995Y-85451534D01*
X83269434Y-85457812D01*
X83111792Y-85706217D01*
X83108050Y-85713023D01*
X82982781Y-85979234D01*
X82979921Y-85986458D01*
X82889009Y-86266254D01*
X82887073Y-86273793D01*
X82831946Y-86562779D01*
X82830972Y-86570499D01*
X82812500Y-86864105D01*
X82812500Y-86871894D01*
X82830972Y-87165500D01*
X82831946Y-87173220D01*
X82887073Y-87462206D01*
X82889009Y-87469745D01*
X82979921Y-87749541D01*
X82982781Y-87756765D01*
X83108050Y-88022976D01*
X83111792Y-88029782D01*
X83269430Y-88278181D01*
X83274006Y-88284479D01*
X83352312Y-88379134D01*
X84281211Y-87450235D01*
X84381894Y-87591624D01*
X84533932Y-87736592D01*
X84636222Y-87802329D01*
X83703564Y-88734986D01*
X83925320Y-88896102D01*
X83931890Y-88900272D01*
X84032154Y-88955392D01*
X84081418Y-89004938D01*
X84096075Y-89073253D01*
X84071472Y-89138648D01*
X84015419Y-89180359D01*
X83972417Y-89188054D01*
X81261381Y-89188054D01*
X81194342Y-89168369D01*
X81148587Y-89115565D01*
X81138643Y-89046407D01*
X81167668Y-88982851D01*
X81175949Y-88974180D01*
X81282669Y-88872733D01*
X81398855Y-88705805D01*
X81479059Y-88518907D01*
X81520000Y-88319688D01*
X81520000Y-88168000D01*
X80820000Y-88168000D01*
X80820000Y-87668000D01*
X81520000Y-87668000D01*
X81520000Y-87570429D01*
X81519682Y-87564164D01*
X81504580Y-87415660D01*
X81443696Y-87221610D01*
X81344996Y-87043785D01*
X81212520Y-86889468D01*
X81051692Y-86764978D01*
X80869094Y-86675410D01*
X80770000Y-86649753D01*
X80770000Y-87451889D01*
X80745543Y-87412390D01*
X80656038Y-87344799D01*
X80548160Y-87314105D01*
X80436479Y-87324454D01*
X80336078Y-87374448D01*
X80270000Y-87446930D01*
X80270000Y-86644633D01*
X80268051Y-86644932D01*
X80077336Y-86715564D01*
X79904736Y-86823145D01*
X79757330Y-86963266D01*
X79641144Y-87130194D01*
X79560940Y-87317092D01*
X79520000Y-87516311D01*
X79520000Y-87668000D01*
X80220000Y-87668000D01*
X80220000Y-88168000D01*
X79520000Y-88168000D01*
X79520000Y-88265570D01*
X79520317Y-88271835D01*
X79535419Y-88420339D01*
X79596303Y-88614389D01*
X79695003Y-88792214D01*
X79827479Y-88946531D01*
X79852628Y-88965998D01*
X79893592Y-89022599D01*
X79897452Y-89092362D01*
X79862983Y-89153138D01*
X79801128Y-89185629D01*
X79776727Y-89188054D01*
X72621381Y-89188054D01*
X72554342Y-89168369D01*
X72508587Y-89115565D01*
X72498643Y-89046407D01*
X72527668Y-88982851D01*
X72535949Y-88974180D01*
X72642669Y-88872733D01*
X72758855Y-88705805D01*
X72839059Y-88518907D01*
X72880000Y-88319688D01*
X72880000Y-88168000D01*
X72180000Y-88168000D01*
X72180000Y-87668000D01*
X72880000Y-87668000D01*
X72880000Y-87570429D01*
X72879682Y-87564164D01*
X72864580Y-87415660D01*
X72803696Y-87221610D01*
X72704996Y-87043785D01*
X72572520Y-86889468D01*
X72411692Y-86764978D01*
X72229094Y-86675410D01*
X72130000Y-86649753D01*
X72130000Y-87451889D01*
X72105543Y-87412390D01*
X72016038Y-87344799D01*
X71908160Y-87314105D01*
X71796479Y-87324454D01*
X71696078Y-87374448D01*
X71630000Y-87446930D01*
X71630000Y-86644633D01*
X71628051Y-86644932D01*
X71437336Y-86715564D01*
X71264736Y-86823145D01*
X71117330Y-86963266D01*
X71001144Y-87130194D01*
X70920940Y-87317092D01*
X70880000Y-87516311D01*
X70880000Y-87668000D01*
X71580000Y-87668000D01*
X71580000Y-88168000D01*
X70880000Y-88168000D01*
X70880000Y-88265570D01*
X70880317Y-88271835D01*
X70895419Y-88420339D01*
X70956303Y-88614389D01*
X71055003Y-88792214D01*
X71187479Y-88946531D01*
X71212628Y-88965998D01*
X71253592Y-89022599D01*
X71257452Y-89092362D01*
X71222983Y-89153138D01*
X71161128Y-89185629D01*
X71136727Y-89188054D01*
X64490583Y-89188054D01*
X64423544Y-89168369D01*
X64377789Y-89115565D01*
X64367845Y-89046407D01*
X64396870Y-88982851D01*
X64430846Y-88955392D01*
X64531109Y-88900272D01*
X64537678Y-88896102D01*
X64759433Y-88734986D01*
X64759434Y-88734986D01*
X63829306Y-87804859D01*
X63843410Y-87797589D01*
X64008540Y-87667729D01*
X64146110Y-87508965D01*
X64180665Y-87449113D01*
X65110686Y-88379133D01*
X65188997Y-88284474D01*
X65193568Y-88278182D01*
X65351207Y-88029782D01*
X65354949Y-88022976D01*
X65480218Y-87756765D01*
X65483078Y-87749541D01*
X65573990Y-87469745D01*
X65575926Y-87462206D01*
X65631053Y-87173220D01*
X65632027Y-87165500D01*
X65650500Y-86871894D01*
X65650500Y-86864105D01*
X65632027Y-86570499D01*
X65631053Y-86562779D01*
X65575926Y-86273793D01*
X65573990Y-86266254D01*
X65483078Y-85986458D01*
X65480218Y-85979234D01*
X65354949Y-85713023D01*
X65351207Y-85706217D01*
X65193569Y-85457818D01*
X65188993Y-85451520D01*
X65110686Y-85356864D01*
X64181787Y-86285762D01*
X64081106Y-86144376D01*
X63929068Y-85999408D01*
X63826777Y-85933669D01*
X64759434Y-85001012D01*
X64537679Y-84839897D01*
X64531108Y-84835727D01*
X64273305Y-84693999D01*
X64266266Y-84690686D01*
X63992729Y-84582386D01*
X63985334Y-84579983D01*
X63700374Y-84506817D01*
X63692743Y-84505362D01*
X63400859Y-84468488D01*
X63393101Y-84468000D01*
X63098899Y-84468000D01*
X63091140Y-84468488D01*
X62799256Y-84505362D01*
X62791625Y-84506817D01*
X62506665Y-84579983D01*
X62499270Y-84582386D01*
X62225733Y-84690686D01*
X62218694Y-84693999D01*
X61960899Y-84835723D01*
X61954309Y-84839905D01*
X61732565Y-85001011D01*
X61732564Y-85001012D01*
X62662693Y-85931140D01*
X62648590Y-85938411D01*
X62483460Y-86068271D01*
X62345890Y-86227035D01*
X62311334Y-86286887D01*
X61381312Y-85356864D01*
X61302995Y-85451534D01*
X61298431Y-85457816D01*
X61188694Y-85630734D01*
X61136153Y-85676789D01*
X61067052Y-85687128D01*
X61003332Y-85658466D01*
X60965222Y-85599905D01*
X60960000Y-85564304D01*
X60960000Y-75858302D01*
X60979684Y-75791267D01*
X61032488Y-75745512D01*
X61101646Y-75735568D01*
X61165202Y-75764593D01*
G37*
%TD.AperFunction*%
%TA.AperFunction,Conductor*%
G36*
X61165202Y-60993724D02*
G01*
X61171680Y-60999756D01*
X62655117Y-62483193D01*
X62660251Y-62488647D01*
X62700619Y-62534214D01*
X62750716Y-62568793D01*
X62756750Y-62573233D01*
X62804668Y-62610775D01*
X62814130Y-62615034D01*
X62833675Y-62626057D01*
X62838695Y-62629522D01*
X62842219Y-62631954D01*
X62898475Y-62653289D01*
X62899127Y-62653536D01*
X62906049Y-62656403D01*
X62961565Y-62681389D01*
X62971775Y-62683260D01*
X62993394Y-62689286D01*
X63003093Y-62692965D01*
X63063525Y-62700302D01*
X63070910Y-62701426D01*
X63130802Y-62712402D01*
X63130803Y-62712401D01*
X63136032Y-62713360D01*
X63192344Y-62739475D01*
X63317996Y-62842595D01*
X63493196Y-62936241D01*
X63683299Y-62993908D01*
X63881000Y-63013380D01*
X64025345Y-62999163D01*
X64093991Y-63012182D01*
X64144701Y-63060247D01*
X64161499Y-63122566D01*
X64161499Y-63156772D01*
X64141814Y-63223811D01*
X64125180Y-63244453D01*
X62663682Y-64705952D01*
X62602359Y-64739437D01*
X62576001Y-64742271D01*
X62473124Y-64742271D01*
X62472315Y-64742358D01*
X62414888Y-64742358D01*
X62313753Y-64756899D01*
X62281350Y-64761558D01*
X62275426Y-64761981D01*
X62132272Y-64804016D01*
X62001489Y-64863743D01*
X61878482Y-64942794D01*
X61773130Y-65034082D01*
X61770383Y-65036297D01*
X61674064Y-65147456D01*
X61632336Y-65212387D01*
X61611397Y-65244970D01*
X61596329Y-65268416D01*
X61535586Y-65401423D01*
X61495079Y-65539377D01*
X61476253Y-65670324D01*
X61474271Y-65684111D01*
X61474271Y-66306000D01*
X61474428Y-66308208D01*
X61474429Y-66308210D01*
X61479499Y-66379109D01*
X61482644Y-66389818D01*
X61486956Y-66438005D01*
X61479853Y-66504073D01*
X61479852Y-66504083D01*
X61479500Y-66507362D01*
X61479500Y-67604638D01*
X61479852Y-67607918D01*
X61479853Y-67607924D01*
X61486011Y-67665205D01*
X61537110Y-67802203D01*
X61624738Y-67919261D01*
X61741796Y-68006889D01*
X61878794Y-68057988D01*
X61878797Y-68057988D01*
X61878799Y-68057989D01*
X61939362Y-68064500D01*
X61942672Y-68064500D01*
X63533328Y-68064500D01*
X63536638Y-68064500D01*
X63597201Y-68057989D01*
X63688904Y-68023784D01*
X63758594Y-68018799D01*
X63819918Y-68052284D01*
X64470520Y-68702886D01*
X64504005Y-68764209D01*
X64500545Y-68829570D01*
X64461113Y-68948571D01*
X64450819Y-69049324D01*
X64450818Y-69049341D01*
X64450500Y-69052455D01*
X64450500Y-69055601D01*
X64450500Y-69055602D01*
X64450500Y-69675395D01*
X64450500Y-69675414D01*
X64450501Y-69678544D01*
X64450820Y-69681675D01*
X64450821Y-69681678D01*
X64461112Y-69782425D01*
X64516884Y-69950736D01*
X64516885Y-69950738D01*
X64563427Y-70026194D01*
X64609971Y-70101654D01*
X64735345Y-70227028D01*
X64735347Y-70227029D01*
X64735348Y-70227030D01*
X64886262Y-70320115D01*
X64965502Y-70346372D01*
X65022947Y-70386144D01*
X65049771Y-70450660D01*
X65050499Y-70464078D01*
X65050499Y-70562588D01*
X65030814Y-70629627D01*
X65014180Y-70650269D01*
X64362630Y-71301820D01*
X64301307Y-71335305D01*
X64231616Y-71330321D01*
X64175682Y-71288450D01*
X64165788Y-71261924D01*
X64148295Y-71243000D01*
X62550000Y-71243000D01*
X62482961Y-71223315D01*
X62437206Y-71170511D01*
X62426000Y-71119000D01*
X62426000Y-70193000D01*
X62926000Y-70193000D01*
X62926000Y-70743000D01*
X64148295Y-70743000D01*
X64148295Y-70742999D01*
X64148099Y-70740511D01*
X64102280Y-70582799D01*
X64018682Y-70441442D01*
X63902557Y-70325317D01*
X63761197Y-70241717D01*
X63603493Y-70195900D01*
X63569076Y-70193191D01*
X63564197Y-70193000D01*
X62926000Y-70193000D01*
X62426000Y-70193000D01*
X61787803Y-70193000D01*
X61782923Y-70193191D01*
X61748506Y-70195900D01*
X61590802Y-70241717D01*
X61449442Y-70325317D01*
X61333317Y-70441442D01*
X61249717Y-70582802D01*
X61203075Y-70743347D01*
X61165469Y-70802233D01*
X61101997Y-70831439D01*
X61032810Y-70821693D01*
X60979875Y-70776089D01*
X60960000Y-70709106D01*
X60960000Y-70709105D01*
X60960000Y-61087433D01*
X60979684Y-61020398D01*
X61032488Y-60974643D01*
X61101646Y-60964699D01*
X61165202Y-60993724D01*
G37*
%TD.AperFunction*%
%TA.AperFunction,Conductor*%
G36*
X78666298Y-71114600D02*
G01*
X78722032Y-71156737D01*
X78740306Y-71203876D01*
X78741341Y-71203534D01*
X78801384Y-71384736D01*
X78894471Y-71535654D01*
X79019845Y-71661028D01*
X79019847Y-71661029D01*
X79019848Y-71661030D01*
X79170762Y-71754115D01*
X79224432Y-71771899D01*
X79339073Y-71809887D01*
X79359756Y-71812000D01*
X79442955Y-71820500D01*
X79564456Y-71820499D01*
X79631494Y-71840183D01*
X79677249Y-71892987D01*
X79687193Y-71962145D01*
X79658169Y-72025701D01*
X79652137Y-72032179D01*
X79607972Y-72076344D01*
X79514884Y-72227263D01*
X79459112Y-72395573D01*
X79448819Y-72496324D01*
X79448818Y-72496341D01*
X79448500Y-72499455D01*
X79448500Y-72502601D01*
X79448500Y-72502602D01*
X79448500Y-73547395D01*
X79448500Y-73547414D01*
X79448501Y-73550544D01*
X79448820Y-73553675D01*
X79448821Y-73553678D01*
X79459112Y-73654425D01*
X79514884Y-73822736D01*
X79514885Y-73822738D01*
X79529638Y-73846656D01*
X79607971Y-73973654D01*
X79733345Y-74099028D01*
X79733347Y-74099029D01*
X79733348Y-74099030D01*
X79884262Y-74192115D01*
X79943868Y-74211866D01*
X80052573Y-74247887D01*
X80098602Y-74252589D01*
X80156455Y-74258500D01*
X80757544Y-74258499D01*
X80764618Y-74257776D01*
X80833310Y-74270544D01*
X80864904Y-74293453D01*
X80889181Y-74317730D01*
X80922666Y-74379053D01*
X80925500Y-74405411D01*
X80925500Y-74814500D01*
X80905815Y-74881539D01*
X80853011Y-74927294D01*
X80801500Y-74938500D01*
X80635362Y-74938500D01*
X80632082Y-74938852D01*
X80632075Y-74938853D01*
X80574794Y-74945011D01*
X80437796Y-74996110D01*
X80320738Y-75083738D01*
X80233110Y-75200796D01*
X80182011Y-75337794D01*
X80175853Y-75395075D01*
X80175500Y-75398362D01*
X80175500Y-76395638D01*
X80175852Y-76398918D01*
X80175853Y-76398924D01*
X80182011Y-76456205D01*
X80233110Y-76593203D01*
X80320738Y-76710261D01*
X80437796Y-76797889D01*
X80574794Y-76848988D01*
X80574797Y-76848988D01*
X80574799Y-76848989D01*
X80635362Y-76855500D01*
X80638672Y-76855500D01*
X82429328Y-76855500D01*
X82432638Y-76855500D01*
X82493201Y-76848989D01*
X82493203Y-76848988D01*
X82493205Y-76848988D01*
X82571124Y-76819924D01*
X82630204Y-76797889D01*
X82747261Y-76710261D01*
X82834889Y-76593204D01*
X82885989Y-76456201D01*
X82892500Y-76395638D01*
X82892500Y-75398362D01*
X82885989Y-75337799D01*
X82885988Y-75337797D01*
X82885988Y-75337794D01*
X82834889Y-75200796D01*
X82747261Y-75083738D01*
X82630203Y-74996110D01*
X82493205Y-74945011D01*
X82435924Y-74938853D01*
X82435918Y-74938852D01*
X82432638Y-74938500D01*
X82429328Y-74938500D01*
X82266500Y-74938500D01*
X82199461Y-74918815D01*
X82153706Y-74866011D01*
X82142500Y-74814500D01*
X82142500Y-74150004D01*
X82143561Y-74133818D01*
X82145116Y-74122011D01*
X82147750Y-74102000D01*
X82142500Y-74062120D01*
X82142500Y-74062115D01*
X82126838Y-73943150D01*
X82123610Y-73935355D01*
X82119952Y-73926524D01*
X82116438Y-73918039D01*
X82107000Y-73870589D01*
X82107000Y-72899000D01*
X82126685Y-72831961D01*
X82179489Y-72786206D01*
X82231000Y-72775000D01*
X82483000Y-72775000D01*
X82550039Y-72794685D01*
X82595794Y-72847489D01*
X82607000Y-72899000D01*
X82607000Y-74249999D01*
X82653829Y-74249999D01*
X82660111Y-74249678D01*
X82759695Y-74239506D01*
X82926122Y-74184357D01*
X83075345Y-74092316D01*
X83199316Y-73968345D01*
X83273142Y-73848654D01*
X83325090Y-73801929D01*
X83394052Y-73790706D01*
X83404450Y-73792457D01*
X83470513Y-73806500D01*
X83605456Y-73806500D01*
X83672495Y-73826185D01*
X83693137Y-73842819D01*
X83801181Y-73950863D01*
X83834666Y-74012186D01*
X83837500Y-74038544D01*
X83837500Y-74161340D01*
X83820232Y-74224461D01*
X83786854Y-74280899D01*
X83740438Y-74440665D01*
X83738750Y-74462122D01*
X83737500Y-74477998D01*
X83737500Y-75636002D01*
X83737690Y-75638423D01*
X83737691Y-75638434D01*
X83740438Y-75673334D01*
X83786854Y-75833100D01*
X83871547Y-75976308D01*
X84000269Y-76105030D01*
X83997467Y-76107831D01*
X84026418Y-76138838D01*
X84038921Y-76207580D01*
X84012275Y-76272169D01*
X83999520Y-76283221D01*
X84000269Y-76283970D01*
X83871547Y-76412691D01*
X83786854Y-76555899D01*
X83740438Y-76715665D01*
X83739012Y-76733792D01*
X83737500Y-76752998D01*
X83737500Y-77911002D01*
X83737690Y-77913423D01*
X83737691Y-77913434D01*
X83740438Y-77948334D01*
X83786854Y-78108100D01*
X83877320Y-78261070D01*
X83894503Y-78328794D01*
X83872343Y-78395057D01*
X83835688Y-78429728D01*
X83827654Y-78434683D01*
X83703683Y-78558654D01*
X83611642Y-78707877D01*
X83556493Y-78874303D01*
X83546319Y-78973890D01*
X83546000Y-78980168D01*
X83546000Y-79252000D01*
X84672000Y-79252000D01*
X84739039Y-79271685D01*
X84784794Y-79324489D01*
X84796000Y-79376000D01*
X84796000Y-81914000D01*
X84776315Y-81981039D01*
X84723511Y-82026794D01*
X84672000Y-82038000D01*
X84420000Y-82038000D01*
X84352961Y-82018315D01*
X84307206Y-81965511D01*
X84296000Y-81914000D01*
X84296000Y-79752000D01*
X83546001Y-79752000D01*
X83546001Y-80023829D01*
X83546321Y-80030111D01*
X83556493Y-80129695D01*
X83611642Y-80296122D01*
X83703683Y-80445345D01*
X83815657Y-80557319D01*
X83849142Y-80618642D01*
X83844158Y-80688334D01*
X83815657Y-80732681D01*
X83703683Y-80844654D01*
X83611642Y-80993877D01*
X83556493Y-81160303D01*
X83546319Y-81259890D01*
X83546000Y-81266168D01*
X83546000Y-81355668D01*
X83526315Y-81422707D01*
X83473511Y-81468462D01*
X83404353Y-81478406D01*
X83340797Y-81449381D01*
X83334319Y-81443349D01*
X82644775Y-80753805D01*
X82639658Y-80748370D01*
X82599273Y-80702785D01*
X82599272Y-80702784D01*
X82599270Y-80702782D01*
X82549170Y-80668200D01*
X82543137Y-80663761D01*
X82495225Y-80626224D01*
X82485760Y-80621964D01*
X82466216Y-80610941D01*
X82457677Y-80605047D01*
X82457675Y-80605046D01*
X82400767Y-80583463D01*
X82393848Y-80580597D01*
X82338329Y-80555611D01*
X82328111Y-80553738D01*
X82306500Y-80547713D01*
X82296802Y-80544035D01*
X82236369Y-80536696D01*
X82228970Y-80535569D01*
X82169095Y-80524597D01*
X82108324Y-80528274D01*
X82100837Y-80528500D01*
X79900000Y-80528500D01*
X79832961Y-80508815D01*
X79787206Y-80456011D01*
X79776000Y-80404500D01*
X79776000Y-80387000D01*
X78637500Y-80387000D01*
X78570461Y-80367315D01*
X78524706Y-80314511D01*
X78513500Y-80263000D01*
X78513500Y-80011000D01*
X78533185Y-79943961D01*
X78585989Y-79898206D01*
X78637500Y-79887000D01*
X79775999Y-79887000D01*
X79775999Y-79640170D01*
X79775678Y-79633888D01*
X79766803Y-79547000D01*
X80184000Y-79547000D01*
X80184000Y-79791518D01*
X80184354Y-79798132D01*
X80190400Y-79854371D01*
X80240647Y-79989089D01*
X80326811Y-80104188D01*
X80441910Y-80190352D01*
X80576628Y-80240599D01*
X80632867Y-80246645D01*
X80639482Y-80247000D01*
X81284000Y-80247000D01*
X81284000Y-80246999D01*
X81783999Y-80246999D01*
X81784000Y-80247000D01*
X82428518Y-80247000D01*
X82435132Y-80246645D01*
X82491371Y-80240599D01*
X82626089Y-80190352D01*
X82741188Y-80104188D01*
X82827352Y-79989089D01*
X82877599Y-79854371D01*
X82883645Y-79798132D01*
X82884000Y-79791518D01*
X82884000Y-79547000D01*
X81784000Y-79547000D01*
X81783999Y-80246999D01*
X81284000Y-80246999D01*
X81284000Y-79547000D01*
X80184000Y-79547000D01*
X79766803Y-79547000D01*
X79765506Y-79534304D01*
X79710357Y-79367877D01*
X79618316Y-79218654D01*
X79575853Y-79176191D01*
X79542368Y-79114868D01*
X79547222Y-79047000D01*
X80184000Y-79047000D01*
X81284000Y-79047000D01*
X81783999Y-79047000D01*
X82884000Y-79047000D01*
X82884000Y-78802481D01*
X82883645Y-78795867D01*
X82877599Y-78739628D01*
X82827352Y-78604910D01*
X82741188Y-78489811D01*
X82626089Y-78403647D01*
X82491371Y-78353400D01*
X82435132Y-78347354D01*
X82428518Y-78347000D01*
X81784000Y-78347000D01*
X81783999Y-79047000D01*
X81284000Y-79047000D01*
X81284000Y-78347000D01*
X80639482Y-78347000D01*
X80632867Y-78347354D01*
X80576628Y-78353400D01*
X80441910Y-78403647D01*
X80326811Y-78489811D01*
X80240647Y-78604910D01*
X80190400Y-78739628D01*
X80184354Y-78795867D01*
X80184000Y-78802481D01*
X80184000Y-79047000D01*
X79547222Y-79047000D01*
X79547352Y-79045176D01*
X79575851Y-79000830D01*
X79650030Y-78926652D01*
X79743115Y-78775738D01*
X79798887Y-78607426D01*
X79809500Y-78503545D01*
X79809499Y-77452456D01*
X79798887Y-77348574D01*
X79743115Y-77180262D01*
X79650030Y-77029348D01*
X79581861Y-76961179D01*
X79548378Y-76899859D01*
X79553362Y-76830167D01*
X79581864Y-76785818D01*
X79625028Y-76742654D01*
X79625030Y-76742652D01*
X79718115Y-76591738D01*
X79773887Y-76423426D01*
X79784500Y-76319545D01*
X79784499Y-75318456D01*
X79773887Y-75214574D01*
X79718115Y-75046262D01*
X79625030Y-74895348D01*
X79625029Y-74895347D01*
X79625028Y-74895345D01*
X79499654Y-74769971D01*
X79468580Y-74750804D01*
X79416722Y-74718818D01*
X79369999Y-74666871D01*
X79358881Y-74629465D01*
X79356338Y-74610149D01*
X79352912Y-74601876D01*
X79319793Y-74521920D01*
X79295024Y-74462123D01*
X79221978Y-74366928D01*
X79221974Y-74366924D01*
X79197487Y-74335012D01*
X79172012Y-74315464D01*
X79159826Y-74304776D01*
X78753726Y-73898676D01*
X78743032Y-73886482D01*
X78723490Y-73861015D01*
X78723488Y-73861014D01*
X78723488Y-73861013D01*
X78691575Y-73836525D01*
X78691573Y-73836523D01*
X78691563Y-73836515D01*
X78691538Y-73836495D01*
X78596377Y-73763476D01*
X78433271Y-73695915D01*
X78433922Y-73694341D01*
X78389073Y-73674497D01*
X78350607Y-73616169D01*
X78349781Y-73546305D01*
X78350148Y-73545023D01*
X78366180Y-73490427D01*
X78386642Y-73348112D01*
X78386642Y-73290684D01*
X78386729Y-73290387D01*
X78386729Y-72760124D01*
X78386642Y-72759315D01*
X78386642Y-72701888D01*
X78367442Y-72568350D01*
X78367018Y-72562426D01*
X78360081Y-72538802D01*
X78324984Y-72419273D01*
X78265256Y-72288488D01*
X78186205Y-72165482D01*
X78094903Y-72060112D01*
X78092701Y-72057383D01*
X78041296Y-72012839D01*
X78003522Y-71954060D01*
X77998500Y-71919127D01*
X77998500Y-71351600D01*
X78018185Y-71284561D01*
X78041294Y-71257891D01*
X78109051Y-71199179D01*
X78128824Y-71176359D01*
X78187598Y-71138584D01*
X78248317Y-71136270D01*
X78263513Y-71139500D01*
X78263515Y-71139500D01*
X78454487Y-71139500D01*
X78596635Y-71109285D01*
X78666298Y-71114600D01*
G37*
%TD.AperFunction*%
%TA.AperFunction,Conductor*%
G36*
X69530201Y-79570830D02*
G01*
X69536680Y-79576863D01*
X69561345Y-79601528D01*
X69561347Y-79601529D01*
X69561348Y-79601530D01*
X69691099Y-79681562D01*
X69737823Y-79733509D01*
X69749046Y-79802472D01*
X69721202Y-79866554D01*
X69663133Y-79905410D01*
X69626002Y-79911100D01*
X69448203Y-79911100D01*
X69381164Y-79891415D01*
X69335409Y-79838611D01*
X69324870Y-79774666D01*
X69324519Y-79779274D01*
X69324999Y-79769832D01*
X69324999Y-79664545D01*
X69344683Y-79597506D01*
X69397486Y-79551750D01*
X69466645Y-79541806D01*
X69530201Y-79570830D01*
G37*
%TD.AperFunction*%
%TA.AperFunction,Conductor*%
G36*
X68518039Y-76731685D02*
G01*
X68563794Y-76784489D01*
X68575000Y-76836000D01*
X68575000Y-79374000D01*
X68555315Y-79441039D01*
X68502511Y-79486794D01*
X68451000Y-79498000D01*
X68199000Y-79498000D01*
X68131961Y-79478315D01*
X68086206Y-79425511D01*
X68075000Y-79374000D01*
X68075000Y-76836000D01*
X68094685Y-76768961D01*
X68147489Y-76723206D01*
X68199000Y-76712000D01*
X68451000Y-76712000D01*
X68518039Y-76731685D01*
G37*
%TD.AperFunction*%
%TA.AperFunction,Conductor*%
G36*
X74998539Y-77747685D02*
G01*
X75044294Y-77800489D01*
X75055500Y-77852000D01*
X75055500Y-78104000D01*
X75035815Y-78171039D01*
X74983011Y-78216794D01*
X74931500Y-78228000D01*
X74738000Y-78228000D01*
X74670961Y-78208315D01*
X74625206Y-78155511D01*
X74614000Y-78104000D01*
X74614000Y-77852000D01*
X74633685Y-77784961D01*
X74686489Y-77739206D01*
X74738000Y-77728000D01*
X74931500Y-77728000D01*
X74998539Y-77747685D01*
G37*
%TD.AperFunction*%
%TA.AperFunction,Conductor*%
G36*
X77094039Y-77747685D02*
G01*
X77139794Y-77800489D01*
X77151000Y-77852000D01*
X77151000Y-78104000D01*
X77131315Y-78171039D01*
X77078511Y-78216794D01*
X77027000Y-78228000D01*
X76796500Y-78228000D01*
X76729461Y-78208315D01*
X76683706Y-78155511D01*
X76672500Y-78104000D01*
X76672500Y-77852000D01*
X76692185Y-77784961D01*
X76744989Y-77739206D01*
X76796500Y-77728000D01*
X77027000Y-77728000D01*
X77094039Y-77747685D01*
G37*
%TD.AperFunction*%
%TA.AperFunction,Conductor*%
G36*
X85580442Y-73815856D02*
G01*
X85595041Y-73832703D01*
X85727654Y-73965316D01*
X85730916Y-73967328D01*
X85777642Y-74019274D01*
X85788866Y-74088237D01*
X85772554Y-74135989D01*
X85686854Y-74280899D01*
X85640438Y-74440665D01*
X85638750Y-74462122D01*
X85637500Y-74477998D01*
X85637500Y-75636002D01*
X85637690Y-75638423D01*
X85637691Y-75638434D01*
X85640438Y-75673334D01*
X85686854Y-75833100D01*
X85779521Y-75989791D01*
X85778486Y-75990402D01*
X85803366Y-76035965D01*
X85798382Y-76105657D01*
X85766354Y-76153395D01*
X85746000Y-76172202D01*
X85746000Y-76421967D01*
X85728732Y-76485088D01*
X85686854Y-76555899D01*
X85640438Y-76715665D01*
X85639012Y-76733792D01*
X85637500Y-76752998D01*
X85637500Y-76755443D01*
X85637500Y-77458000D01*
X85617815Y-77525039D01*
X85565011Y-77570794D01*
X85513500Y-77582000D01*
X85478500Y-77582000D01*
X85411461Y-77562315D01*
X85365706Y-77509511D01*
X85354500Y-77458000D01*
X85354500Y-76755443D01*
X85354500Y-76752998D01*
X85351562Y-76715669D01*
X85335393Y-76660016D01*
X85305145Y-76555899D01*
X85263268Y-76485088D01*
X85246000Y-76421967D01*
X85246000Y-76172203D01*
X85225646Y-76153396D01*
X85189767Y-76093442D01*
X85191998Y-76023608D01*
X85212714Y-75989930D01*
X85212479Y-75989791D01*
X85269129Y-75894000D01*
X85305145Y-75833101D01*
X85351562Y-75673331D01*
X85354500Y-75636002D01*
X85354500Y-74477998D01*
X85351562Y-74440669D01*
X85330138Y-74366928D01*
X85305145Y-74280899D01*
X85271768Y-74224461D01*
X85254500Y-74161340D01*
X85254500Y-74038545D01*
X85274185Y-73971506D01*
X85290819Y-73950864D01*
X85395026Y-73846656D01*
X85395030Y-73846652D01*
X85395453Y-73845966D01*
X85398078Y-73843604D01*
X85405279Y-73836404D01*
X85405659Y-73836784D01*
X85447397Y-73799241D01*
X85516359Y-73788016D01*
X85580442Y-73815856D01*
G37*
%TD.AperFunction*%
%TA.AperFunction,Conductor*%
G36*
X73295667Y-72440425D02*
G01*
X73316987Y-72456784D01*
X73329173Y-72467472D01*
X73380681Y-72518980D01*
X73414166Y-72580303D01*
X73417000Y-72606661D01*
X73417000Y-74468088D01*
X73397315Y-74535127D01*
X73380681Y-74555769D01*
X73362269Y-74574181D01*
X73300946Y-74607666D01*
X73274588Y-74610500D01*
X73220183Y-74610500D01*
X73153144Y-74590815D01*
X73107389Y-74538011D01*
X73096183Y-74486500D01*
X73096183Y-72538802D01*
X73115868Y-72471763D01*
X73168672Y-72426008D01*
X73237830Y-72416064D01*
X73295667Y-72440425D01*
G37*
%TD.AperFunction*%
%TA.AperFunction,Conductor*%
G36*
X65725621Y-47390685D02*
G01*
X65771376Y-47443489D01*
X65781871Y-47508255D01*
X65775354Y-47568867D01*
X65775000Y-47575481D01*
X65775000Y-47770000D01*
X67513638Y-47770000D01*
X67580677Y-47789685D01*
X67601319Y-47806319D01*
X67615000Y-47820000D01*
X79735000Y-47820000D01*
X79748681Y-47806319D01*
X79810004Y-47772834D01*
X79836362Y-47770000D01*
X81575000Y-47770000D01*
X81575000Y-47575481D01*
X81574645Y-47568867D01*
X81568129Y-47508255D01*
X81580534Y-47439496D01*
X81628144Y-47388358D01*
X81691418Y-47371000D01*
X87378500Y-47371000D01*
X87445539Y-47390685D01*
X87491294Y-47443489D01*
X87502500Y-47495000D01*
X87502500Y-71869476D01*
X87482815Y-71936515D01*
X87430011Y-71982270D01*
X87360853Y-71992214D01*
X87297297Y-71963189D01*
X87290819Y-71957157D01*
X87164345Y-71830683D01*
X87015122Y-71738642D01*
X86848696Y-71683493D01*
X86749109Y-71673319D01*
X86742832Y-71673000D01*
X86697369Y-71673000D01*
X86630330Y-71653315D01*
X86584575Y-71600511D01*
X86574430Y-71532815D01*
X86576683Y-71515702D01*
X86576683Y-71515694D01*
X86581933Y-71475817D01*
X86577743Y-71443996D01*
X86576683Y-71427812D01*
X86576683Y-62370694D01*
X86577744Y-62354508D01*
X86581934Y-62322682D01*
X86576958Y-62284887D01*
X86561021Y-62163832D01*
X86499707Y-62015807D01*
X86477986Y-61987500D01*
X86426669Y-61920622D01*
X86426658Y-61920609D01*
X86418035Y-61909372D01*
X86402170Y-61888696D01*
X86376695Y-61869148D01*
X86364509Y-61858460D01*
X85789818Y-61283769D01*
X85756333Y-61222446D01*
X85753499Y-61196088D01*
X85753499Y-60589604D01*
X85753499Y-60589603D01*
X85753499Y-60586456D01*
X85742887Y-60482574D01*
X85687115Y-60314262D01*
X85594030Y-60163348D01*
X85594029Y-60163347D01*
X85594028Y-60163345D01*
X85462364Y-60031681D01*
X85428879Y-59970358D01*
X85433863Y-59900666D01*
X85462364Y-59856319D01*
X85594028Y-59724654D01*
X85594027Y-59724654D01*
X85594030Y-59724652D01*
X85687115Y-59573738D01*
X85742887Y-59405426D01*
X85753500Y-59301545D01*
X85753499Y-58300456D01*
X85742887Y-58196574D01*
X85687115Y-58028262D01*
X85594030Y-57877348D01*
X85594029Y-57877347D01*
X85594028Y-57877345D01*
X85468654Y-57751971D01*
X85449977Y-57740451D01*
X85409125Y-57715253D01*
X85362403Y-57663307D01*
X85351180Y-57594345D01*
X85379024Y-57530262D01*
X85409128Y-57504177D01*
X85488345Y-57455316D01*
X85612316Y-57331345D01*
X85704357Y-57182122D01*
X85759506Y-57015696D01*
X85769680Y-56916109D01*
X85770000Y-56909831D01*
X85770000Y-56638000D01*
X84652500Y-56638000D01*
X84585461Y-56618315D01*
X84539706Y-56565511D01*
X84528500Y-56514000D01*
X84528500Y-56262000D01*
X84548185Y-56194961D01*
X84600989Y-56149206D01*
X84652500Y-56138000D01*
X85769999Y-56138000D01*
X85769999Y-55866170D01*
X85769678Y-55859888D01*
X85759506Y-55760304D01*
X85704357Y-55593877D01*
X85612316Y-55444654D01*
X85488345Y-55320683D01*
X85440413Y-55291118D01*
X85393689Y-55239170D01*
X85382468Y-55170207D01*
X85410311Y-55106125D01*
X85417796Y-55097934D01*
X85573414Y-54942316D01*
X85634736Y-54908834D01*
X85661093Y-54906000D01*
X85905000Y-54906000D01*
X85905000Y-53806000D01*
X86405000Y-53806000D01*
X86405000Y-54906000D01*
X86649518Y-54906000D01*
X86656132Y-54905645D01*
X86712371Y-54899599D01*
X86847089Y-54849352D01*
X86962188Y-54763188D01*
X87048352Y-54648089D01*
X87098599Y-54513371D01*
X87104645Y-54457132D01*
X87105000Y-54450518D01*
X87105000Y-53806000D01*
X86405000Y-53806000D01*
X85905000Y-53806000D01*
X85905000Y-52206000D01*
X86405000Y-52206000D01*
X86405000Y-53306000D01*
X87105000Y-53306000D01*
X87105000Y-52661481D01*
X87104645Y-52654867D01*
X87098599Y-52598628D01*
X87048352Y-52463910D01*
X86962188Y-52348811D01*
X86847089Y-52262647D01*
X86712371Y-52212400D01*
X86656132Y-52206354D01*
X86649518Y-52206000D01*
X86405000Y-52206000D01*
X85905000Y-52206000D01*
X85905000Y-52205999D01*
X85891489Y-52192489D01*
X85870461Y-52186315D01*
X85824706Y-52133511D01*
X85813500Y-52082000D01*
X85813500Y-51474000D01*
X85833185Y-51406961D01*
X85885989Y-51361206D01*
X85895964Y-51359035D01*
X85905000Y-51350000D01*
X85905000Y-50250000D01*
X86405000Y-50250000D01*
X86405000Y-51350000D01*
X86649518Y-51350000D01*
X86656132Y-51349645D01*
X86712371Y-51343599D01*
X86847089Y-51293352D01*
X86962188Y-51207188D01*
X87048352Y-51092089D01*
X87098599Y-50957371D01*
X87104645Y-50901132D01*
X87105000Y-50894518D01*
X87105000Y-50250000D01*
X86405000Y-50250000D01*
X85905000Y-50250000D01*
X85905000Y-48650000D01*
X86405000Y-48650000D01*
X86405000Y-49750000D01*
X87105000Y-49750000D01*
X87105000Y-49105481D01*
X87104645Y-49098867D01*
X87098599Y-49042628D01*
X87048352Y-48907910D01*
X86962188Y-48792811D01*
X86847089Y-48706647D01*
X86712371Y-48656400D01*
X86656132Y-48650354D01*
X86649518Y-48650000D01*
X86405000Y-48650000D01*
X85905000Y-48650000D01*
X85660482Y-48650000D01*
X85653867Y-48650354D01*
X85597628Y-48656400D01*
X85462910Y-48706647D01*
X85347811Y-48792811D01*
X85261647Y-48907911D01*
X85219144Y-49021866D01*
X85177272Y-49077799D01*
X85111807Y-49102216D01*
X85043535Y-49087364D01*
X85030076Y-49078850D01*
X85028629Y-49077799D01*
X84911752Y-48992882D01*
X84911751Y-48992881D01*
X84737285Y-48915204D01*
X84550489Y-48875500D01*
X84550487Y-48875500D01*
X84359513Y-48875500D01*
X84359511Y-48875500D01*
X84172714Y-48915204D01*
X83998247Y-48992881D01*
X83887061Y-49073664D01*
X83821254Y-49097144D01*
X83753200Y-49081319D01*
X83704505Y-49031213D01*
X83697994Y-49016680D01*
X83655889Y-48903796D01*
X83568261Y-48786738D01*
X83451203Y-48699110D01*
X83314205Y-48648011D01*
X83256924Y-48641853D01*
X83256918Y-48641852D01*
X83253638Y-48641500D01*
X83250328Y-48641500D01*
X82308230Y-48641500D01*
X82241191Y-48621815D01*
X82232739Y-48615872D01*
X82227081Y-48611530D01*
X82227058Y-48611512D01*
X82131876Y-48538476D01*
X81983851Y-48477162D01*
X81964456Y-48474608D01*
X81864902Y-48461502D01*
X81864892Y-48461500D01*
X81864885Y-48461500D01*
X81864883Y-48461500D01*
X81864874Y-48461499D01*
X81825000Y-48456249D01*
X81793180Y-48460439D01*
X81776995Y-48461500D01*
X81699000Y-48461500D01*
X81631961Y-48441815D01*
X81586206Y-48389011D01*
X81575000Y-48337500D01*
X81575000Y-48270000D01*
X79825000Y-48270000D01*
X79825000Y-48599039D01*
X79817182Y-48642373D01*
X79773011Y-48760798D01*
X79768797Y-48800000D01*
X79766500Y-48821362D01*
X79766500Y-49318638D01*
X79766852Y-49321918D01*
X79766853Y-49321924D01*
X79773011Y-49379201D01*
X79800039Y-49451665D01*
X79805023Y-49521357D01*
X79800039Y-49538332D01*
X79773011Y-49610797D01*
X79773010Y-49610799D01*
X79773011Y-49610799D01*
X79766500Y-49671362D01*
X79766500Y-50168638D01*
X79766852Y-50171918D01*
X79766853Y-50171924D01*
X79773011Y-50229202D01*
X79804574Y-50313827D01*
X79809558Y-50383519D01*
X79804575Y-50400491D01*
X79781400Y-50462626D01*
X79775354Y-50518867D01*
X79775000Y-50525481D01*
X79775000Y-50570000D01*
X80004040Y-50570000D01*
X80047372Y-50577817D01*
X80165799Y-50621989D01*
X80226362Y-50628500D01*
X80229672Y-50628500D01*
X80751000Y-50628500D01*
X80818039Y-50648185D01*
X80863794Y-50700989D01*
X80875000Y-50752500D01*
X80875000Y-51637500D01*
X80855315Y-51704539D01*
X80802511Y-51750294D01*
X80751000Y-51761500D01*
X80226362Y-51761500D01*
X80223082Y-51761852D01*
X80223075Y-51761853D01*
X80165798Y-51768011D01*
X80100807Y-51792251D01*
X80047372Y-51812182D01*
X80004040Y-51820000D01*
X79775000Y-51820000D01*
X79775000Y-51864518D01*
X79775354Y-51871132D01*
X79781401Y-51927375D01*
X79804574Y-51989506D01*
X79809558Y-52059197D01*
X79804574Y-52076170D01*
X79773011Y-52160795D01*
X79768113Y-52206354D01*
X79766500Y-52221362D01*
X79766500Y-52718638D01*
X79766852Y-52721918D01*
X79766853Y-52721924D01*
X79773011Y-52779201D01*
X79800039Y-52851665D01*
X79805023Y-52921357D01*
X79800039Y-52938332D01*
X79773011Y-53010797D01*
X79770840Y-53030997D01*
X79766500Y-53071362D01*
X79766500Y-53568638D01*
X79766852Y-53571918D01*
X79766853Y-53571924D01*
X79773011Y-53629201D01*
X79800039Y-53701665D01*
X79805023Y-53771357D01*
X79800039Y-53788332D01*
X79773011Y-53860797D01*
X79770830Y-53881090D01*
X79766500Y-53921362D01*
X79766500Y-53924671D01*
X79766500Y-54066589D01*
X79746815Y-54133628D01*
X79694011Y-54179383D01*
X79624853Y-54189327D01*
X79561297Y-54160302D01*
X79554819Y-54154270D01*
X78705498Y-53304949D01*
X78674518Y-53253262D01*
X78660240Y-53206194D01*
X78649530Y-53186158D01*
X78566595Y-53030996D01*
X78440568Y-52877432D01*
X78287004Y-52751405D01*
X78287003Y-52751404D01*
X78118767Y-52661481D01*
X78111804Y-52657759D01*
X77921701Y-52600092D01*
X77921698Y-52600091D01*
X77748247Y-52583008D01*
X77724000Y-52580620D01*
X77723999Y-52580620D01*
X77526301Y-52600091D01*
X77462931Y-52619314D01*
X77336196Y-52657759D01*
X77336192Y-52657760D01*
X77336192Y-52657761D01*
X77160996Y-52751404D01*
X77007432Y-52877432D01*
X76881404Y-53030996D01*
X76858060Y-53074671D01*
X76787759Y-53206196D01*
X76757803Y-53304949D01*
X76730091Y-53396301D01*
X76710620Y-53593999D01*
X76730091Y-53791698D01*
X76730092Y-53791701D01*
X76787759Y-53981804D01*
X76787761Y-53981807D01*
X76887162Y-54167775D01*
X76884048Y-54169439D01*
X76903247Y-54214670D01*
X76891442Y-54283535D01*
X76887147Y-54290217D01*
X76887162Y-54290225D01*
X76787761Y-54476192D01*
X76787759Y-54476196D01*
X76775230Y-54517500D01*
X76730091Y-54666301D01*
X76710620Y-54864000D01*
X76730091Y-55061698D01*
X76730092Y-55061701D01*
X76787759Y-55251804D01*
X76834557Y-55339357D01*
X76887162Y-55437775D01*
X76884046Y-55439440D01*
X76903245Y-55484647D01*
X76891452Y-55553514D01*
X76887145Y-55560217D01*
X76887162Y-55560226D01*
X76787759Y-55746196D01*
X76730091Y-55936301D01*
X76710620Y-56134000D01*
X76730091Y-56331698D01*
X76730092Y-56331701D01*
X76787759Y-56521804D01*
X76811121Y-56565511D01*
X76887162Y-56707775D01*
X76884048Y-56709439D01*
X76903247Y-56754670D01*
X76891442Y-56823535D01*
X76887147Y-56830217D01*
X76887162Y-56830225D01*
X76844612Y-56909831D01*
X76787759Y-57016196D01*
X76782874Y-57032301D01*
X76730091Y-57206301D01*
X76710620Y-57404000D01*
X76730091Y-57601698D01*
X76730092Y-57601701D01*
X76787759Y-57791804D01*
X76833483Y-57877348D01*
X76887162Y-57977775D01*
X76884048Y-57979439D01*
X76903247Y-58024670D01*
X76891442Y-58093535D01*
X76887147Y-58100217D01*
X76887162Y-58100225D01*
X76787761Y-58286192D01*
X76787759Y-58286196D01*
X76756968Y-58387701D01*
X76730091Y-58476301D01*
X76710620Y-58673999D01*
X76730091Y-58871698D01*
X76730092Y-58871701D01*
X76787759Y-59061804D01*
X76787761Y-59061808D01*
X76791305Y-59073490D01*
X76789746Y-59073962D01*
X76801109Y-59128539D01*
X76776780Y-59192894D01*
X76773110Y-59197796D01*
X76722011Y-59334794D01*
X76716915Y-59382196D01*
X76715500Y-59395362D01*
X76715500Y-60492638D01*
X76715852Y-60495918D01*
X76715853Y-60495924D01*
X76722011Y-60553205D01*
X76773110Y-60690203D01*
X76860738Y-60807261D01*
X76968904Y-60888233D01*
X77010776Y-60944166D01*
X77015760Y-61013858D01*
X76982275Y-61075181D01*
X76920952Y-61108666D01*
X76894594Y-61111500D01*
X76826362Y-61111500D01*
X76823082Y-61111852D01*
X76823075Y-61111853D01*
X76765796Y-61118011D01*
X76693332Y-61145039D01*
X76623641Y-61150023D01*
X76606667Y-61145039D01*
X76534201Y-61118011D01*
X76534201Y-61118010D01*
X76476924Y-61111853D01*
X76476918Y-61111852D01*
X76473638Y-61111500D01*
X75976362Y-61111500D01*
X75973082Y-61111852D01*
X75973075Y-61111853D01*
X75915796Y-61118011D01*
X75843332Y-61145039D01*
X75773641Y-61150023D01*
X75756667Y-61145039D01*
X75684201Y-61118011D01*
X75684201Y-61118010D01*
X75626924Y-61111853D01*
X75626918Y-61111852D01*
X75623638Y-61111500D01*
X75126362Y-61111500D01*
X75123082Y-61111852D01*
X75123075Y-61111853D01*
X75065796Y-61118011D01*
X74993332Y-61145039D01*
X74923641Y-61150023D01*
X74906667Y-61145039D01*
X74834201Y-61118011D01*
X74834201Y-61118010D01*
X74776924Y-61111853D01*
X74776918Y-61111852D01*
X74773638Y-61111500D01*
X74276362Y-61111500D01*
X74273082Y-61111852D01*
X74273075Y-61111853D01*
X74215797Y-61118011D01*
X74143332Y-61145039D01*
X74073640Y-61150023D01*
X74056665Y-61145039D01*
X73984201Y-61118011D01*
X73926924Y-61111853D01*
X73926918Y-61111852D01*
X73923638Y-61111500D01*
X73920328Y-61111500D01*
X73630500Y-61111500D01*
X73563461Y-61091815D01*
X73517706Y-61039011D01*
X73506500Y-60987500D01*
X73506500Y-59530522D01*
X73526185Y-59463483D01*
X73538342Y-59447558D01*
X73637040Y-59337944D01*
X73732527Y-59172556D01*
X73791542Y-58990928D01*
X73811504Y-58801000D01*
X73791542Y-58611072D01*
X73732527Y-58429444D01*
X73732527Y-58429443D01*
X73637042Y-58264058D01*
X73576279Y-58196574D01*
X73509253Y-58122134D01*
X73354752Y-58009882D01*
X73354751Y-58009881D01*
X73180285Y-57932204D01*
X72993489Y-57892500D01*
X72993487Y-57892500D01*
X72802513Y-57892500D01*
X72802511Y-57892500D01*
X72615714Y-57932204D01*
X72441248Y-58009881D01*
X72286748Y-58122133D01*
X72158957Y-58264058D01*
X72063472Y-58429443D01*
X72004458Y-58611070D01*
X71984496Y-58801000D01*
X72004458Y-58990929D01*
X72063472Y-59172556D01*
X72158957Y-59337941D01*
X72158960Y-59337944D01*
X72257651Y-59447552D01*
X72287880Y-59510541D01*
X72289500Y-59530522D01*
X72289500Y-59885554D01*
X72269815Y-59952593D01*
X72217011Y-59998348D01*
X72147853Y-60008292D01*
X72115065Y-59998834D01*
X72037285Y-59964204D01*
X71850489Y-59924500D01*
X71850487Y-59924500D01*
X71659513Y-59924500D01*
X71659511Y-59924500D01*
X71472714Y-59964204D01*
X71298248Y-60041881D01*
X71143748Y-60154133D01*
X71015957Y-60296058D01*
X70920473Y-60461442D01*
X70895164Y-60539335D01*
X70855726Y-60597010D01*
X70791367Y-60624208D01*
X70722521Y-60612293D01*
X70671045Y-60565049D01*
X70669846Y-60563016D01*
X70589042Y-60423058D01*
X70550272Y-60380000D01*
X70461381Y-60281276D01*
X70431153Y-60218288D01*
X70434873Y-60162311D01*
X70436239Y-60157807D01*
X70436241Y-60157804D01*
X70493908Y-59967701D01*
X70513380Y-59770000D01*
X70493908Y-59572299D01*
X70436241Y-59382196D01*
X70342595Y-59206996D01*
X70336838Y-59196225D01*
X70339953Y-59194559D01*
X70320755Y-59149357D01*
X70332545Y-59080489D01*
X70336854Y-59073785D01*
X70336837Y-59073776D01*
X70343236Y-59061804D01*
X70436241Y-58887804D01*
X70493908Y-58697701D01*
X70513380Y-58500000D01*
X70493908Y-58302299D01*
X70436241Y-58112196D01*
X70342595Y-57936996D01*
X70336838Y-57926225D01*
X70339953Y-57924559D01*
X70320755Y-57879357D01*
X70332545Y-57810489D01*
X70336854Y-57803783D01*
X70336838Y-57803775D01*
X70356436Y-57767109D01*
X70436241Y-57617804D01*
X70493908Y-57427701D01*
X70513380Y-57230000D01*
X70493908Y-57032299D01*
X70436241Y-56842196D01*
X70342595Y-56666996D01*
X70336838Y-56656225D01*
X70339953Y-56654559D01*
X70320755Y-56609357D01*
X70332545Y-56540489D01*
X70336854Y-56533783D01*
X70336838Y-56533775D01*
X70349174Y-56510695D01*
X70436241Y-56347804D01*
X70493908Y-56157701D01*
X70513380Y-55960000D01*
X70493908Y-55762299D01*
X70436241Y-55572196D01*
X70342595Y-55396996D01*
X70336838Y-55386225D01*
X70339953Y-55384559D01*
X70320755Y-55339357D01*
X70332545Y-55270489D01*
X70336854Y-55263785D01*
X70336837Y-55263776D01*
X70342595Y-55253004D01*
X70436241Y-55077804D01*
X70493908Y-54887701D01*
X70513380Y-54690000D01*
X70493908Y-54492299D01*
X70436241Y-54302196D01*
X70436239Y-54302193D01*
X70432695Y-54290508D01*
X70434253Y-54290035D01*
X70422890Y-54235464D01*
X70447225Y-54171097D01*
X70450889Y-54166204D01*
X70501989Y-54029201D01*
X70508500Y-53968638D01*
X70508500Y-52871362D01*
X70501989Y-52810799D01*
X70501988Y-52810797D01*
X70501988Y-52810794D01*
X70450889Y-52673796D01*
X70363261Y-52556738D01*
X70246203Y-52469110D01*
X70109205Y-52418011D01*
X70051924Y-52411853D01*
X70051918Y-52411852D01*
X70048638Y-52411500D01*
X68951362Y-52411500D01*
X68948082Y-52411852D01*
X68948075Y-52411853D01*
X68890794Y-52418011D01*
X68753796Y-52469110D01*
X68636738Y-52556738D01*
X68549110Y-52673796D01*
X68498011Y-52810794D01*
X68491853Y-52868075D01*
X68491500Y-52871362D01*
X68491500Y-52874671D01*
X68491500Y-53516588D01*
X68471815Y-53583627D01*
X68455181Y-53604269D01*
X67795181Y-54264269D01*
X67733858Y-54297754D01*
X67664166Y-54292770D01*
X67608233Y-54250898D01*
X67583816Y-54185434D01*
X67583500Y-54176588D01*
X67583500Y-53924671D01*
X67583500Y-53924670D01*
X67583500Y-53921362D01*
X67576989Y-53860799D01*
X67549959Y-53788332D01*
X67544974Y-53718643D01*
X67549955Y-53701676D01*
X67576989Y-53629201D01*
X67583500Y-53568638D01*
X67583500Y-53071362D01*
X67576989Y-53010799D01*
X67549959Y-52938332D01*
X67544974Y-52868643D01*
X67549955Y-52851676D01*
X67576989Y-52779201D01*
X67583500Y-52718638D01*
X67583500Y-52587063D01*
X67603185Y-52520025D01*
X67655989Y-52474270D01*
X67681718Y-52465774D01*
X67740919Y-52453190D01*
X67846285Y-52430795D01*
X67846286Y-52430794D01*
X67846288Y-52430794D01*
X68020752Y-52353118D01*
X68175253Y-52240866D01*
X68303040Y-52098944D01*
X68365372Y-51990983D01*
X68398527Y-51933556D01*
X68420959Y-51864518D01*
X68457542Y-51751928D01*
X68477504Y-51562000D01*
X68457542Y-51372072D01*
X68398527Y-51190444D01*
X68398527Y-51190443D01*
X68303042Y-51025058D01*
X68253467Y-50970000D01*
X79775000Y-50970000D01*
X79775000Y-51014518D01*
X79775354Y-51021132D01*
X79781400Y-51077373D01*
X79809110Y-51151666D01*
X79814094Y-51221358D01*
X79809110Y-51238331D01*
X79781401Y-51312624D01*
X79775354Y-51368867D01*
X79775000Y-51375481D01*
X79775000Y-51420000D01*
X80475000Y-51420000D01*
X80475000Y-50970000D01*
X79775000Y-50970000D01*
X68253467Y-50970000D01*
X68191458Y-50901132D01*
X68175253Y-50883134D01*
X68035840Y-50781844D01*
X68020751Y-50770881D01*
X67846285Y-50693204D01*
X67681719Y-50658225D01*
X67620237Y-50625033D01*
X67586461Y-50563869D01*
X67583500Y-50536935D01*
X67583500Y-50524671D01*
X67583500Y-50521362D01*
X67576989Y-50460799D01*
X67545424Y-50376173D01*
X67540440Y-50306482D01*
X67545425Y-50289504D01*
X67568597Y-50227378D01*
X67574646Y-50171114D01*
X67575000Y-50164518D01*
X67575000Y-50120000D01*
X67345960Y-50120000D01*
X67302627Y-50112182D01*
X67184201Y-50068011D01*
X67184200Y-50068010D01*
X67126924Y-50061853D01*
X67126918Y-50061852D01*
X67123638Y-50061500D01*
X67120328Y-50061500D01*
X65573524Y-50061500D01*
X65506485Y-50041815D01*
X65460730Y-49989011D01*
X65450786Y-49919853D01*
X65479811Y-49856297D01*
X65485843Y-49849819D01*
X65567316Y-49768345D01*
X65582660Y-49743468D01*
X65634606Y-49696742D01*
X65703568Y-49685518D01*
X65767651Y-49713360D01*
X65774917Y-49720000D01*
X66475000Y-49720000D01*
X66475000Y-49270000D01*
X66875000Y-49270000D01*
X66875000Y-49720000D01*
X67575000Y-49720000D01*
X67575000Y-49675481D01*
X67574646Y-49668885D01*
X67568597Y-49612623D01*
X67540889Y-49538333D01*
X67535905Y-49468641D01*
X67540890Y-49451665D01*
X67568597Y-49377379D01*
X67574646Y-49321114D01*
X67575000Y-49314518D01*
X67575000Y-49270000D01*
X66875000Y-49270000D01*
X66475000Y-49270000D01*
X65769747Y-49270000D01*
X65719996Y-49297166D01*
X65693638Y-49300000D01*
X62231000Y-49300000D01*
X62163961Y-49280315D01*
X62118206Y-49227511D01*
X62107000Y-49176000D01*
X62107000Y-48050000D01*
X62607000Y-48050000D01*
X62607000Y-48800000D01*
X64250000Y-48800000D01*
X64250000Y-48050000D01*
X64750000Y-48050000D01*
X64750000Y-48800000D01*
X65653638Y-48800000D01*
X65720677Y-48819685D01*
X65741319Y-48836319D01*
X65775000Y-48870000D01*
X66424999Y-48870000D01*
X66425000Y-48270000D01*
X66925000Y-48270000D01*
X66925000Y-48870000D01*
X67525000Y-48870000D01*
X67525000Y-48270000D01*
X66925000Y-48270000D01*
X66425000Y-48270000D01*
X65775000Y-48270000D01*
X65762516Y-48282483D01*
X65755311Y-48307019D01*
X65702505Y-48352772D01*
X65633346Y-48362712D01*
X65569792Y-48333684D01*
X65563318Y-48327656D01*
X65455662Y-48220000D01*
X67925000Y-48220000D01*
X67925000Y-48920000D01*
X67969518Y-48920000D01*
X67976114Y-48919646D01*
X68032376Y-48913597D01*
X68106663Y-48885889D01*
X68176355Y-48880903D01*
X68193334Y-48885889D01*
X68267621Y-48913597D01*
X68323885Y-48919646D01*
X68330482Y-48920000D01*
X68375000Y-48920000D01*
X68375000Y-48220000D01*
X68775000Y-48220000D01*
X68775000Y-48920000D01*
X68819518Y-48920000D01*
X68826114Y-48919646D01*
X68882378Y-48913597D01*
X68956665Y-48885889D01*
X69026356Y-48880903D01*
X69043335Y-48885889D01*
X69117621Y-48913597D01*
X69173885Y-48919646D01*
X69180482Y-48920000D01*
X69225000Y-48920000D01*
X69225000Y-48220000D01*
X69625000Y-48220000D01*
X69625000Y-48920000D01*
X69669518Y-48920000D01*
X69676114Y-48919646D01*
X69732378Y-48913597D01*
X69806665Y-48885889D01*
X69876356Y-48880903D01*
X69893335Y-48885889D01*
X69967621Y-48913597D01*
X70023885Y-48919646D01*
X70030482Y-48920000D01*
X70075000Y-48920000D01*
X70075000Y-48220000D01*
X70475000Y-48220000D01*
X70475000Y-48920000D01*
X70519518Y-48920000D01*
X70526114Y-48919646D01*
X70582378Y-48913597D01*
X70656665Y-48885889D01*
X70726356Y-48880903D01*
X70743335Y-48885889D01*
X70817621Y-48913597D01*
X70873885Y-48919646D01*
X70880482Y-48920000D01*
X70925000Y-48920000D01*
X70925000Y-48220000D01*
X71325000Y-48220000D01*
X71325000Y-48920000D01*
X71369518Y-48920000D01*
X71376114Y-48919646D01*
X71432378Y-48913597D01*
X71506665Y-48885889D01*
X71576356Y-48880903D01*
X71593335Y-48885889D01*
X71667621Y-48913597D01*
X71723885Y-48919646D01*
X71730482Y-48920000D01*
X71775000Y-48920000D01*
X71775000Y-48220000D01*
X72175000Y-48220000D01*
X72175000Y-48920000D01*
X72219518Y-48920000D01*
X72226114Y-48919646D01*
X72282376Y-48913597D01*
X72356663Y-48885889D01*
X72426355Y-48880903D01*
X72443334Y-48885889D01*
X72517621Y-48913597D01*
X72573885Y-48919646D01*
X72580482Y-48920000D01*
X72625000Y-48920000D01*
X72625000Y-48220000D01*
X73025000Y-48220000D01*
X73025000Y-48920000D01*
X73069518Y-48920000D01*
X73076114Y-48919646D01*
X73132378Y-48913597D01*
X73206665Y-48885889D01*
X73276356Y-48880903D01*
X73293335Y-48885889D01*
X73367621Y-48913597D01*
X73423885Y-48919646D01*
X73430482Y-48920000D01*
X73475000Y-48920000D01*
X73475000Y-48220000D01*
X73875000Y-48220000D01*
X73875000Y-48920000D01*
X73919518Y-48920000D01*
X73926114Y-48919646D01*
X73982378Y-48913597D01*
X74056665Y-48885889D01*
X74126356Y-48880903D01*
X74143335Y-48885889D01*
X74217621Y-48913597D01*
X74273885Y-48919646D01*
X74280482Y-48920000D01*
X74325000Y-48920000D01*
X74325000Y-48220000D01*
X74725000Y-48220000D01*
X74725000Y-48920000D01*
X74769518Y-48920000D01*
X74776114Y-48919646D01*
X74832378Y-48913597D01*
X74906665Y-48885889D01*
X74976356Y-48880903D01*
X74993335Y-48885889D01*
X75067621Y-48913597D01*
X75123885Y-48919646D01*
X75130482Y-48920000D01*
X75175000Y-48920000D01*
X75175000Y-48220000D01*
X75575000Y-48220000D01*
X75575000Y-48920000D01*
X75619518Y-48920000D01*
X75626114Y-48919646D01*
X75682376Y-48913597D01*
X75756663Y-48885889D01*
X75826355Y-48880903D01*
X75843334Y-48885889D01*
X75917621Y-48913597D01*
X75973885Y-48919646D01*
X75980482Y-48920000D01*
X76025000Y-48920000D01*
X76025000Y-48220000D01*
X76425000Y-48220000D01*
X76425000Y-48920000D01*
X76469518Y-48920000D01*
X76476114Y-48919646D01*
X76532378Y-48913597D01*
X76606665Y-48885889D01*
X76676356Y-48880903D01*
X76693335Y-48885889D01*
X76767621Y-48913597D01*
X76823885Y-48919646D01*
X76830482Y-48920000D01*
X76875000Y-48920000D01*
X76875000Y-48220000D01*
X77275000Y-48220000D01*
X77275000Y-48920000D01*
X77319518Y-48920000D01*
X77326114Y-48919646D01*
X77382378Y-48913597D01*
X77456665Y-48885889D01*
X77526356Y-48880903D01*
X77543335Y-48885889D01*
X77617621Y-48913597D01*
X77673885Y-48919646D01*
X77680482Y-48920000D01*
X77725000Y-48920000D01*
X77725000Y-48220000D01*
X78125000Y-48220000D01*
X78125000Y-48920000D01*
X78169518Y-48920000D01*
X78176114Y-48919646D01*
X78232378Y-48913597D01*
X78306665Y-48885889D01*
X78376356Y-48880903D01*
X78393335Y-48885889D01*
X78467621Y-48913597D01*
X78523885Y-48919646D01*
X78530482Y-48920000D01*
X78575000Y-48920000D01*
X78575000Y-48220000D01*
X78975000Y-48220000D01*
X78975000Y-48920000D01*
X79019518Y-48920000D01*
X79026114Y-48919646D01*
X79082378Y-48913597D01*
X79156665Y-48885889D01*
X79226356Y-48880903D01*
X79243335Y-48885889D01*
X79317621Y-48913597D01*
X79373885Y-48919646D01*
X79380482Y-48920000D01*
X79425000Y-48920000D01*
X79425000Y-48220000D01*
X78975000Y-48220000D01*
X78575000Y-48220000D01*
X78125000Y-48220000D01*
X77725000Y-48220000D01*
X77275000Y-48220000D01*
X76875000Y-48220000D01*
X76425000Y-48220000D01*
X76025000Y-48220000D01*
X75575000Y-48220000D01*
X75175000Y-48220000D01*
X74725000Y-48220000D01*
X74325000Y-48220000D01*
X73875000Y-48220000D01*
X73475000Y-48220000D01*
X73025000Y-48220000D01*
X72625000Y-48220000D01*
X72175000Y-48220000D01*
X71775000Y-48220000D01*
X71325000Y-48220000D01*
X70925000Y-48220000D01*
X70475000Y-48220000D01*
X70075000Y-48220000D01*
X69625000Y-48220000D01*
X69225000Y-48220000D01*
X68775000Y-48220000D01*
X68375000Y-48220000D01*
X67925000Y-48220000D01*
X65455662Y-48220000D01*
X65443345Y-48207683D01*
X65294122Y-48115642D01*
X65127696Y-48060493D01*
X65028109Y-48050319D01*
X65021832Y-48050000D01*
X64750000Y-48050000D01*
X64250000Y-48050000D01*
X63978171Y-48050000D01*
X63971888Y-48050321D01*
X63872304Y-48060493D01*
X63705877Y-48115642D01*
X63556654Y-48207683D01*
X63516181Y-48248157D01*
X63454858Y-48281642D01*
X63385166Y-48276658D01*
X63340819Y-48248157D01*
X63300345Y-48207683D01*
X63151122Y-48115642D01*
X62984696Y-48060493D01*
X62885109Y-48050319D01*
X62878832Y-48050000D01*
X62607000Y-48050000D01*
X62107000Y-48050000D01*
X62064500Y-48050000D01*
X61997461Y-48030315D01*
X61951706Y-47977511D01*
X61940500Y-47926000D01*
X61940500Y-47495000D01*
X61960185Y-47427961D01*
X62012989Y-47382206D01*
X62064500Y-47371000D01*
X65658582Y-47371000D01*
X65725621Y-47390685D01*
G37*
%TD.AperFunction*%
%TA.AperFunction,Conductor*%
G36*
X82172595Y-62136799D02*
G01*
X82322262Y-62229115D01*
X82406418Y-62257001D01*
X82490573Y-62284887D01*
X82503494Y-62286207D01*
X82594455Y-62295500D01*
X83187500Y-62295499D01*
X83254539Y-62315183D01*
X83300294Y-62367987D01*
X83311500Y-62419499D01*
X83311499Y-62802500D01*
X83291814Y-62869540D01*
X83239010Y-62915295D01*
X83187500Y-62926500D01*
X82947774Y-62926500D01*
X82947754Y-62926500D01*
X82944626Y-62926501D01*
X82941495Y-62926820D01*
X82941491Y-62926821D01*
X82841596Y-62937025D01*
X82674672Y-62992338D01*
X82524999Y-63084657D01*
X82508101Y-63101556D01*
X82446778Y-63135041D01*
X82377086Y-63130057D01*
X82332739Y-63101556D01*
X82317154Y-63085971D01*
X82241694Y-63039427D01*
X82166238Y-62992885D01*
X82166237Y-62992884D01*
X82166236Y-62992884D01*
X82059062Y-62957371D01*
X82001617Y-62917599D01*
X81974794Y-62853083D01*
X81975126Y-62823485D01*
X81988751Y-62720000D01*
X81984561Y-62688172D01*
X81983500Y-62671987D01*
X81983500Y-62242339D01*
X82003185Y-62175300D01*
X82055989Y-62129545D01*
X82125147Y-62119601D01*
X82172595Y-62136799D01*
G37*
%TD.AperFunction*%
%TA.AperFunction,Conductor*%
G36*
X85096127Y-62315184D02*
G01*
X85116769Y-62331818D01*
X85323364Y-62538412D01*
X85356849Y-62599735D01*
X85359683Y-62626093D01*
X85359683Y-70738000D01*
X85339998Y-70805039D01*
X85287194Y-70850794D01*
X85235683Y-70862000D01*
X84987500Y-70862000D01*
X84920461Y-70842315D01*
X84874706Y-70789511D01*
X84863500Y-70738000D01*
X84863500Y-62935000D01*
X84823339Y-62935000D01*
X84817061Y-62935319D01*
X84718325Y-62945406D01*
X84691501Y-62954295D01*
X84621673Y-62956695D01*
X84561632Y-62920962D01*
X84530441Y-62858441D01*
X84528500Y-62836588D01*
X84528500Y-62419499D01*
X84548185Y-62352460D01*
X84600989Y-62306705D01*
X84652500Y-62295499D01*
X85029088Y-62295499D01*
X85096127Y-62315184D01*
G37*
%TD.AperFunction*%
%TA.AperFunction,Conductor*%
G36*
X64499913Y-64693329D02*
G01*
X64555847Y-64735200D01*
X64562118Y-64744413D01*
X64591683Y-64792345D01*
X64725904Y-64926566D01*
X64724278Y-64928191D01*
X64757759Y-64965412D01*
X64768983Y-65034375D01*
X64741141Y-65098458D01*
X64711040Y-65124542D01*
X64710348Y-65124968D01*
X64584971Y-65250345D01*
X64491884Y-65401263D01*
X64436112Y-65569573D01*
X64425819Y-65670324D01*
X64425818Y-65670341D01*
X64425500Y-65673455D01*
X64425500Y-65676601D01*
X64425500Y-65676602D01*
X64425500Y-66271395D01*
X64425500Y-66271414D01*
X64425501Y-66274544D01*
X64425820Y-66277675D01*
X64425821Y-66277678D01*
X64436112Y-66378425D01*
X64491884Y-66546736D01*
X64491885Y-66546738D01*
X64550037Y-66641017D01*
X64592579Y-66709988D01*
X64589553Y-66711854D01*
X64611469Y-66751990D01*
X64606485Y-66821682D01*
X64595841Y-66843446D01*
X64577582Y-66873048D01*
X64525634Y-66919772D01*
X64456671Y-66930993D01*
X64392589Y-66903150D01*
X64384363Y-66895631D01*
X64148408Y-66659676D01*
X64137714Y-66647482D01*
X64118172Y-66622015D01*
X64118170Y-66622014D01*
X64118170Y-66622013D01*
X64086257Y-66597525D01*
X64086255Y-66597523D01*
X64086244Y-66597515D01*
X64086215Y-66597491D01*
X64041121Y-66562889D01*
X63999919Y-66506461D01*
X63993319Y-66477770D01*
X63988324Y-66431312D01*
X63991793Y-66430938D01*
X63988354Y-66399015D01*
X64001729Y-66306000D01*
X64001729Y-65684111D01*
X63991243Y-65611178D01*
X63980920Y-65539377D01*
X63940413Y-65401423D01*
X63897454Y-65307356D01*
X63887510Y-65238197D01*
X63916535Y-65174642D01*
X63922554Y-65168176D01*
X64368902Y-64721828D01*
X64430222Y-64688345D01*
X64499913Y-64693329D01*
G37*
%TD.AperFunction*%
%TA.AperFunction,Conductor*%
G36*
X71578083Y-66721612D02*
G01*
X71622430Y-66750113D01*
X71695345Y-66823028D01*
X71695347Y-66823029D01*
X71695348Y-66823030D01*
X71846262Y-66916115D01*
X71905666Y-66935799D01*
X72014573Y-66971887D01*
X72060602Y-66976589D01*
X72118455Y-66982500D01*
X72942500Y-66982499D01*
X73009539Y-67002183D01*
X73055294Y-67054987D01*
X73066500Y-67106499D01*
X73066500Y-70117627D01*
X73046815Y-70184666D01*
X72994011Y-70230421D01*
X72924853Y-70240365D01*
X72861297Y-70211340D01*
X72836961Y-70182724D01*
X72786956Y-70101654D01*
X72767030Y-70069348D01*
X72767029Y-70069347D01*
X72767028Y-70069345D01*
X72641654Y-69943971D01*
X72490736Y-69850884D01*
X72322426Y-69795112D01*
X72221675Y-69784819D01*
X72221659Y-69784818D01*
X72218545Y-69784500D01*
X72215397Y-69784500D01*
X71595604Y-69784500D01*
X71595584Y-69784500D01*
X71592456Y-69784501D01*
X71589325Y-69784820D01*
X71589321Y-69784821D01*
X71488572Y-69795112D01*
X71369570Y-69834545D01*
X71299741Y-69836946D01*
X71242886Y-69804520D01*
X71035042Y-69596676D01*
X71024348Y-69584482D01*
X70994867Y-69546062D01*
X70996192Y-69545045D01*
X70967212Y-69505358D01*
X70963055Y-69435612D01*
X70997266Y-69374691D01*
X71040566Y-69347225D01*
X71041197Y-69346989D01*
X71041201Y-69346989D01*
X71178204Y-69295889D01*
X71295261Y-69208261D01*
X71382889Y-69091204D01*
X71419413Y-68993280D01*
X71433988Y-68954205D01*
X71433988Y-68954203D01*
X71433989Y-68954201D01*
X71440500Y-68893638D01*
X71440500Y-66996362D01*
X71433989Y-66935799D01*
X71433988Y-66935796D01*
X71414948Y-66884749D01*
X71409962Y-66815058D01*
X71443447Y-66753734D01*
X71447069Y-66750112D01*
X71508391Y-66716628D01*
X71578083Y-66721612D01*
G37*
%TD.AperFunction*%
%TA.AperFunction,Conductor*%
G36*
X68358797Y-69373185D02*
G01*
X68404552Y-69425989D01*
X68406309Y-69430026D01*
X68425974Y-69477500D01*
X68454875Y-69547275D01*
X68527896Y-69642438D01*
X68527913Y-69642460D01*
X68527923Y-69642472D01*
X68527925Y-69642474D01*
X68546160Y-69666238D01*
X68552414Y-69674388D01*
X68577878Y-69693927D01*
X68590073Y-69704622D01*
X68819250Y-69933799D01*
X68852735Y-69995122D01*
X68847751Y-70064814D01*
X68805879Y-70120747D01*
X68782005Y-70134759D01*
X68662160Y-70188118D01*
X68592910Y-70197403D01*
X68577131Y-70193916D01*
X68554833Y-70187438D01*
X68519934Y-70184691D01*
X68519923Y-70184690D01*
X68517502Y-70184500D01*
X68515057Y-70184500D01*
X67391500Y-70184500D01*
X67324461Y-70164815D01*
X67278706Y-70112011D01*
X67267500Y-70060500D01*
X67267500Y-69477500D01*
X67287185Y-69410461D01*
X67339989Y-69364706D01*
X67391500Y-69353500D01*
X68291758Y-69353500D01*
X68358797Y-69373185D01*
G37*
%TD.AperFunction*%
%TA.AperFunction,Conductor*%
G36*
X71621594Y-64853102D02*
G01*
X71665941Y-64881603D01*
X71710904Y-64926566D01*
X71709278Y-64928191D01*
X71742759Y-64965412D01*
X71753983Y-65034375D01*
X71726141Y-65098458D01*
X71696040Y-65124542D01*
X71695348Y-65124968D01*
X71636431Y-65183886D01*
X71575108Y-65217371D01*
X71505416Y-65212387D01*
X71461068Y-65183885D01*
X71412363Y-65135179D01*
X71378879Y-65073856D01*
X71383864Y-65004164D01*
X71412364Y-64959818D01*
X71490579Y-64881603D01*
X71551902Y-64848118D01*
X71621594Y-64853102D01*
G37*
%TD.AperFunction*%
%TA.AperFunction,Conductor*%
G36*
X80709539Y-61789685D02*
G01*
X80755294Y-61842489D01*
X80766500Y-61894000D01*
X80766500Y-61987500D01*
X80746815Y-62054539D01*
X80694011Y-62100294D01*
X80642500Y-62111500D01*
X79607500Y-62111500D01*
X79540461Y-62091815D01*
X79494706Y-62039011D01*
X79483500Y-61987500D01*
X79483500Y-61944000D01*
X79503185Y-61876961D01*
X79555989Y-61831206D01*
X79607500Y-61820000D01*
X79735000Y-61820000D01*
X79748681Y-61806319D01*
X79810004Y-61772834D01*
X79836362Y-61770000D01*
X80642500Y-61770000D01*
X80709539Y-61789685D01*
G37*
%TD.AperFunction*%
%TD*%
M02*
