%TF.GenerationSoftware,KiCad,Pcbnew,7.0.2-6a45011f42~172~ubuntu23.04.1*%
%TF.CreationDate,2023-05-23T16:12:18+02:00*%
%TF.ProjectId,pcb,7063622e-6b69-4636-9164-5f7063625858,rev?*%
%TF.SameCoordinates,Original*%
%TF.FileFunction,Paste,Top*%
%TF.FilePolarity,Positive*%
%FSLAX46Y46*%
G04 Gerber Fmt 4.6, Leading zero omitted, Abs format (unit mm)*
G04 Created by KiCad (PCBNEW 7.0.2-6a45011f42~172~ubuntu23.04.1) date 2023-05-23 16:12:18*
%MOMM*%
%LPD*%
G01*
G04 APERTURE LIST*
G04 Aperture macros list*
%AMRoundRect*
0 Rectangle with rounded corners*
0 $1 Rounding radius*
0 $2 $3 $4 $5 $6 $7 $8 $9 X,Y pos of 4 corners*
0 Add a 4 corners polygon primitive as box body*
4,1,4,$2,$3,$4,$5,$6,$7,$8,$9,$2,$3,0*
0 Add four circle primitives for the rounded corners*
1,1,$1+$1,$2,$3*
1,1,$1+$1,$4,$5*
1,1,$1+$1,$6,$7*
1,1,$1+$1,$8,$9*
0 Add four rect primitives between the rounded corners*
20,1,$1+$1,$2,$3,$4,$5,0*
20,1,$1+$1,$4,$5,$6,$7,0*
20,1,$1+$1,$6,$7,$8,$9,0*
20,1,$1+$1,$8,$9,$2,$3,0*%
%AMFreePoly0*
4,1,6,0.600000,-0.600000,-0.600000,-0.600000,-0.600000,0.000000,0.000000,0.600000,0.600000,0.600000,0.600000,-0.600000,0.600000,-0.600000,$1*%
G04 Aperture macros list end*
%ADD10RoundRect,0.243750X0.243750X0.456250X-0.243750X0.456250X-0.243750X-0.456250X0.243750X-0.456250X0*%
%ADD11RoundRect,0.250000X0.250000X0.475000X-0.250000X0.475000X-0.250000X-0.475000X0.250000X-0.475000X0*%
%ADD12R,0.900000X1.700000*%
%ADD13RoundRect,0.250000X0.475000X-0.250000X0.475000X0.250000X-0.475000X0.250000X-0.475000X-0.250000X0*%
%ADD14RoundRect,0.250000X0.450000X-0.262500X0.450000X0.262500X-0.450000X0.262500X-0.450000X-0.262500X0*%
%ADD15RoundRect,0.250000X-0.262500X-0.450000X0.262500X-0.450000X0.262500X0.450000X-0.262500X0.450000X0*%
%ADD16RoundRect,0.250000X-0.250000X-0.475000X0.250000X-0.475000X0.250000X0.475000X-0.250000X0.475000X0*%
%ADD17R,1.700000X0.900000*%
%ADD18RoundRect,0.250000X0.262500X0.450000X-0.262500X0.450000X-0.262500X-0.450000X0.262500X-0.450000X0*%
%ADD19R,1.000000X1.800000*%
%ADD20RoundRect,0.250000X-0.450000X0.262500X-0.450000X-0.262500X0.450000X-0.262500X0.450000X0.262500X0*%
%ADD21R,0.600000X1.450000*%
%ADD22R,0.300000X1.450000*%
%ADD23RoundRect,0.250000X-0.475000X0.250000X-0.475000X-0.250000X0.475000X-0.250000X0.475000X0.250000X0*%
%ADD24RoundRect,0.150000X0.825000X0.150000X-0.825000X0.150000X-0.825000X-0.150000X0.825000X-0.150000X0*%
%ADD25R,0.800000X0.400000*%
%ADD26R,0.400000X0.800000*%
%ADD27FreePoly0,0.000000*%
%ADD28R,1.200000X1.200000*%
%ADD29R,0.800000X0.800000*%
%ADD30RoundRect,0.150000X0.150000X-0.512500X0.150000X0.512500X-0.150000X0.512500X-0.150000X-0.512500X0*%
G04 APERTURE END LIST*
D10*
%TO.C,D2*%
X85113500Y-64135000D03*
X83238500Y-64135000D03*
%TD*%
D11*
%TO.C,C8*%
X86446000Y-81788000D03*
X84546000Y-81788000D03*
%TD*%
D12*
%TO.C,BOOT*%
X86155000Y-53556000D03*
X82755000Y-53556000D03*
%TD*%
D10*
%TO.C,D3*%
X85113500Y-68453000D03*
X83238500Y-68453000D03*
%TD*%
D13*
%TO.C,C9*%
X72644000Y-65974000D03*
X72644000Y-64074000D03*
%TD*%
D14*
%TO.C,R12*%
X65659000Y-69365500D03*
X65659000Y-67540500D03*
%TD*%
D12*
%TO.C,RST*%
X86155000Y-50000000D03*
X82755000Y-50000000D03*
%TD*%
D15*
%TO.C,R13*%
X79756000Y-64135000D03*
X81581000Y-64135000D03*
%TD*%
D16*
%TO.C,C10*%
X76901000Y-77978000D03*
X78801000Y-77978000D03*
%TD*%
D17*
%TO.C,BT1*%
X81534000Y-79297000D03*
X81534000Y-75897000D03*
%TD*%
D15*
%TO.C,R15*%
X79756000Y-66294000D03*
X81581000Y-66294000D03*
%TD*%
%TO.C,R16*%
X79756000Y-70612000D03*
X81581000Y-70612000D03*
%TD*%
D16*
%TO.C,C11*%
X66425000Y-79248000D03*
X68325000Y-79248000D03*
%TD*%
%TO.C,C12*%
X84546000Y-72898000D03*
X86446000Y-72898000D03*
%TD*%
D18*
%TO.C,R1*%
X64412500Y-52832000D03*
X62587500Y-52832000D03*
%TD*%
D10*
%TO.C,D4*%
X85113500Y-66294000D03*
X83238500Y-66294000D03*
%TD*%
D19*
%TO.C,Y1*%
X67932000Y-67945000D03*
X70432000Y-67945000D03*
%TD*%
D20*
%TO.C,R17*%
X70452000Y-64135000D03*
X70452000Y-65960000D03*
%TD*%
D14*
%TO.C,R5*%
X67912000Y-65960000D03*
X67912000Y-64135000D03*
%TD*%
D21*
%TO.C,J3*%
X72950000Y-82823000D03*
X73750000Y-82823000D03*
D22*
X74950000Y-82823000D03*
X75950000Y-82823000D03*
X76450000Y-82823000D03*
X77450000Y-82823000D03*
D21*
X79450000Y-82823000D03*
X78650000Y-82823000D03*
D22*
X77950000Y-82823000D03*
X76950000Y-82823000D03*
X75450000Y-82823000D03*
X74450000Y-82823000D03*
%TD*%
D16*
%TO.C,C13*%
X72964000Y-77978000D03*
X74864000Y-77978000D03*
%TD*%
D14*
%TO.C,R18*%
X63754000Y-82319500D03*
X63754000Y-80494500D03*
%TD*%
D15*
%TO.C,R14*%
X79756000Y-68453000D03*
X81581000Y-68453000D03*
%TD*%
D23*
%TO.C,C2*%
X64500000Y-49050000D03*
X64500000Y-50950000D03*
%TD*%
D24*
%TO.C,U2*%
X67626000Y-74803000D03*
X67626000Y-73533000D03*
X67626000Y-72263000D03*
X67626000Y-70993000D03*
X62676000Y-70993000D03*
X62676000Y-72263000D03*
X62676000Y-73533000D03*
X62676000Y-74803000D03*
%TD*%
D23*
%TO.C,C1*%
X62357000Y-49050000D03*
X62357000Y-50950000D03*
%TD*%
D14*
%TO.C,R6*%
X70485000Y-78740000D03*
X70485000Y-76915000D03*
%TD*%
D16*
%TO.C,C4*%
X66425000Y-76962000D03*
X68325000Y-76962000D03*
%TD*%
D25*
%TO.C,U1*%
X66675000Y-49070000D03*
X66675000Y-49920000D03*
X66675000Y-50770000D03*
X66675000Y-51620000D03*
X66675000Y-52470000D03*
X66675000Y-53320000D03*
X66675000Y-54170000D03*
X66675000Y-55020000D03*
X66675000Y-55870000D03*
X66675000Y-56720000D03*
X66675000Y-57570000D03*
X66675000Y-58420000D03*
X66675000Y-59270000D03*
X66675000Y-60120000D03*
X66675000Y-60970000D03*
D26*
X67725000Y-62020000D03*
X68575000Y-62020000D03*
X69425000Y-62020000D03*
X70275000Y-62020000D03*
X71125000Y-62020000D03*
X71975000Y-62020000D03*
X72825000Y-62020000D03*
X73675000Y-62020000D03*
X74525000Y-62020000D03*
X75375000Y-62020000D03*
X76225000Y-62020000D03*
X77075000Y-62020000D03*
X77925000Y-62020000D03*
X78775000Y-62020000D03*
X79625000Y-62020000D03*
D25*
X80675000Y-60970000D03*
X80675000Y-60120000D03*
X80675000Y-59270000D03*
X80675000Y-58420000D03*
X80675000Y-57570000D03*
X80675000Y-56720000D03*
X80675000Y-55870000D03*
X80675000Y-55020000D03*
X80675000Y-54170000D03*
X80675000Y-53320000D03*
X80675000Y-52470000D03*
X80675000Y-51620000D03*
X80675000Y-50770000D03*
X80675000Y-49920000D03*
X80675000Y-49070000D03*
D26*
X79625000Y-48020000D03*
X78775000Y-48020000D03*
X77925000Y-48020000D03*
X77075000Y-48020000D03*
X76225000Y-48020000D03*
X75375000Y-48020000D03*
X74525000Y-48020000D03*
X73675000Y-48020000D03*
X72825000Y-48020000D03*
X71975000Y-48020000D03*
X71125000Y-48020000D03*
X70275000Y-48020000D03*
X69425000Y-48020000D03*
X68575000Y-48020000D03*
X67725000Y-48020000D03*
D27*
X72025000Y-53370000D03*
D28*
X72025000Y-55020000D03*
X72025000Y-56670000D03*
X73675000Y-53370000D03*
X73675000Y-55020000D03*
X73675000Y-56670000D03*
X75325000Y-53370000D03*
X75325000Y-55020000D03*
X75325000Y-56670000D03*
D29*
X66675000Y-48020000D03*
X66675000Y-62020000D03*
X80675000Y-62020000D03*
X80675000Y-48020000D03*
%TD*%
D18*
%TO.C,R7*%
X78763500Y-75819000D03*
X76938500Y-75819000D03*
%TD*%
D15*
%TO.C,R4*%
X72978000Y-75819000D03*
X74803000Y-75819000D03*
%TD*%
D23*
%TO.C,C5*%
X65659000Y-64074000D03*
X65659000Y-65974000D03*
%TD*%
D14*
%TO.C,R8*%
X63754000Y-78509500D03*
X63754000Y-76684500D03*
%TD*%
D15*
%TO.C,R9*%
X73001500Y-80137000D03*
X74826500Y-80137000D03*
%TD*%
D10*
%TO.C,D1*%
X85113500Y-70612000D03*
X83238500Y-70612000D03*
%TD*%
D30*
%TO.C,U3*%
X84546000Y-77332000D03*
X85496000Y-77332000D03*
X86446000Y-77332000D03*
X86446000Y-75057000D03*
X84546000Y-75057000D03*
%TD*%
D11*
%TO.C,C7*%
X86446000Y-79502000D03*
X84546000Y-79502000D03*
%TD*%
D15*
%TO.C,R11*%
X70080500Y-70993000D03*
X71905500Y-70993000D03*
%TD*%
%TO.C,R3*%
X82907500Y-61087000D03*
X84732500Y-61087000D03*
%TD*%
D18*
%TO.C,R10*%
X78763500Y-80137000D03*
X76938500Y-80137000D03*
%TD*%
D16*
%TO.C,C6*%
X80457000Y-73025000D03*
X82357000Y-73025000D03*
%TD*%
%TO.C,C3*%
X82870000Y-56388000D03*
X84770000Y-56388000D03*
%TD*%
D15*
%TO.C,R2*%
X82907500Y-58801000D03*
X84732500Y-58801000D03*
%TD*%
M02*
