M48
; DRILL file {KiCad 7.0.2-6a45011f42~172~ubuntu23.04.1} date Di 23 Mai 2023 16:13:52 CEST
; FORMAT={-:-/ absolute / metric / decimal}
; #@! TF.CreationDate,2023-05-23T16:13:52+02:00
; #@! TF.GenerationSoftware,Kicad,Pcbnew,7.0.2-6a45011f42~172~ubuntu23.04.1
; #@! TF.FileFunction,Plated,1,2,PTH
FMAT,2
METRIC
; #@! TA.AperFunction,Plated,PTH,ViaDrill
T1C0.400
; #@! TA.AperFunction,Plated,PTH,ComponentDrill
T2C0.600
; #@! TA.AperFunction,Plated,PTH,ComponentDrill
T3C0.650
; #@! TA.AperFunction,Plated,PTH,ComponentDrill
T4C0.700
; #@! TA.AperFunction,Plated,PTH,ComponentDrill
T5C1.000
; #@! TA.AperFunction,Plated,PTH,ComponentDrill
T6C2.200
%
G90
G05
T1
X61.874Y-69.748
X62.103Y-62.865
X64.262Y-72.263
X64.262Y-73.533
X65.469Y-52.324
X65.87Y-60.96
X66.65Y-47.854
X67.005Y-62.84
X67.564Y-51.562
X67.675Y-60.96
X67.818Y-59.969
X68.021Y-53.391
X68.072Y-69.698
X68.707Y-60.96
X69.088Y-70.993
X69.545Y-79.82
X69.85Y-60.96
X71.755Y-60.833
X72.009Y-53.34
X72.009Y-54.991
X72.009Y-56.642
X72.034Y-67.92
X72.898Y-58.801
X73.228Y-72.72
X73.66Y-53.34
X73.66Y-54.991
X73.66Y-56.642
X73.762Y-50.343
X73.914Y-78.994
X75.124Y-63.119
X75.311Y-53.34
X75.311Y-54.991
X75.311Y-56.642
X75.575Y-68.162
X76.2Y-85.09
X77.851Y-78.994
X78.359Y-70.231
X78.422Y-69.151
X80.645Y-65.278
X80.67Y-62.02
X80.675Y-47.851
X80.728Y-67.392
X80.728Y-69.551
X82.042Y-51.562
X82.347Y-62.636
X83.414Y-79.451
X83.566Y-72.898
X84.455Y-49.784
X84.988Y-62.636
X85.496Y-74.879
T3
X69.5Y-53.42
X69.5Y-54.69
X69.5Y-55.96
X69.5Y-57.23
X69.5Y-58.5
X69.5Y-59.77
X77.724Y-53.594
X77.724Y-54.864
X77.724Y-56.134
X77.724Y-57.404
X77.724Y-58.674
X77.724Y-59.944
T4
X63.881Y-55.65
X63.881Y-56.92
X63.881Y-58.19
X63.881Y-59.46
X63.881Y-60.73
X63.881Y-62.0
T5
X67.818Y-82.296
X67.818Y-84.836
X67.818Y-87.376
T6
X63.246Y-86.868
X63.25Y-44.75
X85.217Y-86.868
X85.25Y-44.75
T2
X71.88Y-83.188G85X71.88Y-84.288
G05
X71.88Y-87.618G85X71.88Y-88.218
G05
X80.52Y-83.188G85X80.52Y-84.288
G05
X80.52Y-87.618G85X80.52Y-88.218
G05
T0
M30
