%TF.GenerationSoftware,KiCad,Pcbnew,7.0.2-6a45011f42~172~ubuntu23.04.1*%
%TF.CreationDate,2023-05-23T16:12:19+02:00*%
%TF.ProjectId,pcb,7063622e-6b69-4636-9164-5f7063625858,rev?*%
%TF.SameCoordinates,Original*%
%TF.FileFunction,Legend,Bot*%
%TF.FilePolarity,Positive*%
%FSLAX46Y46*%
G04 Gerber Fmt 4.6, Leading zero omitted, Abs format (unit mm)*
G04 Created by KiCad (PCBNEW 7.0.2-6a45011f42~172~ubuntu23.04.1) date 2023-05-23 16:12:19*
%MOMM*%
%LPD*%
G01*
G04 APERTURE LIST*
%ADD10C,0.300000*%
%ADD11C,0.150000*%
%ADD12C,0.010000*%
%ADD13R,1.000000X1.000000*%
%ADD14O,1.000000X1.000000*%
%ADD15C,2.600000*%
%ADD16C,3.800000*%
%ADD17R,1.700000X1.700000*%
%ADD18O,1.700000X1.700000*%
%ADD19C,0.650000*%
%ADD20O,1.000000X1.600000*%
%ADD21O,1.000000X2.100000*%
G04 APERTURE END LIST*
D10*
X86106142Y-47155857D02*
X86249000Y-47084428D01*
X86249000Y-47084428D02*
X86463285Y-47084428D01*
X86463285Y-47084428D02*
X86677571Y-47155857D01*
X86677571Y-47155857D02*
X86820428Y-47298714D01*
X86820428Y-47298714D02*
X86891857Y-47441571D01*
X86891857Y-47441571D02*
X86963285Y-47727285D01*
X86963285Y-47727285D02*
X86963285Y-47941571D01*
X86963285Y-47941571D02*
X86891857Y-48227285D01*
X86891857Y-48227285D02*
X86820428Y-48370142D01*
X86820428Y-48370142D02*
X86677571Y-48513000D01*
X86677571Y-48513000D02*
X86463285Y-48584428D01*
X86463285Y-48584428D02*
X86320428Y-48584428D01*
X86320428Y-48584428D02*
X86106142Y-48513000D01*
X86106142Y-48513000D02*
X86034714Y-48441571D01*
X86034714Y-48441571D02*
X86034714Y-47941571D01*
X86034714Y-47941571D02*
X86320428Y-47941571D01*
X85391857Y-48584428D02*
X85391857Y-47084428D01*
X85391857Y-47084428D02*
X84534714Y-48584428D01*
X84534714Y-48584428D02*
X84534714Y-47084428D01*
X83820428Y-48584428D02*
X83820428Y-47084428D01*
X83820428Y-47084428D02*
X83463285Y-47084428D01*
X83463285Y-47084428D02*
X83248999Y-47155857D01*
X83248999Y-47155857D02*
X83106142Y-47298714D01*
X83106142Y-47298714D02*
X83034713Y-47441571D01*
X83034713Y-47441571D02*
X82963285Y-47727285D01*
X82963285Y-47727285D02*
X82963285Y-47941571D01*
X82963285Y-47941571D02*
X83034713Y-48227285D01*
X83034713Y-48227285D02*
X83106142Y-48370142D01*
X83106142Y-48370142D02*
X83248999Y-48513000D01*
X83248999Y-48513000D02*
X83463285Y-48584428D01*
X83463285Y-48584428D02*
X83820428Y-48584428D01*
X65428857Y-48140000D02*
X64286000Y-48140000D01*
X64857428Y-48711428D02*
X64857428Y-47568571D01*
X62857428Y-47211428D02*
X63571714Y-47211428D01*
X63571714Y-47211428D02*
X63643142Y-47925714D01*
X63643142Y-47925714D02*
X63571714Y-47854285D01*
X63571714Y-47854285D02*
X63428857Y-47782857D01*
X63428857Y-47782857D02*
X63071714Y-47782857D01*
X63071714Y-47782857D02*
X62928857Y-47854285D01*
X62928857Y-47854285D02*
X62857428Y-47925714D01*
X62857428Y-47925714D02*
X62785999Y-48068571D01*
X62785999Y-48068571D02*
X62785999Y-48425714D01*
X62785999Y-48425714D02*
X62857428Y-48568571D01*
X62857428Y-48568571D02*
X62928857Y-48640000D01*
X62928857Y-48640000D02*
X63071714Y-48711428D01*
X63071714Y-48711428D02*
X63428857Y-48711428D01*
X63428857Y-48711428D02*
X63571714Y-48640000D01*
X63571714Y-48640000D02*
X63643142Y-48568571D01*
X62357428Y-47211428D02*
X61857428Y-48711428D01*
X61857428Y-48711428D02*
X61357428Y-47211428D01*
X78033714Y-77921428D02*
X78533714Y-77207142D01*
X78890857Y-77921428D02*
X78890857Y-76421428D01*
X78890857Y-76421428D02*
X78319428Y-76421428D01*
X78319428Y-76421428D02*
X78176571Y-76492857D01*
X78176571Y-76492857D02*
X78105142Y-76564285D01*
X78105142Y-76564285D02*
X78033714Y-76707142D01*
X78033714Y-76707142D02*
X78033714Y-76921428D01*
X78033714Y-76921428D02*
X78105142Y-77064285D01*
X78105142Y-77064285D02*
X78176571Y-77135714D01*
X78176571Y-77135714D02*
X78319428Y-77207142D01*
X78319428Y-77207142D02*
X78890857Y-77207142D01*
X77390857Y-77135714D02*
X76890857Y-77135714D01*
X76676571Y-77921428D02*
X77390857Y-77921428D01*
X77390857Y-77921428D02*
X77390857Y-76421428D01*
X77390857Y-76421428D02*
X76676571Y-76421428D01*
X76247999Y-76421428D02*
X75747999Y-77921428D01*
X75747999Y-77921428D02*
X75247999Y-76421428D01*
X72819428Y-77921428D02*
X73676571Y-77921428D01*
X73248000Y-77921428D02*
X73248000Y-76421428D01*
X73248000Y-76421428D02*
X73390857Y-76635714D01*
X73390857Y-76635714D02*
X73533714Y-76778571D01*
X73533714Y-76778571D02*
X73676571Y-76850000D01*
X72176572Y-77778571D02*
X72105143Y-77850000D01*
X72105143Y-77850000D02*
X72176572Y-77921428D01*
X72176572Y-77921428D02*
X72248000Y-77850000D01*
X72248000Y-77850000D02*
X72176572Y-77778571D01*
X72176572Y-77778571D02*
X72176572Y-77921428D01*
X71176571Y-76421428D02*
X71033714Y-76421428D01*
X71033714Y-76421428D02*
X70890857Y-76492857D01*
X70890857Y-76492857D02*
X70819429Y-76564285D01*
X70819429Y-76564285D02*
X70748000Y-76707142D01*
X70748000Y-76707142D02*
X70676571Y-76992857D01*
X70676571Y-76992857D02*
X70676571Y-77350000D01*
X70676571Y-77350000D02*
X70748000Y-77635714D01*
X70748000Y-77635714D02*
X70819429Y-77778571D01*
X70819429Y-77778571D02*
X70890857Y-77850000D01*
X70890857Y-77850000D02*
X71033714Y-77921428D01*
X71033714Y-77921428D02*
X71176571Y-77921428D01*
X71176571Y-77921428D02*
X71319429Y-77850000D01*
X71319429Y-77850000D02*
X71390857Y-77778571D01*
X71390857Y-77778571D02*
X71462286Y-77635714D01*
X71462286Y-77635714D02*
X71533714Y-77350000D01*
X71533714Y-77350000D02*
X71533714Y-76992857D01*
X71533714Y-76992857D02*
X71462286Y-76707142D01*
X71462286Y-76707142D02*
X71390857Y-76564285D01*
X71390857Y-76564285D02*
X71319429Y-76492857D01*
X71319429Y-76492857D02*
X71176571Y-76421428D01*
X81978571Y-75381428D02*
X82121428Y-75310000D01*
X82121428Y-75310000D02*
X82192857Y-75167142D01*
X82192857Y-75167142D02*
X82192857Y-73881428D01*
X81407143Y-75381428D02*
X81407143Y-74381428D01*
X81407143Y-73881428D02*
X81478571Y-73952857D01*
X81478571Y-73952857D02*
X81407143Y-74024285D01*
X81407143Y-74024285D02*
X81335714Y-73952857D01*
X81335714Y-73952857D02*
X81407143Y-73881428D01*
X81407143Y-73881428D02*
X81407143Y-74024285D01*
X80050000Y-74381428D02*
X80050000Y-75595714D01*
X80050000Y-75595714D02*
X80121428Y-75738571D01*
X80121428Y-75738571D02*
X80192857Y-75810000D01*
X80192857Y-75810000D02*
X80335714Y-75881428D01*
X80335714Y-75881428D02*
X80550000Y-75881428D01*
X80550000Y-75881428D02*
X80692857Y-75810000D01*
X80050000Y-75310000D02*
X80192857Y-75381428D01*
X80192857Y-75381428D02*
X80478571Y-75381428D01*
X80478571Y-75381428D02*
X80621428Y-75310000D01*
X80621428Y-75310000D02*
X80692857Y-75238571D01*
X80692857Y-75238571D02*
X80764285Y-75095714D01*
X80764285Y-75095714D02*
X80764285Y-74667142D01*
X80764285Y-74667142D02*
X80692857Y-74524285D01*
X80692857Y-74524285D02*
X80621428Y-74452857D01*
X80621428Y-74452857D02*
X80478571Y-74381428D01*
X80478571Y-74381428D02*
X80192857Y-74381428D01*
X80192857Y-74381428D02*
X80050000Y-74452857D01*
X79335714Y-75381428D02*
X79335714Y-73881428D01*
X78692857Y-75381428D02*
X78692857Y-74595714D01*
X78692857Y-74595714D02*
X78764285Y-74452857D01*
X78764285Y-74452857D02*
X78907142Y-74381428D01*
X78907142Y-74381428D02*
X79121428Y-74381428D01*
X79121428Y-74381428D02*
X79264285Y-74452857D01*
X79264285Y-74452857D02*
X79335714Y-74524285D01*
X78192856Y-74381428D02*
X77621428Y-74381428D01*
X77978571Y-73881428D02*
X77978571Y-75167142D01*
X77978571Y-75167142D02*
X77907142Y-75310000D01*
X77907142Y-75310000D02*
X77764285Y-75381428D01*
X77764285Y-75381428D02*
X77621428Y-75381428D01*
X76478571Y-75310000D02*
X76621428Y-75381428D01*
X76621428Y-75381428D02*
X76907142Y-75381428D01*
X76907142Y-75381428D02*
X77049999Y-75310000D01*
X77049999Y-75310000D02*
X77121428Y-75238571D01*
X77121428Y-75238571D02*
X77192856Y-75095714D01*
X77192856Y-75095714D02*
X77192856Y-74667142D01*
X77192856Y-74667142D02*
X77121428Y-74524285D01*
X77121428Y-74524285D02*
X77049999Y-74452857D01*
X77049999Y-74452857D02*
X76907142Y-74381428D01*
X76907142Y-74381428D02*
X76621428Y-74381428D01*
X76621428Y-74381428D02*
X76478571Y-74452857D01*
X75621428Y-75381428D02*
X75764285Y-75310000D01*
X75764285Y-75310000D02*
X75835714Y-75238571D01*
X75835714Y-75238571D02*
X75907142Y-75095714D01*
X75907142Y-75095714D02*
X75907142Y-74667142D01*
X75907142Y-74667142D02*
X75835714Y-74524285D01*
X75835714Y-74524285D02*
X75764285Y-74452857D01*
X75764285Y-74452857D02*
X75621428Y-74381428D01*
X75621428Y-74381428D02*
X75407142Y-74381428D01*
X75407142Y-74381428D02*
X75264285Y-74452857D01*
X75264285Y-74452857D02*
X75192857Y-74524285D01*
X75192857Y-74524285D02*
X75121428Y-74667142D01*
X75121428Y-74667142D02*
X75121428Y-75095714D01*
X75121428Y-75095714D02*
X75192857Y-75238571D01*
X75192857Y-75238571D02*
X75264285Y-75310000D01*
X75264285Y-75310000D02*
X75407142Y-75381428D01*
X75407142Y-75381428D02*
X75621428Y-75381428D01*
X74478571Y-74381428D02*
X74478571Y-75381428D01*
X74478571Y-74524285D02*
X74407142Y-74452857D01*
X74407142Y-74452857D02*
X74264285Y-74381428D01*
X74264285Y-74381428D02*
X74049999Y-74381428D01*
X74049999Y-74381428D02*
X73907142Y-74452857D01*
X73907142Y-74452857D02*
X73835714Y-74595714D01*
X73835714Y-74595714D02*
X73835714Y-75381428D01*
X73335713Y-74381428D02*
X72764285Y-74381428D01*
X73121428Y-73881428D02*
X73121428Y-75167142D01*
X73121428Y-75167142D02*
X73049999Y-75310000D01*
X73049999Y-75310000D02*
X72907142Y-75381428D01*
X72907142Y-75381428D02*
X72764285Y-75381428D01*
X72264285Y-75381428D02*
X72264285Y-74381428D01*
X72264285Y-74667142D02*
X72192856Y-74524285D01*
X72192856Y-74524285D02*
X72121428Y-74452857D01*
X72121428Y-74452857D02*
X71978570Y-74381428D01*
X71978570Y-74381428D02*
X71835713Y-74381428D01*
X71121428Y-75381428D02*
X71264285Y-75310000D01*
X71264285Y-75310000D02*
X71335714Y-75238571D01*
X71335714Y-75238571D02*
X71407142Y-75095714D01*
X71407142Y-75095714D02*
X71407142Y-74667142D01*
X71407142Y-74667142D02*
X71335714Y-74524285D01*
X71335714Y-74524285D02*
X71264285Y-74452857D01*
X71264285Y-74452857D02*
X71121428Y-74381428D01*
X71121428Y-74381428D02*
X70907142Y-74381428D01*
X70907142Y-74381428D02*
X70764285Y-74452857D01*
X70764285Y-74452857D02*
X70692857Y-74524285D01*
X70692857Y-74524285D02*
X70621428Y-74667142D01*
X70621428Y-74667142D02*
X70621428Y-75095714D01*
X70621428Y-75095714D02*
X70692857Y-75238571D01*
X70692857Y-75238571D02*
X70764285Y-75310000D01*
X70764285Y-75310000D02*
X70907142Y-75381428D01*
X70907142Y-75381428D02*
X71121428Y-75381428D01*
X69764285Y-75381428D02*
X69907142Y-75310000D01*
X69907142Y-75310000D02*
X69978571Y-75167142D01*
X69978571Y-75167142D02*
X69978571Y-73881428D01*
X68978571Y-75381428D02*
X69121428Y-75310000D01*
X69121428Y-75310000D02*
X69192857Y-75167142D01*
X69192857Y-75167142D02*
X69192857Y-73881428D01*
X67835714Y-75310000D02*
X67978571Y-75381428D01*
X67978571Y-75381428D02*
X68264286Y-75381428D01*
X68264286Y-75381428D02*
X68407143Y-75310000D01*
X68407143Y-75310000D02*
X68478571Y-75167142D01*
X68478571Y-75167142D02*
X68478571Y-74595714D01*
X68478571Y-74595714D02*
X68407143Y-74452857D01*
X68407143Y-74452857D02*
X68264286Y-74381428D01*
X68264286Y-74381428D02*
X67978571Y-74381428D01*
X67978571Y-74381428D02*
X67835714Y-74452857D01*
X67835714Y-74452857D02*
X67764286Y-74595714D01*
X67764286Y-74595714D02*
X67764286Y-74738571D01*
X67764286Y-74738571D02*
X68478571Y-74881428D01*
X67121429Y-75381428D02*
X67121429Y-74381428D01*
X67121429Y-74667142D02*
X67050000Y-74524285D01*
X67050000Y-74524285D02*
X66978572Y-74452857D01*
X66978572Y-74452857D02*
X66835714Y-74381428D01*
X66835714Y-74381428D02*
X66692857Y-74381428D01*
D11*
%TO.C,IO*%
X64404808Y-54691619D02*
X64404808Y-53691619D01*
X63738142Y-53691619D02*
X63547666Y-53691619D01*
X63547666Y-53691619D02*
X63452428Y-53739238D01*
X63452428Y-53739238D02*
X63357190Y-53834476D01*
X63357190Y-53834476D02*
X63309571Y-54024952D01*
X63309571Y-54024952D02*
X63309571Y-54358285D01*
X63309571Y-54358285D02*
X63357190Y-54548761D01*
X63357190Y-54548761D02*
X63452428Y-54644000D01*
X63452428Y-54644000D02*
X63547666Y-54691619D01*
X63547666Y-54691619D02*
X63738142Y-54691619D01*
X63738142Y-54691619D02*
X63833380Y-54644000D01*
X63833380Y-54644000D02*
X63928618Y-54548761D01*
X63928618Y-54548761D02*
X63976237Y-54358285D01*
X63976237Y-54358285D02*
X63976237Y-54024952D01*
X63976237Y-54024952D02*
X63928618Y-53834476D01*
X63928618Y-53834476D02*
X63833380Y-53739238D01*
X63833380Y-53739238D02*
X63738142Y-53691619D01*
X70023808Y-52462619D02*
X70023808Y-51462619D01*
X69357142Y-51462619D02*
X69166666Y-51462619D01*
X69166666Y-51462619D02*
X69071428Y-51510238D01*
X69071428Y-51510238D02*
X68976190Y-51605476D01*
X68976190Y-51605476D02*
X68928571Y-51795952D01*
X68928571Y-51795952D02*
X68928571Y-52129285D01*
X68928571Y-52129285D02*
X68976190Y-52319761D01*
X68976190Y-52319761D02*
X69071428Y-52415000D01*
X69071428Y-52415000D02*
X69166666Y-52462619D01*
X69166666Y-52462619D02*
X69357142Y-52462619D01*
X69357142Y-52462619D02*
X69452380Y-52415000D01*
X69452380Y-52415000D02*
X69547618Y-52319761D01*
X69547618Y-52319761D02*
X69595237Y-52129285D01*
X69595237Y-52129285D02*
X69595237Y-51795952D01*
X69595237Y-51795952D02*
X69547618Y-51605476D01*
X69547618Y-51605476D02*
X69452380Y-51510238D01*
X69452380Y-51510238D02*
X69357142Y-51462619D01*
X78247808Y-52596619D02*
X78247808Y-51596619D01*
X77581142Y-51596619D02*
X77390666Y-51596619D01*
X77390666Y-51596619D02*
X77295428Y-51644238D01*
X77295428Y-51644238D02*
X77200190Y-51739476D01*
X77200190Y-51739476D02*
X77152571Y-51929952D01*
X77152571Y-51929952D02*
X77152571Y-52263285D01*
X77152571Y-52263285D02*
X77200190Y-52453761D01*
X77200190Y-52453761D02*
X77295428Y-52549000D01*
X77295428Y-52549000D02*
X77390666Y-52596619D01*
X77390666Y-52596619D02*
X77581142Y-52596619D01*
X77581142Y-52596619D02*
X77676380Y-52549000D01*
X77676380Y-52549000D02*
X77771618Y-52453761D01*
X77771618Y-52453761D02*
X77819237Y-52263285D01*
X77819237Y-52263285D02*
X77819237Y-51929952D01*
X77819237Y-51929952D02*
X77771618Y-51739476D01*
X77771618Y-51739476D02*
X77676380Y-51644238D01*
X77676380Y-51644238D02*
X77581142Y-51596619D01*
%TO.C,REF\u002A\u002A*%
D12*
X71269829Y-47925097D02*
X71329753Y-47947355D01*
X71354673Y-47964080D01*
X71379910Y-47988043D01*
X71397912Y-48018526D01*
X71409858Y-48060023D01*
X71416930Y-48117032D01*
X71420308Y-48194047D01*
X71421171Y-48295565D01*
X71421002Y-48348027D01*
X71420153Y-48419715D01*
X71418711Y-48476925D01*
X71416814Y-48514809D01*
X71414597Y-48528514D01*
X71400172Y-48523981D01*
X71371054Y-48511670D01*
X71370181Y-48511272D01*
X71355060Y-48503356D01*
X71344891Y-48492495D01*
X71338691Y-48473471D01*
X71335478Y-48441069D01*
X71334270Y-48390071D01*
X71334086Y-48315261D01*
X71333714Y-48267804D01*
X71329750Y-48178615D01*
X71320673Y-48113287D01*
X71305524Y-48068393D01*
X71283345Y-48040507D01*
X71253175Y-48026203D01*
X71248990Y-48025206D01*
X71192480Y-48024427D01*
X71148410Y-48049744D01*
X71117972Y-48100502D01*
X71112544Y-48115175D01*
X71100171Y-48147649D01*
X71093905Y-48162572D01*
X71081036Y-48160516D01*
X71052933Y-48149357D01*
X71026721Y-48130927D01*
X71014771Y-48096098D01*
X71018336Y-48071151D01*
X71040235Y-48020547D01*
X71075644Y-47973128D01*
X71117052Y-47940334D01*
X71134400Y-47932752D01*
X71200089Y-47920076D01*
X71269829Y-47925097D01*
G36*
X71269829Y-47925097D02*
G01*
X71329753Y-47947355D01*
X71354673Y-47964080D01*
X71379910Y-47988043D01*
X71397912Y-48018526D01*
X71409858Y-48060023D01*
X71416930Y-48117032D01*
X71420308Y-48194047D01*
X71421171Y-48295565D01*
X71421002Y-48348027D01*
X71420153Y-48419715D01*
X71418711Y-48476925D01*
X71416814Y-48514809D01*
X71414597Y-48528514D01*
X71400172Y-48523981D01*
X71371054Y-48511670D01*
X71370181Y-48511272D01*
X71355060Y-48503356D01*
X71344891Y-48492495D01*
X71338691Y-48473471D01*
X71335478Y-48441069D01*
X71334270Y-48390071D01*
X71334086Y-48315261D01*
X71333714Y-48267804D01*
X71329750Y-48178615D01*
X71320673Y-48113287D01*
X71305524Y-48068393D01*
X71283345Y-48040507D01*
X71253175Y-48026203D01*
X71248990Y-48025206D01*
X71192480Y-48024427D01*
X71148410Y-48049744D01*
X71117972Y-48100502D01*
X71112544Y-48115175D01*
X71100171Y-48147649D01*
X71093905Y-48162572D01*
X71081036Y-48160516D01*
X71052933Y-48149357D01*
X71026721Y-48130927D01*
X71014771Y-48096098D01*
X71018336Y-48071151D01*
X71040235Y-48020547D01*
X71075644Y-47973128D01*
X71117052Y-47940334D01*
X71134400Y-47932752D01*
X71200089Y-47920076D01*
X71269829Y-47925097D01*
G37*
X75218020Y-47891822D02*
X75285810Y-47923680D01*
X75341366Y-47978770D01*
X75352881Y-47996016D01*
X75362432Y-48015562D01*
X75369206Y-48040198D01*
X75373819Y-48074711D01*
X75376888Y-48123889D01*
X75379029Y-48192519D01*
X75380859Y-48285389D01*
X75385404Y-48543007D01*
X75347225Y-48528491D01*
X75312268Y-48515156D01*
X75286097Y-48502323D01*
X75269013Y-48485780D01*
X75259086Y-48460465D01*
X75254386Y-48421316D01*
X75252982Y-48363268D01*
X75252943Y-48281261D01*
X75252744Y-48215895D01*
X75251559Y-48153173D01*
X75248729Y-48110334D01*
X75243609Y-48082220D01*
X75235553Y-48063675D01*
X75223914Y-48049543D01*
X75195303Y-48029600D01*
X75147239Y-48022083D01*
X75099688Y-48041079D01*
X75096550Y-48043511D01*
X75086769Y-48054748D01*
X75079553Y-48072770D01*
X75074299Y-48102026D01*
X75070402Y-48146962D01*
X75067256Y-48212028D01*
X75064257Y-48301670D01*
X75057000Y-48541697D01*
X74995314Y-48514044D01*
X74933629Y-48486391D01*
X74933629Y-48267246D01*
X74933884Y-48207711D01*
X74936086Y-48124892D01*
X74941661Y-48063227D01*
X74951941Y-48017748D01*
X74968258Y-47983484D01*
X74991943Y-47955466D01*
X75024328Y-47928723D01*
X75070907Y-47901780D01*
X75144287Y-47884191D01*
X75218020Y-47891822D01*
G36*
X75218020Y-47891822D02*
G01*
X75285810Y-47923680D01*
X75341366Y-47978770D01*
X75352881Y-47996016D01*
X75362432Y-48015562D01*
X75369206Y-48040198D01*
X75373819Y-48074711D01*
X75376888Y-48123889D01*
X75379029Y-48192519D01*
X75380859Y-48285389D01*
X75385404Y-48543007D01*
X75347225Y-48528491D01*
X75312268Y-48515156D01*
X75286097Y-48502323D01*
X75269013Y-48485780D01*
X75259086Y-48460465D01*
X75254386Y-48421316D01*
X75252982Y-48363268D01*
X75252943Y-48281261D01*
X75252744Y-48215895D01*
X75251559Y-48153173D01*
X75248729Y-48110334D01*
X75243609Y-48082220D01*
X75235553Y-48063675D01*
X75223914Y-48049543D01*
X75195303Y-48029600D01*
X75147239Y-48022083D01*
X75099688Y-48041079D01*
X75096550Y-48043511D01*
X75086769Y-48054748D01*
X75079553Y-48072770D01*
X75074299Y-48102026D01*
X75070402Y-48146962D01*
X75067256Y-48212028D01*
X75064257Y-48301670D01*
X75057000Y-48541697D01*
X74995314Y-48514044D01*
X74933629Y-48486391D01*
X74933629Y-48267246D01*
X74933884Y-48207711D01*
X74936086Y-48124892D01*
X74941661Y-48063227D01*
X74951941Y-48017748D01*
X74968258Y-47983484D01*
X74991943Y-47955466D01*
X75024328Y-47928723D01*
X75070907Y-47901780D01*
X75144287Y-47884191D01*
X75218020Y-47891822D01*
G37*
X73394691Y-47940467D02*
X73399273Y-47943003D01*
X73436704Y-47972057D01*
X73470170Y-48009410D01*
X73476007Y-48017852D01*
X73487165Y-48037553D01*
X73495136Y-48060935D01*
X73500618Y-48093067D01*
X73504307Y-48139019D01*
X73506899Y-48203859D01*
X73509092Y-48292657D01*
X73509402Y-48307669D01*
X73510400Y-48404999D01*
X73508994Y-48473934D01*
X73505164Y-48514948D01*
X73498889Y-48528514D01*
X73479898Y-48524452D01*
X73447638Y-48512144D01*
X73440041Y-48508545D01*
X73428176Y-48500398D01*
X73419994Y-48487004D01*
X73414643Y-48463608D01*
X73411269Y-48425455D01*
X73409019Y-48367790D01*
X73407040Y-48285857D01*
X73406498Y-48261907D01*
X73404403Y-48186266D01*
X73401683Y-48133328D01*
X73397515Y-48098075D01*
X73391079Y-48075487D01*
X73381550Y-48060544D01*
X73368106Y-48048227D01*
X73328305Y-48026634D01*
X73279341Y-48022476D01*
X73235529Y-48038999D01*
X73204008Y-48073210D01*
X73191914Y-48122114D01*
X73191578Y-48135407D01*
X73184972Y-48159472D01*
X73165470Y-48163144D01*
X73127283Y-48148813D01*
X73118438Y-48144217D01*
X73094534Y-48117186D01*
X73094061Y-48076994D01*
X73116836Y-48021409D01*
X73137727Y-47991117D01*
X73191142Y-47948084D01*
X73257074Y-47923755D01*
X73327574Y-47920443D01*
X73394691Y-47940467D01*
G36*
X73394691Y-47940467D02*
G01*
X73399273Y-47943003D01*
X73436704Y-47972057D01*
X73470170Y-48009410D01*
X73476007Y-48017852D01*
X73487165Y-48037553D01*
X73495136Y-48060935D01*
X73500618Y-48093067D01*
X73504307Y-48139019D01*
X73506899Y-48203859D01*
X73509092Y-48292657D01*
X73509402Y-48307669D01*
X73510400Y-48404999D01*
X73508994Y-48473934D01*
X73505164Y-48514948D01*
X73498889Y-48528514D01*
X73479898Y-48524452D01*
X73447638Y-48512144D01*
X73440041Y-48508545D01*
X73428176Y-48500398D01*
X73419994Y-48487004D01*
X73414643Y-48463608D01*
X73411269Y-48425455D01*
X73409019Y-48367790D01*
X73407040Y-48285857D01*
X73406498Y-48261907D01*
X73404403Y-48186266D01*
X73401683Y-48133328D01*
X73397515Y-48098075D01*
X73391079Y-48075487D01*
X73381550Y-48060544D01*
X73368106Y-48048227D01*
X73328305Y-48026634D01*
X73279341Y-48022476D01*
X73235529Y-48038999D01*
X73204008Y-48073210D01*
X73191914Y-48122114D01*
X73191578Y-48135407D01*
X73184972Y-48159472D01*
X73165470Y-48163144D01*
X73127283Y-48148813D01*
X73118438Y-48144217D01*
X73094534Y-48117186D01*
X73094061Y-48076994D01*
X73116836Y-48021409D01*
X73137727Y-47991117D01*
X73191142Y-47948084D01*
X73257074Y-47923755D01*
X73327574Y-47920443D01*
X73394691Y-47940467D01*
G37*
X74465543Y-47723444D02*
X74512714Y-47743342D01*
X74512714Y-48140509D01*
X74512519Y-48243498D01*
X74511998Y-48336141D01*
X74511199Y-48414700D01*
X74510172Y-48475439D01*
X74508963Y-48514623D01*
X74507623Y-48528514D01*
X74507099Y-48528468D01*
X74489287Y-48523420D01*
X74456823Y-48512580D01*
X74411114Y-48496646D01*
X74411114Y-48292173D01*
X74410824Y-48211832D01*
X74409474Y-48153562D01*
X74406369Y-48113909D01*
X74400812Y-48087618D01*
X74392107Y-48069436D01*
X74379556Y-48054107D01*
X74370999Y-48045955D01*
X74324728Y-48023375D01*
X74273728Y-48025375D01*
X74226993Y-48052073D01*
X74220189Y-48058698D01*
X74209293Y-48072456D01*
X74201836Y-48090642D01*
X74197169Y-48118177D01*
X74194642Y-48159981D01*
X74193602Y-48220973D01*
X74193400Y-48306073D01*
X74193303Y-48349234D01*
X74192674Y-48420224D01*
X74191556Y-48477076D01*
X74190063Y-48514828D01*
X74188309Y-48528514D01*
X74187785Y-48528468D01*
X74169973Y-48523420D01*
X74137509Y-48512580D01*
X74091800Y-48496646D01*
X74091823Y-48291237D01*
X74091857Y-48272951D01*
X74093778Y-48177626D01*
X74099678Y-48105543D01*
X74111001Y-48051813D01*
X74129187Y-48011549D01*
X74155679Y-47979861D01*
X74191918Y-47951861D01*
X74227263Y-47934333D01*
X74283773Y-47920785D01*
X74339356Y-47920015D01*
X74382086Y-47933195D01*
X74385298Y-47935015D01*
X74395205Y-47934820D01*
X74401975Y-47919572D01*
X74406861Y-47884613D01*
X74411114Y-47825289D01*
X74418371Y-47703547D01*
X74465543Y-47723444D01*
G36*
X74465543Y-47723444D02*
G01*
X74512714Y-47743342D01*
X74512714Y-48140509D01*
X74512519Y-48243498D01*
X74511998Y-48336141D01*
X74511199Y-48414700D01*
X74510172Y-48475439D01*
X74508963Y-48514623D01*
X74507623Y-48528514D01*
X74507099Y-48528468D01*
X74489287Y-48523420D01*
X74456823Y-48512580D01*
X74411114Y-48496646D01*
X74411114Y-48292173D01*
X74410824Y-48211832D01*
X74409474Y-48153562D01*
X74406369Y-48113909D01*
X74400812Y-48087618D01*
X74392107Y-48069436D01*
X74379556Y-48054107D01*
X74370999Y-48045955D01*
X74324728Y-48023375D01*
X74273728Y-48025375D01*
X74226993Y-48052073D01*
X74220189Y-48058698D01*
X74209293Y-48072456D01*
X74201836Y-48090642D01*
X74197169Y-48118177D01*
X74194642Y-48159981D01*
X74193602Y-48220973D01*
X74193400Y-48306073D01*
X74193303Y-48349234D01*
X74192674Y-48420224D01*
X74191556Y-48477076D01*
X74190063Y-48514828D01*
X74188309Y-48528514D01*
X74187785Y-48528468D01*
X74169973Y-48523420D01*
X74137509Y-48512580D01*
X74091800Y-48496646D01*
X74091823Y-48291237D01*
X74091857Y-48272951D01*
X74093778Y-48177626D01*
X74099678Y-48105543D01*
X74111001Y-48051813D01*
X74129187Y-48011549D01*
X74155679Y-47979861D01*
X74191918Y-47951861D01*
X74227263Y-47934333D01*
X74283773Y-47920785D01*
X74339356Y-47920015D01*
X74382086Y-47933195D01*
X74385298Y-47935015D01*
X74395205Y-47934820D01*
X74401975Y-47919572D01*
X74406861Y-47884613D01*
X74411114Y-47825289D01*
X74418371Y-47703547D01*
X74465543Y-47723444D01*
G37*
X72440941Y-47923282D02*
X72472774Y-47935758D01*
X72509743Y-47952602D01*
X72509743Y-48439196D01*
X72463812Y-48485127D01*
X72453320Y-48495427D01*
X72424255Y-48518320D01*
X72394943Y-48525735D01*
X72351326Y-48522321D01*
X72333568Y-48520114D01*
X72287767Y-48515445D01*
X72255743Y-48513585D01*
X72246244Y-48513869D01*
X72207274Y-48516948D01*
X72160160Y-48522321D01*
X72145085Y-48524168D01*
X72107110Y-48524893D01*
X72079325Y-48513429D01*
X72047674Y-48485127D01*
X72001743Y-48439196D01*
X72001743Y-48179055D01*
X72002101Y-48102180D01*
X72003216Y-48028886D01*
X72004952Y-47970850D01*
X72007167Y-47932663D01*
X72009721Y-47918914D01*
X72010256Y-47918951D01*
X72028808Y-47925793D01*
X72060153Y-47940868D01*
X72102608Y-47962822D01*
X72106604Y-48191240D01*
X72110600Y-48419657D01*
X72197686Y-48419657D01*
X72201657Y-48169286D01*
X72202916Y-48101227D01*
X72204718Y-48028482D01*
X72206671Y-47970730D01*
X72208612Y-47932648D01*
X72210377Y-47918914D01*
X72210885Y-47918962D01*
X72228482Y-47924015D01*
X72260834Y-47934849D01*
X72306543Y-47950783D01*
X72306765Y-48170706D01*
X72306988Y-48208909D01*
X72308531Y-48283146D01*
X72311292Y-48345145D01*
X72314977Y-48389308D01*
X72319292Y-48410041D01*
X72334732Y-48421131D01*
X72366241Y-48424556D01*
X72400886Y-48419657D01*
X72404857Y-48169286D01*
X72406278Y-48105663D01*
X72409225Y-48030356D01*
X72413079Y-47971286D01*
X72417542Y-47932718D01*
X72422317Y-47918914D01*
X72440941Y-47923282D01*
G36*
X72440941Y-47923282D02*
G01*
X72472774Y-47935758D01*
X72509743Y-47952602D01*
X72509743Y-48439196D01*
X72463812Y-48485127D01*
X72453320Y-48495427D01*
X72424255Y-48518320D01*
X72394943Y-48525735D01*
X72351326Y-48522321D01*
X72333568Y-48520114D01*
X72287767Y-48515445D01*
X72255743Y-48513585D01*
X72246244Y-48513869D01*
X72207274Y-48516948D01*
X72160160Y-48522321D01*
X72145085Y-48524168D01*
X72107110Y-48524893D01*
X72079325Y-48513429D01*
X72047674Y-48485127D01*
X72001743Y-48439196D01*
X72001743Y-48179055D01*
X72002101Y-48102180D01*
X72003216Y-48028886D01*
X72004952Y-47970850D01*
X72007167Y-47932663D01*
X72009721Y-47918914D01*
X72010256Y-47918951D01*
X72028808Y-47925793D01*
X72060153Y-47940868D01*
X72102608Y-47962822D01*
X72106604Y-48191240D01*
X72110600Y-48419657D01*
X72197686Y-48419657D01*
X72201657Y-48169286D01*
X72202916Y-48101227D01*
X72204718Y-48028482D01*
X72206671Y-47970730D01*
X72208612Y-47932648D01*
X72210377Y-47918914D01*
X72210885Y-47918962D01*
X72228482Y-47924015D01*
X72260834Y-47934849D01*
X72306543Y-47950783D01*
X72306765Y-48170706D01*
X72306988Y-48208909D01*
X72308531Y-48283146D01*
X72311292Y-48345145D01*
X72314977Y-48389308D01*
X72319292Y-48410041D01*
X72334732Y-48421131D01*
X72366241Y-48424556D01*
X72400886Y-48419657D01*
X72404857Y-48169286D01*
X72406278Y-48105663D01*
X72409225Y-48030356D01*
X72413079Y-47971286D01*
X72417542Y-47932718D01*
X72422317Y-47918914D01*
X72440941Y-47923282D01*
G37*
X77052714Y-48209200D02*
X77052701Y-48224935D01*
X77051914Y-48295119D01*
X77049210Y-48344022D01*
X77043606Y-48378178D01*
X77034119Y-48404124D01*
X77019768Y-48428397D01*
X77016237Y-48433433D01*
X76978878Y-48473143D01*
X76936311Y-48503092D01*
X76914452Y-48512810D01*
X76835908Y-48529020D01*
X76758231Y-48518535D01*
X76686645Y-48482707D01*
X76626374Y-48422887D01*
X76621286Y-48414873D01*
X76604730Y-48368342D01*
X76593573Y-48303552D01*
X76588160Y-48228727D01*
X76588768Y-48159513D01*
X76735248Y-48159513D01*
X76736402Y-48255399D01*
X76736866Y-48261569D01*
X76743629Y-48314478D01*
X76755671Y-48348029D01*
X76776005Y-48371016D01*
X76810097Y-48392548D01*
X76843814Y-48393680D01*
X76878543Y-48368857D01*
X76884584Y-48362325D01*
X76896417Y-48342779D01*
X76903404Y-48314386D01*
X76906727Y-48270430D01*
X76907571Y-48204192D01*
X76906125Y-48142150D01*
X76898907Y-48083042D01*
X76884006Y-48045686D01*
X76859636Y-48026152D01*
X76824008Y-48020514D01*
X76810440Y-48021635D01*
X76772430Y-48042194D01*
X76747312Y-48088299D01*
X76735248Y-48159513D01*
X76588768Y-48159513D01*
X76588833Y-48152096D01*
X76595937Y-48081882D01*
X76609815Y-48026312D01*
X76627649Y-47989301D01*
X76677855Y-47931733D01*
X76745885Y-47895962D01*
X76829158Y-47883665D01*
X76851398Y-47884331D01*
X76916891Y-47897947D01*
X76970687Y-47932249D01*
X77020057Y-47991338D01*
X77022995Y-47995722D01*
X77036287Y-48019299D01*
X77044932Y-48045949D01*
X77049904Y-48082159D01*
X77052174Y-48134413D01*
X77052678Y-48204192D01*
X77052714Y-48209200D01*
G36*
X77052714Y-48209200D02*
G01*
X77052701Y-48224935D01*
X77051914Y-48295119D01*
X77049210Y-48344022D01*
X77043606Y-48378178D01*
X77034119Y-48404124D01*
X77019768Y-48428397D01*
X77016237Y-48433433D01*
X76978878Y-48473143D01*
X76936311Y-48503092D01*
X76914452Y-48512810D01*
X76835908Y-48529020D01*
X76758231Y-48518535D01*
X76686645Y-48482707D01*
X76626374Y-48422887D01*
X76621286Y-48414873D01*
X76604730Y-48368342D01*
X76593573Y-48303552D01*
X76588160Y-48228727D01*
X76588768Y-48159513D01*
X76735248Y-48159513D01*
X76736402Y-48255399D01*
X76736866Y-48261569D01*
X76743629Y-48314478D01*
X76755671Y-48348029D01*
X76776005Y-48371016D01*
X76810097Y-48392548D01*
X76843814Y-48393680D01*
X76878543Y-48368857D01*
X76884584Y-48362325D01*
X76896417Y-48342779D01*
X76903404Y-48314386D01*
X76906727Y-48270430D01*
X76907571Y-48204192D01*
X76906125Y-48142150D01*
X76898907Y-48083042D01*
X76884006Y-48045686D01*
X76859636Y-48026152D01*
X76824008Y-48020514D01*
X76810440Y-48021635D01*
X76772430Y-48042194D01*
X76747312Y-48088299D01*
X76735248Y-48159513D01*
X76588768Y-48159513D01*
X76588833Y-48152096D01*
X76595937Y-48081882D01*
X76609815Y-48026312D01*
X76627649Y-47989301D01*
X76677855Y-47931733D01*
X76745885Y-47895962D01*
X76829158Y-47883665D01*
X76851398Y-47884331D01*
X76916891Y-47897947D01*
X76970687Y-47932249D01*
X77020057Y-47991338D01*
X77022995Y-47995722D01*
X77036287Y-48019299D01*
X77044932Y-48045949D01*
X77049904Y-48082159D01*
X77052174Y-48134413D01*
X77052678Y-48204192D01*
X77052714Y-48209200D01*
G37*
X70927590Y-48226622D02*
X70927307Y-48265305D01*
X70923762Y-48341521D01*
X70914483Y-48397294D01*
X70897375Y-48438613D01*
X70870344Y-48471467D01*
X70831292Y-48501846D01*
X70806445Y-48515660D01*
X70766615Y-48524965D01*
X70710665Y-48524230D01*
X70679385Y-48521283D01*
X70641653Y-48512283D01*
X70611494Y-48492720D01*
X70576408Y-48456267D01*
X70571720Y-48450943D01*
X70540177Y-48409969D01*
X70525128Y-48374283D01*
X70521286Y-48331966D01*
X70521286Y-48269779D01*
X70564742Y-48286182D01*
X70596424Y-48305356D01*
X70623962Y-48350347D01*
X70629711Y-48364752D01*
X70661855Y-48405546D01*
X70705611Y-48426081D01*
X70753254Y-48424235D01*
X70797057Y-48397886D01*
X70812111Y-48381455D01*
X70825763Y-48356667D01*
X70821493Y-48334144D01*
X70796916Y-48310964D01*
X70749651Y-48284202D01*
X70677314Y-48250934D01*
X70528543Y-48185816D01*
X70524595Y-48121308D01*
X70526079Y-48080220D01*
X70623010Y-48080220D01*
X70630368Y-48105657D01*
X70663848Y-48132814D01*
X70724614Y-48163714D01*
X70734669Y-48168190D01*
X70782751Y-48189017D01*
X70818726Y-48203665D01*
X70835444Y-48209200D01*
X70837977Y-48205126D01*
X70838993Y-48180247D01*
X70835369Y-48140257D01*
X70826242Y-48101152D01*
X70797773Y-48051884D01*
X70756678Y-48024122D01*
X70707590Y-48020364D01*
X70655144Y-48043109D01*
X70640609Y-48054481D01*
X70623010Y-48080220D01*
X70526079Y-48080220D01*
X70526338Y-48073064D01*
X70548281Y-48012096D01*
X70575979Y-47978497D01*
X70633405Y-47940966D01*
X70701527Y-47922006D01*
X70771947Y-47923507D01*
X70836267Y-47947355D01*
X70850426Y-47956513D01*
X70882904Y-47984849D01*
X70905116Y-48020695D01*
X70918804Y-48069384D01*
X70925715Y-48136249D01*
X70926628Y-48180247D01*
X70927590Y-48226622D01*
G36*
X70927590Y-48226622D02*
G01*
X70927307Y-48265305D01*
X70923762Y-48341521D01*
X70914483Y-48397294D01*
X70897375Y-48438613D01*
X70870344Y-48471467D01*
X70831292Y-48501846D01*
X70806445Y-48515660D01*
X70766615Y-48524965D01*
X70710665Y-48524230D01*
X70679385Y-48521283D01*
X70641653Y-48512283D01*
X70611494Y-48492720D01*
X70576408Y-48456267D01*
X70571720Y-48450943D01*
X70540177Y-48409969D01*
X70525128Y-48374283D01*
X70521286Y-48331966D01*
X70521286Y-48269779D01*
X70564742Y-48286182D01*
X70596424Y-48305356D01*
X70623962Y-48350347D01*
X70629711Y-48364752D01*
X70661855Y-48405546D01*
X70705611Y-48426081D01*
X70753254Y-48424235D01*
X70797057Y-48397886D01*
X70812111Y-48381455D01*
X70825763Y-48356667D01*
X70821493Y-48334144D01*
X70796916Y-48310964D01*
X70749651Y-48284202D01*
X70677314Y-48250934D01*
X70528543Y-48185816D01*
X70524595Y-48121308D01*
X70526079Y-48080220D01*
X70623010Y-48080220D01*
X70630368Y-48105657D01*
X70663848Y-48132814D01*
X70724614Y-48163714D01*
X70734669Y-48168190D01*
X70782751Y-48189017D01*
X70818726Y-48203665D01*
X70835444Y-48209200D01*
X70837977Y-48205126D01*
X70838993Y-48180247D01*
X70835369Y-48140257D01*
X70826242Y-48101152D01*
X70797773Y-48051884D01*
X70756678Y-48024122D01*
X70707590Y-48020364D01*
X70655144Y-48043109D01*
X70640609Y-48054481D01*
X70623010Y-48080220D01*
X70526079Y-48080220D01*
X70526338Y-48073064D01*
X70548281Y-48012096D01*
X70575979Y-47978497D01*
X70633405Y-47940966D01*
X70701527Y-47922006D01*
X70771947Y-47923507D01*
X70836267Y-47947355D01*
X70850426Y-47956513D01*
X70882904Y-47984849D01*
X70905116Y-48020695D01*
X70918804Y-48069384D01*
X70925715Y-48136249D01*
X70926628Y-48180247D01*
X70927590Y-48226622D01*
G37*
X73017698Y-48223714D02*
X73016537Y-48280313D01*
X73008345Y-48357462D01*
X72990519Y-48415276D01*
X72960975Y-48459422D01*
X72917625Y-48495568D01*
X72876332Y-48516463D01*
X72806987Y-48528090D01*
X72737736Y-48515377D01*
X72675145Y-48479945D01*
X72625779Y-48423418D01*
X72619818Y-48412995D01*
X72611945Y-48394733D01*
X72606106Y-48371429D01*
X72601999Y-48339085D01*
X72599325Y-48293704D01*
X72597781Y-48231287D01*
X72597734Y-48225748D01*
X72698429Y-48225748D01*
X72698772Y-48278577D01*
X72700942Y-48326362D01*
X72706307Y-48357209D01*
X72716217Y-48377935D01*
X72732021Y-48395356D01*
X72735724Y-48398705D01*
X72783299Y-48423419D01*
X72833635Y-48420890D01*
X72880517Y-48391288D01*
X72894477Y-48375953D01*
X72906160Y-48355622D01*
X72912686Y-48327514D01*
X72915524Y-48284550D01*
X72916143Y-48219647D01*
X72915837Y-48170122D01*
X72913722Y-48121782D01*
X72908390Y-48090587D01*
X72898460Y-48069647D01*
X72882550Y-48052073D01*
X72873204Y-48044159D01*
X72824776Y-48022843D01*
X72774040Y-48026198D01*
X72729987Y-48054107D01*
X72720504Y-48065173D01*
X72708939Y-48086009D01*
X72702252Y-48115106D01*
X72699173Y-48159381D01*
X72698429Y-48225748D01*
X72597734Y-48225748D01*
X72597067Y-48147837D01*
X72596883Y-48039358D01*
X72596829Y-47702601D01*
X72644000Y-47722362D01*
X72656472Y-47727770D01*
X72676324Y-47739985D01*
X72687687Y-47758482D01*
X72693933Y-47790829D01*
X72698429Y-47844593D01*
X72702535Y-47892866D01*
X72707963Y-47924557D01*
X72715739Y-47936383D01*
X72727457Y-47933212D01*
X72757318Y-47922067D01*
X72810684Y-47919304D01*
X72868093Y-47929625D01*
X72917625Y-47951861D01*
X72944876Y-47972443D01*
X72979865Y-48012600D01*
X73002274Y-48064086D01*
X73014190Y-48132568D01*
X73017542Y-48219647D01*
X73017698Y-48223714D01*
G36*
X73017698Y-48223714D02*
G01*
X73016537Y-48280313D01*
X73008345Y-48357462D01*
X72990519Y-48415276D01*
X72960975Y-48459422D01*
X72917625Y-48495568D01*
X72876332Y-48516463D01*
X72806987Y-48528090D01*
X72737736Y-48515377D01*
X72675145Y-48479945D01*
X72625779Y-48423418D01*
X72619818Y-48412995D01*
X72611945Y-48394733D01*
X72606106Y-48371429D01*
X72601999Y-48339085D01*
X72599325Y-48293704D01*
X72597781Y-48231287D01*
X72597734Y-48225748D01*
X72698429Y-48225748D01*
X72698772Y-48278577D01*
X72700942Y-48326362D01*
X72706307Y-48357209D01*
X72716217Y-48377935D01*
X72732021Y-48395356D01*
X72735724Y-48398705D01*
X72783299Y-48423419D01*
X72833635Y-48420890D01*
X72880517Y-48391288D01*
X72894477Y-48375953D01*
X72906160Y-48355622D01*
X72912686Y-48327514D01*
X72915524Y-48284550D01*
X72916143Y-48219647D01*
X72915837Y-48170122D01*
X72913722Y-48121782D01*
X72908390Y-48090587D01*
X72898460Y-48069647D01*
X72882550Y-48052073D01*
X72873204Y-48044159D01*
X72824776Y-48022843D01*
X72774040Y-48026198D01*
X72729987Y-48054107D01*
X72720504Y-48065173D01*
X72708939Y-48086009D01*
X72702252Y-48115106D01*
X72699173Y-48159381D01*
X72698429Y-48225748D01*
X72597734Y-48225748D01*
X72597067Y-48147837D01*
X72596883Y-48039358D01*
X72596829Y-47702601D01*
X72644000Y-47722362D01*
X72656472Y-47727770D01*
X72676324Y-47739985D01*
X72687687Y-47758482D01*
X72693933Y-47790829D01*
X72698429Y-47844593D01*
X72702535Y-47892866D01*
X72707963Y-47924557D01*
X72715739Y-47936383D01*
X72727457Y-47933212D01*
X72757318Y-47922067D01*
X72810684Y-47919304D01*
X72868093Y-47929625D01*
X72917625Y-47951861D01*
X72944876Y-47972443D01*
X72979865Y-48012600D01*
X73002274Y-48064086D01*
X73014190Y-48132568D01*
X73017542Y-48219647D01*
X73017698Y-48223714D01*
G37*
X75949299Y-48168055D02*
X75944684Y-48278078D01*
X75942078Y-48301387D01*
X75922660Y-48384352D01*
X75887573Y-48447448D01*
X75834212Y-48495808D01*
X75831196Y-48497804D01*
X75763362Y-48526185D01*
X75692535Y-48528711D01*
X75624289Y-48507097D01*
X75564196Y-48463062D01*
X75517829Y-48398322D01*
X75517050Y-48396761D01*
X75501643Y-48356558D01*
X75490357Y-48310866D01*
X75484370Y-48267972D01*
X75484861Y-48236160D01*
X75493007Y-48223714D01*
X75500244Y-48224471D01*
X75534851Y-48238235D01*
X75574078Y-48263546D01*
X75607448Y-48292845D01*
X75624483Y-48318572D01*
X75642192Y-48353471D01*
X75678485Y-48385212D01*
X75720630Y-48397886D01*
X75736077Y-48394221D01*
X75766569Y-48375774D01*
X75793128Y-48350166D01*
X75804486Y-48326934D01*
X75804482Y-48326848D01*
X75791596Y-48316179D01*
X75757241Y-48296933D01*
X75706593Y-48271813D01*
X75644829Y-48243524D01*
X75644489Y-48243374D01*
X75577388Y-48213498D01*
X75532411Y-48191973D01*
X75505145Y-48175437D01*
X75491178Y-48160531D01*
X75486097Y-48143893D01*
X75485490Y-48122162D01*
X75489712Y-48081013D01*
X75633000Y-48081013D01*
X75647791Y-48093949D01*
X75684644Y-48113333D01*
X75685725Y-48113881D01*
X75729205Y-48134587D01*
X75768102Y-48151105D01*
X75792778Y-48158093D01*
X75802676Y-48148753D01*
X75804486Y-48116748D01*
X75796966Y-48076915D01*
X75770897Y-48040717D01*
X75733154Y-48021950D01*
X75691077Y-48023845D01*
X75652005Y-48049632D01*
X75636647Y-48067451D01*
X75633000Y-48081013D01*
X75489712Y-48081013D01*
X75490833Y-48070086D01*
X75517251Y-47999335D01*
X75561473Y-47943735D01*
X75618697Y-47905239D01*
X75684120Y-47885797D01*
X75752937Y-47887359D01*
X75820347Y-47911878D01*
X75881544Y-47961302D01*
X75915450Y-48010212D01*
X75939806Y-48080027D01*
X75943767Y-48116748D01*
X75949299Y-48168055D01*
G36*
X75949299Y-48168055D02*
G01*
X75944684Y-48278078D01*
X75942078Y-48301387D01*
X75922660Y-48384352D01*
X75887573Y-48447448D01*
X75834212Y-48495808D01*
X75831196Y-48497804D01*
X75763362Y-48526185D01*
X75692535Y-48528711D01*
X75624289Y-48507097D01*
X75564196Y-48463062D01*
X75517829Y-48398322D01*
X75517050Y-48396761D01*
X75501643Y-48356558D01*
X75490357Y-48310866D01*
X75484370Y-48267972D01*
X75484861Y-48236160D01*
X75493007Y-48223714D01*
X75500244Y-48224471D01*
X75534851Y-48238235D01*
X75574078Y-48263546D01*
X75607448Y-48292845D01*
X75624483Y-48318572D01*
X75642192Y-48353471D01*
X75678485Y-48385212D01*
X75720630Y-48397886D01*
X75736077Y-48394221D01*
X75766569Y-48375774D01*
X75793128Y-48350166D01*
X75804486Y-48326934D01*
X75804482Y-48326848D01*
X75791596Y-48316179D01*
X75757241Y-48296933D01*
X75706593Y-48271813D01*
X75644829Y-48243524D01*
X75644489Y-48243374D01*
X75577388Y-48213498D01*
X75532411Y-48191973D01*
X75505145Y-48175437D01*
X75491178Y-48160531D01*
X75486097Y-48143893D01*
X75485490Y-48122162D01*
X75489712Y-48081013D01*
X75633000Y-48081013D01*
X75647791Y-48093949D01*
X75684644Y-48113333D01*
X75685725Y-48113881D01*
X75729205Y-48134587D01*
X75768102Y-48151105D01*
X75792778Y-48158093D01*
X75802676Y-48148753D01*
X75804486Y-48116748D01*
X75796966Y-48076915D01*
X75770897Y-48040717D01*
X75733154Y-48021950D01*
X75691077Y-48023845D01*
X75652005Y-48049632D01*
X75636647Y-48067451D01*
X75633000Y-48081013D01*
X75489712Y-48081013D01*
X75490833Y-48070086D01*
X75517251Y-47999335D01*
X75561473Y-47943735D01*
X75618697Y-47905239D01*
X75684120Y-47885797D01*
X75752937Y-47887359D01*
X75820347Y-47911878D01*
X75881544Y-47961302D01*
X75915450Y-48010212D01*
X75939806Y-48080027D01*
X75943767Y-48116748D01*
X75949299Y-48168055D01*
G37*
X73876483Y-47934569D02*
X73926376Y-47963661D01*
X73948325Y-47986327D01*
X73990504Y-48054082D01*
X74004714Y-48127950D01*
X74004714Y-48178770D01*
X73957999Y-48159128D01*
X73925692Y-48139308D01*
X73900231Y-48098160D01*
X73897616Y-48089675D01*
X73869478Y-48046451D01*
X73827067Y-48023103D01*
X73778370Y-48022100D01*
X73731373Y-48045914D01*
X73724357Y-48052056D01*
X73700893Y-48078745D01*
X73697019Y-48102014D01*
X73714768Y-48124862D01*
X73756179Y-48150287D01*
X73823286Y-48181288D01*
X73827824Y-48183252D01*
X73902322Y-48217990D01*
X73953203Y-48248763D01*
X73984525Y-48279488D01*
X74000343Y-48314082D01*
X74004714Y-48356462D01*
X73998986Y-48403446D01*
X73970062Y-48463585D01*
X73919178Y-48506788D01*
X73882374Y-48519759D01*
X73830434Y-48526856D01*
X73779999Y-48525340D01*
X73743983Y-48514632D01*
X73740158Y-48511966D01*
X73729998Y-48493337D01*
X73737048Y-48460505D01*
X73749297Y-48434735D01*
X73768939Y-48424006D01*
X73806191Y-48424539D01*
X73857908Y-48421462D01*
X73891701Y-48400212D01*
X73903114Y-48360877D01*
X73903104Y-48359747D01*
X73896187Y-48336913D01*
X73872659Y-48315963D01*
X73826914Y-48291815D01*
X73764704Y-48262741D01*
X73723499Y-48246925D01*
X73699712Y-48247944D01*
X73688597Y-48268837D01*
X73685408Y-48312641D01*
X73685400Y-48382393D01*
X73685044Y-48425452D01*
X73683413Y-48478626D01*
X73680761Y-48515022D01*
X73677422Y-48528514D01*
X73676530Y-48528423D01*
X73657237Y-48521110D01*
X73625284Y-48505678D01*
X73581124Y-48482842D01*
X73586371Y-48277078D01*
X73586736Y-48263432D01*
X73590904Y-48167651D01*
X73598268Y-48095462D01*
X73610330Y-48042058D01*
X73628593Y-48002633D01*
X73654560Y-47972380D01*
X73689733Y-47946493D01*
X73690384Y-47946087D01*
X73747256Y-47924968D01*
X73813033Y-47921400D01*
X73876483Y-47934569D01*
G36*
X73876483Y-47934569D02*
G01*
X73926376Y-47963661D01*
X73948325Y-47986327D01*
X73990504Y-48054082D01*
X74004714Y-48127950D01*
X74004714Y-48178770D01*
X73957999Y-48159128D01*
X73925692Y-48139308D01*
X73900231Y-48098160D01*
X73897616Y-48089675D01*
X73869478Y-48046451D01*
X73827067Y-48023103D01*
X73778370Y-48022100D01*
X73731373Y-48045914D01*
X73724357Y-48052056D01*
X73700893Y-48078745D01*
X73697019Y-48102014D01*
X73714768Y-48124862D01*
X73756179Y-48150287D01*
X73823286Y-48181288D01*
X73827824Y-48183252D01*
X73902322Y-48217990D01*
X73953203Y-48248763D01*
X73984525Y-48279488D01*
X74000343Y-48314082D01*
X74004714Y-48356462D01*
X73998986Y-48403446D01*
X73970062Y-48463585D01*
X73919178Y-48506788D01*
X73882374Y-48519759D01*
X73830434Y-48526856D01*
X73779999Y-48525340D01*
X73743983Y-48514632D01*
X73740158Y-48511966D01*
X73729998Y-48493337D01*
X73737048Y-48460505D01*
X73749297Y-48434735D01*
X73768939Y-48424006D01*
X73806191Y-48424539D01*
X73857908Y-48421462D01*
X73891701Y-48400212D01*
X73903114Y-48360877D01*
X73903104Y-48359747D01*
X73896187Y-48336913D01*
X73872659Y-48315963D01*
X73826914Y-48291815D01*
X73764704Y-48262741D01*
X73723499Y-48246925D01*
X73699712Y-48247944D01*
X73688597Y-48268837D01*
X73685408Y-48312641D01*
X73685400Y-48382393D01*
X73685044Y-48425452D01*
X73683413Y-48478626D01*
X73680761Y-48515022D01*
X73677422Y-48528514D01*
X73676530Y-48528423D01*
X73657237Y-48521110D01*
X73625284Y-48505678D01*
X73581124Y-48482842D01*
X73586371Y-48277078D01*
X73586736Y-48263432D01*
X73590904Y-48167651D01*
X73598268Y-48095462D01*
X73610330Y-48042058D01*
X73628593Y-48002633D01*
X73654560Y-47972380D01*
X73689733Y-47946493D01*
X73690384Y-47946087D01*
X73747256Y-47924968D01*
X73813033Y-47921400D01*
X73876483Y-47934569D01*
G37*
X76496815Y-48275524D02*
X76498252Y-48387000D01*
X76498651Y-48419339D01*
X76499929Y-48527455D01*
X76500185Y-48610186D01*
X76498634Y-48670426D01*
X76494490Y-48711073D01*
X76486964Y-48735023D01*
X76475271Y-48745171D01*
X76458624Y-48744414D01*
X76436236Y-48735648D01*
X76407321Y-48721769D01*
X76401142Y-48718808D01*
X76375413Y-48704311D01*
X76361976Y-48687065D01*
X76356834Y-48658308D01*
X76355990Y-48609283D01*
X76355952Y-48521257D01*
X76265276Y-48521257D01*
X76209498Y-48518815D01*
X76165640Y-48508908D01*
X76129218Y-48488886D01*
X76126503Y-48486929D01*
X76089546Y-48453869D01*
X76063826Y-48413931D01*
X76047606Y-48361657D01*
X76039148Y-48291588D01*
X76037083Y-48212430D01*
X76181857Y-48212430D01*
X76181882Y-48225697D01*
X76183261Y-48285584D01*
X76187687Y-48324732D01*
X76196461Y-48350153D01*
X76210886Y-48368857D01*
X76211784Y-48369750D01*
X76247237Y-48393952D01*
X76281596Y-48391567D01*
X76320403Y-48362260D01*
X76329895Y-48352244D01*
X76343876Y-48331708D01*
X76351760Y-48304997D01*
X76355245Y-48264499D01*
X76356029Y-48202603D01*
X76355350Y-48165130D01*
X76347983Y-48096980D01*
X76331168Y-48052330D01*
X76303234Y-48027926D01*
X76262509Y-48020514D01*
X76245350Y-48022094D01*
X76215660Y-48037766D01*
X76196031Y-48072691D01*
X76185188Y-48129901D01*
X76181857Y-48212430D01*
X76037083Y-48212430D01*
X76036714Y-48198267D01*
X76037253Y-48130169D01*
X76039707Y-48078587D01*
X76045158Y-48042816D01*
X76054686Y-48016015D01*
X76069371Y-47991338D01*
X76082852Y-47972480D01*
X76131799Y-47921568D01*
X76187256Y-47893918D01*
X76256928Y-47885165D01*
X76336664Y-47893890D01*
X76405595Y-47925185D01*
X76460113Y-47980381D01*
X76464223Y-47986224D01*
X76473808Y-48001753D01*
X76481151Y-48019498D01*
X76486612Y-48043290D01*
X76490550Y-48076958D01*
X76493323Y-48124333D01*
X76495292Y-48189245D01*
X76495528Y-48202603D01*
X76496815Y-48275524D01*
G36*
X76496815Y-48275524D02*
G01*
X76498252Y-48387000D01*
X76498651Y-48419339D01*
X76499929Y-48527455D01*
X76500185Y-48610186D01*
X76498634Y-48670426D01*
X76494490Y-48711073D01*
X76486964Y-48735023D01*
X76475271Y-48745171D01*
X76458624Y-48744414D01*
X76436236Y-48735648D01*
X76407321Y-48721769D01*
X76401142Y-48718808D01*
X76375413Y-48704311D01*
X76361976Y-48687065D01*
X76356834Y-48658308D01*
X76355990Y-48609283D01*
X76355952Y-48521257D01*
X76265276Y-48521257D01*
X76209498Y-48518815D01*
X76165640Y-48508908D01*
X76129218Y-48488886D01*
X76126503Y-48486929D01*
X76089546Y-48453869D01*
X76063826Y-48413931D01*
X76047606Y-48361657D01*
X76039148Y-48291588D01*
X76037083Y-48212430D01*
X76181857Y-48212430D01*
X76181882Y-48225697D01*
X76183261Y-48285584D01*
X76187687Y-48324732D01*
X76196461Y-48350153D01*
X76210886Y-48368857D01*
X76211784Y-48369750D01*
X76247237Y-48393952D01*
X76281596Y-48391567D01*
X76320403Y-48362260D01*
X76329895Y-48352244D01*
X76343876Y-48331708D01*
X76351760Y-48304997D01*
X76355245Y-48264499D01*
X76356029Y-48202603D01*
X76355350Y-48165130D01*
X76347983Y-48096980D01*
X76331168Y-48052330D01*
X76303234Y-48027926D01*
X76262509Y-48020514D01*
X76245350Y-48022094D01*
X76215660Y-48037766D01*
X76196031Y-48072691D01*
X76185188Y-48129901D01*
X76181857Y-48212430D01*
X76037083Y-48212430D01*
X76036714Y-48198267D01*
X76037253Y-48130169D01*
X76039707Y-48078587D01*
X76045158Y-48042816D01*
X76054686Y-48016015D01*
X76069371Y-47991338D01*
X76082852Y-47972480D01*
X76131799Y-47921568D01*
X76187256Y-47893918D01*
X76256928Y-47885165D01*
X76336664Y-47893890D01*
X76405595Y-47925185D01*
X76460113Y-47980381D01*
X76464223Y-47986224D01*
X76473808Y-48001753D01*
X76481151Y-48019498D01*
X76486612Y-48043290D01*
X76490550Y-48076958D01*
X76493323Y-48124333D01*
X76495292Y-48189245D01*
X76495528Y-48202603D01*
X76496815Y-48275524D01*
G37*
X71754495Y-47920220D02*
X71785599Y-47928121D01*
X71814559Y-47947817D01*
X71851831Y-47984484D01*
X71875801Y-48010378D01*
X71900770Y-48043997D01*
X71912031Y-48075506D01*
X71914657Y-48115485D01*
X71914657Y-48180917D01*
X71870035Y-48157842D01*
X71834673Y-48129724D01*
X71810451Y-48091848D01*
X71806291Y-48081551D01*
X71774594Y-48041637D01*
X71730554Y-48021624D01*
X71682531Y-48023572D01*
X71638886Y-48049543D01*
X71620420Y-48070635D01*
X71609663Y-48097619D01*
X71621178Y-48121634D01*
X71656981Y-48145791D01*
X71719090Y-48173199D01*
X71728515Y-48176985D01*
X71785058Y-48201759D01*
X71833580Y-48226189D01*
X71864451Y-48245486D01*
X71895371Y-48279953D01*
X71915927Y-48334957D01*
X71913744Y-48393983D01*
X71889424Y-48449845D01*
X71843568Y-48495355D01*
X71806438Y-48514727D01*
X71734711Y-48528292D01*
X71694852Y-48526462D01*
X71657953Y-48516568D01*
X71643797Y-48495806D01*
X71649091Y-48461613D01*
X71650631Y-48457092D01*
X71662842Y-48433116D01*
X71683174Y-48424042D01*
X71721908Y-48424649D01*
X71749257Y-48425474D01*
X71781257Y-48418392D01*
X71803182Y-48397219D01*
X71815670Y-48371152D01*
X71817062Y-48343845D01*
X71816998Y-48343685D01*
X71800807Y-48328930D01*
X71766155Y-48307457D01*
X71721321Y-48283458D01*
X71674582Y-48261125D01*
X71634217Y-48244652D01*
X71608504Y-48238229D01*
X71604679Y-48244518D01*
X71599864Y-48274115D01*
X71596566Y-48322447D01*
X71595343Y-48383372D01*
X71595058Y-48425542D01*
X71593718Y-48478653D01*
X71591528Y-48515025D01*
X71588769Y-48528514D01*
X71574344Y-48523981D01*
X71545226Y-48511670D01*
X71508257Y-48494826D01*
X71508257Y-48278721D01*
X71508493Y-48223327D01*
X71510729Y-48139207D01*
X71516423Y-48076800D01*
X71526903Y-48031358D01*
X71543497Y-47998133D01*
X71567531Y-47972378D01*
X71600333Y-47949344D01*
X71642124Y-47930335D01*
X71719287Y-47918914D01*
X71754495Y-47920220D01*
G36*
X71754495Y-47920220D02*
G01*
X71785599Y-47928121D01*
X71814559Y-47947817D01*
X71851831Y-47984484D01*
X71875801Y-48010378D01*
X71900770Y-48043997D01*
X71912031Y-48075506D01*
X71914657Y-48115485D01*
X71914657Y-48180917D01*
X71870035Y-48157842D01*
X71834673Y-48129724D01*
X71810451Y-48091848D01*
X71806291Y-48081551D01*
X71774594Y-48041637D01*
X71730554Y-48021624D01*
X71682531Y-48023572D01*
X71638886Y-48049543D01*
X71620420Y-48070635D01*
X71609663Y-48097619D01*
X71621178Y-48121634D01*
X71656981Y-48145791D01*
X71719090Y-48173199D01*
X71728515Y-48176985D01*
X71785058Y-48201759D01*
X71833580Y-48226189D01*
X71864451Y-48245486D01*
X71895371Y-48279953D01*
X71915927Y-48334957D01*
X71913744Y-48393983D01*
X71889424Y-48449845D01*
X71843568Y-48495355D01*
X71806438Y-48514727D01*
X71734711Y-48528292D01*
X71694852Y-48526462D01*
X71657953Y-48516568D01*
X71643797Y-48495806D01*
X71649091Y-48461613D01*
X71650631Y-48457092D01*
X71662842Y-48433116D01*
X71683174Y-48424042D01*
X71721908Y-48424649D01*
X71749257Y-48425474D01*
X71781257Y-48418392D01*
X71803182Y-48397219D01*
X71815670Y-48371152D01*
X71817062Y-48343845D01*
X71816998Y-48343685D01*
X71800807Y-48328930D01*
X71766155Y-48307457D01*
X71721321Y-48283458D01*
X71674582Y-48261125D01*
X71634217Y-48244652D01*
X71608504Y-48238229D01*
X71604679Y-48244518D01*
X71599864Y-48274115D01*
X71596566Y-48322447D01*
X71595343Y-48383372D01*
X71595058Y-48425542D01*
X71593718Y-48478653D01*
X71591528Y-48515025D01*
X71588769Y-48528514D01*
X71574344Y-48523981D01*
X71545226Y-48511670D01*
X71508257Y-48494826D01*
X71508257Y-48278721D01*
X71508493Y-48223327D01*
X71510729Y-48139207D01*
X71516423Y-48076800D01*
X71526903Y-48031358D01*
X71543497Y-47998133D01*
X71567531Y-47972378D01*
X71600333Y-47949344D01*
X71642124Y-47930335D01*
X71719287Y-47918914D01*
X71754495Y-47920220D01*
G37*
X73900933Y-43216371D02*
X73976856Y-43216865D01*
X74031491Y-43218135D01*
X74068500Y-43220547D01*
X74091547Y-43224467D01*
X74104296Y-43230262D01*
X74110411Y-43238299D01*
X74113556Y-43248943D01*
X74113646Y-43249325D01*
X74118814Y-43274347D01*
X74128209Y-43322681D01*
X74140867Y-43389260D01*
X74155825Y-43469014D01*
X74172119Y-43556875D01*
X74173448Y-43564064D01*
X74189691Y-43649340D01*
X74204805Y-43724242D01*
X74217808Y-43784219D01*
X74227715Y-43824717D01*
X74233544Y-43841184D01*
X74233575Y-43841210D01*
X74251943Y-43850320D01*
X74289640Y-43865457D01*
X74338543Y-43883358D01*
X74341297Y-43884330D01*
X74403817Y-43907959D01*
X74476543Y-43937595D01*
X74544294Y-43967062D01*
X74655703Y-44017626D01*
X74902399Y-43849160D01*
X74919775Y-43837311D01*
X74994202Y-43786947D01*
X75060614Y-43742612D01*
X75115039Y-43706916D01*
X75153506Y-43682471D01*
X75172042Y-43671889D01*
X75184743Y-43674315D01*
X75213579Y-43693110D01*
X75258143Y-43730330D01*
X75319670Y-43787020D01*
X75399398Y-43864227D01*
X75406532Y-43871255D01*
X75469796Y-43934222D01*
X75525990Y-43991268D01*
X75571677Y-44038817D01*
X75603414Y-44073297D01*
X75617764Y-44091131D01*
X75617810Y-44091217D01*
X75619633Y-44104795D01*
X75612910Y-44126820D01*
X75595946Y-44160304D01*
X75567044Y-44208261D01*
X75524508Y-44273704D01*
X75466644Y-44359645D01*
X75456783Y-44374151D01*
X75406913Y-44447635D01*
X75362905Y-44512687D01*
X75327380Y-44565417D01*
X75302959Y-44601936D01*
X75292264Y-44618356D01*
X75291458Y-44621834D01*
X75296518Y-44647785D01*
X75311677Y-44690159D01*
X75334463Y-44741728D01*
X75365429Y-44809170D01*
X75400004Y-44889195D01*
X75429366Y-44961629D01*
X75436645Y-44980377D01*
X75455710Y-45028246D01*
X75469715Y-45061596D01*
X75476041Y-45074114D01*
X75483025Y-45075050D01*
X75514413Y-45080461D01*
X75565787Y-45089806D01*
X75631802Y-45102069D01*
X75707113Y-45116232D01*
X75786375Y-45131280D01*
X75864243Y-45146195D01*
X75935370Y-45159961D01*
X75994412Y-45171562D01*
X76036022Y-45179980D01*
X76054857Y-45184199D01*
X76057980Y-45185389D01*
X76065591Y-45191805D01*
X76071254Y-45205465D01*
X76075251Y-45229999D01*
X76077866Y-45269038D01*
X76079384Y-45326213D01*
X76080086Y-45405154D01*
X76080257Y-45509492D01*
X76080257Y-45826799D01*
X76004057Y-45841839D01*
X75994840Y-45843642D01*
X75945891Y-45852980D01*
X75878205Y-45865669D01*
X75799478Y-45880273D01*
X75717400Y-45895355D01*
X75685078Y-45901422D01*
X75612855Y-45916181D01*
X75552666Y-45930137D01*
X75510040Y-45941952D01*
X75490510Y-45950287D01*
X75481660Y-45963905D01*
X75465548Y-45999938D01*
X75449065Y-46046572D01*
X75443263Y-46064034D01*
X75421906Y-46121358D01*
X75394359Y-46189201D01*
X75365107Y-46256355D01*
X75349463Y-46291430D01*
X75327174Y-46343822D01*
X75311857Y-46383058D01*
X75306162Y-46402563D01*
X75306478Y-46404036D01*
X75317281Y-46424729D01*
X75341638Y-46464665D01*
X75377081Y-46519972D01*
X75421136Y-46586781D01*
X75471332Y-46661220D01*
X75636501Y-46903623D01*
X75419503Y-47120983D01*
X75398516Y-47141899D01*
X75334342Y-47204505D01*
X75276990Y-47258495D01*
X75229820Y-47300826D01*
X75196192Y-47328457D01*
X75179467Y-47338343D01*
X75161303Y-47330821D01*
X75123265Y-47309227D01*
X75069726Y-47276151D01*
X75004884Y-47234191D01*
X74932940Y-47185943D01*
X74862275Y-47138291D01*
X74798526Y-47096328D01*
X74746513Y-47063165D01*
X74710279Y-47041378D01*
X74693867Y-47033543D01*
X74692905Y-47033614D01*
X74671103Y-47041338D01*
X74632440Y-47059323D01*
X74584612Y-47084013D01*
X74584110Y-47084284D01*
X74520587Y-47116099D01*
X74477060Y-47131642D01*
X74450052Y-47131685D01*
X74436090Y-47117000D01*
X74430180Y-47102544D01*
X74414229Y-47063831D01*
X74389660Y-47004316D01*
X74357779Y-46927165D01*
X74319893Y-46835541D01*
X74277310Y-46732607D01*
X74231337Y-46621526D01*
X74189667Y-46520472D01*
X74147268Y-46416780D01*
X74109756Y-46324119D01*
X74078388Y-46245642D01*
X74054425Y-46184500D01*
X74039123Y-46143843D01*
X74033743Y-46126825D01*
X74044018Y-46111219D01*
X74072563Y-46085162D01*
X74112971Y-46054887D01*
X74209979Y-45975684D01*
X74296793Y-45874475D01*
X74360322Y-45763116D01*
X74400177Y-45644893D01*
X74415965Y-45523095D01*
X74407296Y-45401010D01*
X74373778Y-45281925D01*
X74315021Y-45169129D01*
X74230632Y-45065911D01*
X74186631Y-45025713D01*
X74081211Y-44954638D01*
X73968410Y-44908301D01*
X73851525Y-44885599D01*
X73733853Y-44885428D01*
X73618690Y-44906687D01*
X73509335Y-44948270D01*
X73409083Y-45009076D01*
X73321233Y-45088001D01*
X73249080Y-45183941D01*
X73195922Y-45295795D01*
X73165057Y-45422457D01*
X73159392Y-45483507D01*
X73167185Y-45615776D01*
X73202284Y-45741266D01*
X73263649Y-45857759D01*
X73350243Y-45963039D01*
X73461029Y-46054887D01*
X73499931Y-46083930D01*
X73529104Y-46110272D01*
X73540257Y-46126800D01*
X73535810Y-46141209D01*
X73521378Y-46179815D01*
X73498173Y-46239201D01*
X73467452Y-46316215D01*
X73430474Y-46407703D01*
X73388496Y-46510516D01*
X73342778Y-46621502D01*
X73301178Y-46722072D01*
X73258222Y-46825947D01*
X73219829Y-46918819D01*
X73187305Y-46997525D01*
X73161958Y-47058899D01*
X73145095Y-47099779D01*
X73138025Y-47117000D01*
X73137943Y-47117204D01*
X73123798Y-47131745D01*
X73096659Y-47131579D01*
X73053023Y-47115927D01*
X72989388Y-47084013D01*
X72984379Y-47081326D01*
X72937125Y-47057150D01*
X72899811Y-47040037D01*
X72880133Y-47033543D01*
X72864005Y-47041218D01*
X72827959Y-47062871D01*
X72776092Y-47095928D01*
X72712445Y-47137810D01*
X72641060Y-47185943D01*
X72570724Y-47233131D01*
X72505670Y-47275267D01*
X72451820Y-47308578D01*
X72413374Y-47330469D01*
X72394534Y-47338343D01*
X72391325Y-47337343D01*
X72368954Y-47321584D01*
X72330733Y-47289033D01*
X72280021Y-47242733D01*
X72220181Y-47185726D01*
X72154571Y-47121058D01*
X71937648Y-46903772D01*
X72106601Y-46655253D01*
X72275553Y-46406733D01*
X72224183Y-46295595D01*
X72224031Y-46295266D01*
X72193183Y-46224418D01*
X72161661Y-46145523D01*
X72136266Y-46075600D01*
X72132423Y-46064322D01*
X72113047Y-46011967D01*
X72095574Y-45971283D01*
X72083388Y-45950287D01*
X72078426Y-45947322D01*
X72048634Y-45937375D01*
X71998047Y-45924505D01*
X71932194Y-45910053D01*
X71856600Y-45895355D01*
X71833957Y-45891210D01*
X71752038Y-45876116D01*
X71675600Y-45861899D01*
X71612337Y-45849995D01*
X71569943Y-45841839D01*
X71493743Y-45826799D01*
X71493743Y-45509492D01*
X71493760Y-45470476D01*
X71494082Y-45375292D01*
X71495033Y-45304255D01*
X71496896Y-45253734D01*
X71499955Y-45220098D01*
X71504494Y-45199718D01*
X71510795Y-45188962D01*
X71519143Y-45184199D01*
X71527224Y-45182270D01*
X71560172Y-45175445D01*
X71612736Y-45165022D01*
X71679569Y-45152018D01*
X71755328Y-45137449D01*
X71834665Y-45122333D01*
X71912237Y-45107685D01*
X71982698Y-45094523D01*
X72040702Y-45083863D01*
X72080904Y-45076721D01*
X72097959Y-45074114D01*
X72099112Y-45072541D01*
X72108385Y-45052119D01*
X72124432Y-45013045D01*
X72144635Y-44961629D01*
X72172672Y-44892353D01*
X72207186Y-44812290D01*
X72239538Y-44741728D01*
X72246952Y-44725889D01*
X72267755Y-44676293D01*
X72280219Y-44638038D01*
X72281863Y-44618356D01*
X72281015Y-44616962D01*
X72267548Y-44596420D01*
X72240850Y-44556516D01*
X72203539Y-44501140D01*
X72158234Y-44434177D01*
X72107552Y-44359517D01*
X72050445Y-44274692D01*
X72007607Y-44208800D01*
X71978460Y-44160478D01*
X71961317Y-44126733D01*
X71954495Y-44104572D01*
X71956306Y-44091002D01*
X71956915Y-44089984D01*
X71973297Y-44070210D01*
X72006695Y-44034175D01*
X72053671Y-43985451D01*
X72110786Y-43927612D01*
X72174603Y-43864227D01*
X72240802Y-43799905D01*
X72305648Y-43739447D01*
X72353299Y-43698655D01*
X72384990Y-43676484D01*
X72401958Y-43671889D01*
X72404175Y-43672921D01*
X72427524Y-43686837D01*
X72469912Y-43714030D01*
X72527369Y-43751889D01*
X72595923Y-43797803D01*
X72671601Y-43849160D01*
X72918298Y-44017626D01*
X73029706Y-43967062D01*
X73032943Y-43965597D01*
X73101343Y-43935965D01*
X73173907Y-43906493D01*
X73235457Y-43883358D01*
X73235729Y-43883262D01*
X73284595Y-43865367D01*
X73322212Y-43850253D01*
X73340457Y-43841184D01*
X73340752Y-43840855D01*
X73346946Y-43822282D01*
X73357139Y-43780045D01*
X73370348Y-43718696D01*
X73385590Y-43642789D01*
X73401881Y-43556875D01*
X73402449Y-43553796D01*
X73418713Y-43466128D01*
X73433608Y-43386741D01*
X73446171Y-43320701D01*
X73455438Y-43273079D01*
X73460444Y-43248943D01*
X73460764Y-43247605D01*
X73464060Y-43237273D01*
X73470738Y-43229506D01*
X73484462Y-43223940D01*
X73508895Y-43220207D01*
X73547702Y-43217942D01*
X73604546Y-43216778D01*
X73683090Y-43216348D01*
X73787000Y-43216286D01*
X73800056Y-43216286D01*
X73900933Y-43216371D01*
G36*
X73900933Y-43216371D02*
G01*
X73976856Y-43216865D01*
X74031491Y-43218135D01*
X74068500Y-43220547D01*
X74091547Y-43224467D01*
X74104296Y-43230262D01*
X74110411Y-43238299D01*
X74113556Y-43248943D01*
X74113646Y-43249325D01*
X74118814Y-43274347D01*
X74128209Y-43322681D01*
X74140867Y-43389260D01*
X74155825Y-43469014D01*
X74172119Y-43556875D01*
X74173448Y-43564064D01*
X74189691Y-43649340D01*
X74204805Y-43724242D01*
X74217808Y-43784219D01*
X74227715Y-43824717D01*
X74233544Y-43841184D01*
X74233575Y-43841210D01*
X74251943Y-43850320D01*
X74289640Y-43865457D01*
X74338543Y-43883358D01*
X74341297Y-43884330D01*
X74403817Y-43907959D01*
X74476543Y-43937595D01*
X74544294Y-43967062D01*
X74655703Y-44017626D01*
X74902399Y-43849160D01*
X74919775Y-43837311D01*
X74994202Y-43786947D01*
X75060614Y-43742612D01*
X75115039Y-43706916D01*
X75153506Y-43682471D01*
X75172042Y-43671889D01*
X75184743Y-43674315D01*
X75213579Y-43693110D01*
X75258143Y-43730330D01*
X75319670Y-43787020D01*
X75399398Y-43864227D01*
X75406532Y-43871255D01*
X75469796Y-43934222D01*
X75525990Y-43991268D01*
X75571677Y-44038817D01*
X75603414Y-44073297D01*
X75617764Y-44091131D01*
X75617810Y-44091217D01*
X75619633Y-44104795D01*
X75612910Y-44126820D01*
X75595946Y-44160304D01*
X75567044Y-44208261D01*
X75524508Y-44273704D01*
X75466644Y-44359645D01*
X75456783Y-44374151D01*
X75406913Y-44447635D01*
X75362905Y-44512687D01*
X75327380Y-44565417D01*
X75302959Y-44601936D01*
X75292264Y-44618356D01*
X75291458Y-44621834D01*
X75296518Y-44647785D01*
X75311677Y-44690159D01*
X75334463Y-44741728D01*
X75365429Y-44809170D01*
X75400004Y-44889195D01*
X75429366Y-44961629D01*
X75436645Y-44980377D01*
X75455710Y-45028246D01*
X75469715Y-45061596D01*
X75476041Y-45074114D01*
X75483025Y-45075050D01*
X75514413Y-45080461D01*
X75565787Y-45089806D01*
X75631802Y-45102069D01*
X75707113Y-45116232D01*
X75786375Y-45131280D01*
X75864243Y-45146195D01*
X75935370Y-45159961D01*
X75994412Y-45171562D01*
X76036022Y-45179980D01*
X76054857Y-45184199D01*
X76057980Y-45185389D01*
X76065591Y-45191805D01*
X76071254Y-45205465D01*
X76075251Y-45229999D01*
X76077866Y-45269038D01*
X76079384Y-45326213D01*
X76080086Y-45405154D01*
X76080257Y-45509492D01*
X76080257Y-45826799D01*
X76004057Y-45841839D01*
X75994840Y-45843642D01*
X75945891Y-45852980D01*
X75878205Y-45865669D01*
X75799478Y-45880273D01*
X75717400Y-45895355D01*
X75685078Y-45901422D01*
X75612855Y-45916181D01*
X75552666Y-45930137D01*
X75510040Y-45941952D01*
X75490510Y-45950287D01*
X75481660Y-45963905D01*
X75465548Y-45999938D01*
X75449065Y-46046572D01*
X75443263Y-46064034D01*
X75421906Y-46121358D01*
X75394359Y-46189201D01*
X75365107Y-46256355D01*
X75349463Y-46291430D01*
X75327174Y-46343822D01*
X75311857Y-46383058D01*
X75306162Y-46402563D01*
X75306478Y-46404036D01*
X75317281Y-46424729D01*
X75341638Y-46464665D01*
X75377081Y-46519972D01*
X75421136Y-46586781D01*
X75471332Y-46661220D01*
X75636501Y-46903623D01*
X75419503Y-47120983D01*
X75398516Y-47141899D01*
X75334342Y-47204505D01*
X75276990Y-47258495D01*
X75229820Y-47300826D01*
X75196192Y-47328457D01*
X75179467Y-47338343D01*
X75161303Y-47330821D01*
X75123265Y-47309227D01*
X75069726Y-47276151D01*
X75004884Y-47234191D01*
X74932940Y-47185943D01*
X74862275Y-47138291D01*
X74798526Y-47096328D01*
X74746513Y-47063165D01*
X74710279Y-47041378D01*
X74693867Y-47033543D01*
X74692905Y-47033614D01*
X74671103Y-47041338D01*
X74632440Y-47059323D01*
X74584612Y-47084013D01*
X74584110Y-47084284D01*
X74520587Y-47116099D01*
X74477060Y-47131642D01*
X74450052Y-47131685D01*
X74436090Y-47117000D01*
X74430180Y-47102544D01*
X74414229Y-47063831D01*
X74389660Y-47004316D01*
X74357779Y-46927165D01*
X74319893Y-46835541D01*
X74277310Y-46732607D01*
X74231337Y-46621526D01*
X74189667Y-46520472D01*
X74147268Y-46416780D01*
X74109756Y-46324119D01*
X74078388Y-46245642D01*
X74054425Y-46184500D01*
X74039123Y-46143843D01*
X74033743Y-46126825D01*
X74044018Y-46111219D01*
X74072563Y-46085162D01*
X74112971Y-46054887D01*
X74209979Y-45975684D01*
X74296793Y-45874475D01*
X74360322Y-45763116D01*
X74400177Y-45644893D01*
X74415965Y-45523095D01*
X74407296Y-45401010D01*
X74373778Y-45281925D01*
X74315021Y-45169129D01*
X74230632Y-45065911D01*
X74186631Y-45025713D01*
X74081211Y-44954638D01*
X73968410Y-44908301D01*
X73851525Y-44885599D01*
X73733853Y-44885428D01*
X73618690Y-44906687D01*
X73509335Y-44948270D01*
X73409083Y-45009076D01*
X73321233Y-45088001D01*
X73249080Y-45183941D01*
X73195922Y-45295795D01*
X73165057Y-45422457D01*
X73159392Y-45483507D01*
X73167185Y-45615776D01*
X73202284Y-45741266D01*
X73263649Y-45857759D01*
X73350243Y-45963039D01*
X73461029Y-46054887D01*
X73499931Y-46083930D01*
X73529104Y-46110272D01*
X73540257Y-46126800D01*
X73535810Y-46141209D01*
X73521378Y-46179815D01*
X73498173Y-46239201D01*
X73467452Y-46316215D01*
X73430474Y-46407703D01*
X73388496Y-46510516D01*
X73342778Y-46621502D01*
X73301178Y-46722072D01*
X73258222Y-46825947D01*
X73219829Y-46918819D01*
X73187305Y-46997525D01*
X73161958Y-47058899D01*
X73145095Y-47099779D01*
X73138025Y-47117000D01*
X73137943Y-47117204D01*
X73123798Y-47131745D01*
X73096659Y-47131579D01*
X73053023Y-47115927D01*
X72989388Y-47084013D01*
X72984379Y-47081326D01*
X72937125Y-47057150D01*
X72899811Y-47040037D01*
X72880133Y-47033543D01*
X72864005Y-47041218D01*
X72827959Y-47062871D01*
X72776092Y-47095928D01*
X72712445Y-47137810D01*
X72641060Y-47185943D01*
X72570724Y-47233131D01*
X72505670Y-47275267D01*
X72451820Y-47308578D01*
X72413374Y-47330469D01*
X72394534Y-47338343D01*
X72391325Y-47337343D01*
X72368954Y-47321584D01*
X72330733Y-47289033D01*
X72280021Y-47242733D01*
X72220181Y-47185726D01*
X72154571Y-47121058D01*
X71937648Y-46903772D01*
X72106601Y-46655253D01*
X72275553Y-46406733D01*
X72224183Y-46295595D01*
X72224031Y-46295266D01*
X72193183Y-46224418D01*
X72161661Y-46145523D01*
X72136266Y-46075600D01*
X72132423Y-46064322D01*
X72113047Y-46011967D01*
X72095574Y-45971283D01*
X72083388Y-45950287D01*
X72078426Y-45947322D01*
X72048634Y-45937375D01*
X71998047Y-45924505D01*
X71932194Y-45910053D01*
X71856600Y-45895355D01*
X71833957Y-45891210D01*
X71752038Y-45876116D01*
X71675600Y-45861899D01*
X71612337Y-45849995D01*
X71569943Y-45841839D01*
X71493743Y-45826799D01*
X71493743Y-45509492D01*
X71493760Y-45470476D01*
X71494082Y-45375292D01*
X71495033Y-45304255D01*
X71496896Y-45253734D01*
X71499955Y-45220098D01*
X71504494Y-45199718D01*
X71510795Y-45188962D01*
X71519143Y-45184199D01*
X71527224Y-45182270D01*
X71560172Y-45175445D01*
X71612736Y-45165022D01*
X71679569Y-45152018D01*
X71755328Y-45137449D01*
X71834665Y-45122333D01*
X71912237Y-45107685D01*
X71982698Y-45094523D01*
X72040702Y-45083863D01*
X72080904Y-45076721D01*
X72097959Y-45074114D01*
X72099112Y-45072541D01*
X72108385Y-45052119D01*
X72124432Y-45013045D01*
X72144635Y-44961629D01*
X72172672Y-44892353D01*
X72207186Y-44812290D01*
X72239538Y-44741728D01*
X72246952Y-44725889D01*
X72267755Y-44676293D01*
X72280219Y-44638038D01*
X72281863Y-44618356D01*
X72281015Y-44616962D01*
X72267548Y-44596420D01*
X72240850Y-44556516D01*
X72203539Y-44501140D01*
X72158234Y-44434177D01*
X72107552Y-44359517D01*
X72050445Y-44274692D01*
X72007607Y-44208800D01*
X71978460Y-44160478D01*
X71961317Y-44126733D01*
X71954495Y-44104572D01*
X71956306Y-44091002D01*
X71956915Y-44089984D01*
X71973297Y-44070210D01*
X72006695Y-44034175D01*
X72053671Y-43985451D01*
X72110786Y-43927612D01*
X72174603Y-43864227D01*
X72240802Y-43799905D01*
X72305648Y-43739447D01*
X72353299Y-43698655D01*
X72384990Y-43676484D01*
X72401958Y-43671889D01*
X72404175Y-43672921D01*
X72427524Y-43686837D01*
X72469912Y-43714030D01*
X72527369Y-43751889D01*
X72595923Y-43797803D01*
X72671601Y-43849160D01*
X72918298Y-44017626D01*
X73029706Y-43967062D01*
X73032943Y-43965597D01*
X73101343Y-43935965D01*
X73173907Y-43906493D01*
X73235457Y-43883358D01*
X73235729Y-43883262D01*
X73284595Y-43865367D01*
X73322212Y-43850253D01*
X73340457Y-43841184D01*
X73340752Y-43840855D01*
X73346946Y-43822282D01*
X73357139Y-43780045D01*
X73370348Y-43718696D01*
X73385590Y-43642789D01*
X73401881Y-43556875D01*
X73402449Y-43553796D01*
X73418713Y-43466128D01*
X73433608Y-43386741D01*
X73446171Y-43320701D01*
X73455438Y-43273079D01*
X73460444Y-43248943D01*
X73460764Y-43247605D01*
X73464060Y-43237273D01*
X73470738Y-43229506D01*
X73484462Y-43223940D01*
X73508895Y-43220207D01*
X73547702Y-43217942D01*
X73604546Y-43216778D01*
X73683090Y-43216348D01*
X73787000Y-43216286D01*
X73800056Y-43216286D01*
X73900933Y-43216371D01*
G37*
%TD*%
%LPC*%
D13*
%TO.C,IO*%
X63881000Y-55650000D03*
D14*
X63881000Y-56920000D03*
X63881000Y-58190000D03*
X63881000Y-59460000D03*
X63881000Y-60730000D03*
X63881000Y-62000000D03*
%TD*%
D15*
%TO.C,H2*%
X85250000Y-44750000D03*
D16*
X85250000Y-44750000D03*
%TD*%
D17*
%TO.C,D*%
X67818000Y-82296000D03*
D18*
X67818000Y-84836000D03*
X67818000Y-87376000D03*
%TD*%
D15*
%TO.C,H1*%
X63250000Y-44750000D03*
D16*
X63250000Y-44750000D03*
%TD*%
D15*
%TO.C,H3*%
X63246000Y-86868000D03*
D16*
X63246000Y-86868000D03*
%TD*%
D19*
%TO.C,J3*%
X73310000Y-84268000D03*
X79090000Y-84268000D03*
D20*
X80520000Y-87918000D03*
D21*
X80520000Y-83738000D03*
D20*
X71880000Y-87918000D03*
D21*
X71880000Y-83738000D03*
%TD*%
D15*
%TO.C,H4*%
X85217000Y-86868000D03*
D16*
X85217000Y-86868000D03*
%TD*%
D13*
%TO.C,IO*%
X69500000Y-53420000D03*
D14*
X69500000Y-54690000D03*
X69500000Y-55960000D03*
X69500000Y-57230000D03*
X69500000Y-58500000D03*
X69500000Y-59770000D03*
%TD*%
D13*
%TO.C,IO*%
X77724000Y-59944000D03*
D14*
X77724000Y-58674000D03*
X77724000Y-57404000D03*
X77724000Y-56134000D03*
X77724000Y-54864000D03*
X77724000Y-53594000D03*
%TD*%
%LPD*%
M02*
